G04 #@! TF.GenerationSoftware,KiCad,Pcbnew,5.0.2-bee76a0~70~ubuntu18.04.1*
G04 #@! TF.CreationDate,2019-12-02T13:59:34+01:00*
G04 #@! TF.ProjectId,current_sense_tli4970,63757272-656e-4745-9f73-656e73655f74,rev?*
G04 #@! TF.SameCoordinates,Original*
G04 #@! TF.FileFunction,Copper,L1,Top*
G04 #@! TF.FilePolarity,Positive*
%FSLAX46Y46*%
G04 Gerber Fmt 4.6, Leading zero omitted, Abs format (unit mm)*
G04 Created by KiCad (PCBNEW 5.0.2-bee76a0~70~ubuntu18.04.1) date Mo 02 Dez 2019 13:59:34 CET*
%MOMM*%
%LPD*%
G01*
G04 APERTURE LIST*
G04 #@! TA.AperFunction,ComponentPad*
%ADD10C,1.600000*%
G04 #@! TD*
G04 #@! TA.AperFunction,ComponentPad*
%ADD11R,1.700000X1.700000*%
G04 #@! TD*
G04 #@! TA.AperFunction,SMDPad,CuDef*
%ADD12R,1.600000X1.500000*%
G04 #@! TD*
G04 #@! TA.AperFunction,SMDPad,CuDef*
%ADD13R,1.600000X0.500000*%
G04 #@! TD*
G04 #@! TA.AperFunction,SMDPad,CuDef*
%ADD14R,3.480000X2.400000*%
G04 #@! TD*
G04 #@! TA.AperFunction,ComponentPad*
%ADD15O,1.700000X1.700000*%
G04 #@! TD*
G04 #@! TA.AperFunction,Conductor*
%ADD16C,0.500000*%
G04 #@! TD*
G04 #@! TA.AperFunction,Conductor*
%ADD17C,2.000000*%
G04 #@! TD*
G04 #@! TA.AperFunction,Conductor*
%ADD18C,0.254000*%
G04 #@! TD*
G04 APERTURE END LIST*
D10*
G04 #@! TO.P,C1,1*
G04 #@! TO.N,+3V3*
X16000000Y-3300000D03*
G04 #@! TO.P,C1,2*
G04 #@! TO.N,GND*
X11000000Y-3300000D03*
G04 #@! TD*
G04 #@! TO.P,C2,2*
G04 #@! TO.N,GND*
X11000000Y-17600000D03*
G04 #@! TO.P,C2,1*
G04 #@! TO.N,+3V3*
X16000000Y-17600000D03*
G04 #@! TD*
D11*
G04 #@! TO.P,J3,1*
G04 #@! TO.N,Net-(J3-Pad1)*
X22000000Y-12400000D03*
G04 #@! TD*
G04 #@! TO.P,J4,1*
G04 #@! TO.N,Net-(J4-Pad1)*
X22000000Y-6000000D03*
G04 #@! TD*
G04 #@! TO.P,J5,1*
G04 #@! TO.N,Net-(J5-Pad1)*
X21900000Y-27600000D03*
G04 #@! TD*
G04 #@! TO.P,J6,1*
G04 #@! TO.N,Net-(J6-Pad1)*
X22000000Y-20400000D03*
G04 #@! TD*
D12*
G04 #@! TO.P,U1,1*
G04 #@! TO.N,GND*
X10350000Y-7100000D03*
D13*
G04 #@! TO.P,U1,2*
G04 #@! TO.N,+3V3*
X10350000Y-8400000D03*
G04 #@! TO.P,U1,3*
G04 #@! TO.N,Net-(J1-Pad4)*
X10350000Y-9200000D03*
G04 #@! TO.P,U1,4*
G04 #@! TO.N,Net-(J1-Pad3)*
X10350000Y-10000000D03*
G04 #@! TO.P,U1,5*
G04 #@! TO.N,Net-(J1-Pad2)*
X10350000Y-10800000D03*
D12*
G04 #@! TO.P,U1,6*
G04 #@! TO.N,Net-(U1-Pad6)*
X10350000Y-12100000D03*
D14*
G04 #@! TO.P,U1,8*
G04 #@! TO.N,Net-(J4-Pad1)*
X16020000Y-7825000D03*
G04 #@! TO.P,U1,7*
G04 #@! TO.N,Net-(J3-Pad1)*
X16020000Y-11375000D03*
G04 #@! TD*
G04 #@! TO.P,U2,7*
G04 #@! TO.N,Net-(J5-Pad1)*
X16020000Y-25575000D03*
G04 #@! TO.P,U2,8*
G04 #@! TO.N,Net-(J6-Pad1)*
X16020000Y-22025000D03*
D12*
G04 #@! TO.P,U2,6*
G04 #@! TO.N,Net-(U2-Pad6)*
X10350000Y-26300000D03*
D13*
G04 #@! TO.P,U2,5*
G04 #@! TO.N,Net-(J1-Pad1)*
X10350000Y-25000000D03*
G04 #@! TO.P,U2,4*
G04 #@! TO.N,Net-(J1-Pad3)*
X10350000Y-24200000D03*
G04 #@! TO.P,U2,3*
G04 #@! TO.N,Net-(J1-Pad4)*
X10350000Y-23400000D03*
G04 #@! TO.P,U2,2*
G04 #@! TO.N,+3V3*
X10350000Y-22600000D03*
D12*
G04 #@! TO.P,U2,1*
G04 #@! TO.N,GND*
X10350000Y-21300000D03*
G04 #@! TD*
D11*
G04 #@! TO.P,J7,1*
G04 #@! TO.N,+3V3*
X3800000Y-9900000D03*
D15*
G04 #@! TO.P,J7,2*
G04 #@! TO.N,GND*
X3800000Y-7360000D03*
G04 #@! TD*
D11*
G04 #@! TO.P,J1,1*
G04 #@! TO.N,Net-(J1-Pad1)*
X3800000Y-21100000D03*
D15*
G04 #@! TO.P,J1,2*
G04 #@! TO.N,Net-(J1-Pad2)*
X3800000Y-18560000D03*
G04 #@! TO.P,J1,3*
G04 #@! TO.N,Net-(J1-Pad3)*
X3800000Y-16020000D03*
G04 #@! TO.P,J1,4*
G04 #@! TO.N,Net-(J1-Pad4)*
X3800000Y-13480000D03*
G04 #@! TD*
D16*
G04 #@! TO.N,+3V3*
X9050000Y-8400000D02*
X10350000Y-8400000D01*
X5150000Y-9900000D02*
X6650000Y-8400000D01*
X6650000Y-8400000D02*
X9050000Y-8400000D01*
X3800000Y-9900000D02*
X5150000Y-9900000D01*
X10350000Y-22600000D02*
X11650000Y-22600000D01*
X12950000Y-21300000D02*
X12950000Y-18950000D01*
X11650000Y-22600000D02*
X12950000Y-21300000D01*
X12950000Y-18650000D02*
X15000000Y-16600000D01*
X12950000Y-18950000D02*
X12950000Y-18650000D01*
X15000000Y-16600000D02*
X16000000Y-17600000D01*
X13300000Y-14900000D02*
X13500000Y-15100000D01*
X13300000Y-6000000D02*
X13300000Y-14900000D01*
X16000000Y-3300000D02*
X13300000Y-6000000D01*
X13500000Y-15100000D02*
X15000000Y-16600000D01*
X16000000Y-3300000D02*
X14868630Y-3300000D01*
X13568629Y-1999999D02*
X4400001Y-1999999D01*
X14868630Y-3300000D02*
X13568629Y-1999999D01*
X4400001Y-1999999D02*
X1900000Y-4500000D01*
X2450000Y-9900000D02*
X3800000Y-9900000D01*
X1900000Y-9350000D02*
X2450000Y-9900000D01*
X1900000Y-4500000D02*
X1900000Y-9350000D01*
G04 #@! TO.N,GND*
X10090000Y-7360000D02*
X10350000Y-7100000D01*
X3800000Y-7360000D02*
X10090000Y-7360000D01*
X10350000Y-3950000D02*
X11000000Y-3300000D01*
X10350000Y-7100000D02*
X10350000Y-3950000D01*
X11000000Y-20650000D02*
X10350000Y-21300000D01*
X11000000Y-17600000D02*
X11000000Y-20650000D01*
X11650000Y-7100000D02*
X10350000Y-7100000D01*
X12549991Y-7999991D02*
X11650000Y-7100000D01*
X12549991Y-16050009D02*
X12549991Y-7999991D01*
X11000000Y-17600000D02*
X12549991Y-16050009D01*
G04 #@! TO.N,Net-(J1-Pad1)*
X6350000Y-25000000D02*
X9050000Y-25000000D01*
X9050000Y-25000000D02*
X10350000Y-25000000D01*
X3800000Y-22450000D02*
X6350000Y-25000000D01*
X3800000Y-21100000D02*
X3800000Y-22450000D01*
G04 #@! TO.N,Net-(J1-Pad2)*
X9050000Y-10800000D02*
X8000000Y-11850000D01*
X10350000Y-10800000D02*
X9050000Y-10800000D01*
X8000000Y-14360000D02*
X3800000Y-18560000D01*
X8000000Y-11850000D02*
X8000000Y-14360000D01*
G04 #@! TO.N,Net-(J1-Pad3)*
X7020000Y-12800000D02*
X3800000Y-16020000D01*
X7100000Y-12720000D02*
X7020000Y-12800000D01*
X8400000Y-10000000D02*
X7100000Y-11300000D01*
X7100000Y-11300000D02*
X7100000Y-12720000D01*
X10350000Y-10000000D02*
X8400000Y-10000000D01*
X2000000Y-17820000D02*
X3800000Y-16020000D01*
X2000000Y-22200000D02*
X2000000Y-17820000D01*
X10350000Y-24200000D02*
X11650000Y-24200000D01*
X11650000Y-24200000D02*
X12200000Y-24750000D01*
X12200000Y-24750000D02*
X12200000Y-27500000D01*
X11600000Y-28100000D02*
X7900000Y-28100000D01*
X12200000Y-27500000D02*
X11600000Y-28100000D01*
X7900000Y-28100000D02*
X2000000Y-22200000D01*
D17*
G04 #@! TO.N,Net-(J3-Pad1)*
X17045000Y-12400000D02*
X16020000Y-11375000D01*
X22000000Y-12400000D02*
X17045000Y-12400000D01*
G04 #@! TO.N,Net-(J4-Pad1)*
X20175000Y-7825000D02*
X22000000Y-6000000D01*
X16020000Y-7825000D02*
X20175000Y-7825000D01*
G04 #@! TO.N,Net-(J5-Pad1)*
X19875000Y-25575000D02*
X21900000Y-27600000D01*
X16020000Y-25575000D02*
X19875000Y-25575000D01*
G04 #@! TO.N,Net-(J6-Pad1)*
X17645000Y-20400000D02*
X16020000Y-22025000D01*
X22000000Y-20400000D02*
X17645000Y-20400000D01*
D16*
G04 #@! TO.N,Net-(J1-Pad4)*
X8080000Y-9200000D02*
X3800000Y-13480000D01*
X10350000Y-9200000D02*
X8080000Y-9200000D01*
X11910674Y-23400000D02*
X13200000Y-24689326D01*
X10350000Y-23400000D02*
X11910674Y-23400000D01*
X13200000Y-24689326D02*
X13200000Y-28300000D01*
X13200000Y-28300000D02*
X12600000Y-28900000D01*
X12600000Y-28900000D02*
X6800000Y-28900000D01*
X2950001Y-14329999D02*
X3800000Y-13480000D01*
X1249990Y-16030010D02*
X2950001Y-14329999D01*
X1249990Y-23349990D02*
X1249990Y-16030010D01*
X6800000Y-28900000D02*
X1249990Y-23349990D01*
G04 #@! TD*
D18*
G04 #@! TO.N,GND*
G36*
X9553035Y-3083223D02*
X9580222Y-3653454D01*
X9746136Y-4054005D01*
X9992255Y-4128139D01*
X10820395Y-3300000D01*
X10806252Y-3285858D01*
X10985858Y-3106253D01*
X11000000Y-3120395D01*
X11014143Y-3106253D01*
X11193748Y-3285858D01*
X11179605Y-3300000D01*
X12007745Y-4128139D01*
X12253864Y-4054005D01*
X12446965Y-3516777D01*
X12419778Y-2946546D01*
X12394284Y-2884999D01*
X13202051Y-2884999D01*
X14181206Y-3864155D01*
X14182432Y-3865989D01*
X12735847Y-5312575D01*
X12661951Y-5361951D01*
X12466348Y-5654691D01*
X12415000Y-5912836D01*
X12415000Y-5912839D01*
X12397663Y-6000000D01*
X12415000Y-6087161D01*
X12415001Y-14812835D01*
X12397663Y-14900000D01*
X12466348Y-15245309D01*
X12612576Y-15464154D01*
X12612578Y-15464156D01*
X12661952Y-15538049D01*
X12735845Y-15587423D01*
X12812576Y-15664154D01*
X13748421Y-16600000D01*
X12399448Y-17948974D01*
X12446965Y-17816777D01*
X12419778Y-17246546D01*
X12253864Y-16845995D01*
X12007745Y-16771861D01*
X11179605Y-17600000D01*
X12007745Y-18428139D01*
X12097149Y-18401209D01*
X12065000Y-18562835D01*
X12065000Y-18562839D01*
X12047663Y-18650000D01*
X12065000Y-18737161D01*
X12065000Y-19037164D01*
X12065001Y-19037169D01*
X12065000Y-20933421D01*
X11785000Y-21213422D01*
X11785000Y-21172998D01*
X11626252Y-21172998D01*
X11785000Y-21014250D01*
X11785000Y-20423691D01*
X11688327Y-20190302D01*
X11509699Y-20011673D01*
X11276310Y-19915000D01*
X10635750Y-19915000D01*
X10477000Y-20073750D01*
X10477000Y-21173000D01*
X10497000Y-21173000D01*
X10497000Y-21427000D01*
X10477000Y-21427000D01*
X10477000Y-21447000D01*
X10223000Y-21447000D01*
X10223000Y-21427000D01*
X9073750Y-21427000D01*
X8915000Y-21585750D01*
X8915000Y-22176309D01*
X8929936Y-22212368D01*
X8902560Y-22350000D01*
X8902560Y-22850000D01*
X8932397Y-23000000D01*
X8902560Y-23150000D01*
X8902560Y-23650000D01*
X8932397Y-23800000D01*
X8902560Y-23950000D01*
X8902560Y-24115000D01*
X6716579Y-24115000D01*
X5048810Y-22447231D01*
X5107809Y-22407809D01*
X5248157Y-22197765D01*
X5297440Y-21950000D01*
X5297440Y-20423691D01*
X8915000Y-20423691D01*
X8915000Y-21014250D01*
X9073750Y-21173000D01*
X10223000Y-21173000D01*
X10223000Y-20073750D01*
X10064250Y-19915000D01*
X9423690Y-19915000D01*
X9190301Y-20011673D01*
X9011673Y-20190302D01*
X8915000Y-20423691D01*
X5297440Y-20423691D01*
X5297440Y-20250000D01*
X5248157Y-20002235D01*
X5107809Y-19792191D01*
X4897765Y-19651843D01*
X4852381Y-19642816D01*
X4870625Y-19630625D01*
X5198839Y-19139418D01*
X5304594Y-18607745D01*
X10171861Y-18607745D01*
X10245995Y-18853864D01*
X10783223Y-19046965D01*
X11353454Y-19019778D01*
X11754005Y-18853864D01*
X11828139Y-18607745D01*
X11000000Y-17779605D01*
X10171861Y-18607745D01*
X5304594Y-18607745D01*
X5314092Y-18560000D01*
X5270538Y-18341040D01*
X6228355Y-17383223D01*
X9553035Y-17383223D01*
X9580222Y-17953454D01*
X9746136Y-18354005D01*
X9992255Y-18428139D01*
X10820395Y-17600000D01*
X9992255Y-16771861D01*
X9746136Y-16845995D01*
X9553035Y-17383223D01*
X6228355Y-17383223D01*
X7019323Y-16592255D01*
X10171861Y-16592255D01*
X11000000Y-17420395D01*
X11828139Y-16592255D01*
X11754005Y-16346136D01*
X11216777Y-16153035D01*
X10646546Y-16180222D01*
X10245995Y-16346136D01*
X10171861Y-16592255D01*
X7019323Y-16592255D01*
X8564156Y-15047423D01*
X8638049Y-14998049D01*
X8800657Y-14754691D01*
X8833652Y-14705310D01*
X8885000Y-14447165D01*
X8885000Y-14447161D01*
X8902337Y-14360000D01*
X8885000Y-14272839D01*
X8885000Y-12216578D01*
X8902560Y-12199018D01*
X8902560Y-12850000D01*
X8951843Y-13097765D01*
X9092191Y-13307809D01*
X9302235Y-13448157D01*
X9550000Y-13497440D01*
X11150000Y-13497440D01*
X11397765Y-13448157D01*
X11607809Y-13307809D01*
X11748157Y-13097765D01*
X11797440Y-12850000D01*
X11797440Y-11350000D01*
X11767603Y-11200000D01*
X11797440Y-11050000D01*
X11797440Y-10550000D01*
X11767603Y-10400000D01*
X11797440Y-10250000D01*
X11797440Y-9750000D01*
X11767603Y-9600000D01*
X11797440Y-9450000D01*
X11797440Y-8950000D01*
X11767603Y-8800000D01*
X11797440Y-8650000D01*
X11797440Y-8150000D01*
X11770064Y-8012368D01*
X11785000Y-7976309D01*
X11785000Y-7385750D01*
X11626250Y-7227000D01*
X10477000Y-7227000D01*
X10477000Y-7247000D01*
X10223000Y-7247000D01*
X10223000Y-7227000D01*
X9073750Y-7227000D01*
X8915000Y-7385750D01*
X8915000Y-7515000D01*
X6737159Y-7515000D01*
X6649999Y-7497663D01*
X6562839Y-7515000D01*
X6562835Y-7515000D01*
X6304690Y-7566348D01*
X6304688Y-7566349D01*
X6304689Y-7566349D01*
X6085845Y-7712576D01*
X6085844Y-7712577D01*
X6011951Y-7761951D01*
X5962577Y-7835844D01*
X5147231Y-8651190D01*
X5107809Y-8592191D01*
X4897765Y-8451843D01*
X4794292Y-8431261D01*
X5071645Y-8126924D01*
X5241476Y-7716890D01*
X5120155Y-7487000D01*
X3927000Y-7487000D01*
X3927000Y-7507000D01*
X3673000Y-7507000D01*
X3673000Y-7487000D01*
X3653000Y-7487000D01*
X3653000Y-7233000D01*
X3673000Y-7233000D01*
X3673000Y-6039181D01*
X3927000Y-6039181D01*
X3927000Y-7233000D01*
X5120155Y-7233000D01*
X5241476Y-7003110D01*
X5071645Y-6593076D01*
X4735012Y-6223691D01*
X8915000Y-6223691D01*
X8915000Y-6814250D01*
X9073750Y-6973000D01*
X10223000Y-6973000D01*
X10223000Y-5873750D01*
X10477000Y-5873750D01*
X10477000Y-6973000D01*
X11626250Y-6973000D01*
X11785000Y-6814250D01*
X11785000Y-6223691D01*
X11688327Y-5990302D01*
X11509699Y-5811673D01*
X11276310Y-5715000D01*
X10635750Y-5715000D01*
X10477000Y-5873750D01*
X10223000Y-5873750D01*
X10064250Y-5715000D01*
X9423690Y-5715000D01*
X9190301Y-5811673D01*
X9011673Y-5990302D01*
X8915000Y-6223691D01*
X4735012Y-6223691D01*
X4681358Y-6164817D01*
X4156892Y-5918514D01*
X3927000Y-6039181D01*
X3673000Y-6039181D01*
X3443108Y-5918514D01*
X2918642Y-6164817D01*
X2785000Y-6311461D01*
X2785000Y-4866578D01*
X3343833Y-4307745D01*
X10171861Y-4307745D01*
X10245995Y-4553864D01*
X10783223Y-4746965D01*
X11353454Y-4719778D01*
X11754005Y-4553864D01*
X11828139Y-4307745D01*
X11000000Y-3479605D01*
X10171861Y-4307745D01*
X3343833Y-4307745D01*
X4766580Y-2884999D01*
X9624285Y-2884999D01*
X9553035Y-3083223D01*
X9553035Y-3083223D01*
G37*
X9553035Y-3083223D02*
X9580222Y-3653454D01*
X9746136Y-4054005D01*
X9992255Y-4128139D01*
X10820395Y-3300000D01*
X10806252Y-3285858D01*
X10985858Y-3106253D01*
X11000000Y-3120395D01*
X11014143Y-3106253D01*
X11193748Y-3285858D01*
X11179605Y-3300000D01*
X12007745Y-4128139D01*
X12253864Y-4054005D01*
X12446965Y-3516777D01*
X12419778Y-2946546D01*
X12394284Y-2884999D01*
X13202051Y-2884999D01*
X14181206Y-3864155D01*
X14182432Y-3865989D01*
X12735847Y-5312575D01*
X12661951Y-5361951D01*
X12466348Y-5654691D01*
X12415000Y-5912836D01*
X12415000Y-5912839D01*
X12397663Y-6000000D01*
X12415000Y-6087161D01*
X12415001Y-14812835D01*
X12397663Y-14900000D01*
X12466348Y-15245309D01*
X12612576Y-15464154D01*
X12612578Y-15464156D01*
X12661952Y-15538049D01*
X12735845Y-15587423D01*
X12812576Y-15664154D01*
X13748421Y-16600000D01*
X12399448Y-17948974D01*
X12446965Y-17816777D01*
X12419778Y-17246546D01*
X12253864Y-16845995D01*
X12007745Y-16771861D01*
X11179605Y-17600000D01*
X12007745Y-18428139D01*
X12097149Y-18401209D01*
X12065000Y-18562835D01*
X12065000Y-18562839D01*
X12047663Y-18650000D01*
X12065000Y-18737161D01*
X12065000Y-19037164D01*
X12065001Y-19037169D01*
X12065000Y-20933421D01*
X11785000Y-21213422D01*
X11785000Y-21172998D01*
X11626252Y-21172998D01*
X11785000Y-21014250D01*
X11785000Y-20423691D01*
X11688327Y-20190302D01*
X11509699Y-20011673D01*
X11276310Y-19915000D01*
X10635750Y-19915000D01*
X10477000Y-20073750D01*
X10477000Y-21173000D01*
X10497000Y-21173000D01*
X10497000Y-21427000D01*
X10477000Y-21427000D01*
X10477000Y-21447000D01*
X10223000Y-21447000D01*
X10223000Y-21427000D01*
X9073750Y-21427000D01*
X8915000Y-21585750D01*
X8915000Y-22176309D01*
X8929936Y-22212368D01*
X8902560Y-22350000D01*
X8902560Y-22850000D01*
X8932397Y-23000000D01*
X8902560Y-23150000D01*
X8902560Y-23650000D01*
X8932397Y-23800000D01*
X8902560Y-23950000D01*
X8902560Y-24115000D01*
X6716579Y-24115000D01*
X5048810Y-22447231D01*
X5107809Y-22407809D01*
X5248157Y-22197765D01*
X5297440Y-21950000D01*
X5297440Y-20423691D01*
X8915000Y-20423691D01*
X8915000Y-21014250D01*
X9073750Y-21173000D01*
X10223000Y-21173000D01*
X10223000Y-20073750D01*
X10064250Y-19915000D01*
X9423690Y-19915000D01*
X9190301Y-20011673D01*
X9011673Y-20190302D01*
X8915000Y-20423691D01*
X5297440Y-20423691D01*
X5297440Y-20250000D01*
X5248157Y-20002235D01*
X5107809Y-19792191D01*
X4897765Y-19651843D01*
X4852381Y-19642816D01*
X4870625Y-19630625D01*
X5198839Y-19139418D01*
X5304594Y-18607745D01*
X10171861Y-18607745D01*
X10245995Y-18853864D01*
X10783223Y-19046965D01*
X11353454Y-19019778D01*
X11754005Y-18853864D01*
X11828139Y-18607745D01*
X11000000Y-17779605D01*
X10171861Y-18607745D01*
X5304594Y-18607745D01*
X5314092Y-18560000D01*
X5270538Y-18341040D01*
X6228355Y-17383223D01*
X9553035Y-17383223D01*
X9580222Y-17953454D01*
X9746136Y-18354005D01*
X9992255Y-18428139D01*
X10820395Y-17600000D01*
X9992255Y-16771861D01*
X9746136Y-16845995D01*
X9553035Y-17383223D01*
X6228355Y-17383223D01*
X7019323Y-16592255D01*
X10171861Y-16592255D01*
X11000000Y-17420395D01*
X11828139Y-16592255D01*
X11754005Y-16346136D01*
X11216777Y-16153035D01*
X10646546Y-16180222D01*
X10245995Y-16346136D01*
X10171861Y-16592255D01*
X7019323Y-16592255D01*
X8564156Y-15047423D01*
X8638049Y-14998049D01*
X8800657Y-14754691D01*
X8833652Y-14705310D01*
X8885000Y-14447165D01*
X8885000Y-14447161D01*
X8902337Y-14360000D01*
X8885000Y-14272839D01*
X8885000Y-12216578D01*
X8902560Y-12199018D01*
X8902560Y-12850000D01*
X8951843Y-13097765D01*
X9092191Y-13307809D01*
X9302235Y-13448157D01*
X9550000Y-13497440D01*
X11150000Y-13497440D01*
X11397765Y-13448157D01*
X11607809Y-13307809D01*
X11748157Y-13097765D01*
X11797440Y-12850000D01*
X11797440Y-11350000D01*
X11767603Y-11200000D01*
X11797440Y-11050000D01*
X11797440Y-10550000D01*
X11767603Y-10400000D01*
X11797440Y-10250000D01*
X11797440Y-9750000D01*
X11767603Y-9600000D01*
X11797440Y-9450000D01*
X11797440Y-8950000D01*
X11767603Y-8800000D01*
X11797440Y-8650000D01*
X11797440Y-8150000D01*
X11770064Y-8012368D01*
X11785000Y-7976309D01*
X11785000Y-7385750D01*
X11626250Y-7227000D01*
X10477000Y-7227000D01*
X10477000Y-7247000D01*
X10223000Y-7247000D01*
X10223000Y-7227000D01*
X9073750Y-7227000D01*
X8915000Y-7385750D01*
X8915000Y-7515000D01*
X6737159Y-7515000D01*
X6649999Y-7497663D01*
X6562839Y-7515000D01*
X6562835Y-7515000D01*
X6304690Y-7566348D01*
X6304688Y-7566349D01*
X6304689Y-7566349D01*
X6085845Y-7712576D01*
X6085844Y-7712577D01*
X6011951Y-7761951D01*
X5962577Y-7835844D01*
X5147231Y-8651190D01*
X5107809Y-8592191D01*
X4897765Y-8451843D01*
X4794292Y-8431261D01*
X5071645Y-8126924D01*
X5241476Y-7716890D01*
X5120155Y-7487000D01*
X3927000Y-7487000D01*
X3927000Y-7507000D01*
X3673000Y-7507000D01*
X3673000Y-7487000D01*
X3653000Y-7487000D01*
X3653000Y-7233000D01*
X3673000Y-7233000D01*
X3673000Y-6039181D01*
X3927000Y-6039181D01*
X3927000Y-7233000D01*
X5120155Y-7233000D01*
X5241476Y-7003110D01*
X5071645Y-6593076D01*
X4735012Y-6223691D01*
X8915000Y-6223691D01*
X8915000Y-6814250D01*
X9073750Y-6973000D01*
X10223000Y-6973000D01*
X10223000Y-5873750D01*
X10477000Y-5873750D01*
X10477000Y-6973000D01*
X11626250Y-6973000D01*
X11785000Y-6814250D01*
X11785000Y-6223691D01*
X11688327Y-5990302D01*
X11509699Y-5811673D01*
X11276310Y-5715000D01*
X10635750Y-5715000D01*
X10477000Y-5873750D01*
X10223000Y-5873750D01*
X10064250Y-5715000D01*
X9423690Y-5715000D01*
X9190301Y-5811673D01*
X9011673Y-5990302D01*
X8915000Y-6223691D01*
X4735012Y-6223691D01*
X4681358Y-6164817D01*
X4156892Y-5918514D01*
X3927000Y-6039181D01*
X3673000Y-6039181D01*
X3443108Y-5918514D01*
X2918642Y-6164817D01*
X2785000Y-6311461D01*
X2785000Y-4866578D01*
X3343833Y-4307745D01*
X10171861Y-4307745D01*
X10245995Y-4553864D01*
X10783223Y-4746965D01*
X11353454Y-4719778D01*
X11754005Y-4553864D01*
X11828139Y-4307745D01*
X11000000Y-3479605D01*
X10171861Y-4307745D01*
X3343833Y-4307745D01*
X4766580Y-2884999D01*
X9624285Y-2884999D01*
X9553035Y-3083223D01*
G04 #@! TD*
M02*
