<?xml version="1.0" standalone="no"?>
<!DOCTYPE svg PUBLIC "-//W3C//DTD SVG 1.1//EN"
"http://www.w3.org/Graphics/SVG/1.1/DTD/svg11.dtd">
<svg width="99.2126" height="123.78" viewBox="0 0 2066.93 2578.74" version="1.1"
xmlns="http://www.w3.org/2000/svg"
xmlns:xlink="http://www.w3.org/1999/xlink">
<g fill-rule="evenodd"><path d="M 820.866,1080.71 L 820.866,962.598 L 946.85,962.598 L 946.85,1080.71 L 820.866,1080.71 z " style="fill-opacity:1.000000;fill:rgb(103,198,105);stroke:rgb(0,0,0);stroke-width:2"/></g>
<g fill-rule="evenodd"><path d="M 820.866,2198.82 L 820.866,2080.71 L 946.85,2080.71 L 946.85,2198.82 L 820.866,2198.82 z " style="fill-opacity:1.000000;fill:rgb(115,81,255);stroke:rgb(0,0,0);stroke-width:2"/></g>
<g fill-rule="evenodd"><path d="M 820.866,2017.72 L 946.85,2017.72 L 946.85,2057.09 L 568.898,2057.09 L 565.057,2056.71 L 561.364,2055.59 L 557.961,2053.77 L 554.978,2051.32 L 354.191,1850.53 L 351.743,1847.55 L 349.924,1844.15 L 348.803,1840.45 L 348.425,1836.61 L 348.425,1797.24 L 301.181,1797.24 L 301.181,1663.39 L 435.039,1663.39 L 435.039,1797.24 L 387.795,1797.24 L 387.795,1828.46 L 577.052,2017.72 L 820.866,2017.72 z " style="fill-opacity:1.000000;fill:rgb(74,236,41);stroke:rgb(0,0,0);stroke-width:2"/></g>
<g fill-rule="evenodd"><path d="M 820.866,773.622 L 946.85,773.622 L 946.85,812.992 L 713.272,812.992 L 427.027,1099.24 L 429.253,1103.09 L 433.577,1116.4 L 435.039,1130.31 L 433.577,1144.23 L 429.253,1157.54 L 422.257,1169.65 L 412.895,1180.05 L 401.575,1188.28 L 388.792,1193.97 L 375.106,1196.88 L 361.114,1196.88 L 347.428,1193.97 L 336.958,1189.31 L 187.007,1339.26 L 187.007,1899.33 L 612.484,2324.8 L 1052.87,2324.8 L 1088.58,2289.09 L 1088.58,2021.09 L 998.592,1931.1 L 820.866,1931.1 L 820.866,1891.73 L 1006.75,1891.73 L 1010.59,1892.11 L 1014.28,1893.23 L 1017.68,1895.05 L 1020.67,1897.5 L 1122.19,1999.02 L 1124.64,2002 L 1126.45,2005.41 L 1127.57,2009.1 L 1127.95,2012.94 L 1127.95,2297.24 L 1127.57,2301.08 L 1126.45,2304.78 L 1124.64,2308.18 L 1122.19,2311.16 L 1074.94,2358.41 L 1071.96,2360.86 L 1068.56,2362.67 L 1064.86,2363.79 L 1061.02,2364.17 L 604.331,2364.17 L 600.49,2363.79 L 596.798,2362.67 L 593.394,2360.86 L 590.411,2358.41 L 153.403,1921.4 L 150.955,1918.42 L 149.135,1915.01 L 148.015,1911.32 L 147.637,1907.48 L 147.637,1331.1 L 148.015,1327.26 L 149.135,1323.57 L 150.955,1320.17 L 153.403,1317.18 L 309.193,1161.39 L 306.967,1157.54 L 302.644,1144.23 L 301.181,1130.31 L 302.644,1116.4 L 306.967,1103.09 L 313.963,1090.98 L 323.326,1080.58 L 334.646,1072.35 L 347.428,1066.66 L 361.114,1063.75 L 375.106,1063.75 L 388.792,1066.66 L 399.263,1071.32 L 691.199,779.388 L 694.182,776.94 L 697.585,775.12 L 701.278,774 L 705.118,773.622 L 820.866,773.622 z " style="fill-opacity:1.000000;fill:rgb(205,186,171);stroke:rgb(0,0,0);stroke-width:2"/></g>
<g fill-rule="evenodd"><path d="M 820.866,836.614 L 946.85,836.614 L 946.85,875.984 L 738.469,875.984 L 647.638,966.815 L 647.638,1070.47 L 647.26,1074.31 L 646.139,1078.01 L 644.32,1081.41 L 641.872,1084.39 L 427.027,1299.24 L 429.253,1303.09 L 433.577,1316.4 L 435.039,1330.31 L 433.577,1344.23 L 429.253,1357.54 L 422.257,1369.65 L 412.895,1380.05 L 401.575,1388.28 L 388.792,1393.97 L 375.106,1396.88 L 361.114,1396.88 L 347.428,1393.97 L 336.957,1389.31 L 246.063,1480.2 L 246.063,1808.78 L 699.099,2261.81 L 974.13,2261.81 L 1009.84,2226.1 L 1009.84,2025.87 L 978.067,1994.09 L 820.866,1994.09 L 820.866,1954.72 L 986.22,1954.72 L 990.061,1955.1 L 993.754,1956.22 L 997.157,1958.04 L 1000.14,1960.49 L 1043.45,2003.8 L 1045.9,2006.78 L 1047.71,2010.18 L 1048.83,2013.88 L 1049.21,2017.72 L 1049.21,2234.25 L 1048.83,2238.09 L 1047.71,2241.79 L 1045.9,2245.19 L 1043.45,2248.17 L 996.203,2295.42 L 993.22,2297.86 L 989.817,2299.68 L 986.124,2300.8 L 982.283,2301.18 L 690.945,2301.18 L 687.105,2300.8 L 683.412,2299.68 L 680.008,2297.86 L 677.025,2295.42 L 212.459,1830.85 L 210.01,1827.87 L 208.191,1824.46 L 207.071,1820.77 L 206.693,1816.93 L 206.693,1472.05 L 207.071,1468.21 L 208.191,1464.51 L 210.01,1461.11 L 212.459,1458.13 L 309.193,1361.39 L 306.967,1357.54 L 302.644,1344.23 L 301.181,1330.31 L 302.644,1316.4 L 306.967,1303.09 L 313.963,1290.98 L 323.326,1280.58 L 334.646,1272.35 L 347.428,1266.66 L 361.114,1263.75 L 375.106,1263.75 L 388.792,1266.66 L 399.263,1271.32 L 608.268,1062.32 L 608.268,958.661 L 608.646,954.821 L 609.766,951.128 L 611.585,947.725 L 614.033,944.742 L 716.396,842.38 L 719.379,839.932 L 722.782,838.113 L 726.475,836.992 L 730.315,836.614 L 820.866,836.614 z " style="fill-opacity:1.000000;fill:rgb(242,251,227);stroke:rgb(0,0,0);stroke-width:2"/></g>
<g fill-rule="evenodd"><path d="M 820.866,899.606 L 946.85,899.606 L 946.85,938.976 L 789.65,938.976 L 718.504,1010.12 L 718.504,1199.61 L 718.126,1203.45 L 717.006,1207.14 L 715.186,1210.54 L 712.738,1213.53 L 427.027,1499.24 L 429.253,1503.09 L 433.577,1516.4 L 435.039,1530.31 L 433.577,1544.23 L 429.253,1557.54 L 422.257,1569.65 L 412.895,1580.05 L 401.575,1588.28 L 388.792,1593.97 L 375.106,1596.88 L 361.114,1596.88 L 347.428,1593.97 L 334.646,1588.28 L 323.326,1580.05 L 313.963,1569.65 L 306.967,1557.54 L 302.644,1544.23 L 301.181,1530.31 L 302.644,1516.4 L 306.967,1503.09 L 313.963,1490.98 L 323.326,1480.58 L 334.646,1472.35 L 347.428,1466.66 L 361.114,1463.75 L 375.106,1463.75 L 388.792,1466.66 L 399.263,1471.32 L 679.134,1191.45 L 679.134,1001.97 L 679.512,998.128 L 680.632,994.435 L 682.451,991.032 L 684.899,988.049 L 767.577,905.372 L 770.56,902.924 L 773.963,901.105 L 777.656,899.985 L 781.496,899.606 L 820.866,899.606 z " style="fill-opacity:1.000000;fill:rgb(70,124,194);stroke:rgb(0,0,0);stroke-width:2"/></g>
<g fill-rule="evenodd"><path d="M 1313.45,1708.66 L 1402.59,1619.52 L 1414.52,1609.73 L 1428.14,1602.45 L 1442.91,1597.97 L 1458.27,1596.46 L 1801.18,1596.46 L 1817.55,1598.18 L 1833.21,1603.26 L 1841.87,1608.27 L 1868.11,1608.27 L 1868.11,1634.09 L 1869.37,1635.83 L 1876.07,1650.86 L 1879.49,1666.97 L 1879.49,1683.43 L 1876.07,1699.53 L 1869.37,1714.57 L 1868.11,1716.3 L 1868.11,1742.13 L 1841.87,1742.13 L 1833.21,1747.13 L 1817.55,1752.22 L 1801.18,1753.94 L 1490.88,1753.94 L 1467.32,1777.5 L 1467.32,1897.64 L 1193.31,1897.64 L 1193.31,1708.66 L 1313.45,1708.66 z " style="fill-opacity:1.000000;fill:rgb(84,248,27);stroke:rgb(0,0,0);stroke-width:2"/></g>
<g fill-rule="evenodd"><path d="M 1467.32,2161.42 L 1467.32,2177.17 L 1193.31,2177.17 L 1193.31,1988.19 L 1467.32,1988.19 L 1467.32,2003.94 L 1633.86,2003.94 L 1649.22,2005.45 L 1663.99,2009.93 L 1677.6,2017.21 L 1689.54,2027 L 1837.73,2175.2 L 1860.24,2175.2 L 1860.24,2200.99 L 1866.82,2213.91 L 1871.08,2229.81 L 1871.94,2246.25 L 1869.36,2262.51 L 1863.47,2277.87 L 1860.24,2282.85 L 1860.24,2309.06 L 1834.03,2309.06 L 1829.05,2312.28 L 1813.69,2318.18 L 1797.43,2320.76 L 1780.99,2319.9 L 1765.09,2315.64 L 1752.17,2309.06 L 1726.38,2309.06 L 1726.38,2286.55 L 1601.24,2161.42 L 1467.32,2161.42 z " style="fill-opacity:1.000000;fill:rgb(232,231,141);stroke:rgb(0,0,0);stroke-width:2"/></g>
<g fill-rule="evenodd"><path d="M 1313.45,1059.06 L 1193.31,1059.06 L 1193.31,870.079 L 1467.32,870.079 L 1467.32,966.535 L 1801.18,966.535 L 1817.55,968.256 L 1833.21,973.343 L 1841.87,978.346 L 1868.11,978.346 L 1868.11,1004.17 L 1869.37,1005.91 L 1876.07,1020.94 L 1879.49,1037.05 L 1879.49,1053.51 L 1876.07,1069.61 L 1869.37,1084.65 L 1868.11,1086.38 L 1868.11,1112.2 L 1841.87,1112.2 L 1833.21,1117.21 L 1817.55,1122.3 L 1801.18,1124.02 L 1411.02,1124.02 L 1395.66,1122.5 L 1380.89,1118.02 L 1367.28,1110.75 L 1355.35,1100.95 L 1313.45,1059.06 z " style="fill-opacity:1.000000;fill:rgb(118,90,46);stroke:rgb(0,0,0);stroke-width:2"/></g>
<g fill-rule="evenodd"><path d="M 1467.32,763.78 L 1467.32,779.528 L 1193.31,779.528 L 1193.31,590.551 L 1467.32,590.551 L 1467.32,606.299 L 1624.87,606.299 L 1734.25,496.912 L 1734.25,474.409 L 1760.05,474.409 L 1772.96,467.828 L 1788.86,463.568 L 1805.3,462.706 L 1821.56,465.281 L 1836.93,471.181 L 1841.9,474.409 L 1868.11,474.409 L 1868.11,500.619 L 1871.34,505.591 L 1877.24,520.959 L 1879.81,537.218 L 1878.95,553.656 L 1874.69,569.557 L 1868.11,582.473 L 1868.11,608.268 L 1845.61,608.268 L 1713.16,740.717 L 1701.23,750.509 L 1687.61,757.786 L 1672.84,762.267 L 1657.48,763.78 L 1467.32,763.78 z " style="fill-opacity:1.000000;fill:rgb(99,51,159);stroke:rgb(0,0,0);stroke-width:2"/></g>
<g fill-rule="evenodd"><path d="M 991.253,356.669 L 1017.23,382.648 L 1026.06,379.988 L 1038.89,344.298 L 1036.93,303.126 L 1035.02,298.014 L 1034.83,296.063 L 1035.59,292.236 L 1037.75,288.992 L 1041,286.824 L 1044.83,286.063 L 1108.43,286.063 L 1112.26,286.824 L 1115.5,288.992 L 1192.6,366.091 L 1193.94,367.749 L 1195.43,371.354 L 1195.43,375.256 L 1194.86,377.132 L 1192.7,380.377 L 1078.79,494.282 L 1073.11,498.308 L 1059.92,518.051 L 1055.29,541.339 L 1056.46,548.202 L 1056.46,670.35 L 1071.01,684.899 L 1073.45,687.882 L 1075.27,691.285 L 1076.39,694.978 L 1076.77,698.818 L 1076.77,1287.6 L 1078.79,1289.18 L 1158.52,1368.91 L 1160.69,1372.16 L 1161.45,1375.98 L 1161.26,1377.94 L 1160.69,1379.81 L 1158.52,1383.06 L 1052.3,1489.27 L 1050.69,1490.58 L 1048.85,1491.53 L 1046.85,1492.07 L 1044.77,1492.19 L 1042.72,1491.88 L 1040.78,1491.16 L 1039.03,1490.05 L 1037.54,1488.6 L 1036.39,1486.87 L 1035.62,1484.95 L 1035.26,1482.91 L 1035.33,1480.83 L 1038.89,1470.28 L 1036.93,1429.11 L 1026.34,1403.56 L 1017.23,1400.82 L 991.253,1426.8 L 992.586,1429.1 L 996.655,1441.63 L 998.031,1454.72 L 996.655,1467.82 L 992.586,1480.35 L 991.253,1482.65 L 1017.23,1508.63 L 1020.56,1507.85 L 1022.62,1507.88 L 1024.63,1508.34 L 1026.5,1509.19 L 1028.15,1510.41 L 1029.52,1511.94 L 1030.55,1513.72 L 1031.2,1515.67 L 1031.43,1517.72 L 1031.24,1519.76 L 1027.73,1537.4 L 1028.9,1544.26 L 1028.9,1717.2 L 1028.14,1721.03 L 1025.97,1724.27 L 1003.92,1746.32 L 1000.68,1748.48 L 996.85,1749.25 L 994.9,1749.05 L 991.295,1747.56 L 989.571,1746.06 L 982.4,1745.87 L 980.524,1745.3 L 977.279,1743.13 L 975.112,1739.89 L 974.543,1738.01 L 974.351,1736.06 L 975.112,1732.24 L 977.279,1728.99 L 986.85,1719.42 L 986.85,1679.05 L 980.761,1664.35 L 969.509,1653.1 L 954.725,1647.01 L 954.724,1694.88 L 954.346,1698.72 L 953.226,1702.42 L 951.407,1705.82 L 946.85,1710.91 L 946.85,1805.12 L 820.866,1805.12 L 820.866,1766.06 L 787.508,1766.06 L 780.866,1772.71 L 780.866,1813.07 L 781.85,1815.95 L 782.042,1817.9 L 779.887,1829.72 L 779.887,1867.13 L 782.236,1879.92 L 779.887,1892.72 L 779.887,1930.12 L 782.236,1942.91 L 779.887,1955.71 L 779.694,1969.67 L 779.125,1971.54 L 776.958,1974.79 L 773.713,1976.96 L 769.887,1977.72 L 595.811,1977.52 L 593.935,1976.96 L 590.691,1974.79 L 459.371,1843.47 L 457.203,1840.22 L 456.634,1838.35 L 456.634,1834.45 L 458.127,1830.84 L 459.371,1829.33 L 463.878,1826.08 L 472.719,1812.85 L 476.019,1796.26 L 476.019,1664.37 L 472.719,1647.78 L 463.877,1634.55 L 450.647,1625.71 L 447.148,1624.81 L 443.904,1622.65 L 441.736,1619.4 L 441.167,1617.53 L 441.167,1613.63 L 442.66,1610.02 L 445.153,1607.48 L 468.835,1572.04 L 477.134,1530.31 L 473.901,1513.07 L 474.093,1511.12 L 475.586,1507.52 L 736.17,1246.66 L 741.849,1242.64 L 755.041,1222.89 L 759.673,1199.61 L 758.504,1192.74 L 758.504,1030.83 L 759.265,1027.01 L 760.189,1025.28 L 762.816,1022.38 L 766.06,1020.21 L 769.887,1019.45 L 771.838,1019.64 L 775.442,1021.14 L 776.958,1022.38 L 779.125,1025.62 L 779.887,1029.45 L 779.887,1079.72 L 783.187,1096.32 L 792.028,1109.55 L 805.259,1118.39 L 821.851,1121.69 L 945.866,1121.69 L 962.458,1118.39 L 975.689,1109.55 L 984.53,1096.32 L 987.83,1079.72 L 987.83,963.583 L 985.481,950.787 L 987.83,937.992 L 987.83,900.591 L 985.481,887.795 L 987.83,874.999 L 987.83,837.599 L 985.481,824.803 L 987.83,812.007 L 987.83,774.607 L 985.481,761.811 L 987.83,749.015 L 987.83,711.615 L 985.674,699.793 L 985.866,697.842 L 986.85,694.964 L 986.85,656.422 L 978.381,647.953 L 946.85,647.953 L 946.85,687.008 L 820.866,687.008 L 820.866,668.11 L 777.439,668.11 L 774.693,669.869 L 770.866,670.63 L 599.383,670.63 L 592.52,669.461 L 569.232,674.093 L 549.489,687.285 L 545.463,692.964 L 481.262,757.165 L 478.018,759.332 L 476.142,759.902 L 472.241,759.902 L 468.636,758.408 L 467.12,757.165 L 463.878,752.658 L 450.647,743.817 L 444.45,742.584 L 440.916,741.138 L 438.181,738.472 L 436.646,734.975 L 436.405,733.071 L 437.024,729.303 L 439.01,726.041 L 459.67,703.37 L 470.576,677.04 L 466.03,668.425 L 431.6,668.425 L 429.253,675.648 L 422.257,687.765 L 412.895,698.163 L 401.575,706.388 L 388.792,712.079 L 375.106,714.988 L 361.114,714.988 L 347.428,712.079 L 334.646,706.388 L 323.326,698.163 L 313.963,687.765 L 306.967,675.648 L 302.644,662.341 L 301.181,648.425 L 302.644,634.51 L 306.967,621.203 L 313.963,609.085 L 323.326,598.687 L 334.646,590.463 L 348.11,584.627 L 348.11,550.469 L 339.761,546.086 L 304.763,562.522 L 294.88,573.295 L 293.189,574.523 L 291.279,575.374 L 288.129,575.863 L 285.099,575.374 L 282.263,573.918 L 280.099,571.741 L 278.66,568.896 L 278.189,565.863 L 278.381,450.142 L 278.95,448.266 L 281.118,445.022 L 325.121,401.019 L 437.148,288.992 L 438.663,287.748 L 442.268,286.255 L 828.62,286.246 L 832.152,287.67 L 834.895,290.311 L 836.453,293.786 L 836.708,295.682 L 836.126,299.445 L 831.189,313.182 L 833.151,354.354 L 843.734,379.903 L 852.847,382.648 L 878.826,356.669 L 877.493,354.361 L 873.424,341.837 L 872.047,328.74 L 873.424,315.643 L 877.493,303.119 L 884.078,291.714 L 892.889,281.928 L 903.543,274.187 L 915.574,268.831 L 928.455,266.093 L 941.624,266.093 L 954.505,268.831 L 966.535,274.187 L 977.189,281.928 L 986.001,291.714 L 992.586,303.119 L 996.655,315.643 L 998.031,328.74 L 996.655,341.837 L 992.586,354.361 L 991.253,356.669M 820.866,1726.06 L 820.866,1687.01 L 863.858,1687.01 L 863.858,1653.65 L 857.216,1647.01 L 812.91,1647.01 L 798.208,1653.1 L 786.956,1664.35 L 780.866,1679.05 L 780.866,1719.42 L 787.508,1726.06 L 820.866,1726.06M 903.858,1687.01 L 915.074,1687.01 L 915.354,1686.73 L 915.354,1647.01 L 910.5,1647.01 L 903.858,1653.65 L 903.858,1687.01M 388.11,584.627 L 401.575,590.463 L 412.895,598.687 L 422.257,609.085 L 429.253,621.203 L 431.6,628.425 L 466.03,628.425 L 470.576,619.81 L 459.67,593.48 L 431.457,562.522 L 396.459,546.086 L 388.11,550.469 L 388.11,584.627M 820.866,607.953 L 820.866,568.898 L 863.858,568.898 L 863.858,535.54 L 857.216,528.898 L 812.91,528.898 L 798.208,534.987 L 786.956,546.24 L 780.866,560.941 L 780.866,601.311 L 787.508,607.953 L 820.866,607.953M 903.858,568.898 L 946.85,568.898 L 946.85,607.953 L 980.208,607.953 L 986.85,601.311 L 986.85,560.941 L 980.761,546.24 L 969.509,534.987 L 954.807,528.898 L 910.5,528.898 L 903.858,535.54 L 903.858,568.898M 962.918,384.903 L 954.505,388.649 L 941.624,391.387 L 928.455,391.387 L 915.574,388.649 L 907.16,384.903 L 903.543,388.521 L 903.543,426.862 L 919.481,432.591 L 960.654,430.628 L 986.202,420.045 L 988.947,410.932 L 962.918,384.903M 954.724,1514.54 L 954.724,1556.89 L 960.654,1556.61 L 986.202,1546.03 L 988.947,1536.92 L 962.918,1510.89 L 954.724,1514.54M 878.826,1482.65 L 877.493,1480.35 L 873.424,1467.82 L 872.047,1454.72 L 873.424,1441.63 L 877.493,1429.1 L 878.826,1426.8 L 852.847,1400.82 L 844.017,1403.48 L 831.189,1439.17 L 833.151,1480.34 L 843.734,1505.89 L 852.847,1508.63 L 878.826,1482.65M 907.16,1510.89 L 881.131,1536.92 L 883.791,1545.75 L 915.354,1557.09 L 915.354,1514.54 L 907.16,1510.89M 907.16,1398.56 L 915.574,1394.82 L 928.455,1392.08 L 941.624,1392.08 L 954.505,1394.82 L 962.918,1398.56 L 988.947,1372.53 L 986.287,1363.7 L 950.598,1350.87 L 909.426,1352.84 L 883.876,1363.42 L 881.131,1372.53 L 907.16,1398.56 z " style="fill-opacity:1.000000;fill:rgb(201,154,102);stroke:rgb(0,0,0);stroke-width:2"/></g>
<g fill-rule="evenodd"><path d="M 1300.55,384.766 L 1135.83,549.492 L 1135.83,1233.97 L 1300.55,1398.7 L 1309.27,1394.82 L 1322.16,1392.08 L 1335.32,1392.08 L 1348.21,1394.82 L 1360.24,1400.17 L 1370.89,1407.91 L 1379.7,1417.7 L 1386.29,1429.1 L 1390.36,1441.63 L 1391.73,1454.72 L 1390.36,1467.82 L 1386.29,1480.35 L 1379.7,1491.75 L 1370.89,1501.54 L 1360.24,1509.28 L 1348.21,1514.63 L 1335.32,1517.37 L 1322.16,1517.37 L 1309.27,1514.63 L 1297.24,1509.28 L 1286.59,1501.54 L 1277.78,1491.75 L 1271.19,1480.35 L 1267.12,1467.82 L 1265.75,1454.72 L 1267.12,1441.63 L 1271.19,1429.1 L 1272.69,1426.51 L 1250,1403.82 L 1108.27,1545.56 L 1108.27,1746.06 L 1107.89,1749.9 L 1106.77,1753.6 L 1104.95,1757 L 1102.5,1759.98 L 1000.14,1862.34 L 997.157,1864.79 L 993.754,1866.61 L 990.061,1867.73 L 986.22,1868.11 L 820.866,1868.11 L 820.866,1828.74 L 978.067,1828.74 L 1068.9,1737.91 L 1068.9,1537.4 L 1069.28,1533.56 L 1070.4,1529.87 L 1072.22,1526.47 L 1074.66,1523.48 L 1222.16,1375.98 L 1102.22,1256.05 L 1099.77,1253.06 L 1097.96,1249.66 L 1096.83,1245.97 L 1096.46,1242.13 L 1096.46,541.339 L 1096.83,537.498 L 1097.96,533.805 L 1099.77,530.402 L 1102.22,527.419 L 1272.69,356.952 L 1271.19,354.361 L 1269.27,348.425 L 1239.66,348.425 L 1235.82,348.047 L 1232.12,346.927 L 1228.72,345.108 L 1225.74,342.66 L 1129.14,246.063 L 423.508,246.063 L 238.189,431.382 L 238.189,796.964 L 269.965,828.74 L 301.181,828.74 L 301.181,781.496 L 435.039,781.496 L 435.039,828.74 L 466.256,828.74 L 578.6,716.396 L 581.583,713.947 L 584.987,712.128 L 588.679,711.008 L 592.52,710.63 L 946.85,710.63 L 946.85,750 L 600.673,750 L 488.329,862.345 L 485.346,864.793 L 481.943,866.612 L 478.25,867.732 L 474.409,868.11 L 435.039,868.11 L 435.039,915.354 L 301.181,915.354 L 301.181,868.11 L 261.811,868.11 L 257.971,867.732 L 254.278,866.612 L 250.875,864.793 L 247.892,862.345 L 204.585,819.038 L 202.136,816.055 L 200.317,812.651 L 199.197,808.958 L 198.819,805.118 L 198.819,423.228 L 199.197,419.388 L 200.317,415.695 L 202.136,412.292 L 204.585,409.309 L 401.435,212.458 L 404.418,210.01 L 407.821,208.191 L 411.514,207.071 L 415.354,206.693 L 1137.29,206.693 L 1141.13,207.071 L 1144.83,208.191 L 1148.23,210.01 L 1151.21,212.458 L 1247.81,309.055 L 1269.27,309.055 L 1271.19,303.119 L 1277.78,291.714 L 1286.59,281.928 L 1297.24,274.187 L 1309.27,268.831 L 1322.16,266.093 L 1335.32,266.093 L 1348.21,268.831 L 1360.24,274.187 L 1370.89,281.928 L 1379.7,291.714 L 1386.29,303.119 L 1390.36,315.643 L 1391.73,328.74 L 1390.36,341.837 L 1386.29,354.361 L 1379.7,365.766 L 1370.89,375.552 L 1360.24,383.293 L 1348.21,388.649 L 1335.32,391.387 L 1322.16,391.387 L 1309.27,388.649 L 1300.55,384.766 z " style="fill-opacity:1.000000;fill:rgb(50,13,183);stroke:rgb(0,0,0);stroke-width:2"/></g>
</svg>
