<?xml version="1.0" standalone="no"?>
<!DOCTYPE svg PUBLIC "-//W3C//DTD SVG 1.1//EN"
"http://www.w3.org/Graphics/SVG/1.1/DTD/svg11.dtd">
<svg width="83.1496" height="103.559" viewBox="0 0 1732.28 2157.48" version="1.1"
xmlns="http://www.w3.org/2000/svg"
xmlns:xlink="http://www.w3.org/1999/xlink">
<g fill-rule="evenodd"><path d="M 673.229,874.016 L 673.229,755.906 L 799.213,755.906 L 799.213,874.016 L 673.229,874.016 z " style="fill-opacity:1.000000;fill:rgb(103,198,105);stroke:rgb(0,0,0);stroke-width:2"/></g>
<g fill-rule="evenodd"><path d="M 673.229,1992.13 L 673.229,1874.02 L 799.213,1874.02 L 799.213,1992.13 L 673.229,1992.13 z " style="fill-opacity:1.000000;fill:rgb(115,81,255);stroke:rgb(0,0,0);stroke-width:2"/></g>
<g fill-rule="evenodd"><path d="M 673.229,1811.02 L 799.213,1811.02 L 799.213,1850.39 L 421.261,1850.39 L 417.42,1850.02 L 413.727,1848.9 L 410.324,1847.08 L 407.341,1844.63 L 206.554,1643.84 L 204.106,1640.86 L 202.287,1637.45 L 201.166,1633.76 L 200.788,1629.92 L 200.788,1590.55 L 153.544,1590.55 L 153.544,1456.69 L 287.402,1456.69 L 287.402,1590.55 L 240.158,1590.55 L 240.158,1621.77 L 429.415,1811.02 L 673.229,1811.02 z " style="fill-opacity:1.000000;fill:rgb(74,236,41);stroke:rgb(0,0,0);stroke-width:2"/></g>
<g fill-rule="evenodd"><path d="M 913.387,2157.48 L 456.694,2157.48 L 452.853,2157.1 L 449.161,2155.98 L 445.757,2154.16 L 442.774,2151.71 L 5.76561,1714.71 L 3.31753,1711.72 L 1.49843,1708.32 L 0.378243,1704.63 L -4.26326e-14,1700.79 L -4.26326e-14,1124.41 L 0.378243,1120.57 L 1.49843,1116.88 L 3.31753,1113.47 L 5.76561,1110.49 L 161.556,954.7 L 159.33,950.845 L 155.007,937.537 L 153.544,923.622 L 155.007,909.707 L 159.33,896.4 L 166.326,884.282 L 175.689,873.884 L 187.009,865.66 L 199.791,859.969 L 213.477,857.06 L 227.469,857.06 L 241.155,859.969 L 251.626,864.631 L 543.562,572.695 L 546.545,570.247 L 549.948,568.428 L 553.641,567.307 L 557.481,566.929 L 673.229,566.929 L 799.213,566.929 L 799.213,606.299 L 565.635,606.299 L 279.39,892.544 L 281.616,896.4 L 285.94,909.707 L 287.402,923.622 L 285.94,937.537 L 281.616,950.845 L 274.62,962.962 L 265.258,973.36 L 253.938,981.584 L 241.155,987.276 L 227.469,990.185 L 213.477,990.185 L 199.791,987.276 L 189.321,982.614 L 39.3701,1132.56 L 39.3701,1692.63 L 464.847,2118.11 L 905.233,2118.11 L 940.946,2082.4 L 940.946,1814.4 L 850.955,1724.41 L 673.229,1724.41 L 673.229,1685.04 L 859.109,1685.04 L 862.949,1685.42 L 866.642,1686.54 L 870.045,1688.36 L 873.028,1690.81 L 974.55,1792.33 L 976.998,1795.31 L 978.817,1798.71 L 979.938,1802.41 L 980.316,1806.25 L 980.316,2090.55 L 979.938,2094.39 L 978.817,2098.08 L 976.998,2101.49 L 974.55,2104.47 L 927.306,2151.71 L 924.323,2154.16 L 920.92,2155.98 L 917.227,2157.1 L 913.387,2157.48 z " style="fill-opacity:1.000000;fill:rgb(205,186,171);stroke:rgb(0,0,0);stroke-width:2"/></g>
<g fill-rule="evenodd"><path d="M 673.229,629.921 L 799.213,629.921 L 799.213,669.291 L 590.832,669.291 L 500.001,760.122 L 500.001,863.78 L 499.623,867.62 L 498.502,871.313 L 496.683,874.716 L 494.235,877.699 L 279.39,1092.54 L 281.616,1096.4 L 285.94,1109.71 L 287.402,1123.62 L 285.94,1137.54 L 281.616,1150.84 L 274.62,1162.96 L 265.258,1173.36 L 253.938,1181.58 L 241.155,1187.28 L 227.469,1190.18 L 213.477,1190.18 L 199.791,1187.28 L 189.32,1182.61 L 98.426,1273.51 L 98.426,1602.08 L 551.462,2055.12 L 826.493,2055.12 L 862.205,2019.41 L 862.205,1819.18 L 830.43,1787.4 L 673.229,1787.4 L 673.229,1748.03 L 838.583,1748.03 L 842.424,1748.41 L 846.117,1749.53 L 849.52,1751.35 L 852.503,1753.8 L 895.81,1797.1 L 898.258,1800.09 L 900.077,1803.49 L 901.197,1807.18 L 901.576,1811.02 L 901.576,2027.56 L 901.197,2031.4 L 900.077,2035.09 L 898.258,2038.5 L 895.81,2041.48 L 848.566,2088.72 L 845.583,2091.17 L 842.18,2092.99 L 838.487,2094.11 L 834.646,2094.49 L 543.308,2094.49 L 539.468,2094.11 L 535.775,2092.99 L 532.371,2091.17 L 529.388,2088.72 L 64.8215,1624.16 L 62.3734,1621.17 L 60.5543,1617.77 L 59.4341,1614.08 L 59.0559,1610.24 L 59.0559,1265.35 L 59.4341,1261.51 L 60.5543,1257.82 L 62.3734,1254.42 L 64.8215,1251.43 L 161.556,1154.7 L 159.33,1150.84 L 155.007,1137.54 L 153.544,1123.62 L 155.007,1109.71 L 159.33,1096.4 L 166.326,1084.28 L 175.689,1073.88 L 187.009,1065.66 L 199.791,1059.97 L 213.477,1057.06 L 227.469,1057.06 L 241.155,1059.97 L 251.626,1064.63 L 460.631,855.626 L 460.631,751.969 L 461.009,748.128 L 462.129,744.435 L 463.948,741.032 L 466.396,738.049 L 568.759,635.687 L 571.742,633.239 L 575.145,631.42 L 578.838,630.3 L 582.678,629.921 L 673.229,629.921 z " style="fill-opacity:1.000000;fill:rgb(242,251,227);stroke:rgb(0,0,0);stroke-width:2"/></g>
<g fill-rule="evenodd"><path d="M 673.229,692.913 L 799.213,692.913 L 799.213,732.284 L 642.013,732.284 L 570.867,803.429 L 570.867,992.913 L 570.489,996.754 L 569.368,1000.45 L 567.549,1003.85 L 565.101,1006.83 L 279.39,1292.54 L 281.616,1296.4 L 285.94,1309.71 L 287.402,1323.62 L 285.94,1337.54 L 281.616,1350.84 L 274.62,1362.96 L 265.258,1373.36 L 253.938,1381.58 L 241.155,1387.28 L 227.469,1390.18 L 213.477,1390.18 L 199.791,1387.28 L 187.009,1381.58 L 175.689,1373.36 L 166.326,1362.96 L 159.33,1350.84 L 155.007,1337.54 L 153.544,1323.62 L 155.007,1309.71 L 159.33,1296.4 L 166.326,1284.28 L 175.689,1273.88 L 187.009,1265.66 L 199.791,1259.97 L 213.477,1257.06 L 227.469,1257.06 L 241.155,1259.97 L 251.626,1264.63 L 531.497,984.76 L 531.497,795.276 L 531.875,791.435 L 532.995,787.743 L 534.814,784.339 L 537.262,781.356 L 619.94,698.679 L 622.923,696.231 L 626.326,694.412 L 630.019,693.292 L 633.859,692.913 L 673.229,692.913 z " style="fill-opacity:1.000000;fill:rgb(70,124,194);stroke:rgb(0,0,0);stroke-width:2"/></g>
<g fill-rule="evenodd"><path d="M 1165.81,1501.97 L 1254.95,1412.83 L 1266.89,1403.03 L 1280.5,1395.76 L 1295.27,1391.28 L 1310.63,1389.76 L 1653.54,1389.76 L 1669.92,1391.48 L 1685.57,1396.57 L 1694.24,1401.57 L 1720.47,1401.57 L 1720.47,1427.4 L 1721.74,1429.13 L 1728.43,1444.17 L 1731.85,1460.27 L 1731.85,1476.73 L 1728.43,1492.84 L 1721.74,1507.87 L 1720.47,1509.61 L 1720.47,1535.43 L 1694.24,1535.43 L 1685.57,1540.44 L 1669.92,1545.52 L 1653.54,1547.24 L 1343.25,1547.24 L 1319.69,1570.8 L 1319.69,1690.94 L 1045.67,1690.94 L 1045.67,1501.97 L 1165.81,1501.97 z " style="fill-opacity:1.000000;fill:rgb(84,248,27);stroke:rgb(0,0,0);stroke-width:2"/></g>
<g fill-rule="evenodd"><path d="M 1319.69,1954.72 L 1319.69,1970.47 L 1045.67,1970.47 L 1045.67,1781.5 L 1319.69,1781.5 L 1319.69,1797.24 L 1486.22,1797.24 L 1501.58,1798.76 L 1516.35,1803.24 L 1529.97,1810.51 L 1541.9,1820.31 L 1690.1,1968.5 L 1712.6,1968.5 L 1712.6,1994.3 L 1719.18,2007.22 L 1723.44,2023.12 L 1724.3,2039.55 L 1721.73,2055.81 L 1715.83,2071.18 L 1712.6,2076.15 L 1712.6,2102.36 L 1686.39,2102.36 L 1681.42,2105.59 L 1666.05,2111.49 L 1649.79,2114.07 L 1633.35,2113.2 L 1617.45,2108.94 L 1604.54,2102.36 L 1578.74,2102.36 L 1578.74,2079.86 L 1453.61,1954.72 L 1319.69,1954.72 z " style="fill-opacity:1.000000;fill:rgb(232,231,141);stroke:rgb(0,0,0);stroke-width:2"/></g>
<g fill-rule="evenodd"><path d="M 1165.81,852.362 L 1045.67,852.362 L 1045.67,663.386 L 1319.69,663.386 L 1319.69,759.842 L 1653.54,759.843 L 1669.92,761.563 L 1685.57,766.65 L 1694.24,771.653 L 1720.47,771.654 L 1720.47,797.476 L 1721.74,799.213 L 1728.43,814.251 L 1731.85,830.352 L 1731.85,846.813 L 1728.43,862.915 L 1721.74,877.953 L 1720.47,879.69 L 1720.47,905.512 L 1694.24,905.512 L 1685.57,910.515 L 1669.92,915.602 L 1653.54,917.323 L 1263.39,917.323 L 1248.03,915.81 L 1233.25,911.329 L 1219.64,904.053 L 1207.71,894.26 L 1165.81,852.362 z " style="fill-opacity:1.000000;fill:rgb(118,90,46);stroke:rgb(0,0,0);stroke-width:2"/></g>
<g fill-rule="evenodd"><path d="M 1319.69,557.087 L 1319.69,572.835 L 1045.67,572.835 L 1045.67,383.858 L 1319.69,383.858 L 1319.69,399.606 L 1477.23,399.606 L 1586.61,290.22 L 1586.61,267.717 L 1612.41,267.717 L 1625.33,261.135 L 1641.23,256.875 L 1657.67,256.014 L 1673.92,258.589 L 1689.29,264.488 L 1694.26,267.717 L 1720.47,267.717 L 1720.47,293.926 L 1723.7,298.898 L 1729.6,314.266 L 1732.18,330.525 L 1731.31,346.963 L 1727.05,362.864 L 1720.47,375.78 L 1720.47,401.575 L 1697.97,401.575 L 1565.52,534.024 L 1553.59,543.817 L 1539.98,551.093 L 1525.2,555.574 L 1509.84,557.087 L 1319.69,557.087 z " style="fill-opacity:1.000000;fill:rgb(99,51,159);stroke:rgb(0,0,0);stroke-width:2"/></g>
<g fill-rule="evenodd"><path d="M 843.616,149.977 L 869.595,175.955 L 878.425,173.295 L 891.253,137.606 L 889.29,96.433 L 887.381,91.321 L 887.189,89.3701 L 887.95,85.5433 L 890.117,82.299 L 893.362,80.1313 L 897.189,79.3701 L 960.792,79.3701 L 964.619,80.1313 L 967.863,82.299 L 1044.96,159.398 L 1046.3,161.056 L 1047.8,164.661 L 1047.8,168.563 L 1047.23,170.44 L 1045.06,173.684 L 931.154,287.589 L 925.474,291.615 L 912.283,311.358 L 907.65,334.646 L 908.82,341.509 L 908.82,463.657 L 923.368,478.206 L 925.816,481.189 L 927.636,484.592 L 928.756,488.285 L 929.134,492.125 L 929.134,1080.91 L 931.154,1082.49 L 1010.88,1162.22 L 1013.05,1165.46 L 1013.81,1169.29 L 1013.62,1171.24 L 1013.05,1173.12 L 1010.88,1176.36 L 904.666,1282.58 L 903.055,1283.89 L 901.21,1284.83 L 899.208,1285.38 L 897.138,1285.5 L 895.087,1285.19 L 893.144,1284.46 L 891.392,1283.35 L 889.907,1281.91 L 888.753,1280.18 L 887.98,1278.26 L 887.62,1276.21 L 887.689,1274.14 L 891.253,1263.59 L 889.29,1222.42 L 878.708,1196.87 L 869.595,1194.12 L 843.616,1220.1 L 844.949,1222.41 L 849.018,1234.93 L 850.394,1248.03 L 849.018,1261.13 L 844.949,1273.65 L 843.616,1275.96 L 869.595,1301.94 L 872.927,1301.16 L 874.983,1301.19 L 876.988,1301.64 L 878.859,1302.5 L 880.515,1303.72 L 881.887,1305.25 L 882.917,1307.03 L 883.561,1308.98 L 883.792,1311.02 L 883.6,1313.07 L 880.091,1330.71 L 881.261,1337.57 L 881.261,1510.51 L 880.499,1514.33 L 878.332,1517.58 L 856.284,1539.62 L 853.04,1541.79 L 849.213,1542.55 L 847.262,1542.36 L 843.658,1540.87 L 841.934,1539.37 L 834.763,1539.18 L 832.887,1538.61 L 829.642,1536.44 L 827.475,1533.2 L 826.906,1531.32 L 826.714,1529.37 L 827.475,1525.54 L 829.642,1522.3 L 839.213,1512.73 L 839.213,1472.36 L 833.124,1457.66 L 821.872,1446.4 L 807.088,1440.32 L 807.087,1488.19 L 806.709,1492.03 L 805.589,1495.72 L 803.77,1499.13 L 799.213,1504.22 L 799.213,1598.43 L 673.229,1598.43 L 673.229,1559.37 L 639.871,1559.37 L 633.229,1566.01 L 633.229,1606.38 L 634.213,1609.26 L 634.405,1611.21 L 632.25,1623.03 L 632.25,1660.43 L 634.599,1673.23 L 632.25,1686.02 L 632.25,1723.42 L 634.599,1736.22 L 632.25,1749.02 L 632.057,1762.97 L 631.488,1764.85 L 629.321,1768.09 L 626.076,1770.26 L 622.25,1771.02 L 448.174,1770.83 L 446.298,1770.26 L 443.054,1768.09 L 311.734,1636.77 L 309.566,1633.53 L 308.997,1631.65 L 308.997,1627.75 L 310.49,1624.15 L 311.734,1622.63 L 316.241,1619.39 L 325.082,1606.16 L 328.382,1589.57 L 328.382,1457.68 L 325.082,1441.09 L 316.24,1427.85 L 303.01,1419.01 L 299.511,1418.12 L 296.267,1415.95 L 294.099,1412.71 L 293.53,1410.83 L 293.53,1406.93 L 295.023,1403.33 L 297.516,1400.79 L 321.198,1365.34 L 329.497,1323.62 L 326.264,1306.38 L 326.456,1304.43 L 327.949,1300.83 L 588.533,1039.97 L 594.212,1035.94 L 607.404,1016.2 L 612.036,992.914 L 610.867,986.05 L 610.867,824.14 L 611.628,820.313 L 612.552,818.584 L 615.179,815.686 L 618.423,813.519 L 622.25,812.757 L 624.201,812.95 L 627.805,814.443 L 629.321,815.686 L 631.488,818.931 L 632.25,822.757 L 632.25,873.031 L 635.55,889.623 L 644.391,902.854 L 657.622,911.695 L 674.214,914.995 L 798.229,914.995 L 814.821,911.695 L 828.052,902.854 L 836.893,889.623 L 840.193,873.031 L 840.193,756.89 L 837.844,744.095 L 840.193,731.299 L 840.193,693.898 L 837.844,681.102 L 840.193,668.307 L 840.193,630.906 L 837.844,618.11 L 840.193,605.314 L 840.193,567.914 L 837.844,555.118 L 840.193,542.322 L 840.193,504.922 L 838.037,493.1 L 838.229,491.149 L 839.213,488.271 L 839.213,449.729 L 830.744,441.26 L 799.213,441.26 L 799.213,480.315 L 673.229,480.315 L 673.229,461.417 L 629.802,461.417 L 627.056,463.176 L 623.229,463.937 L 451.746,463.937 L 444.883,462.768 L 421.595,467.4 L 401.852,480.592 L 397.826,486.271 L 333.625,550.472 L 330.381,552.64 L 328.505,553.209 L 324.604,553.209 L 320.999,551.716 L 319.483,550.472 L 316.241,545.965 L 303.01,537.124 L 296.813,535.891 L 293.279,534.445 L 290.544,531.779 L 289.009,528.282 L 288.768,526.379 L 289.387,522.61 L 291.373,519.348 L 312.033,496.677 L 322.939,470.347 L 318.393,461.732 L 283.963,461.732 L 281.616,468.955 L 274.62,481.072 L 265.258,491.47 L 253.938,499.695 L 241.155,505.386 L 227.469,508.295 L 213.477,508.295 L 199.791,505.386 L 187.009,499.695 L 175.689,491.47 L 166.326,481.072 L 159.33,468.955 L 155.007,455.648 L 153.544,441.732 L 155.007,427.817 L 159.33,414.51 L 166.326,402.392 L 175.689,391.994 L 187.009,383.77 L 200.473,377.934 L 200.473,343.776 L 192.124,339.394 L 157.126,355.829 L 147.243,366.602 L 145.552,367.83 L 143.642,368.681 L 140.492,369.17 L 137.462,368.681 L 134.626,367.225 L 132.462,365.048 L 131.023,362.203 L 130.552,359.17 L 130.744,243.449 L 131.313,241.573 L 133.481,238.329 L 177.484,194.326 L 289.511,82.299 L 291.026,81.0554 L 294.631,79.5622 L 680.983,79.553 L 684.515,80.9768 L 687.258,83.6179 L 688.816,87.0933 L 689.071,88.9891 L 688.489,92.7526 L 683.552,106.489 L 685.514,147.661 L 696.097,173.21 L 705.21,175.955 L 731.189,149.977 L 729.856,147.669 L 725.787,135.144 L 724.41,122.047 L 725.787,108.951 L 729.856,96.4261 L 736.441,85.0215 L 745.252,75.2351 L 755.906,67.4945 L 767.937,62.1383 L 780.818,59.4003 L 793.987,59.4003 L 806.868,62.1383 L 818.898,67.4945 L 829.552,75.2351 L 838.364,85.0215 L 844.949,96.4261 L 849.018,108.951 L 850.394,122.047 L 849.018,135.144 L 844.949,147.669 L 843.616,149.977M 673.229,1519.37 L 673.229,1480.32 L 716.221,1480.32 L 716.221,1446.96 L 709.579,1440.32 L 665.273,1440.32 L 650.571,1446.4 L 639.319,1457.66 L 633.229,1472.36 L 633.229,1512.73 L 639.871,1519.37 L 673.229,1519.37M 756.221,1480.32 L 767.437,1480.32 L 767.717,1480.04 L 767.717,1440.32 L 762.863,1440.32 L 756.221,1446.96 L 756.221,1480.32M 240.473,377.934 L 253.938,383.77 L 265.258,391.994 L 274.62,402.392 L 281.616,414.51 L 283.963,421.732 L 318.393,421.732 L 322.939,413.118 L 312.033,386.787 L 283.82,355.83 L 248.822,339.394 L 240.473,343.776 L 240.473,377.934M 673.229,401.26 L 673.229,362.205 L 716.221,362.205 L 716.221,328.847 L 709.579,322.205 L 665.273,322.205 L 650.571,328.294 L 639.319,339.547 L 633.229,354.249 L 633.229,394.618 L 639.871,401.26 L 673.229,401.26M 756.221,362.205 L 799.213,362.205 L 799.213,401.26 L 832.571,401.26 L 839.213,394.618 L 839.213,354.248 L 833.124,339.547 L 821.872,328.294 L 807.17,322.205 L 762.863,322.205 L 756.221,328.847 L 756.221,362.205M 815.281,178.211 L 806.868,181.956 L 793.987,184.694 L 780.818,184.694 L 767.937,181.956 L 759.523,178.211 L 755.906,181.828 L 755.906,220.17 L 771.844,225.898 L 813.017,223.935 L 838.565,213.352 L 841.31,204.24 L 815.281,178.211M 807.087,1307.84 L 807.087,1350.2 L 813.017,1349.92 L 838.565,1339.34 L 841.31,1330.22 L 815.281,1304.19 L 807.087,1307.84M 731.189,1275.96 L 729.856,1273.65 L 725.787,1261.13 L 724.41,1248.03 L 725.787,1234.93 L 729.856,1222.41 L 731.189,1220.1 L 705.21,1194.12 L 696.38,1196.78 L 683.552,1232.47 L 685.514,1273.65 L 696.097,1299.19 L 705.21,1301.94 L 731.189,1275.96M 759.523,1304.19 L 733.494,1330.22 L 736.154,1339.05 L 767.717,1350.4 L 767.717,1307.84 L 759.523,1304.19M 759.523,1191.87 L 767.937,1188.12 L 780.818,1185.38 L 793.987,1185.38 L 806.868,1188.12 L 815.281,1191.87 L 841.31,1165.84 L 838.65,1157.01 L 802.961,1144.18 L 761.789,1146.14 L 736.239,1156.73 L 733.494,1165.84 L 759.523,1191.87 z " style="fill-opacity:1.000000;fill:rgb(201,154,102);stroke:rgb(0,0,0);stroke-width:2"/></g>
<g fill-rule="evenodd"><path d="M 267.717,-2.55795e-13 L 989.657,-2.55795e-13 L 993.497,0.378243 L 997.19,1.49843 L 1000.59,3.31753 L 1003.58,5.76561 L 1100.17,102.362 L 1121.63,102.362 L 1123.56,96.4261 L 1130.14,85.0215 L 1138.95,75.2351 L 1149.61,67.4945 L 1161.64,62.1383 L 1174.52,59.4003 L 1187.69,59.4003 L 1200.57,62.1383 L 1212.6,67.4945 L 1223.25,75.2351 L 1232.06,85.0215 L 1238.65,96.4261 L 1242.72,108.951 L 1244.1,122.047 L 1242.72,135.144 L 1238.65,147.669 L 1232.06,159.073 L 1223.25,168.86 L 1212.6,176.6 L 1200.57,181.956 L 1187.69,184.694 L 1174.52,184.694 L 1161.64,181.956 L 1152.92,178.073 L 988.19,342.8 L 988.19,1027.28 L 1152.92,1192.01 L 1161.64,1188.12 L 1174.52,1185.38 L 1187.69,1185.38 L 1200.57,1188.12 L 1212.6,1193.48 L 1223.25,1201.22 L 1232.06,1211.01 L 1238.65,1222.41 L 1242.72,1234.93 L 1244.1,1248.03 L 1242.72,1261.13 L 1238.65,1273.65 L 1232.06,1285.06 L 1223.25,1294.84 L 1212.6,1302.58 L 1200.57,1307.94 L 1187.69,1310.68 L 1174.52,1310.68 L 1161.64,1307.94 L 1149.61,1302.58 L 1138.95,1294.84 L 1130.14,1285.06 L 1123.56,1273.65 L 1119.49,1261.13 L 1118.11,1248.03 L 1119.49,1234.93 L 1123.56,1222.41 L 1125.05,1219.82 L 1102.36,1197.13 L 960.631,1338.86 L 960.631,1539.37 L 960.252,1543.21 L 959.132,1546.9 L 957.313,1550.31 L 954.865,1553.29 L 852.503,1655.65 L 849.52,1658.1 L 846.117,1659.92 L 842.424,1661.04 L 838.583,1661.42 L 673.229,1661.42 L 673.229,1622.05 L 830.43,1622.05 L 921.261,1531.22 L 921.261,1330.71 L 921.639,1326.87 L 922.759,1323.18 L 924.578,1319.77 L 927.026,1316.79 L 1074.52,1169.29 L 954.585,1049.35 L 952.137,1046.37 L 950.318,1042.97 L 949.198,1039.27 L 948.82,1035.43 L 948.82,334.646 L 949.198,330.805 L 950.318,327.113 L 952.137,323.709 L 954.585,320.726 L 1125.05,150.259 L 1123.56,147.669 L 1121.63,141.732 L 1092.02,141.732 L 1088.18,141.354 L 1084.49,140.234 L 1081.08,138.415 L 1078.1,135.967 L 981.503,39.3699 L 275.871,39.3699 L 90.552,224.689 L 90.552,590.271 L 122.328,622.047 L 153.544,622.047 L 153.544,574.803 L 287.402,574.803 L 287.402,622.047 L 318.619,622.047 L 430.963,509.703 L 433.946,507.255 L 437.35,505.436 L 441.042,504.315 L 444.883,503.937 L 799.213,503.937 L 799.213,543.307 L 453.036,543.307 L 340.692,655.652 L 337.709,658.1 L 334.306,659.919 L 330.613,661.039 L 326.772,661.417 L 287.402,661.417 L 287.402,708.661 L 153.544,708.661 L 153.544,661.417 L 114.174,661.417 L 110.334,661.039 L 106.641,659.919 L 103.238,658.1 L 100.255,655.652 L 56.9475,612.345 L 54.4994,609.362 L 52.6803,605.958 L 51.5601,602.266 L 51.1819,598.425 L 51.1819,216.536 L 51.5601,212.695 L 52.6803,209.002 L 54.4994,205.599 L 56.9475,202.616 L 253.798,5.76561 L 256.781,3.31753 L 260.184,1.49843 L 263.877,0.378243 L 267.717,-2.55795e-13 z " style="fill-opacity:1.000000;fill:rgb(50,13,183);stroke:rgb(0,0,0);stroke-width:2"/></g>
</svg>
