<?xml version="1.0" standalone="no"?>
<!DOCTYPE svg PUBLIC "-//W3C//DTD SVG 1.1//EN"
"http://www.w3.org/Graphics/SVG/1.1/DTD/svg11.dtd">
<svg width="99.2126" height="123.78" viewBox="0 0 2066.93 2578.74" version="1.1"
xmlns="http://www.w3.org/2000/svg"
xmlns:xlink="http://www.w3.org/1999/xlink">
<g fill-rule="evenodd"><path d="M -9.9476e-14,2578.74 L -9.9476e-14,-2.13163e-13 L 2066.93,-2.13163e-13 L 2066.93,2578.74 L -9.9476e-14,2578.74 z " style="fill-opacity:0.200000;fill:rgb(103,198,105);"/></g>
<polyline points="37.4016,2509.84 37.4016,68.8976 38.0076,62.7536 39.7996,56.8456 42.7096,51.3996 46.6276,46.6276 51.3996,42.7096 56.8456,39.7996 62.7536,38.0076 68.8976,37.4016 1998.03,37.4016 2004.18,38.0076 2010.08,39.7996 2015.53,42.7096 2020.3,46.6276 2024.22,51.3996 2027.13,56.8456 2028.92,62.7536 2029.53,68.8976 2029.53,2509.84 2028.92,2515.99 2027.13,2521.89 2024.22,2527.34 2020.3,2532.11 2015.53,2536.03 2010.08,2538.94 2004.18,2540.73 1998.03,2541.34 68.8976,2541.34 62.7536,2540.73 56.8456,2538.94 51.3996,2536.03 46.6276,2532.11 42.7096,2527.34 39.7996,2521.89 38.0076,2515.99 37.4016,2509.84" style="stroke:rgb(103,198,105);stroke-width:62.992126;fill:none;stroke-opacity:0.5;stroke-linecap:round;stroke-linejoin:round;;fill:none"/>
<polyline points="37.4016,2509.84 37.4016,68.8976 38.0076,62.7536 39.7996,56.8456 42.7096,51.3996 46.6276,46.6276 51.3996,42.7096 56.8456,39.7996 62.7536,38.0076 68.8976,37.4016 1998.03,37.4016 2004.18,38.0076 2010.08,39.7996 2015.53,42.7096 2020.3,46.6276 2024.22,51.3996 2027.13,56.8456 2028.92,62.7536 2029.53,68.8976 2029.53,2509.84 2028.92,2515.99 2027.13,2521.89 2024.22,2527.34 2020.3,2532.11 2015.53,2536.03 2010.08,2538.94 2004.18,2540.73 1998.03,2541.34 68.8976,2541.34 62.7536,2540.73 56.8456,2538.94 51.3996,2536.03 46.6276,2532.11 42.7096,2527.34 39.7996,2521.89 38.0076,2515.99 37.4016,2509.84" style="stroke:rgb(0,0,0);stroke-width:1px;fill:none;stroke-opacity:1;stroke-linecap:round;stroke-linejoin:round;;fill:none"/>
<g fill-rule="evenodd"><path d="M 68.8976,2509.84 L 68.8976,68.8976 L 1998.03,68.8976 L 1998.03,2509.84 L 68.8976,2509.84 z " style="fill-opacity:1.000000;fill:rgb(103,198,105);stroke:rgb(0,0,0);stroke-width:2"/></g>
</svg>
