<?xml version="1.0" standalone="no"?>
<!DOCTYPE svg PUBLIC "-//W3C//DTD SVG 1.1//EN"
"http://www.w3.org/Graphics/SVG/1.1/DTD/svg11.dtd">
<svg width="83.1496" height="103.559" viewBox="0 0 1732.28 2157.48" version="1.1"
xmlns="http://www.w3.org/2000/svg"
xmlns:xlink="http://www.w3.org/1999/xlink">
<g fill-rule="evenodd"><path d="M 654.572,881.743 L 653.034,874.015 L 652.739,871.013 L 652.739,822.757 L 652.54,818.718 L 652.155,814.815 L 650.439,806.274 L 649.257,802.373 L 646.363,794.916 L 645.435,792.955 L 640.368,784.077 L 639.428,782.67 L 650.514,755.905 L 651.171,754.392 L 662.2,746.668 L 673.229,744.094 L 799.213,744.094 L 816.722,744.094 L 817.845,747.765 L 819.443,755.905 L 819.703,758.755 L 819.703,871.013 L 819.407,874.015 L 817.87,881.742 L 813.492,888.294 L 806.94,892.672 L 799.213,894.209 L 796.209,894.505 L 676.231,894.505 L 673.229,894.209 L 665.5,892.672 L 658.948,888.294 L 654.572,881.743 z " style="fill-opacity:0.200000;fill:rgb(103,198,105);"/></g>
<g fill-rule="evenodd"><path d="M 673.229,2023.62 L 657.481,2021.65 L 641.733,2015.75 L 625.985,2005.9 L 610.237,1992.12 L 587.126,1969.01 L 577.601,1946.02 L 649.607,1874.01 L 661.418,1865.16 L 673.229,1862.2 L 799.213,1862.2 L 829.601,1862.2 L 830.709,1874.01 L 830.709,1992.12 L 829.235,2005.75 L 821.781,2014.69 L 812.836,2022.15 L 799.213,2023.62 L 673.229,2023.62 z " style="fill-opacity:0.200000;fill:rgb(115,81,255);"/></g>
<g fill-rule="evenodd"><path d="M 125.984,1590.67 L 125.984,1590.55 L 125.984,1456.69 L 127.219,1445.02 L 130.925,1433.35 L 137.103,1421.68 L 145.751,1410.01 L 148.524,1410.75 L 153.543,1412.23 L 162.605,1415.17 L 171.041,1417.44 L 185.033,1420.42 L 192.497,1421.6 L 206.489,1423.07 L 213.477,1423.44 L 227.469,1423.44 L 234.457,1423.07 L 248.448,1421.6 L 255.912,1420.42 L 257.97,1419.98 L 259.533,1421.16 L 261.493,1422.62 L 270.591,1428.42 L 274.493,1430.5 L 283.906,1434.45 L 287.401,1435.51 L 287.807,1435.63 L 294.508,1437.74 L 294.642,1437.78 L 301.68,1442.41 L 306.058,1448.96 L 307.595,1456.69 L 307.891,1459.69 L 307.891,1587.55 L 307.595,1590.55 L 306.058,1598.28 L 301.454,1605.1 L 299.975,1606.28 L 295.731,1609.5 L 294.086,1610.69 L 288.03,1614.85 L 287.401,1615.28 L 284.135,1617.46 L 280.393,1620.15 L 282.961,1627.75 L 284.577,1631.65 L 287.793,1638.07 L 288.832,1639.81 L 292.455,1644.96 L 294.943,1647.99 L 297.59,1650.92 L 428.91,1782.24 L 431.832,1784.88 L 434.862,1787.37 L 438.189,1789.84 L 440.241,1790.19 L 442.201,1790.48 L 448.15,1790.93 L 622.227,1791.02 L 626.193,1790.83 L 630.094,1790.44 L 638.435,1788.77 L 642.339,1787.58 L 647.79,1785.58 L 649.607,1787.4 L 661.418,1796.26 L 673.229,1799.21 L 799.213,1799.21 L 810.242,1801.79 L 821.271,1809.51 L 821.927,1811.02 L 830.709,1832.22 L 830.709,1850.39 L 829.601,1862.2 L 799.213,1862.2 L 673.229,1862.2 L 661.418,1865.16 L 649.607,1874.01 L 577.601,1946.02 L 421.261,1881.26 L 418.35,1879.97 L 414.644,1878.22 L 409.668,1875.56 L 406.256,1873.52 L 402.059,1870.72 L 398.924,1868.39 L 395.278,1865.4 L 392.416,1862.81 L 390.748,1861.22 L 189.96,1660.43 L 188.372,1658.76 L 185.778,1655.9 L 182.786,1652.25 L 180.462,1649.12 L 177.659,1644.92 L 175.615,1641.51 L 172.96,1636.54 L 171.208,1632.83 L 169.919,1629.92 L 167.428,1623.91 L 153.543,1618.16 L 144.521,1613.42 L 136.921,1607.25 L 130.742,1599.67 L 125.984,1590.67 z " style="fill-opacity:0.200000;fill:rgb(74,236,41);"/></g>
<g fill-rule="evenodd"><path d="M 5.98844e-05,808.151 L 3.90856,807.231 L 4.8284,807.202 L 30.5387,805.888 L 75.6316,802.606 L 94.4055,800.683 L 120.015,797.25 L 135.383,794.598 L 153.543,790.727 L 153.632,790.708 L 167.624,787.733 L 183.893,785.149 L 197.885,783.679 L 213.477,782.86 L 227.469,782.86 L 228.453,782.863 L 287.401,758.446 L 303.44,750.045 L 316.995,739.159 L 328.065,725.789 L 336.65,709.933 L 344.204,705.84 L 347.615,703.796 L 355.095,698.803 L 358.229,696.478 L 364.794,691.092 L 367.656,688.498 L 370.669,685.629 L 470.596,585.703 L 531.388,560.522 L 533.042,559.883 L 536.903,558.501 L 539.798,557.621 L 543.656,556.655 L 546.222,556.143 L 550.082,555.571 L 552.462,555.336 L 556.321,555.146 L 557.481,555.118 L 673.229,555.118 L 799.213,555.118 L 816.722,555.118 L 817.845,558.789 L 819.443,566.929 L 819.703,569.779 L 819.703,603.447 L 819.443,606.299 L 817.845,614.436 L 816.722,618.11 L 799.213,618.11 L 673.229,618.11 L 582.677,618.11 L 581.517,618.138 L 577.658,618.328 L 575.276,618.563 L 571.418,619.135 L 570.98,619.204 L 569.245,620.384 L 566.111,622.709 L 564.312,624.184 L 561.449,626.779 L 560.629,627.559 L 458.267,729.921 L 457.489,730.738 L 454.895,733.6 L 453.414,735.406 L 451.09,738.54 L 449.677,740.657 L 447.632,744.069 L 446.243,746.673 L 444.49,750.378 L 443.787,751.967 L 409.605,834.489 L 336.974,907.119 L 332.82,918.849 L 329.043,927.996 L 322.653,941.394 L 318.933,948.259 L 311.415,960.527 L 307.717,965.912 L 299.126,977.109 L 295.304,981.585 L 285.67,991.738 L 281.49,995.704 L 270.818,1004.82 L 265.947,1008.55 L 254.22,1016.61 L 248.175,1020.31 L 242.082,1023.62 L 234.574,1023.62 L 227.469,1023.62 L 213.477,1023.62 L 206.372,1023.62 L 198.862,1023.62 L 192.771,1026.93 L 186.725,1030.63 L 174.998,1038.69 L 170.127,1042.42 L 159.455,1051.54 L 155.277,1055.5 L 145.641,1065.65 L 141.818,1070.13 L 133.226,1081.33 L 129.527,1086.72 L 122.01,1098.99 L 118.294,1105.84 L 111.903,1119.24 L 108.122,1128.4 L 103.971,1140.12 L 90.3944,1153.7 L 54.278,1240.89 L 53.7246,1242.33 L 52.3439,1246.18 L 51.5927,1248.65 L 50.6255,1252.51 L 50.1937,1254.68 L 49.6214,1258.54 L 49.4248,1260.53 L 49.2354,1264.39 L 49.2116,1265.35 L 49.2116,1610.23 L 49.2354,1611.2 L 49.4248,1615.06 L 49.6212,1617.05 L 50.1935,1620.91 L 50.6262,1623.08 L 51.5934,1626.94 L 52.3423,1629.4 L 53.7229,1633.26 L 54.2781,1634.7 L 72.5779,1678.88 L 478.602,2084.9 L 517.214,2100.89 L 518.874,2101.53 L 522.734,2102.92 L 525.621,2103.79 L 529.481,2104.76 L 532.048,2105.27 L 535.906,2105.84 L 538.288,2106.08 L 542.147,2106.27 L 543.307,2106.3 L 834.645,2106.3 L 835.804,2106.27 L 839.664,2106.08 L 842.047,2105.84 L 845.905,2105.27 L 848.472,2104.76 L 852.332,2103.79 L 855.224,2102.91 L 859.082,2101.53 L 860.738,2100.89 L 892.63,2087.68 L 910.519,2069.79 L 914.505,2060.17 L 915.486,2057.63 L 916.867,2053.77 L 918.261,2049.19 L 919.228,2045.33 L 920.061,2041.15 L 920.633,2037.3 L 921.023,2033.35 L 921.212,2029.49 L 921.26,2027.56 L 921.26,1822.55 L 916.484,1811.02 L 915.861,1809.62 L 914.109,1805.91 L 912.895,1803.64 L 910.849,1800.22 L 909.621,1798.38 L 907.297,1795.25 L 906.032,1793.71 L 903.437,1790.84 L 902.769,1790.14 L 859.463,1746.84 L 858.761,1746.17 L 855.897,1743.57 L 854.353,1742.31 L 851.219,1739.98 L 849.382,1738.76 L 845.971,1736.71 L 845.881,1736.66 L 843.601,1736.44 L 839.742,1736.25 L 838.583,1736.22 L 673.229,1736.22 L 655.719,1736.22 L 654.596,1732.55 L 652.998,1724.41 L 652.739,1721.56 L 652.739,1687.89 L 652.998,1685.04 L 654.597,1676.9 L 655.719,1673.23 L 673.229,1673.23 L 838.583,1673.23 L 839.742,1673.2 L 843.601,1673.01 L 845.983,1672.77 L 849.841,1672.2 L 852.408,1671.69 L 856.268,1670.72 L 859.109,1669.86 L 859.155,1669.85 L 860.653,1669.35 L 863.127,1668.6 L 864.653,1668.1 L 864.876,1668.02 L 868.559,1666.92 L 872.922,1665.83 L 878.276,1664.78 L 883.03,1664.07 L 890.579,1663.34 L 895.78,1663.09 L 900.865,1662.97 L 962.627,1662.97 L 974.216,1690.94 L 987.4,1715.66 L 1004.75,1736.22 L 1006.12,1760.75 L 1006.89,1765.79 L 1007.66,1770.15 L 1009.25,1778.06 L 1010.03,1781.49 L 1010.14,1781.96 L 1011.51,1788.8 L 1012.08,1792.65 L 1012.72,1799.18 L 1012.91,1803.04 L 1012.99,1806.24 L 1012.99,1970.47 L 1015.03,1986.81 L 1021.16,2003.15 L 1031.37,2019.49 L 1045.67,2035.82 L 1100.39,2090.55 L 1112.8,2103.59 L 1116.65,2107.85 L 1147.03,2145.08 L 1150.88,2150.28 L 1155.92,2157.48 L -4.26326e-14,2157.48 L 5.98844e-05,808.151 z " style="fill-opacity:0.200000;fill:rgb(205,186,171);"/></g>
<g fill-rule="evenodd"><path d="M 49.2354,1611.2 L 49.2116,1610.23 L 49.2116,1265.35 L 49.2354,1264.39 L 49.4248,1260.53 L 49.6214,1258.54 L 50.1937,1254.68 L 50.6255,1252.51 L 51.5927,1248.65 L 52.3439,1246.18 L 53.7246,1242.33 L 54.278,1240.89 L 90.3944,1153.7 L 103.971,1140.12 L 108.122,1128.4 L 111.903,1119.24 L 118.294,1105.84 L 122.01,1098.99 L 129.527,1086.72 L 133.226,1081.33 L 141.818,1070.13 L 145.641,1065.65 L 155.277,1055.5 L 159.455,1051.54 L 170.127,1042.42 L 174.998,1038.69 L 186.725,1030.63 L 192.771,1026.93 L 198.862,1023.62 L 206.372,1023.62 L 213.477,1023.62 L 227.469,1023.62 L 234.574,1023.62 L 242.082,1023.62 L 248.175,1020.31 L 254.22,1016.61 L 265.947,1008.55 L 270.818,1004.82 L 281.49,995.704 L 285.67,991.738 L 295.304,981.585 L 299.126,977.109 L 307.717,965.912 L 311.415,960.527 L 318.933,948.259 L 322.653,941.394 L 329.043,927.996 L 332.82,918.849 L 336.974,907.119 L 409.605,834.489 L 443.787,751.967 L 444.49,750.378 L 446.243,746.673 L 447.632,744.069 L 449.677,740.657 L 451.09,738.54 L 453.414,735.406 L 454.895,733.6 L 457.489,730.738 L 458.267,729.921 L 560.629,627.559 L 561.449,626.779 L 564.312,624.184 L 566.111,622.709 L 569.245,620.384 L 570.98,619.204 L 571.418,619.135 L 575.276,618.563 L 577.658,618.328 L 581.517,618.138 L 582.677,618.11 L 673.229,618.11 L 799.213,618.11 L 816.722,618.11 L 817.845,621.781 L 819.443,629.921 L 819.703,632.771 L 819.703,666.439 L 819.443,669.291 L 817.845,677.428 L 816.722,681.102 L 799.213,681.102 L 673.229,681.102 L 633.859,681.102 L 632.699,681.13 L 628.84,681.32 L 626.46,681.555 L 622.6,682.127 L 620.028,682.64 L 616.169,683.607 L 613.286,684.484 L 609.426,685.865 L 607.766,686.506 L 599.397,689.972 L 522.637,766.731 L 521.233,768.206 L 520.766,768.722 L 519.634,771.886 L 518.498,775.621 L 517.532,779.478 L 516.86,782.849 L 516.288,786.709 L 515.976,789.87 L 515.787,793.728 L 515.749,795.275 L 515.749,863.779 L 515.71,865.333 L 515.52,869.192 L 515.208,872.347 L 514.636,876.205 L 513.965,879.57 L 512.999,883.429 L 511.862,887.168 L 510.482,891.028 L 509.669,893.133 L 480.471,963.623 L 336.974,1107.12 L 332.82,1118.85 L 329.043,1128 L 322.653,1141.39 L 318.933,1148.26 L 311.414,1160.53 L 307.717,1165.91 L 299.126,1177.11 L 295.304,1181.59 L 285.67,1191.74 L 281.49,1195.7 L 270.818,1204.82 L 265.947,1208.55 L 254.22,1216.61 L 248.175,1220.31 L 242.082,1223.62 L 234.574,1223.62 L 227.469,1223.62 L 213.477,1223.62 L 206.372,1223.62 L 198.862,1223.62 L 192.771,1226.93 L 186.725,1230.63 L 174.998,1238.69 L 170.127,1242.42 L 159.455,1251.54 L 155.277,1255.5 L 145.641,1265.65 L 141.818,1270.13 L 133.226,1281.33 L 129.688,1286.46 L 129.64,1286.76 L 127.425,1300.75 L 126.793,1306.74 L 126.059,1320.73 L 126.059,1326.51 L 126.793,1340.5 L 127.425,1346.5 L 129.64,1360.49 L 131.063,1367.16 L 134.812,1381.15 L 137.378,1389.03 L 142.751,1403.02 L 145.751,1410.01 L 137.103,1421.68 L 130.925,1433.35 L 127.219,1445.02 L 125.984,1456.69 L 125.984,1590.55 L 125.984,1590.67 L 130.742,1599.67 L 136.921,1607.25 L 144.521,1613.42 L 153.543,1618.16 L 167.428,1623.91 L 169.919,1629.92 L 171.208,1632.83 L 172.96,1636.54 L 175.615,1641.51 L 177.659,1644.92 L 180.462,1649.12 L 182.786,1652.25 L 185.778,1655.9 L 188.372,1658.76 L 189.96,1660.43 L 390.748,1861.22 L 392.416,1862.81 L 395.278,1865.4 L 398.924,1868.39 L 402.059,1870.72 L 406.256,1873.52 L 409.668,1875.56 L 414.644,1878.22 L 418.35,1879.97 L 421.261,1881.26 L 577.601,1946.02 L 587.126,1969.01 L 610.237,1992.12 L 625.985,2005.9 L 641.733,2015.75 L 657.481,2021.65 L 673.229,2023.62 L 799.213,2023.62 L 812.836,2022.15 L 821.781,2014.69 L 829.235,2005.75 L 830.709,1992.12 L 830.709,1874.01 L 829.601,1862.2 L 830.709,1850.39 L 830.709,1832.22 L 821.927,1811.02 L 821.271,1809.51 L 810.242,1801.79 L 799.213,1799.21 L 673.229,1799.21 L 661.418,1796.26 L 649.607,1787.4 L 647.79,1785.58 L 649.257,1781.4 L 650.439,1777.5 L 651.897,1771.05 L 652.188,1769.09 L 652.642,1763.26 L 652.726,1751.02 L 652.998,1748.03 L 654.597,1739.89 L 655.719,1736.22 L 673.229,1736.22 L 838.583,1736.22 L 839.742,1736.25 L 843.601,1736.44 L 845.881,1736.66 L 845.971,1736.71 L 849.382,1738.76 L 851.219,1739.98 L 854.353,1742.31 L 855.897,1743.57 L 858.761,1746.17 L 859.463,1746.84 L 902.769,1790.14 L 903.437,1790.84 L 906.032,1793.71 L 907.297,1795.25 L 909.621,1798.38 L 910.849,1800.22 L 912.895,1803.64 L 914.109,1805.91 L 915.861,1809.62 L 916.484,1811.02 L 921.26,1822.55 L 921.26,2027.56 L 921.212,2029.49 L 921.023,2033.35 L 920.633,2037.3 L 920.061,2041.15 L 919.228,2045.33 L 918.261,2049.19 L 916.867,2053.77 L 915.486,2057.63 L 914.505,2060.17 L 910.519,2069.79 L 892.63,2087.68 L 860.738,2100.89 L 859.082,2101.53 L 855.224,2102.91 L 852.332,2103.79 L 848.472,2104.76 L 845.905,2105.27 L 842.047,2105.84 L 839.664,2106.08 L 835.804,2106.27 L 834.645,2106.3 L 543.307,2106.3 L 542.147,2106.27 L 538.288,2106.08 L 535.906,2105.84 L 532.048,2105.27 L 529.481,2104.76 L 525.621,2103.79 L 522.734,2102.92 L 518.874,2101.53 L 517.214,2100.89 L 478.602,2084.9 L 72.5779,1678.88 L 54.2781,1634.7 L 53.7229,1633.26 L 52.3423,1629.4 L 51.5934,1626.94 L 50.6262,1623.08 L 50.1935,1620.91 L 49.6212,1617.05 L 49.4248,1615.06 L 49.2354,1611.2 z " style="fill-opacity:0.200000;fill:rgb(242,251,227);"/></g>
<g fill-rule="evenodd"><path d="M 126.059,1326.51 L 126.059,1320.73 L 126.793,1306.74 L 127.425,1300.75 L 129.64,1286.76 L 129.688,1286.46 L 133.226,1281.33 L 141.818,1270.13 L 145.641,1265.65 L 155.277,1255.5 L 159.455,1251.54 L 170.127,1242.42 L 174.998,1238.69 L 186.725,1230.63 L 192.771,1226.93 L 198.862,1223.62 L 206.372,1223.62 L 213.477,1223.62 L 227.469,1223.62 L 234.574,1223.62 L 242.082,1223.62 L 248.175,1220.31 L 254.22,1216.61 L 265.947,1208.55 L 270.818,1204.82 L 281.49,1195.7 L 285.67,1191.74 L 295.304,1181.59 L 299.126,1177.11 L 307.717,1165.91 L 311.414,1160.53 L 318.933,1148.26 L 322.653,1141.39 L 329.043,1128 L 332.82,1118.85 L 336.974,1107.12 L 480.471,963.623 L 509.669,893.133 L 510.482,891.028 L 511.862,887.168 L 512.999,883.429 L 513.965,879.57 L 514.636,876.205 L 515.208,872.347 L 515.52,869.192 L 515.71,865.333 L 515.749,863.779 L 515.749,795.275 L 515.787,793.728 L 515.976,789.87 L 516.288,786.709 L 516.86,782.849 L 517.532,779.478 L 518.498,775.621 L 519.634,771.886 L 520.766,768.722 L 521.233,768.206 L 522.637,766.731 L 599.397,689.972 L 607.766,686.506 L 609.426,685.865 L 613.286,684.484 L 616.169,683.607 L 620.028,682.64 L 622.6,682.127 L 626.46,681.555 L 628.84,681.32 L 632.699,681.13 L 633.859,681.102 L 673.229,681.102 L 799.213,681.102 L 816.722,681.102 L 817.845,684.773 L 819.443,692.913 L 819.703,695.763 L 819.703,729.431 L 819.443,732.283 L 817.845,740.42 L 816.722,744.094 L 799.213,744.094 L 673.229,744.094 L 662.2,746.668 L 651.171,754.392 L 650.514,755.905 L 639.428,782.67 L 636.484,783.256 L 626.863,785.888 L 624.822,786.618 L 617.681,789.765 L 614.086,791.686 L 606.993,796.404 L 603.961,798.892 L 600.348,802.248 L 597.65,805.081 L 594.434,808.907 L 593.253,810.5 L 592.053,812.205 L 591.444,816.304 L 591.06,820.204 L 590.867,824.139 L 590.867,986.049 L 591.009,989.428 L 591.279,992.624 L 591.251,992.913 L 591.007,994.895 L 590.44,998.717 L 589.671,1002.58 L 588.731,1006.33 L 588.2,1008.25 L 587.219,1009.98 L 585.233,1013.29 L 583.048,1016.56 L 580.746,1019.67 L 579.514,1021.25 L 579.332,1021.47 L 576.883,1023.54 L 574.382,1025.83 L 313.731,1286.62 L 308.65,1292.82 L 306.44,1296.13 L 305.34,1297.86 L 305.596,1302.38 L 305.694,1303.28 L 305.798,1304.37 L 306.063,1307.59 L 306.352,1310.12 L 308.008,1321.46 L 308.256,1323.5 L 307.974,1325.78 L 305.874,1339.63 L 305.028,1343.74 L 301.518,1357.19 L 301.468,1357.29 L 299.373,1361.1 L 291.98,1372.98 L 289.579,1376.43 L 281.045,1387.4 L 280.958,1387.5 L 279.946,1388.54 L 277.818,1390.65 L 274.211,1394.7 L 271.701,1397.88 L 268.773,1402 L 265.618,1406.93 L 265.385,1407.29 L 263.086,1410.83 L 257.97,1419.98 L 255.912,1420.42 L 248.448,1421.6 L 234.457,1423.07 L 227.469,1423.44 L 213.477,1423.44 L 206.489,1423.07 L 192.497,1421.6 L 185.033,1420.42 L 171.041,1417.44 L 162.605,1415.17 L 153.543,1412.23 L 148.524,1410.75 L 145.751,1410.01 L 142.751,1403.02 L 137.378,1389.03 L 134.812,1381.15 L 131.063,1367.16 L 129.64,1360.49 L 127.425,1346.5 L 126.793,1340.5 L 126.059,1326.51 z " style="fill-opacity:0.200000;fill:rgb(70,124,194);"/></g>
<g fill-rule="evenodd"><path d="M 1732.28,1153.54 L 1732.28,1732.27 L 1730.47,1731.83 L 1688.18,1719.37 L 1670.99,1713.28 L 1655.01,1707.2 L 1653.54,1706.6 L 1639.6,1701.25 L 1624.16,1695.73 L 1595.91,1687.14 L 1580.47,1683.27 L 1554.32,1678.06 L 1538.89,1675.77 L 1513.95,1673.3 L 1498.51,1672.54 L 1486.22,1672.24 L 1444.68,1672.24 L 1425.98,1690.94 L 1409.64,1706.03 L 1393.29,1718.61 L 1376.94,1728.67 L 1360.6,1736.22 L 1319.68,1736.22 L 1045.67,1736.22 L 1004.75,1736.22 L 987.4,1715.66 L 974.216,1690.94 L 962.627,1662.97 L 992.477,1590.9 L 994.457,1585.77 L 995.838,1581.91 L 998.72,1572.43 L 999.686,1568.58 L 1001.45,1559.73 L 1002.02,1555.87 L 1002.86,1547.42 L 1003.05,1543.57 L 1003.15,1539.37 L 1003.15,1501.97 L 1005.81,1480.71 L 1013.78,1459.45 L 1027.07,1438.19 L 1045.67,1416.93 L 1074.27,1388.32 L 1084.83,1391.75 L 1107.23,1397.77 L 1120.4,1400.57 L 1124.12,1401.33 L 1142.77,1396.69 L 1157.14,1392.43 L 1174.52,1386.3 L 1187.69,1380.85 L 1201.23,1374.41 L 1211.15,1369.02 L 1213.31,1367.88 L 1216.65,1366.15 L 1224.5,1361.69 L 1230.12,1358.23 L 1235.89,1354.89 L 1239.97,1352.68 L 1246.31,1348.99 L 1253.19,1344.68 L 1257.56,1342.07 L 1263.24,1338.85 L 1268.57,1335.65 L 1276.81,1330.41 L 1280.15,1328.36 L 1288.57,1323.35 L 1293.31,1320.41 L 1303.17,1314.05 L 1305.78,1312.4 L 1310.63,1309.39 L 1323,1301.06 L 1336.17,1291.5 L 1358.55,1273.3 L 1371.72,1261.44 L 1401.5,1231.5 L 1414.67,1216.87 L 1435.25,1192.64 L 1455.84,1165.68 L 1464.65,1153.54 L 1653.54,1153.54 L 1678.36,1153.54 L 1678.39,1153.54 L 1694.91,1153.54 L 1694.94,1153.54 L 1732.28,1153.54 z " style="fill-opacity:0.200000;fill:rgb(84,248,27);"/></g>
<g fill-rule="evenodd"><path d="M 1732.28,1732.27 L 1732.28,2157.48 L 1155.92,2157.48 L 1150.88,2150.28 L 1147.03,2145.08 L 1116.65,2107.85 L 1112.8,2103.59 L 1100.39,2090.55 L 1045.67,2035.82 L 1031.37,2019.49 L 1021.16,2003.15 L 1015.03,1986.81 L 1012.99,1970.47 L 1012.99,1806.24 L 1012.91,1803.04 L 1012.72,1799.18 L 1012.08,1792.65 L 1011.51,1788.8 L 1010.14,1781.96 L 1010.03,1781.49 L 1009.25,1778.06 L 1007.66,1770.15 L 1006.89,1765.79 L 1006.12,1760.75 L 1004.75,1736.22 L 1045.67,1736.22 L 1319.68,1736.22 L 1360.6,1736.22 L 1376.94,1728.67 L 1393.29,1718.61 L 1409.64,1706.03 L 1425.98,1690.94 L 1444.68,1672.24 L 1486.22,1672.24 L 1498.51,1672.54 L 1513.95,1673.3 L 1538.89,1675.77 L 1554.32,1678.06 L 1580.47,1683.27 L 1595.91,1687.14 L 1624.16,1695.73 L 1639.6,1701.25 L 1653.54,1706.6 L 1655.01,1707.2 L 1670.99,1713.28 L 1688.18,1719.37 L 1730.47,1731.83 L 1732.28,1732.27 z " style="fill-opacity:0.200000;fill:rgb(232,231,141);"/></g>
<g fill-rule="evenodd"><path d="M 1732.28,604.592 L 1732.28,1153.54 L 1694.94,1153.54 L 1694.91,1153.54 L 1678.39,1153.54 L 1678.36,1153.54 L 1653.54,1153.54 L 1464.65,1153.54 L 1460.29,1150.38 L 1414.79,1120.71 L 1401.62,1113.11 L 1362.81,1093.27 L 1349.65,1087.41 L 1315.51,1074.26 L 1302.34,1069.98 L 1271.3,1061.64 L 1263.38,1059.96 L 1258.15,1058.79 L 1249.63,1056.82 L 1234.43,1053.73 L 1229.32,1052.84 L 1216.4,1050.27 L 1207.83,1048.35 L 1204.83,1047.7 L 1193.88,1041.14 L 1171.76,1026.37 L 1159.23,1017.08 L 1139.89,1001.21 L 1128.44,990.834 L 1119.57,982.394 L 1114.18,977.003 L 1111.87,976.047 L 1045.67,909.841 L 1033.09,895.471 L 1024.11,881.101 L 1018.72,866.731 L 1016.93,852.361 L 1016.93,663.385 L 1018.04,652.066 L 1021.39,640.747 L 1026.96,629.428 L 1034.76,618.109 L 1045.67,618.109 L 1319.68,618.109 L 1360.6,618.109 L 1375.68,624.986 L 1390.77,634.004 L 1405.86,645.163 L 1420.94,658.463 L 1509.84,658.463 L 1519.8,658.218 L 1535.23,657.461 L 1555.5,655.46 L 1570.94,653.171 L 1592.27,648.916 L 1607.71,645.049 L 1630.88,638 L 1646.32,632.477 L 1653.54,629.777 L 1659.11,627.608 L 1667.79,624.38 L 1684.98,618.292 L 1719.8,608.038 L 1727.69,606.142 L 1732.28,604.592 z " style="fill-opacity:0.200000;fill:rgb(118,90,46);"/></g>
<g fill-rule="evenodd"><path d="M 1502.26,8.50185e-05 L 1732.28,-2.55795e-13 L 1732.28,604.592 L 1727.69,606.142 L 1719.8,608.038 L 1684.98,618.292 L 1667.79,624.38 L 1659.11,627.608 L 1653.54,629.777 L 1646.32,632.477 L 1630.88,638 L 1607.71,645.049 L 1592.27,648.916 L 1570.94,653.171 L 1555.5,655.46 L 1535.23,657.461 L 1519.8,658.218 L 1509.84,658.463 L 1420.94,658.463 L 1405.86,645.163 L 1390.77,634.004 L 1375.68,624.986 L 1360.6,618.109 L 1319.68,618.109 L 1045.67,618.109 L 1034.76,618.109 L 1026.96,606.79 L 1021.39,595.471 L 1018.04,584.152 L 1016.93,572.833 L 1016.93,383.857 L 1018.47,370.555 L 1023.09,357.253 L 1033.52,349.288 L 1045.67,343.041 L 1187.54,284.275 L 1187.69,284.275 L 1208.62,283.175 L 1221.79,281.791 L 1243.48,278.345 L 1256.65,275.546 L 1279.94,269.289 L 1293.11,265.01 L 1318.97,255.051 L 1319.68,254.733 L 1332.41,249.429 L 1365.95,236.355 L 1382.07,230.456 L 1391.68,227.159 L 1402.88,220.108 L 1413.09,204.355 L 1414.71,201.706 L 1418.23,192.18 L 1432.53,155.086 L 1437.68,142.387 L 1455.79,99.8076 L 1461.95,85.9178 L 1488.14,29.1942 L 1495.95,12.807 L 1502.26,8.50185e-05 z " style="fill-opacity:0.200000;fill:rgb(99,51,159);"/></g>
<g fill-rule="evenodd"><path d="M 110.67,362.262 L 110.551,359.136 L 110.647,243.415 L 111.09,237.478 L 111.381,235.517 L 111.738,233.465 L 114.203,230.138 L 116.691,227.108 L 119.338,224.187 L 163.34,180.183 L 163.341,180.183 L 275.368,68.1562 L 276.783,66.8088 L 278.236,65.4909 L 283.029,61.7549 L 284.685,60.6481 L 286.634,60.2603 L 294.63,59.4648 L 680.98,59.4608 L 688.772,60.2162 L 692.582,60.955 L 701.289,63.5542 L 705.095,65.0887 L 712.298,68.5786 L 716.113,66.7205 L 729.28,60.8574 L 733.595,59.1956 L 746.765,54.9158 L 749.928,54.0659 L 763.098,51.267 L 765.543,50.8786 L 778.711,49.4945 L 780.817,49.3838 L 793.987,49.3838 L 796.092,49.4945 L 809.26,50.8786 L 811.706,51.2671 L 824.874,54.0661 L 828.036,54.9158 L 841.206,59.1956 L 845.518,60.8563 L 858.687,66.7191 L 863.327,69.0205 L 867.173,66.9651 L 877.092,62.8096 L 880.994,61.6259 L 889.341,59.948 L 893.242,59.5633 L 897.187,59.3688 L 960.791,59.3688 L 964.733,59.5631 L 968.636,59.9478 L 972.727,60.5562 L 976.053,63.0215 L 979.084,65.5088 L 982.005,68.1563 L 1059.1,145.254 L 1060.56,146.79 L 1061.99,148.377 L 1063.68,150.385 L 1064.94,151.982 L 1065.72,153.008 L 1067.32,155.162 L 1068.14,156.232 L 1070.18,158.822 L 1072.7,162.299 L 1074,164.25 L 1073.83,164.661 L 1072.21,168.563 L 1068.99,175.002 L 1067.95,176.735 L 1064.33,181.873 L 1061.85,184.904 L 1059.2,187.825 L 945.295,301.731 L 942.801,304.022 L 940.351,306.09 L 940.17,306.31 L 938.938,307.889 L 936.637,310.993 L 934.459,314.252 L 932.472,317.564 L 931.483,319.311 L 930.949,321.239 L 930.011,324.988 L 929.244,328.841 L 928.678,332.662 L 928.433,334.645 L 928.405,334.93 L 928.675,338.124 L 928.819,341.509 L 928.819,455.373 L 933.909,467.662 L 934.464,469.101 L 935.845,472.96 L 936.594,475.422 L 937.561,479.28 L 937.994,481.45 L 938.566,485.31 L 938.762,487.3 L 938.952,491.158 L 938.976,492.125 L 938.976,1035.43 L 938.999,1036.4 L 939.189,1040.26 L 939.385,1042.25 L 939.958,1046.11 L 940.39,1048.27 L 941.357,1052.13 L 942.108,1054.6 L 943.489,1058.46 L 944.042,1059.89 L 949.133,1072.18 L 1025.02,1148.08 L 1027.67,1151 L 1030.16,1154.03 L 1034.88,1161.12 L 1036.8,1164.71 L 1038.96,1169.29 L 1037.91,1171.66 L 1037.02,1173.54 L 1034.81,1177.68 L 1033.77,1179.41 L 1030.16,1184.55 L 1027.67,1187.58 L 1025.03,1190.5 L 918.807,1296.72 L 917.298,1298.15 L 915.756,1299.54 L 912.456,1302.22 L 912.451,1302.22 L 910.813,1303.48 L 910.779,1303.51 L 907.605,1305.84 L 907.04,1306.22 L 906.035,1306.91 L 905.655,1308.54 L 905.438,1309.55 L 904.56,1312.97 L 904.434,1313.39 L 903.989,1314.98 L 903.463,1317.02 L 903.392,1317.3 L 902.453,1321.05 L 901.686,1324.9 L 901.12,1328.72 L 900.875,1330.71 L 900.847,1330.99 L 901.117,1334.19 L 901.261,1337.57 L 901.261,1510.5 L 901.066,1514.45 L 900.681,1518.35 L 900.073,1522.44 L 897.608,1525.77 L 895.121,1528.8 L 892.473,1531.72 L 870.425,1553.77 L 867.504,1556.41 L 864.473,1558.9 L 857.386,1563.62 L 853.791,1565.54 L 846.642,1568.69 L 844.599,1569.42 L 834.949,1572.06 L 832.798,1572.49 L 832.647,1572.54 L 821.927,1598.42 L 821.271,1599.94 L 810.242,1607.66 L 799.213,1610.24 L 673.229,1610.24 L 655.601,1610.24 L 654.316,1614.84 L 652.995,1622.05 L 652.739,1624.88 L 652.739,1658.56 L 652.998,1661.42 L 654.596,1669.55 L 655.719,1673.23 L 654.597,1676.9 L 652.998,1685.04 L 652.739,1687.89 L 652.739,1721.56 L 652.998,1724.41 L 654.596,1732.55 L 655.719,1736.22 L 654.597,1739.89 L 652.998,1748.03 L 652.726,1751.02 L 652.642,1763.26 L 652.188,1769.09 L 651.897,1771.05 L 650.439,1777.5 L 649.257,1781.4 L 647.79,1785.58 L 642.339,1787.58 L 638.435,1788.77 L 630.094,1790.44 L 626.193,1790.83 L 622.227,1791.02 L 448.15,1790.93 L 442.201,1790.48 L 440.241,1790.19 L 438.189,1789.84 L 434.862,1787.37 L 431.832,1784.88 L 428.91,1782.24 L 297.59,1650.92 L 294.943,1647.99 L 292.455,1644.96 L 288.832,1639.81 L 287.793,1638.07 L 284.577,1631.65 L 282.961,1627.75 L 280.393,1620.15 L 284.135,1617.46 L 287.401,1615.28 L 288.03,1614.85 L 294.086,1610.69 L 295.731,1609.5 L 299.975,1606.28 L 301.454,1605.1 L 306.058,1598.28 L 307.595,1590.55 L 307.891,1587.55 L 307.891,1459.69 L 307.595,1456.69 L 306.058,1448.96 L 301.68,1442.41 L 294.642,1437.78 L 294.508,1437.74 L 287.807,1435.63 L 287.401,1435.51 L 283.906,1434.45 L 274.493,1430.5 L 270.591,1428.42 L 261.493,1422.62 L 259.533,1421.16 L 257.97,1419.98 L 263.086,1410.83 L 265.385,1407.29 L 265.618,1406.93 L 268.773,1402 L 271.701,1397.88 L 274.211,1394.7 L 277.818,1390.65 L 279.946,1388.54 L 280.958,1387.5 L 281.045,1387.4 L 289.579,1376.43 L 291.98,1372.98 L 299.373,1361.1 L 301.468,1357.29 L 301.518,1357.19 L 305.028,1343.74 L 305.874,1339.63 L 307.974,1325.78 L 308.256,1323.5 L 308.008,1321.46 L 306.352,1310.12 L 306.063,1307.59 L 305.798,1304.37 L 305.694,1303.28 L 305.596,1302.38 L 305.34,1297.86 L 306.44,1296.13 L 308.65,1292.82 L 313.731,1286.62 L 574.382,1025.83 L 576.883,1023.54 L 579.332,1021.47 L 579.514,1021.25 L 580.746,1019.67 L 583.048,1016.56 L 585.233,1013.29 L 587.219,1009.98 L 588.2,1008.25 L 588.731,1006.33 L 589.671,1002.58 L 590.44,998.717 L 591.007,994.895 L 591.251,992.913 L 591.279,992.624 L 591.009,989.428 L 590.867,986.049 L 590.867,824.139 L 591.06,820.204 L 591.444,816.304 L 592.053,812.205 L 593.253,810.5 L 594.434,808.907 L 597.65,805.081 L 600.348,802.248 L 603.961,798.892 L 606.993,796.404 L 614.086,791.686 L 617.681,789.765 L 624.822,786.618 L 626.863,785.888 L 636.484,783.256 L 639.428,782.67 L 640.368,784.077 L 645.435,792.955 L 646.363,794.916 L 649.257,802.373 L 650.439,806.274 L 652.155,814.815 L 652.54,818.718 L 652.739,822.757 L 652.739,871.013 L 653.034,874.015 L 654.572,881.743 L 658.948,888.294 L 665.5,892.672 L 673.229,894.209 L 676.231,894.505 L 796.209,894.505 L 799.213,894.209 L 806.94,892.672 L 813.492,888.294 L 817.87,881.742 L 819.407,874.015 L 819.703,871.013 L 819.703,758.755 L 819.443,755.905 L 817.845,747.765 L 816.722,744.094 L 817.845,740.42 L 819.443,732.283 L 819.703,729.431 L 819.703,695.763 L 819.443,692.913 L 817.845,684.773 L 816.722,681.102 L 817.845,677.428 L 819.443,669.291 L 819.703,666.439 L 819.703,632.771 L 819.443,629.921 L 817.845,621.781 L 816.722,618.11 L 817.845,614.436 L 819.443,606.299 L 819.703,603.447 L 819.703,569.779 L 819.443,566.929 L 817.845,558.789 L 816.722,555.118 L 817.845,551.444 L 819.443,543.307 L 819.703,540.455 L 819.703,506.774 L 819.446,503.937 L 818.126,496.73 L 816.84,492.126 L 799.213,492.126 L 673.229,492.126 L 662.664,489.764 L 652.1,482.677 L 635.52,482.677 L 631.074,483.358 L 627.173,483.742 L 623.229,483.937 L 451.745,483.937 L 448.359,483.794 L 445.168,483.523 L 444.883,483.551 L 442.901,483.796 L 439.078,484.363 L 435.221,485.13 L 431.474,486.068 L 429.548,486.601 L 427.814,487.583 L 424.5,489.569 L 421.224,491.757 L 418.122,494.059 L 416.548,495.287 L 416.325,495.47 L 414.258,497.919 L 411.967,500.413 L 347.767,564.613 L 344.845,567.261 L 341.815,569.748 L 336.658,573.372 L 334.924,574.41 L 328.505,577.626 L 324.603,579.242 L 316.998,581.81 L 314.31,578.07 L 312.127,574.803 L 311.701,574.174 L 307.539,568.118 L 306.351,566.473 L 303.133,562.229 L 301.955,560.75 L 295.13,556.146 L 292.906,555.54 L 289.149,554.631 L 287.401,554.248 L 285.344,553.844 L 276.848,551.28 L 273.028,549.725 L 262.451,544.119 L 258.632,541.626 L 254.571,538.797 L 248.453,539.71 L 234.461,541.181 L 227.469,541.549 L 213.477,541.549 L 206.484,541.181 L 192.492,539.71 L 185.033,538.525 L 171.041,535.55 L 162.605,533.283 L 153.543,530.339 L 148.524,528.86 L 140.411,526.703 L 139.394,524.154 L 134.022,510.161 L 131.158,501.376 L 127.409,487.386 L 125.802,479.843 L 123.586,465.851 L 122.867,459.028 L 122.133,445.035 L 122.133,438.426 L 122.867,424.435 L 123.586,417.613 L 125.802,403.62 L 126.029,402.265 L 122.764,397.344 L 120.817,394.157 L 116.334,385.398 L 115.068,382.327 L 112.697,375.04 L 111.937,371.853 L 110.908,365.332 L 110.67,362.262 z " style="fill-opacity:0.200000;fill:rgb(201,154,102);"/></g>
<g fill-rule="evenodd"><path d="M 1502.26,-0.000220586 L 1495.95,12.807 L 1488.14,29.1942 L 1461.95,85.9178 L 1455.79,99.8076 L 1437.68,142.387 L 1432.53,155.086 L 1418.23,192.18 L 1414.71,201.706 L 1413.09,204.355 L 1402.88,220.108 L 1391.68,227.159 L 1382.07,230.456 L 1365.95,236.355 L 1332.41,249.429 L 1319.68,254.733 L 1318.97,255.051 L 1293.11,265.01 L 1279.94,269.289 L 1256.65,275.546 L 1243.48,278.345 L 1221.79,281.791 L 1208.62,283.175 L 1187.69,284.275 L 1187.54,284.275 L 1045.67,343.041 L 1033.52,349.288 L 1023.09,357.253 L 1018.47,370.555 L 1016.93,383.857 L 1016.93,572.833 L 1018.04,584.152 L 1021.39,595.471 L 1026.96,606.79 L 1034.76,618.109 L 1026.96,629.428 L 1021.39,640.747 L 1018.04,652.066 L 1016.93,663.385 L 1016.93,852.361 L 1018.72,866.731 L 1024.11,881.101 L 1033.09,895.471 L 1045.67,909.841 L 1111.87,976.047 L 1114.18,977.003 L 1119.57,982.394 L 1128.44,990.834 L 1139.89,1001.21 L 1159.23,1017.08 L 1171.76,1026.37 L 1193.88,1041.14 L 1204.83,1047.7 L 1207.83,1048.35 L 1216.4,1050.27 L 1229.32,1052.84 L 1234.43,1053.73 L 1249.63,1056.82 L 1258.15,1058.79 L 1263.38,1059.96 L 1271.3,1061.64 L 1302.34,1069.98 L 1315.51,1074.26 L 1349.65,1087.41 L 1362.81,1093.27 L 1401.62,1113.11 L 1414.79,1120.71 L 1460.29,1150.38 L 1464.65,1153.54 L 1455.84,1165.68 L 1435.25,1192.64 L 1414.67,1216.87 L 1401.5,1231.5 L 1371.72,1261.44 L 1358.55,1273.3 L 1336.17,1291.5 L 1323,1301.06 L 1310.63,1309.39 L 1305.78,1312.4 L 1303.17,1314.05 L 1293.31,1320.41 L 1288.57,1323.35 L 1280.15,1328.36 L 1276.81,1330.41 L 1268.57,1335.65 L 1263.24,1338.85 L 1257.56,1342.07 L 1253.19,1344.68 L 1246.31,1348.99 L 1239.97,1352.68 L 1235.89,1354.89 L 1230.12,1358.23 L 1224.5,1361.69 L 1216.65,1366.15 L 1213.31,1367.88 L 1211.15,1369.02 L 1201.23,1374.41 L 1187.69,1380.85 L 1174.52,1386.3 L 1157.14,1392.43 L 1142.77,1396.69 L 1124.12,1401.33 L 1120.4,1400.57 L 1107.23,1397.77 L 1084.83,1391.75 L 1074.27,1388.32 L 1045.67,1416.93 L 1027.07,1438.19 L 1013.78,1459.45 L 1005.81,1480.71 L 1003.15,1501.97 L 1003.15,1539.37 L 1003.05,1543.57 L 1002.86,1547.42 L 1002.02,1555.87 L 1001.45,1559.73 L 999.686,1568.58 L 998.72,1572.43 L 995.838,1581.91 L 994.457,1585.77 L 992.477,1590.9 L 962.627,1662.97 L 900.865,1662.97 L 895.78,1663.09 L 890.579,1663.34 L 883.03,1664.07 L 878.276,1664.78 L 872.922,1665.83 L 868.559,1666.92 L 864.876,1668.02 L 864.653,1668.1 L 863.127,1668.6 L 860.653,1669.35 L 859.155,1669.85 L 859.109,1669.86 L 856.268,1670.72 L 852.408,1671.69 L 849.841,1672.2 L 845.983,1672.77 L 843.601,1673.01 L 839.742,1673.2 L 838.583,1673.23 L 673.229,1673.23 L 655.719,1673.23 L 654.596,1669.55 L 652.998,1661.42 L 652.739,1658.56 L 652.739,1624.88 L 652.995,1622.05 L 654.316,1614.84 L 655.601,1610.24 L 673.229,1610.24 L 799.213,1610.24 L 810.242,1607.66 L 821.271,1599.94 L 821.927,1598.42 L 832.647,1572.54 L 832.798,1572.49 L 834.949,1572.06 L 844.599,1569.42 L 846.642,1568.69 L 853.791,1565.54 L 857.386,1563.62 L 864.473,1558.9 L 867.504,1556.41 L 870.425,1553.77 L 892.473,1531.72 L 895.121,1528.8 L 897.608,1525.77 L 900.073,1522.44 L 900.681,1518.35 L 901.066,1514.45 L 901.261,1510.5 L 901.261,1337.57 L 901.117,1334.19 L 900.847,1330.99 L 900.875,1330.71 L 901.12,1328.72 L 901.686,1324.9 L 902.453,1321.05 L 903.392,1317.3 L 903.463,1317.02 L 903.989,1314.98 L 904.434,1313.39 L 904.56,1312.97 L 905.438,1309.55 L 905.655,1308.54 L 906.035,1306.91 L 907.04,1306.22 L 907.605,1305.84 L 910.779,1303.51 L 910.813,1303.48 L 912.451,1302.22 L 912.456,1302.22 L 915.756,1299.54 L 917.298,1298.15 L 918.807,1296.72 L 1025.03,1190.5 L 1027.67,1187.58 L 1030.16,1184.55 L 1033.77,1179.41 L 1034.81,1177.68 L 1037.02,1173.54 L 1037.91,1171.66 L 1038.96,1169.29 L 1036.8,1164.71 L 1034.88,1161.12 L 1030.16,1154.03 L 1027.67,1151 L 1025.02,1148.08 L 949.133,1072.18 L 944.042,1059.89 L 943.489,1058.46 L 942.108,1054.6 L 941.357,1052.13 L 940.39,1048.27 L 939.958,1046.11 L 939.385,1042.25 L 939.189,1040.26 L 938.999,1036.4 L 938.976,1035.43 L 938.976,492.125 L 938.952,491.158 L 938.762,487.3 L 938.566,485.31 L 937.994,481.45 L 937.561,479.28 L 936.594,475.422 L 935.845,472.96 L 934.464,469.101 L 933.909,467.662 L 928.819,455.373 L 928.819,341.509 L 928.675,338.124 L 928.405,334.93 L 928.433,334.645 L 928.678,332.662 L 929.244,328.841 L 930.011,324.988 L 930.949,321.239 L 931.483,319.311 L 932.472,317.564 L 934.459,314.252 L 936.637,310.993 L 938.938,307.889 L 940.17,306.31 L 940.351,306.09 L 942.801,304.022 L 945.295,301.731 L 1059.2,187.825 L 1061.85,184.904 L 1064.33,181.873 L 1067.95,176.735 L 1068.99,175.002 L 1072.21,168.563 L 1073.83,164.661 L 1074,164.25 L 1072.7,162.299 L 1070.18,158.822 L 1068.14,156.232 L 1067.32,155.162 L 1065.72,153.008 L 1064.94,151.982 L 1063.68,150.385 L 1061.99,148.377 L 1060.56,146.79 L 1059.1,145.254 L 982.005,68.1563 L 979.084,65.5088 L 976.053,63.0215 L 972.727,60.5562 L 968.636,59.9478 L 964.733,59.5631 L 960.791,59.3688 L 897.187,59.3688 L 893.242,59.5633 L 889.341,59.948 L 880.994,61.6259 L 877.092,62.8096 L 867.173,66.9651 L 863.327,69.0205 L 858.687,66.7191 L 845.518,60.8563 L 841.206,59.1956 L 828.036,54.9158 L 824.874,54.0661 L 811.706,51.2671 L 809.26,50.8786 L 796.092,49.4945 L 793.987,49.3838 L 780.817,49.3838 L 778.711,49.4945 L 765.543,50.8786 L 763.098,51.267 L 749.928,54.0659 L 746.765,54.9158 L 733.595,59.1956 L 729.28,60.8574 L 716.113,66.7205 L 712.298,68.5786 L 705.095,65.0887 L 701.289,63.5542 L 692.582,60.955 L 688.772,60.2162 L 680.98,59.4608 L 294.63,59.4648 L 286.634,60.2603 L 284.685,60.6481 L 283.029,61.7549 L 278.236,65.4909 L 276.783,66.8088 L 275.368,68.1562 L 163.341,180.183 L 163.34,180.183 L 119.338,224.187 L 116.691,227.108 L 114.203,230.138 L 111.738,233.465 L 111.381,235.517 L 111.09,237.478 L 110.647,243.415 L 110.551,359.136 L 110.67,362.262 L 110.908,365.332 L 111.937,371.853 L 112.697,375.04 L 115.068,382.327 L 116.334,385.398 L 120.817,394.157 L 122.764,397.344 L 126.029,402.265 L 125.802,403.62 L 123.586,417.613 L 122.867,424.435 L 122.133,438.426 L 122.133,445.035 L 122.867,459.028 L 123.586,465.851 L 125.802,479.843 L 127.409,487.386 L 131.158,501.376 L 134.022,510.161 L 139.394,524.154 L 140.411,526.703 L 148.524,528.86 L 153.543,530.339 L 162.605,533.283 L 171.041,535.55 L 185.033,538.525 L 192.492,539.71 L 206.484,541.181 L 213.477,541.549 L 227.469,541.549 L 234.461,541.181 L 248.453,539.71 L 254.571,538.797 L 258.632,541.626 L 262.451,544.119 L 273.028,549.725 L 276.848,551.28 L 285.344,553.844 L 287.401,554.248 L 289.149,554.631 L 292.906,555.54 L 295.13,556.146 L 301.955,560.75 L 303.133,562.229 L 306.351,566.473 L 307.539,568.118 L 311.701,574.174 L 312.127,574.803 L 314.31,578.07 L 316.998,581.81 L 324.603,579.242 L 328.505,577.626 L 334.924,574.41 L 336.658,573.372 L 341.815,569.748 L 344.845,567.261 L 347.767,564.613 L 411.967,500.413 L 414.258,497.919 L 416.325,495.47 L 416.548,495.287 L 418.122,494.059 L 421.224,491.757 L 424.5,489.569 L 427.814,487.583 L 429.548,486.601 L 431.474,486.068 L 435.221,485.13 L 439.078,484.363 L 442.901,483.796 L 444.883,483.551 L 445.168,483.523 L 448.359,483.794 L 451.745,483.937 L 623.229,483.937 L 627.173,483.742 L 631.074,483.358 L 635.52,482.677 L 652.1,482.677 L 662.664,489.764 L 673.229,492.126 L 799.213,492.126 L 816.84,492.126 L 818.126,496.73 L 819.446,503.937 L 819.703,506.774 L 819.703,540.455 L 819.443,543.307 L 817.845,551.444 L 816.722,555.118 L 799.213,555.118 L 673.229,555.118 L 557.481,555.118 L 556.321,555.146 L 552.462,555.336 L 550.082,555.571 L 546.222,556.143 L 543.656,556.655 L 539.798,557.621 L 536.903,558.501 L 533.042,559.883 L 531.388,560.522 L 470.596,585.703 L 370.669,685.629 L 367.656,688.498 L 364.794,691.092 L 358.229,696.478 L 355.095,698.803 L 347.615,703.796 L 344.204,705.84 L 336.65,709.933 L 328.065,725.789 L 316.995,739.159 L 303.44,750.045 L 287.401,758.446 L 228.453,782.863 L 227.469,782.86 L 213.477,782.86 L 197.885,783.679 L 183.893,785.149 L 167.624,787.733 L 153.632,790.708 L 153.543,790.727 L 135.383,794.598 L 120.015,797.25 L 94.4055,800.683 L 75.6316,802.606 L 30.5387,805.888 L 4.8284,807.202 L 3.90856,807.231 L 5.98844e-05,808.151 L -4.26326e-14,-2.55795e-13 L 1502.26,-0.000220586 z " style="fill-opacity:0.200000;fill:rgb(50,13,183);"/></g>
<polyline points="673.229,874.015 673.229,755.905 799.213,755.905 799.213,874.015 673.229,874.015" style="stroke:rgb(103,198,105);stroke-width:0.000000;fill:none;stroke-opacity:0.5;stroke-linecap:round;stroke-linejoin:round;;fill:none"/>
<polyline points="673.229,874.015 673.229,755.905 799.213,755.905 799.213,874.015 673.229,874.015" style="stroke:rgb(0,0,0);stroke-width:1px;fill:none;stroke-opacity:1;stroke-linecap:round;stroke-linejoin:round;;fill:none"/>
<polyline points="673.229,1992.12 673.229,1874.01 799.213,1874.01 799.213,1992.12 673.229,1992.12" style="stroke:rgb(115,81,255);stroke-width:0.000000;fill:none;stroke-opacity:0.5;stroke-linecap:round;stroke-linejoin:round;;fill:none"/>
<polyline points="673.229,1992.12 673.229,1874.01 799.213,1874.01 799.213,1992.12 673.229,1992.12" style="stroke:rgb(0,0,0);stroke-width:1px;fill:none;stroke-opacity:1;stroke-linecap:round;stroke-linejoin:round;;fill:none"/>
<polyline points="153.543,1590.55 153.543,1456.69 287.401,1456.69 287.401,1590.55 240.157,1590.55 240.157,1621.77 429.413,1811.02 799.213,1811.02 799.213,1850.39 421.261,1850.39 413.727,1848.89 407.341,1844.63 206.553,1643.84 201.165,1633.76 200.787,1590.55 153.543,1590.55" style="stroke:rgb(74,236,41);stroke-width:0.000000;fill:none;stroke-opacity:0.5;stroke-linecap:round;stroke-linejoin:round;;fill:none"/>
<polyline points="153.543,1590.55 153.543,1456.69 287.401,1456.69 287.401,1590.55 240.157,1590.55 240.157,1621.77 429.413,1811.02 799.213,1811.02 799.213,1850.39 421.261,1850.39 413.727,1848.89 407.341,1844.63 206.553,1643.84 201.165,1633.76 200.787,1590.55 153.543,1590.55" style="stroke:rgb(0,0,0);stroke-width:1px;fill:none;stroke-opacity:1;stroke-linecap:round;stroke-linejoin:round;;fill:none"/>
<polyline points="-0.00137008,1700.78 -0.00137008,1124.41 3.31663,1113.47 161.555,954.699 155.007,937.537 153.543,923.621 155.007,909.705 159.329,896.399 166.325,884.281 175.689,873.883 187.009,865.659 199.791,859.967 213.477,857.059 227.469,857.059 241.155,859.967 251.625,864.629 546.545,570.245 557.481,566.929 799.213,566.929 799.213,606.299 565.635,606.299 279.389,892.543 285.939,909.705 287.401,923.621 285.939,937.537 281.615,950.843 274.619,962.961 265.257,973.359 253.937,981.583 241.155,987.275 227.469,990.183 213.477,990.183 199.791,987.275 189.319,982.613 39.3686,1132.56 39.3686,1692.63 464.847,2118.11 905.233,2118.11 940.945,2082.4 940.945,1814.4 850.955,1724.41 673.229,1724.41 673.229,1685.04 859.109,1685.04 866.641,1686.54 873.027,1690.8 974.549,1792.32 979.937,1802.4 980.315,2090.55 976.997,2101.49 927.305,2151.71 917.227,2157.1 456.693,2157.48 449.159,2155.98 442.773,2151.71 5.76463,1714.7 1.49663,1708.32 -0.00137008,1700.78" style="stroke:rgb(205,186,171);stroke-width:0.000000;fill:none;stroke-opacity:0.5;stroke-linecap:round;stroke-linejoin:round;;fill:none"/>
<polyline points="-0.00137008,1700.78 -0.00137008,1124.41 3.31663,1113.47 161.555,954.699 155.007,937.537 153.543,923.621 155.007,909.705 159.329,896.399 166.325,884.281 175.689,873.883 187.009,865.659 199.791,859.967 213.477,857.059 227.469,857.059 241.155,859.967 251.625,864.629 546.545,570.245 557.481,566.929 799.213,566.929 799.213,606.299 565.635,606.299 279.389,892.543 285.939,909.705 287.401,923.621 285.939,937.537 281.615,950.843 274.619,962.961 265.257,973.359 253.937,981.583 241.155,987.275 227.469,990.183 213.477,990.183 199.791,987.275 189.319,982.613 39.3686,1132.56 39.3686,1692.63 464.847,2118.11 905.233,2118.11 940.945,2082.4 940.945,1814.4 850.955,1724.41 673.229,1724.41 673.229,1685.04 859.109,1685.04 866.641,1686.54 873.027,1690.8 974.549,1792.32 979.937,1802.4 980.315,2090.55 976.997,2101.49 927.305,2151.71 917.227,2157.1 456.693,2157.48 449.159,2155.98 442.773,2151.71 5.76463,1714.7 1.49663,1708.32 -0.00137008,1700.78" style="stroke:rgb(0,0,0);stroke-width:1px;fill:none;stroke-opacity:1;stroke-linecap:round;stroke-linejoin:round;;fill:none"/>
<polyline points="59.0546,1610.23 59.4326,1261.51 64.8206,1251.43 161.555,1154.7 155.007,1137.54 153.543,1123.62 155.007,1109.7 159.329,1096.4 166.325,1084.28 175.689,1073.88 187.009,1065.66 199.791,1059.97 213.477,1057.06 227.469,1057.06 241.155,1059.97 251.625,1064.63 460.631,855.625 460.631,751.967 462.129,744.435 466.395,738.049 571.741,633.239 582.677,629.921 799.213,629.921 799.213,669.291 590.831,669.291 500.001,760.121 500.001,863.779 496.683,874.715 279.389,1092.54 285.939,1109.7 287.401,1123.62 285.939,1137.54 281.615,1150.84 274.619,1162.96 265.257,1173.36 253.937,1181.58 241.155,1187.27 227.469,1190.18 213.477,1190.18 199.791,1187.27 189.319,1182.61 98.4246,1273.51 98.4246,1602.08 551.461,2055.12 826.493,2055.12 862.205,2019.4 862.205,1819.18 830.429,1787.4 673.229,1787.4 673.229,1748.03 838.583,1748.03 849.519,1751.35 895.809,1797.1 901.197,1807.18 901.575,2027.56 898.257,2038.49 848.565,2088.72 838.487,2094.11 543.307,2094.49 535.775,2092.99 529.387,2088.72 64.8206,1624.15 60.5526,1617.77 59.0546,1610.23" style="stroke:rgb(242,251,227);stroke-width:0.000000;fill:none;stroke-opacity:0.5;stroke-linecap:round;stroke-linejoin:round;;fill:none"/>
<polyline points="59.0546,1610.23 59.4326,1261.51 64.8206,1251.43 161.555,1154.7 155.007,1137.54 153.543,1123.62 155.007,1109.7 159.329,1096.4 166.325,1084.28 175.689,1073.88 187.009,1065.66 199.791,1059.97 213.477,1057.06 227.469,1057.06 241.155,1059.97 251.625,1064.63 460.631,855.625 460.631,751.967 462.129,744.435 466.395,738.049 571.741,633.239 582.677,629.921 799.213,629.921 799.213,669.291 590.831,669.291 500.001,760.121 500.001,863.779 496.683,874.715 279.389,1092.54 285.939,1109.7 287.401,1123.62 285.939,1137.54 281.615,1150.84 274.619,1162.96 265.257,1173.36 253.937,1181.58 241.155,1187.27 227.469,1190.18 213.477,1190.18 199.791,1187.27 189.319,1182.61 98.4246,1273.51 98.4246,1602.08 551.461,2055.12 826.493,2055.12 862.205,2019.4 862.205,1819.18 830.429,1787.4 673.229,1787.4 673.229,1748.03 838.583,1748.03 849.519,1751.35 895.809,1797.1 901.197,1807.18 901.575,2027.56 898.257,2038.49 848.565,2088.72 838.487,2094.11 543.307,2094.49 535.775,2092.99 529.387,2088.72 64.8206,1624.15 60.5526,1617.77 59.0546,1610.23" style="stroke:rgb(0,0,0);stroke-width:1px;fill:none;stroke-opacity:1;stroke-linecap:round;stroke-linejoin:round;;fill:none"/>
<polyline points="153.543,1323.62 155.007,1337.54 159.329,1350.84 166.325,1362.96 175.689,1373.36 187.009,1381.58 199.791,1387.27 213.477,1390.18 227.469,1390.18 241.155,1387.27 253.937,1381.58 265.257,1373.36 274.619,1362.96 281.615,1350.84 285.939,1337.54 287.401,1323.62 285.939,1309.7 279.389,1292.54 567.549,1003.85 570.867,992.913 570.867,803.429 642.013,732.283 799.213,732.283 799.213,692.913 633.859,692.913 626.325,694.411 619.939,698.679 537.261,781.355 532.995,787.741 531.497,795.275 531.497,984.759 251.625,1264.63 241.155,1259.97 227.469,1257.06 213.477,1257.06 199.791,1259.97 187.009,1265.66 175.689,1273.88 166.325,1284.28 159.329,1296.4 155.007,1309.7 153.543,1323.62" style="stroke:rgb(70,124,194);stroke-width:0.000000;fill:none;stroke-opacity:0.5;stroke-linecap:round;stroke-linejoin:round;;fill:none"/>
<polyline points="153.543,1323.62 155.007,1337.54 159.329,1350.84 166.325,1362.96 175.689,1373.36 187.009,1381.58 199.791,1387.27 213.477,1390.18 227.469,1390.18 241.155,1387.27 253.937,1381.58 265.257,1373.36 274.619,1362.96 281.615,1350.84 285.939,1337.54 287.401,1323.62 285.939,1309.7 279.389,1292.54 567.549,1003.85 570.867,992.913 570.867,803.429 642.013,732.283 799.213,732.283 799.213,692.913 633.859,692.913 626.325,694.411 619.939,698.679 537.261,781.355 532.995,787.741 531.497,795.275 531.497,984.759 251.625,1264.63 241.155,1259.97 227.469,1257.06 213.477,1257.06 199.791,1259.97 187.009,1265.66 175.689,1273.88 166.325,1284.28 159.329,1296.4 155.007,1309.7 153.543,1323.62" style="stroke:rgb(0,0,0);stroke-width:1px;fill:none;stroke-opacity:1;stroke-linecap:round;stroke-linejoin:round;;fill:none"/>
<polyline points="1045.67,1690.94 1045.67,1501.97 1165.81,1501.97 1254.95,1412.82 1266.88,1403.03 1280.5,1395.76 1295.27,1391.28 1310.63,1389.76 1653.54,1389.76 1669.91,1391.48 1685.57,1396.57 1694.24,1401.57 1720.47,1401.57 1720.47,1427.4 1728.43,1444.17 1731.85,1460.27 1731.85,1476.73 1728.43,1492.83 1720.47,1509.61 1720.47,1535.43 1694.24,1535.43 1685.57,1540.43 1669.91,1545.52 1653.54,1547.24 1343.24,1547.24 1319.68,1570.8 1319.68,1690.94 1045.67,1690.94" style="stroke:rgb(84,248,27);stroke-width:0.000000;fill:none;stroke-opacity:0.5;stroke-linecap:round;stroke-linejoin:round;;fill:none"/>
<polyline points="1045.67,1690.94 1045.67,1501.97 1165.81,1501.97 1254.95,1412.82 1266.88,1403.03 1280.5,1395.76 1295.27,1391.28 1310.63,1389.76 1653.54,1389.76 1669.91,1391.48 1685.57,1396.57 1694.24,1401.57 1720.47,1401.57 1720.47,1427.4 1728.43,1444.17 1731.85,1460.27 1731.85,1476.73 1728.43,1492.83 1720.47,1509.61 1720.47,1535.43 1694.24,1535.43 1685.57,1540.43 1669.91,1545.52 1653.54,1547.24 1343.24,1547.24 1319.68,1570.8 1319.68,1690.94 1045.67,1690.94" style="stroke:rgb(0,0,0);stroke-width:1px;fill:none;stroke-opacity:1;stroke-linecap:round;stroke-linejoin:round;;fill:none"/>
<polyline points="1045.67,1970.47 1045.67,1781.49 1319.68,1781.49 1319.68,1797.24 1486.22,1797.24 1501.58,1798.76 1516.35,1803.24 1529.97,1810.51 1541.9,1820.3 1690.09,1968.5 1712.6,1968.5 1712.6,1994.3 1719.18,2007.21 1723.44,2023.11 1724.3,2039.55 1721.73,2055.81 1715.83,2071.18 1712.6,2076.15 1712.6,2102.36 1686.39,2102.36 1681.42,2105.59 1666.05,2111.49 1649.79,2114.06 1633.35,2113.2 1617.45,2108.94 1604.53,2102.36 1578.74,2102.36 1578.74,2079.86 1453.6,1954.72 1319.68,1954.72 1319.68,1970.47 1045.67,1970.47" style="stroke:rgb(232,231,141);stroke-width:0.000000;fill:none;stroke-opacity:0.5;stroke-linecap:round;stroke-linejoin:round;;fill:none"/>
<polyline points="1045.67,1970.47 1045.67,1781.49 1319.68,1781.49 1319.68,1797.24 1486.22,1797.24 1501.58,1798.76 1516.35,1803.24 1529.97,1810.51 1541.9,1820.3 1690.09,1968.5 1712.6,1968.5 1712.6,1994.3 1719.18,2007.21 1723.44,2023.11 1724.3,2039.55 1721.73,2055.81 1715.83,2071.18 1712.6,2076.15 1712.6,2102.36 1686.39,2102.36 1681.42,2105.59 1666.05,2111.49 1649.79,2114.06 1633.35,2113.2 1617.45,2108.94 1604.53,2102.36 1578.74,2102.36 1578.74,2079.86 1453.6,1954.72 1319.68,1954.72 1319.68,1970.47 1045.67,1970.47" style="stroke:rgb(0,0,0);stroke-width:1px;fill:none;stroke-opacity:1;stroke-linecap:round;stroke-linejoin:round;;fill:none"/>
<polyline points="1045.67,852.361 1045.67,663.385 1319.68,663.385 1319.68,759.841 1653.54,759.841 1669.91,761.563 1685.57,766.649 1694.24,771.653 1720.47,771.653 1720.47,797.475 1728.43,814.249 1731.85,830.351 1731.85,846.813 1728.43,862.913 1720.47,879.689 1720.47,905.511 1694.24,905.511 1685.57,910.515 1669.91,915.601 1653.54,917.323 1263.38,917.323 1248.02,915.809 1233.25,911.329 1219.64,904.053 1207.71,894.259 1165.81,852.361 1045.67,852.361" style="stroke:rgb(118,90,46);stroke-width:0.000000;fill:none;stroke-opacity:0.5;stroke-linecap:round;stroke-linejoin:round;;fill:none"/>
<polyline points="1045.67,852.361 1045.67,663.385 1319.68,663.385 1319.68,759.841 1653.54,759.841 1669.91,761.563 1685.57,766.649 1694.24,771.653 1720.47,771.653 1720.47,797.475 1728.43,814.249 1731.85,830.351 1731.85,846.813 1728.43,862.913 1720.47,879.689 1720.47,905.511 1694.24,905.511 1685.57,910.515 1669.91,915.601 1653.54,917.323 1263.38,917.323 1248.02,915.809 1233.25,911.329 1219.64,904.053 1207.71,894.259 1165.81,852.361 1045.67,852.361" style="stroke:rgb(0,0,0);stroke-width:1px;fill:none;stroke-opacity:1;stroke-linecap:round;stroke-linejoin:round;;fill:none"/>
<polyline points="1045.67,572.833 1045.67,383.857 1319.68,383.857 1319.68,399.605 1477.23,399.605 1586.61,290.219 1586.61,267.715 1612.41,267.715 1625.32,261.135 1641.22,256.875 1657.66,256.013 1673.92,258.587 1689.29,264.487 1694.26,267.715 1720.47,267.715 1720.47,293.925 1723.7,298.897 1729.6,314.265 1732.17,330.525 1731.31,346.963 1727.05,362.863 1720.47,375.779 1720.47,401.575 1697.97,401.575 1565.52,534.023 1553.59,543.815 1539.97,551.093 1525.2,555.573 1509.84,557.085 1319.68,557.087 1319.68,572.833 1045.67,572.833" style="stroke:rgb(99,51,159);stroke-width:0.000000;fill:none;stroke-opacity:0.5;stroke-linecap:round;stroke-linejoin:round;;fill:none"/>
<polyline points="1045.67,572.833 1045.67,383.857 1319.68,383.857 1319.68,399.605 1477.23,399.605 1586.61,290.219 1586.61,267.715 1612.41,267.715 1625.32,261.135 1641.22,256.875 1657.66,256.013 1673.92,258.587 1689.29,264.487 1694.26,267.715 1720.47,267.715 1720.47,293.925 1723.7,298.897 1729.6,314.265 1732.17,330.525 1731.31,346.963 1727.05,362.863 1720.47,375.779 1720.47,401.575 1697.97,401.575 1565.52,534.023 1553.59,543.815 1539.97,551.093 1525.2,555.573 1509.84,557.085 1319.68,557.087 1319.68,572.833 1045.67,572.833" style="stroke:rgb(0,0,0);stroke-width:1px;fill:none;stroke-opacity:1;stroke-linecap:round;stroke-linejoin:round;;fill:none"/>
<polyline points="130.551,359.169 131.313,241.573 289.511,82.2988 294.631,79.5608 680.981,79.5528 687.257,83.6168 689.071,88.9888 683.551,106.487 685.513,147.661 696.097,173.209 705.209,175.955 731.189,149.975 725.787,135.143 724.409,122.047 725.787,108.949 729.855,96.4248 736.441,85.0208 745.251,75.2348 755.905,67.4928 767.937,62.1368 780.817,59.3988 793.987,59.3988 806.867,62.1368 818.897,67.4928 829.551,75.2348 838.363,85.0208 844.947,96.4248 849.017,108.949 850.393,122.047 849.017,135.143 843.615,149.975 869.593,175.955 878.425,173.295 891.253,137.605 889.289,96.4328 887.187,89.3688 890.117,82.2988 897.187,79.3688 964.619,80.1308 1044.96,159.397 1047.79,164.661 1047.79,168.563 1045.06,173.683 931.153,287.589 925.473,291.615 912.281,311.357 907.649,334.645 908.819,341.509 908.819,463.657 925.815,481.189 929.133,492.125 929.133,1080.91 1010.88,1162.22 1013.05,1165.46 1013.62,1171.24 1010.88,1176.36 904.665,1282.58 901.209,1284.83 897.137,1285.5 893.143,1284.46 889.907,1281.9 887.979,1278.26 887.689,1274.14 891.253,1263.59 889.289,1222.42 878.707,1196.87 869.593,1194.12 843.615,1220.1 849.017,1234.93 850.393,1248.03 849.017,1261.13 843.615,1275.96 869.593,1301.94 874.983,1301.19 878.859,1302.5 881.887,1305.25 883.559,1308.98 880.091,1330.71 881.261,1337.57 880.499,1514.33 853.039,1541.79 847.261,1542.36 841.933,1539.37 834.763,1539.18 829.641,1536.44 826.905,1531.32 827.475,1525.54 839.213,1512.73 839.213,1472.36 833.123,1457.66 821.871,1446.4 807.087,1440.31 806.709,1492.03 803.769,1499.12 799.213,1504.22 799.213,1598.42 673.229,1598.42 673.229,1559.37 639.871,1559.37 633.229,1566.01 633.229,1606.38 634.405,1611.21 632.249,1623.03 632.249,1660.43 634.599,1673.23 632.249,1686.02 632.249,1723.42 634.599,1736.22 632.249,1749.01 632.057,1762.97 629.321,1768.09 626.075,1770.26 446.297,1770.26 311.733,1636.77 309.565,1633.53 308.997,1627.75 310.489,1624.15 316.241,1619.39 325.081,1606.16 328.381,1589.56 328.381,1457.68 325.081,1441.08 316.239,1427.85 303.009,1419.01 296.267,1415.95 293.529,1410.83 293.529,1406.93 321.197,1365.34 329.497,1323.62 326.263,1306.38 327.949,1300.82 588.531,1039.97 594.211,1035.94 607.403,1016.2 612.035,992.913 610.867,986.049 610.867,824.139 611.627,820.313 615.177,815.685 618.423,813.517 624.199,812.949 627.805,814.441 631.487,818.929 632.249,873.031 635.549,889.623 644.389,902.853 657.621,911.695 674.213,914.995 798.227,914.995 814.821,911.695 828.051,902.853 836.893,889.623 840.193,873.031 840.193,756.889 837.843,744.093 840.193,731.297 840.193,693.897 837.843,681.101 840.193,668.305 840.193,630.905 837.843,618.109 840.193,605.313 840.193,567.913 837.843,555.117 840.193,542.321 840.193,504.921 838.037,493.099 839.213,488.271 839.213,449.727 830.743,441.259 799.213,441.259 799.213,480.315 673.229,480.315 673.229,461.417 629.801,461.417 623.229,463.937 451.745,463.937 444.883,462.767 421.595,467.399 401.851,480.591 397.825,486.271 333.625,550.471 330.381,552.639 324.603,553.207 320.999,551.715 316.241,545.963 303.009,537.123 293.277,534.445 290.543,531.777 288.767,526.377 291.373,519.347 312.033,496.677 322.939,470.347 318.393,461.731 283.963,461.731 281.615,468.955 274.619,481.071 265.257,491.469 253.937,499.693 241.155,505.385 227.469,508.295 213.477,508.295 199.791,505.385 187.009,499.693 175.689,491.469 166.325,481.071 159.329,468.955 155.007,455.647 153.543,441.731 155.007,427.817 159.329,414.509 166.325,402.391 175.689,391.993 187.009,383.769 200.473,377.933 200.473,343.775 192.123,339.393 157.125,355.829 147.243,366.601 143.641,368.679 140.491,369.169 134.625,367.225 132.461,365.047 130.551,359.169" style="stroke:rgb(201,154,102);stroke-width:0.000000;fill:none;stroke-opacity:0.5;stroke-linecap:round;stroke-linejoin:round;;fill:none"/>
<polyline points="130.551,359.169 131.313,241.573 289.511,82.2988 294.631,79.5608 680.981,79.5528 687.257,83.6168 689.071,88.9888 683.551,106.487 685.513,147.661 696.097,173.209 705.209,175.955 731.189,149.975 725.787,135.143 724.409,122.047 725.787,108.949 729.855,96.4248 736.441,85.0208 745.251,75.2348 755.905,67.4928 767.937,62.1368 780.817,59.3988 793.987,59.3988 806.867,62.1368 818.897,67.4928 829.551,75.2348 838.363,85.0208 844.947,96.4248 849.017,108.949 850.393,122.047 849.017,135.143 843.615,149.975 869.593,175.955 878.425,173.295 891.253,137.605 889.289,96.4328 887.187,89.3688 890.117,82.2988 897.187,79.3688 964.619,80.1308 1044.96,159.397 1047.79,164.661 1047.79,168.563 1045.06,173.683 931.153,287.589 925.473,291.615 912.281,311.357 907.649,334.645 908.819,341.509 908.819,463.657 925.815,481.189 929.133,492.125 929.133,1080.91 1010.88,1162.22 1013.05,1165.46 1013.62,1171.24 1010.88,1176.36 904.665,1282.58 901.209,1284.83 897.137,1285.5 893.143,1284.46 889.907,1281.9 887.979,1278.26 887.689,1274.14 891.253,1263.59 889.289,1222.42 878.707,1196.87 869.593,1194.12 843.615,1220.1 849.017,1234.93 850.393,1248.03 849.017,1261.13 843.615,1275.96 869.593,1301.94 874.983,1301.19 878.859,1302.5 881.887,1305.25 883.559,1308.98 880.091,1330.71 881.261,1337.57 880.499,1514.33 853.039,1541.79 847.261,1542.36 841.933,1539.37 834.763,1539.18 829.641,1536.44 826.905,1531.32 827.475,1525.54 839.213,1512.73 839.213,1472.36 833.123,1457.66 821.871,1446.4 807.087,1440.31 806.709,1492.03 803.769,1499.12 799.213,1504.22 799.213,1598.42 673.229,1598.42 673.229,1559.37 639.871,1559.37 633.229,1566.01 633.229,1606.38 634.405,1611.21 632.249,1623.03 632.249,1660.43 634.599,1673.23 632.249,1686.02 632.249,1723.42 634.599,1736.22 632.249,1749.01 632.057,1762.97 629.321,1768.09 626.075,1770.26 446.297,1770.26 311.733,1636.77 309.565,1633.53 308.997,1627.75 310.489,1624.15 316.241,1619.39 325.081,1606.16 328.381,1589.56 328.381,1457.68 325.081,1441.08 316.239,1427.85 303.009,1419.01 296.267,1415.95 293.529,1410.83 293.529,1406.93 321.197,1365.34 329.497,1323.62 326.263,1306.38 327.949,1300.82 588.531,1039.97 594.211,1035.94 607.403,1016.2 612.035,992.913 610.867,986.049 610.867,824.139 611.627,820.313 615.177,815.685 618.423,813.517 624.199,812.949 627.805,814.441 631.487,818.929 632.249,873.031 635.549,889.623 644.389,902.853 657.621,911.695 674.213,914.995 798.227,914.995 814.821,911.695 828.051,902.853 836.893,889.623 840.193,873.031 840.193,756.889 837.843,744.093 840.193,731.297 840.193,693.897 837.843,681.101 840.193,668.305 840.193,630.905 837.843,618.109 840.193,605.313 840.193,567.913 837.843,555.117 840.193,542.321 840.193,504.921 838.037,493.099 839.213,488.271 839.213,449.727 830.743,441.259 799.213,441.259 799.213,480.315 673.229,480.315 673.229,461.417 629.801,461.417 623.229,463.937 451.745,463.937 444.883,462.767 421.595,467.399 401.851,480.591 397.825,486.271 333.625,550.471 330.381,552.639 324.603,553.207 320.999,551.715 316.241,545.963 303.009,537.123 293.277,534.445 290.543,531.777 288.767,526.377 291.373,519.347 312.033,496.677 322.939,470.347 318.393,461.731 283.963,461.731 281.615,468.955 274.619,481.071 265.257,491.469 253.937,499.693 241.155,505.385 227.469,508.295 213.477,508.295 199.791,505.385 187.009,499.693 175.689,491.469 166.325,481.071 159.329,468.955 155.007,455.647 153.543,441.731 155.007,427.817 159.329,414.509 166.325,402.391 175.689,391.993 187.009,383.769 200.473,377.933 200.473,343.775 192.123,339.393 157.125,355.829 147.243,366.601 143.641,368.679 140.491,369.169 134.625,367.225 132.461,365.047 130.551,359.169" style="stroke:rgb(0,0,0);stroke-width:1px;fill:none;stroke-opacity:1;stroke-linecap:round;stroke-linejoin:round;;fill:none"/>
<polyline points="633.229,1512.73 633.229,1472.36 639.319,1457.66 650.571,1446.4 665.271,1440.31 709.579,1440.31 716.221,1446.96 716.221,1480.31 673.229,1480.31 673.229,1519.37 639.871,1519.37 633.229,1512.73" style="stroke:rgb(201,154,102);stroke-width:0.000000;fill:none;stroke-opacity:0.5;stroke-linecap:round;stroke-linejoin:round;;fill:none"/>
<polyline points="633.229,1512.73 633.229,1472.36 639.319,1457.66 650.571,1446.4 665.271,1440.31 709.579,1440.31 716.221,1446.96 716.221,1480.31 673.229,1480.31 673.229,1519.37 639.871,1519.37 633.229,1512.73" style="stroke:rgb(0,0,0);stroke-width:1px;fill:none;stroke-opacity:1;stroke-linecap:round;stroke-linejoin:round;;fill:none"/>
<polyline points="756.221,1480.31 756.221,1446.96 762.863,1440.31 767.717,1440.31 767.717,1480.03 756.221,1480.31" style="stroke:rgb(201,154,102);stroke-width:0.000000;fill:none;stroke-opacity:0.5;stroke-linecap:round;stroke-linejoin:round;;fill:none"/>
<polyline points="756.221,1480.31 756.221,1446.96 762.863,1440.31 767.717,1440.31 767.717,1480.03 756.221,1480.31" style="stroke:rgb(0,0,0);stroke-width:1px;fill:none;stroke-opacity:1;stroke-linecap:round;stroke-linejoin:round;;fill:none"/>
<polyline points="240.473,377.933 240.473,343.775 248.821,339.393 283.819,355.829 312.033,386.787 322.939,413.117 318.393,421.731 283.963,421.731 281.615,414.509 274.619,402.391 265.257,391.993 253.937,383.769 240.473,377.933" style="stroke:rgb(201,154,102);stroke-width:0.000000;fill:none;stroke-opacity:0.5;stroke-linecap:round;stroke-linejoin:round;;fill:none"/>
<polyline points="240.473,377.933 240.473,343.775 248.821,339.393 283.819,355.829 312.033,386.787 322.939,413.117 318.393,421.731 283.963,421.731 281.615,414.509 274.619,402.391 265.257,391.993 253.937,383.769 240.473,377.933" style="stroke:rgb(0,0,0);stroke-width:1px;fill:none;stroke-opacity:1;stroke-linecap:round;stroke-linejoin:round;;fill:none"/>
<polyline points="633.229,394.617 633.229,354.247 639.319,339.545 650.571,328.293 665.273,322.203 709.579,322.203 716.221,328.847 716.221,362.203 673.229,362.205 673.229,401.259 639.871,401.259 633.229,394.617" style="stroke:rgb(201,154,102);stroke-width:0.000000;fill:none;stroke-opacity:0.5;stroke-linecap:round;stroke-linejoin:round;;fill:none"/>
<polyline points="633.229,394.617 633.229,354.247 639.319,339.545 650.571,328.293 665.273,322.203 709.579,322.203 716.221,328.847 716.221,362.203 673.229,362.205 673.229,401.259 639.871,401.259 633.229,394.617" style="stroke:rgb(0,0,0);stroke-width:1px;fill:none;stroke-opacity:1;stroke-linecap:round;stroke-linejoin:round;;fill:none"/>
<polyline points="756.221,362.203 756.221,328.847 762.863,322.203 807.169,322.203 821.871,328.293 833.123,339.545 839.213,354.247 839.213,394.617 832.571,401.259 799.213,401.259 799.213,362.205 756.221,362.203" style="stroke:rgb(201,154,102);stroke-width:0.000000;fill:none;stroke-opacity:0.5;stroke-linecap:round;stroke-linejoin:round;;fill:none"/>
<polyline points="756.221,362.203 756.221,328.847 762.863,322.203 807.169,322.203 821.871,328.293 833.123,339.545 839.213,354.247 839.213,394.617 832.571,401.259 799.213,401.259 799.213,362.205 756.221,362.203" style="stroke:rgb(0,0,0);stroke-width:1px;fill:none;stroke-opacity:1;stroke-linecap:round;stroke-linejoin:round;;fill:none"/>
<polyline points="755.905,220.169 755.905,181.827 759.523,178.209 767.937,181.955 780.817,184.693 793.987,184.693 806.867,181.955 815.281,178.209 841.309,204.239 838.565,213.351 813.015,223.935 771.843,225.897 755.905,220.169" style="stroke:rgb(201,154,102);stroke-width:0.000000;fill:none;stroke-opacity:0.5;stroke-linecap:round;stroke-linejoin:round;;fill:none"/>
<polyline points="755.905,220.169 755.905,181.827 759.523,178.209 767.937,181.955 780.817,184.693 793.987,184.693 806.867,181.955 815.281,178.209 841.309,204.239 838.565,213.351 813.015,223.935 771.843,225.897 755.905,220.169" style="stroke:rgb(0,0,0);stroke-width:1px;fill:none;stroke-opacity:1;stroke-linecap:round;stroke-linejoin:round;;fill:none"/>
<polyline points="807.087,1350.2 807.087,1307.84 815.281,1304.19 841.309,1330.22 838.565,1339.33 813.015,1349.92 807.087,1350.2" style="stroke:rgb(201,154,102);stroke-width:0.000000;fill:none;stroke-opacity:0.5;stroke-linecap:round;stroke-linejoin:round;;fill:none"/>
<polyline points="807.087,1350.2 807.087,1307.84 815.281,1304.19 841.309,1330.22 838.565,1339.33 813.015,1349.92 807.087,1350.2" style="stroke:rgb(0,0,0);stroke-width:1px;fill:none;stroke-opacity:1;stroke-linecap:round;stroke-linejoin:round;;fill:none"/>
<polyline points="683.551,1232.47 685.513,1273.64 696.097,1299.19 705.209,1301.94 731.189,1275.96 725.787,1261.13 724.409,1248.03 725.787,1234.93 731.189,1220.1 705.209,1194.12 696.379,1196.78 683.551,1232.47" style="stroke:rgb(201,154,102);stroke-width:0.000000;fill:none;stroke-opacity:0.5;stroke-linecap:round;stroke-linejoin:round;;fill:none"/>
<polyline points="683.551,1232.47 685.513,1273.64 696.097,1299.19 705.209,1301.94 731.189,1275.96 725.787,1261.13 724.409,1248.03 725.787,1234.93 731.189,1220.1 705.209,1194.12 696.379,1196.78 683.551,1232.47" style="stroke:rgb(0,0,0);stroke-width:1px;fill:none;stroke-opacity:1;stroke-linecap:round;stroke-linejoin:round;;fill:none"/>
<polyline points="733.493,1330.22 736.153,1339.05 767.717,1350.4 767.717,1307.84 759.523,1304.19 733.493,1330.22" style="stroke:rgb(201,154,102);stroke-width:0.000000;fill:none;stroke-opacity:0.5;stroke-linecap:round;stroke-linejoin:round;;fill:none"/>
<polyline points="733.493,1330.22 736.153,1339.05 767.717,1350.4 767.717,1307.84 759.523,1304.19 733.493,1330.22" style="stroke:rgb(0,0,0);stroke-width:1px;fill:none;stroke-opacity:1;stroke-linecap:round;stroke-linejoin:round;;fill:none"/>
<polyline points="733.493,1165.84 736.239,1156.72 761.787,1146.14 802.961,1144.18 838.649,1157.01 841.309,1165.84 815.281,1191.87 806.867,1188.12 793.987,1185.38 780.817,1185.38 767.937,1188.12 759.523,1191.87 733.493,1165.84" style="stroke:rgb(201,154,102);stroke-width:0.000000;fill:none;stroke-opacity:0.5;stroke-linecap:round;stroke-linejoin:round;;fill:none"/>
<polyline points="733.493,1165.84 736.239,1156.72 761.787,1146.14 802.961,1144.18 838.649,1157.01 841.309,1165.84 815.281,1191.87 806.867,1188.12 793.987,1185.38 780.817,1185.38 767.937,1188.12 759.523,1191.87 733.493,1165.84" style="stroke:rgb(0,0,0);stroke-width:1px;fill:none;stroke-opacity:1;stroke-linecap:round;stroke-linejoin:round;;fill:none"/>
<polyline points="51.1806,598.425 51.1806,216.535 52.6786,209.001 56.9466,202.615 253.797,5.7648 260.183,1.4968 267.717,-0.00119685 989.655,-0.00119685 997.189,1.4968 1003.57,5.7648 1100.17,102.361 1121.63,102.361 1123.56,96.4248 1130.14,85.0208 1138.95,75.2348 1149.61,67.4928 1161.64,62.1368 1174.52,59.3988 1187.69,59.3988 1200.57,62.1368 1212.6,67.4928 1223.25,75.2348 1232.06,85.0208 1238.65,96.4248 1242.72,108.949 1244.09,122.047 1242.72,135.143 1238.65,147.667 1232.06,159.073 1223.25,168.859 1212.6,176.599 1200.57,181.955 1187.69,184.693 1174.52,184.693 1161.64,181.955 1152.91,178.073 988.189,342.799 988.189,1027.28 1152.91,1192 1161.64,1188.12 1174.52,1185.38 1187.69,1185.38 1200.57,1188.12 1212.6,1193.48 1223.25,1201.22 1232.06,1211 1238.65,1222.41 1242.72,1234.93 1244.09,1248.03 1242.72,1261.13 1238.65,1273.65 1232.06,1285.06 1223.25,1294.84 1212.6,1302.58 1200.57,1307.94 1187.69,1310.68 1174.52,1310.68 1161.64,1307.94 1149.61,1302.58 1138.95,1294.84 1130.14,1285.06 1123.56,1273.65 1119.49,1261.13 1118.11,1248.03 1119.49,1234.93 1125.05,1219.82 1102.36,1197.13 960.631,1338.86 960.631,1539.37 959.131,1546.9 954.865,1553.29 852.503,1655.65 846.115,1659.92 838.583,1661.42 673.229,1661.42 673.229,1622.05 830.429,1622.05 921.261,1531.21 921.261,1330.71 922.759,1323.17 927.025,1316.79 1074.52,1169.29 954.585,1049.35 949.197,1039.27 948.819,334.645 950.317,327.111 954.585,320.725 1125.05,150.259 1121.63,141.731 1092.02,141.731 1081.08,138.415 981.503,39.3688 275.871,39.3688 90.5506,224.689 90.5506,590.271 122.327,622.047 153.543,622.047 153.543,574.803 287.401,574.803 287.401,622.047 318.619,622.047 430.963,509.701 441.041,504.315 799.213,503.937 799.213,543.307 453.035,543.307 337.709,658.099 326.771,661.417 287.401,661.417 287.401,708.661 153.543,708.661 153.543,661.417 114.173,661.417 103.237,658.099 56.9466,612.343 52.6786,605.957 51.1806,598.425" style="stroke:rgb(50,13,183);stroke-width:0.000000;fill:none;stroke-opacity:0.5;stroke-linecap:round;stroke-linejoin:round;;fill:none"/>
<polyline points="51.1806,598.425 51.1806,216.535 52.6786,209.001 56.9466,202.615 253.797,5.7648 260.183,1.4968 267.717,-0.00119685 989.655,-0.00119685 997.189,1.4968 1003.57,5.7648 1100.17,102.361 1121.63,102.361 1123.56,96.4248 1130.14,85.0208 1138.95,75.2348 1149.61,67.4928 1161.64,62.1368 1174.52,59.3988 1187.69,59.3988 1200.57,62.1368 1212.6,67.4928 1223.25,75.2348 1232.06,85.0208 1238.65,96.4248 1242.72,108.949 1244.09,122.047 1242.72,135.143 1238.65,147.667 1232.06,159.073 1223.25,168.859 1212.6,176.599 1200.57,181.955 1187.69,184.693 1174.52,184.693 1161.64,181.955 1152.91,178.073 988.189,342.799 988.189,1027.28 1152.91,1192 1161.64,1188.12 1174.52,1185.38 1187.69,1185.38 1200.57,1188.12 1212.6,1193.48 1223.25,1201.22 1232.06,1211 1238.65,1222.41 1242.72,1234.93 1244.09,1248.03 1242.72,1261.13 1238.65,1273.65 1232.06,1285.06 1223.25,1294.84 1212.6,1302.58 1200.57,1307.94 1187.69,1310.68 1174.52,1310.68 1161.64,1307.94 1149.61,1302.58 1138.95,1294.84 1130.14,1285.06 1123.56,1273.65 1119.49,1261.13 1118.11,1248.03 1119.49,1234.93 1125.05,1219.82 1102.36,1197.13 960.631,1338.86 960.631,1539.37 959.131,1546.9 954.865,1553.29 852.503,1655.65 846.115,1659.92 838.583,1661.42 673.229,1661.42 673.229,1622.05 830.429,1622.05 921.261,1531.21 921.261,1330.71 922.759,1323.17 927.025,1316.79 1074.52,1169.29 954.585,1049.35 949.197,1039.27 948.819,334.645 950.317,327.111 954.585,320.725 1125.05,150.259 1121.63,141.731 1092.02,141.731 1081.08,138.415 981.503,39.3688 275.871,39.3688 90.5506,224.689 90.5506,590.271 122.327,622.047 153.543,622.047 153.543,574.803 287.401,574.803 287.401,622.047 318.619,622.047 430.963,509.701 441.041,504.315 799.213,503.937 799.213,543.307 453.035,543.307 337.709,658.099 326.771,661.417 287.401,661.417 287.401,708.661 153.543,708.661 153.543,661.417 114.173,661.417 103.237,658.099 56.9466,612.343 52.6786,605.957 51.1806,598.425" style="stroke:rgb(0,0,0);stroke-width:1px;fill:none;stroke-opacity:1;stroke-linecap:round;stroke-linejoin:round;;fill:none"/>
<g fill-rule="evenodd"><path d="M 673.229,874.016 L 673.229,755.906 L 799.213,755.906 L 799.213,874.016 L 673.229,874.016 z " style="fill-opacity:1.000000;fill:rgb(103,198,105);stroke:rgb(0,0,0);stroke-width:2"/></g>
<g fill-rule="evenodd"><path d="M 673.229,1992.13 L 673.229,1874.02 L 799.213,1874.02 L 799.213,1992.13 L 673.229,1992.13 z " style="fill-opacity:1.000000;fill:rgb(115,81,255);stroke:rgb(0,0,0);stroke-width:2"/></g>
<g fill-rule="evenodd"><path d="M 673.229,1811.02 L 799.213,1811.02 L 799.213,1850.39 L 421.261,1850.39 L 417.42,1850.02 L 413.727,1848.9 L 410.324,1847.08 L 407.341,1844.63 L 206.554,1643.84 L 204.106,1640.86 L 202.287,1637.45 L 201.166,1633.76 L 200.788,1629.92 L 200.788,1590.55 L 153.544,1590.55 L 153.544,1456.69 L 287.402,1456.69 L 287.402,1590.55 L 240.158,1590.55 L 240.158,1621.77 L 429.415,1811.02 L 673.229,1811.02 z " style="fill-opacity:1.000000;fill:rgb(74,236,41);stroke:rgb(0,0,0);stroke-width:2"/></g>
<g fill-rule="evenodd"><path d="M 913.387,2157.48 L 456.694,2157.48 L 452.853,2157.1 L 449.161,2155.98 L 445.757,2154.16 L 442.774,2151.71 L 5.76561,1714.71 L 3.31753,1711.72 L 1.49843,1708.32 L 0.378243,1704.63 L -4.26326e-14,1700.79 L -4.26326e-14,1124.41 L 0.378243,1120.57 L 1.49843,1116.88 L 3.31753,1113.47 L 5.76561,1110.49 L 161.556,954.7 L 159.33,950.845 L 155.007,937.537 L 153.544,923.622 L 155.007,909.707 L 159.33,896.4 L 166.326,884.282 L 175.689,873.884 L 187.009,865.66 L 199.791,859.969 L 213.477,857.06 L 227.469,857.06 L 241.155,859.969 L 251.626,864.631 L 543.562,572.695 L 546.545,570.247 L 549.948,568.428 L 553.641,567.307 L 557.481,566.929 L 673.229,566.929 L 799.213,566.929 L 799.213,606.299 L 565.635,606.299 L 279.39,892.544 L 281.616,896.4 L 285.94,909.707 L 287.402,923.622 L 285.94,937.537 L 281.616,950.845 L 274.62,962.962 L 265.258,973.36 L 253.938,981.584 L 241.155,987.276 L 227.469,990.185 L 213.477,990.185 L 199.791,987.276 L 189.321,982.614 L 39.3701,1132.56 L 39.3701,1692.63 L 464.847,2118.11 L 905.233,2118.11 L 940.946,2082.4 L 940.946,1814.4 L 850.955,1724.41 L 673.229,1724.41 L 673.229,1685.04 L 859.109,1685.04 L 862.949,1685.42 L 866.642,1686.54 L 870.045,1688.36 L 873.028,1690.81 L 974.55,1792.33 L 976.998,1795.31 L 978.817,1798.71 L 979.938,1802.41 L 980.316,1806.25 L 980.316,2090.55 L 979.938,2094.39 L 978.817,2098.08 L 976.998,2101.49 L 974.55,2104.47 L 927.306,2151.71 L 924.323,2154.16 L 920.92,2155.98 L 917.227,2157.1 L 913.387,2157.48 z " style="fill-opacity:1.000000;fill:rgb(205,186,171);stroke:rgb(0,0,0);stroke-width:2"/></g>
<g fill-rule="evenodd"><path d="M 673.229,629.921 L 799.213,629.921 L 799.213,669.291 L 590.832,669.291 L 500.001,760.122 L 500.001,863.78 L 499.623,867.62 L 498.502,871.313 L 496.683,874.716 L 494.235,877.699 L 279.39,1092.54 L 281.616,1096.4 L 285.94,1109.71 L 287.402,1123.62 L 285.94,1137.54 L 281.616,1150.84 L 274.62,1162.96 L 265.258,1173.36 L 253.938,1181.58 L 241.155,1187.28 L 227.469,1190.18 L 213.477,1190.18 L 199.791,1187.28 L 189.32,1182.61 L 98.426,1273.51 L 98.426,1602.08 L 551.462,2055.12 L 826.493,2055.12 L 862.205,2019.41 L 862.205,1819.18 L 830.43,1787.4 L 673.229,1787.4 L 673.229,1748.03 L 838.583,1748.03 L 842.424,1748.41 L 846.117,1749.53 L 849.52,1751.35 L 852.503,1753.8 L 895.81,1797.1 L 898.258,1800.09 L 900.077,1803.49 L 901.197,1807.18 L 901.576,1811.02 L 901.576,2027.56 L 901.197,2031.4 L 900.077,2035.09 L 898.258,2038.5 L 895.81,2041.48 L 848.566,2088.72 L 845.583,2091.17 L 842.18,2092.99 L 838.487,2094.11 L 834.646,2094.49 L 543.308,2094.49 L 539.468,2094.11 L 535.775,2092.99 L 532.371,2091.17 L 529.388,2088.72 L 64.8215,1624.16 L 62.3734,1621.17 L 60.5543,1617.77 L 59.4341,1614.08 L 59.0559,1610.24 L 59.0559,1265.35 L 59.4341,1261.51 L 60.5543,1257.82 L 62.3734,1254.42 L 64.8215,1251.43 L 161.556,1154.7 L 159.33,1150.84 L 155.007,1137.54 L 153.544,1123.62 L 155.007,1109.71 L 159.33,1096.4 L 166.326,1084.28 L 175.689,1073.88 L 187.009,1065.66 L 199.791,1059.97 L 213.477,1057.06 L 227.469,1057.06 L 241.155,1059.97 L 251.626,1064.63 L 460.631,855.626 L 460.631,751.969 L 461.009,748.128 L 462.129,744.435 L 463.948,741.032 L 466.396,738.049 L 568.759,635.687 L 571.742,633.239 L 575.145,631.42 L 578.838,630.3 L 582.678,629.921 L 673.229,629.921 z " style="fill-opacity:1.000000;fill:rgb(242,251,227);stroke:rgb(0,0,0);stroke-width:2"/></g>
<g fill-rule="evenodd"><path d="M 673.229,692.913 L 799.213,692.913 L 799.213,732.284 L 642.013,732.284 L 570.867,803.429 L 570.867,992.913 L 570.489,996.754 L 569.368,1000.45 L 567.549,1003.85 L 565.101,1006.83 L 279.39,1292.54 L 281.616,1296.4 L 285.94,1309.71 L 287.402,1323.62 L 285.94,1337.54 L 281.616,1350.84 L 274.62,1362.96 L 265.258,1373.36 L 253.938,1381.58 L 241.155,1387.28 L 227.469,1390.18 L 213.477,1390.18 L 199.791,1387.28 L 187.009,1381.58 L 175.689,1373.36 L 166.326,1362.96 L 159.33,1350.84 L 155.007,1337.54 L 153.544,1323.62 L 155.007,1309.71 L 159.33,1296.4 L 166.326,1284.28 L 175.689,1273.88 L 187.009,1265.66 L 199.791,1259.97 L 213.477,1257.06 L 227.469,1257.06 L 241.155,1259.97 L 251.626,1264.63 L 531.497,984.76 L 531.497,795.276 L 531.875,791.435 L 532.995,787.743 L 534.814,784.339 L 537.262,781.356 L 619.94,698.679 L 622.923,696.231 L 626.326,694.412 L 630.019,693.292 L 633.859,692.913 L 673.229,692.913 z " style="fill-opacity:1.000000;fill:rgb(70,124,194);stroke:rgb(0,0,0);stroke-width:2"/></g>
<g fill-rule="evenodd"><path d="M 1165.81,1501.97 L 1254.95,1412.83 L 1266.89,1403.03 L 1280.5,1395.76 L 1295.27,1391.28 L 1310.63,1389.76 L 1653.54,1389.76 L 1669.92,1391.48 L 1685.57,1396.57 L 1694.24,1401.57 L 1720.47,1401.57 L 1720.47,1427.4 L 1721.74,1429.13 L 1728.43,1444.17 L 1731.85,1460.27 L 1731.85,1476.73 L 1728.43,1492.84 L 1721.74,1507.87 L 1720.47,1509.61 L 1720.47,1535.43 L 1694.24,1535.43 L 1685.57,1540.44 L 1669.92,1545.52 L 1653.54,1547.24 L 1343.25,1547.24 L 1319.69,1570.8 L 1319.69,1690.94 L 1045.67,1690.94 L 1045.67,1501.97 L 1165.81,1501.97 z " style="fill-opacity:1.000000;fill:rgb(84,248,27);stroke:rgb(0,0,0);stroke-width:2"/></g>
<g fill-rule="evenodd"><path d="M 1319.69,1954.72 L 1319.69,1970.47 L 1045.67,1970.47 L 1045.67,1781.5 L 1319.69,1781.5 L 1319.69,1797.24 L 1486.22,1797.24 L 1501.58,1798.76 L 1516.35,1803.24 L 1529.97,1810.51 L 1541.9,1820.31 L 1690.1,1968.5 L 1712.6,1968.5 L 1712.6,1994.3 L 1719.18,2007.22 L 1723.44,2023.12 L 1724.3,2039.55 L 1721.73,2055.81 L 1715.83,2071.18 L 1712.6,2076.15 L 1712.6,2102.36 L 1686.39,2102.36 L 1681.42,2105.59 L 1666.05,2111.49 L 1649.79,2114.07 L 1633.35,2113.2 L 1617.45,2108.94 L 1604.54,2102.36 L 1578.74,2102.36 L 1578.74,2079.86 L 1453.61,1954.72 L 1319.69,1954.72 z " style="fill-opacity:1.000000;fill:rgb(232,231,141);stroke:rgb(0,0,0);stroke-width:2"/></g>
<g fill-rule="evenodd"><path d="M 1165.81,852.362 L 1045.67,852.362 L 1045.67,663.386 L 1319.69,663.386 L 1319.69,759.842 L 1653.54,759.843 L 1669.92,761.563 L 1685.57,766.65 L 1694.24,771.653 L 1720.47,771.654 L 1720.47,797.476 L 1721.74,799.213 L 1728.43,814.251 L 1731.85,830.352 L 1731.85,846.813 L 1728.43,862.915 L 1721.74,877.953 L 1720.47,879.69 L 1720.47,905.512 L 1694.24,905.512 L 1685.57,910.515 L 1669.92,915.602 L 1653.54,917.323 L 1263.39,917.323 L 1248.03,915.81 L 1233.25,911.329 L 1219.64,904.053 L 1207.71,894.26 L 1165.81,852.362 z " style="fill-opacity:1.000000;fill:rgb(118,90,46);stroke:rgb(0,0,0);stroke-width:2"/></g>
<g fill-rule="evenodd"><path d="M 1319.69,557.087 L 1319.69,572.835 L 1045.67,572.835 L 1045.67,383.858 L 1319.69,383.858 L 1319.69,399.606 L 1477.23,399.606 L 1586.61,290.22 L 1586.61,267.717 L 1612.41,267.717 L 1625.33,261.135 L 1641.23,256.875 L 1657.67,256.014 L 1673.92,258.589 L 1689.29,264.488 L 1694.26,267.717 L 1720.47,267.717 L 1720.47,293.926 L 1723.7,298.898 L 1729.6,314.266 L 1732.18,330.525 L 1731.31,346.963 L 1727.05,362.864 L 1720.47,375.78 L 1720.47,401.575 L 1697.97,401.575 L 1565.52,534.024 L 1553.59,543.817 L 1539.98,551.093 L 1525.2,555.574 L 1509.84,557.087 L 1319.69,557.087 z " style="fill-opacity:1.000000;fill:rgb(99,51,159);stroke:rgb(0,0,0);stroke-width:2"/></g>
<g fill-rule="evenodd"><path d="M 843.616,149.977 L 869.595,175.955 L 878.425,173.295 L 891.253,137.606 L 889.29,96.433 L 887.381,91.321 L 887.189,89.3701 L 887.95,85.5433 L 890.117,82.299 L 893.362,80.1313 L 897.189,79.3701 L 960.792,79.3701 L 964.619,80.1313 L 967.863,82.299 L 1044.96,159.398 L 1046.3,161.056 L 1047.8,164.661 L 1047.8,168.563 L 1047.23,170.44 L 1045.06,173.684 L 931.154,287.589 L 925.474,291.615 L 912.283,311.358 L 907.65,334.646 L 908.82,341.509 L 908.82,463.657 L 923.368,478.206 L 925.816,481.189 L 927.636,484.592 L 928.756,488.285 L 929.134,492.125 L 929.134,1080.91 L 931.154,1082.49 L 1010.88,1162.22 L 1013.05,1165.46 L 1013.81,1169.29 L 1013.62,1171.24 L 1013.05,1173.12 L 1010.88,1176.36 L 904.666,1282.58 L 903.055,1283.89 L 901.21,1284.83 L 899.208,1285.38 L 897.138,1285.5 L 895.087,1285.19 L 893.144,1284.46 L 891.392,1283.35 L 889.907,1281.91 L 888.753,1280.18 L 887.98,1278.26 L 887.62,1276.21 L 887.689,1274.14 L 891.253,1263.59 L 889.29,1222.42 L 878.708,1196.87 L 869.595,1194.12 L 843.616,1220.1 L 844.949,1222.41 L 849.018,1234.93 L 850.394,1248.03 L 849.018,1261.13 L 844.949,1273.65 L 843.616,1275.96 L 869.595,1301.94 L 872.927,1301.16 L 874.983,1301.19 L 876.988,1301.64 L 878.859,1302.5 L 880.515,1303.72 L 881.887,1305.25 L 882.917,1307.03 L 883.561,1308.98 L 883.792,1311.02 L 883.6,1313.07 L 880.091,1330.71 L 881.261,1337.57 L 881.261,1510.51 L 880.499,1514.33 L 878.332,1517.58 L 856.284,1539.62 L 853.04,1541.79 L 849.213,1542.55 L 847.262,1542.36 L 843.658,1540.87 L 841.934,1539.37 L 834.763,1539.18 L 832.887,1538.61 L 829.642,1536.44 L 827.475,1533.2 L 826.906,1531.32 L 826.714,1529.37 L 827.475,1525.54 L 829.642,1522.3 L 839.213,1512.73 L 839.213,1472.36 L 833.124,1457.66 L 821.872,1446.4 L 807.088,1440.32 L 807.087,1488.19 L 806.709,1492.03 L 805.589,1495.72 L 803.77,1499.13 L 799.213,1504.22 L 799.213,1598.43 L 673.229,1598.43 L 673.229,1559.37 L 639.871,1559.37 L 633.229,1566.01 L 633.229,1606.38 L 634.213,1609.26 L 634.405,1611.21 L 632.25,1623.03 L 632.25,1660.43 L 634.599,1673.23 L 632.25,1686.02 L 632.25,1723.42 L 634.599,1736.22 L 632.25,1749.02 L 632.057,1762.97 L 631.488,1764.85 L 629.321,1768.09 L 626.076,1770.26 L 622.25,1771.02 L 448.174,1770.83 L 446.298,1770.26 L 443.054,1768.09 L 311.734,1636.77 L 309.566,1633.53 L 308.997,1631.65 L 308.997,1627.75 L 310.49,1624.15 L 311.734,1622.63 L 316.241,1619.39 L 325.082,1606.16 L 328.382,1589.57 L 328.382,1457.68 L 325.082,1441.09 L 316.24,1427.85 L 303.01,1419.01 L 299.511,1418.12 L 296.267,1415.95 L 294.099,1412.71 L 293.53,1410.83 L 293.53,1406.93 L 295.023,1403.33 L 297.516,1400.79 L 321.198,1365.34 L 329.497,1323.62 L 326.264,1306.38 L 326.456,1304.43 L 327.949,1300.83 L 588.533,1039.97 L 594.212,1035.94 L 607.404,1016.2 L 612.036,992.914 L 610.867,986.05 L 610.867,824.14 L 611.628,820.313 L 612.552,818.584 L 615.179,815.686 L 618.423,813.519 L 622.25,812.757 L 624.201,812.95 L 627.805,814.443 L 629.321,815.686 L 631.488,818.931 L 632.25,822.757 L 632.25,873.031 L 635.55,889.623 L 644.391,902.854 L 657.622,911.695 L 674.214,914.995 L 798.229,914.995 L 814.821,911.695 L 828.052,902.854 L 836.893,889.623 L 840.193,873.031 L 840.193,756.89 L 837.844,744.095 L 840.193,731.299 L 840.193,693.898 L 837.844,681.102 L 840.193,668.307 L 840.193,630.906 L 837.844,618.11 L 840.193,605.314 L 840.193,567.914 L 837.844,555.118 L 840.193,542.322 L 840.193,504.922 L 838.037,493.1 L 838.229,491.149 L 839.213,488.271 L 839.213,449.729 L 830.744,441.26 L 799.213,441.26 L 799.213,480.315 L 673.229,480.315 L 673.229,461.417 L 629.802,461.417 L 627.056,463.176 L 623.229,463.937 L 451.746,463.937 L 444.883,462.768 L 421.595,467.4 L 401.852,480.592 L 397.826,486.271 L 333.625,550.472 L 330.381,552.64 L 328.505,553.209 L 324.604,553.209 L 320.999,551.716 L 319.483,550.472 L 316.241,545.965 L 303.01,537.124 L 296.813,535.891 L 293.279,534.445 L 290.544,531.779 L 289.009,528.282 L 288.768,526.379 L 289.387,522.61 L 291.373,519.348 L 312.033,496.677 L 322.939,470.347 L 318.393,461.732 L 283.963,461.732 L 281.616,468.955 L 274.62,481.072 L 265.258,491.47 L 253.938,499.695 L 241.155,505.386 L 227.469,508.295 L 213.477,508.295 L 199.791,505.386 L 187.009,499.695 L 175.689,491.47 L 166.326,481.072 L 159.33,468.955 L 155.007,455.648 L 153.544,441.732 L 155.007,427.817 L 159.33,414.51 L 166.326,402.392 L 175.689,391.994 L 187.009,383.77 L 200.473,377.934 L 200.473,343.776 L 192.124,339.394 L 157.126,355.829 L 147.243,366.602 L 145.552,367.83 L 143.642,368.681 L 140.492,369.17 L 137.462,368.681 L 134.626,367.225 L 132.462,365.048 L 131.023,362.203 L 130.552,359.17 L 130.744,243.449 L 131.313,241.573 L 133.481,238.329 L 177.484,194.326 L 289.511,82.299 L 291.026,81.0554 L 294.631,79.5622 L 680.983,79.553 L 684.515,80.9768 L 687.258,83.6179 L 688.816,87.0933 L 689.071,88.9891 L 688.489,92.7526 L 683.552,106.489 L 685.514,147.661 L 696.097,173.21 L 705.21,175.955 L 731.189,149.977 L 729.856,147.669 L 725.787,135.144 L 724.41,122.047 L 725.787,108.951 L 729.856,96.4261 L 736.441,85.0215 L 745.252,75.2351 L 755.906,67.4945 L 767.937,62.1383 L 780.818,59.4003 L 793.987,59.4003 L 806.868,62.1383 L 818.898,67.4945 L 829.552,75.2351 L 838.364,85.0215 L 844.949,96.4261 L 849.018,108.951 L 850.394,122.047 L 849.018,135.144 L 844.949,147.669 L 843.616,149.977M 673.229,1519.37 L 673.229,1480.32 L 716.221,1480.32 L 716.221,1446.96 L 709.579,1440.32 L 665.273,1440.32 L 650.571,1446.4 L 639.319,1457.66 L 633.229,1472.36 L 633.229,1512.73 L 639.871,1519.37 L 673.229,1519.37M 756.221,1480.32 L 767.437,1480.32 L 767.717,1480.04 L 767.717,1440.32 L 762.863,1440.32 L 756.221,1446.96 L 756.221,1480.32M 240.473,377.934 L 253.938,383.77 L 265.258,391.994 L 274.62,402.392 L 281.616,414.51 L 283.963,421.732 L 318.393,421.732 L 322.939,413.118 L 312.033,386.787 L 283.82,355.83 L 248.822,339.394 L 240.473,343.776 L 240.473,377.934M 673.229,401.26 L 673.229,362.205 L 716.221,362.205 L 716.221,328.847 L 709.579,322.205 L 665.273,322.205 L 650.571,328.294 L 639.319,339.547 L 633.229,354.249 L 633.229,394.618 L 639.871,401.26 L 673.229,401.26M 756.221,362.205 L 799.213,362.205 L 799.213,401.26 L 832.571,401.26 L 839.213,394.618 L 839.213,354.248 L 833.124,339.547 L 821.872,328.294 L 807.17,322.205 L 762.863,322.205 L 756.221,328.847 L 756.221,362.205M 815.281,178.211 L 806.868,181.956 L 793.987,184.694 L 780.818,184.694 L 767.937,181.956 L 759.523,178.211 L 755.906,181.828 L 755.906,220.17 L 771.844,225.898 L 813.017,223.935 L 838.565,213.352 L 841.31,204.24 L 815.281,178.211M 807.087,1307.84 L 807.087,1350.2 L 813.017,1349.92 L 838.565,1339.34 L 841.31,1330.22 L 815.281,1304.19 L 807.087,1307.84M 731.189,1275.96 L 729.856,1273.65 L 725.787,1261.13 L 724.41,1248.03 L 725.787,1234.93 L 729.856,1222.41 L 731.189,1220.1 L 705.21,1194.12 L 696.38,1196.78 L 683.552,1232.47 L 685.514,1273.65 L 696.097,1299.19 L 705.21,1301.94 L 731.189,1275.96M 759.523,1304.19 L 733.494,1330.22 L 736.154,1339.05 L 767.717,1350.4 L 767.717,1307.84 L 759.523,1304.19M 759.523,1191.87 L 767.937,1188.12 L 780.818,1185.38 L 793.987,1185.38 L 806.868,1188.12 L 815.281,1191.87 L 841.31,1165.84 L 838.65,1157.01 L 802.961,1144.18 L 761.789,1146.14 L 736.239,1156.73 L 733.494,1165.84 L 759.523,1191.87 z " style="fill-opacity:1.000000;fill:rgb(201,154,102);stroke:rgb(0,0,0);stroke-width:2"/></g>
<g fill-rule="evenodd"><path d="M 267.717,-2.55795e-13 L 989.657,-2.55795e-13 L 993.497,0.378243 L 997.19,1.49843 L 1000.59,3.31753 L 1003.58,5.76561 L 1100.17,102.362 L 1121.63,102.362 L 1123.56,96.4261 L 1130.14,85.0215 L 1138.95,75.2351 L 1149.61,67.4945 L 1161.64,62.1383 L 1174.52,59.4003 L 1187.69,59.4003 L 1200.57,62.1383 L 1212.6,67.4945 L 1223.25,75.2351 L 1232.06,85.0215 L 1238.65,96.4261 L 1242.72,108.951 L 1244.1,122.047 L 1242.72,135.144 L 1238.65,147.669 L 1232.06,159.073 L 1223.25,168.86 L 1212.6,176.6 L 1200.57,181.956 L 1187.69,184.694 L 1174.52,184.694 L 1161.64,181.956 L 1152.92,178.073 L 988.19,342.8 L 988.19,1027.28 L 1152.92,1192.01 L 1161.64,1188.12 L 1174.52,1185.38 L 1187.69,1185.38 L 1200.57,1188.12 L 1212.6,1193.48 L 1223.25,1201.22 L 1232.06,1211.01 L 1238.65,1222.41 L 1242.72,1234.93 L 1244.1,1248.03 L 1242.72,1261.13 L 1238.65,1273.65 L 1232.06,1285.06 L 1223.25,1294.84 L 1212.6,1302.58 L 1200.57,1307.94 L 1187.69,1310.68 L 1174.52,1310.68 L 1161.64,1307.94 L 1149.61,1302.58 L 1138.95,1294.84 L 1130.14,1285.06 L 1123.56,1273.65 L 1119.49,1261.13 L 1118.11,1248.03 L 1119.49,1234.93 L 1123.56,1222.41 L 1125.05,1219.82 L 1102.36,1197.13 L 960.631,1338.86 L 960.631,1539.37 L 960.252,1543.21 L 959.132,1546.9 L 957.313,1550.31 L 954.865,1553.29 L 852.503,1655.65 L 849.52,1658.1 L 846.117,1659.92 L 842.424,1661.04 L 838.583,1661.42 L 673.229,1661.42 L 673.229,1622.05 L 830.43,1622.05 L 921.261,1531.22 L 921.261,1330.71 L 921.639,1326.87 L 922.759,1323.18 L 924.578,1319.77 L 927.026,1316.79 L 1074.52,1169.29 L 954.585,1049.35 L 952.137,1046.37 L 950.318,1042.97 L 949.198,1039.27 L 948.82,1035.43 L 948.82,334.646 L 949.198,330.805 L 950.318,327.113 L 952.137,323.709 L 954.585,320.726 L 1125.05,150.259 L 1123.56,147.669 L 1121.63,141.732 L 1092.02,141.732 L 1088.18,141.354 L 1084.49,140.234 L 1081.08,138.415 L 1078.1,135.967 L 981.503,39.3699 L 275.871,39.3699 L 90.552,224.689 L 90.552,590.271 L 122.328,622.047 L 153.544,622.047 L 153.544,574.803 L 287.402,574.803 L 287.402,622.047 L 318.619,622.047 L 430.963,509.703 L 433.946,507.255 L 437.35,505.436 L 441.042,504.315 L 444.883,503.937 L 799.213,503.937 L 799.213,543.307 L 453.036,543.307 L 340.692,655.652 L 337.709,658.1 L 334.306,659.919 L 330.613,661.039 L 326.772,661.417 L 287.402,661.417 L 287.402,708.661 L 153.544,708.661 L 153.544,661.417 L 114.174,661.417 L 110.334,661.039 L 106.641,659.919 L 103.238,658.1 L 100.255,655.652 L 56.9475,612.345 L 54.4994,609.362 L 52.6803,605.958 L 51.5601,602.266 L 51.1819,598.425 L 51.1819,216.536 L 51.5601,212.695 L 52.6803,209.002 L 54.4994,205.599 L 56.9475,202.616 L 253.798,5.76561 L 256.781,3.31753 L 260.184,1.49843 L 263.877,0.378243 L 267.717,-2.55795e-13 z " style="fill-opacity:1.000000;fill:rgb(50,13,183);stroke:rgb(0,0,0);stroke-width:2"/></g>
</svg>
