<?xml version="1.0" standalone="no"?>
<!DOCTYPE svg PUBLIC "-//W3C//DTD SVG 1.1//EN"
"http://www.w3.org/Graphics/SVG/1.1/DTD/svg11.dtd">
<svg width="83.1496" height="103.559" viewBox="0 0 1732.28 2157.48" version="1.1"
xmlns="http://www.w3.org/2000/svg"
xmlns:xlink="http://www.w3.org/1999/xlink">
<polyline points="673.229,874.015 673.229,755.905 799.213,755.905 799.213,874.015 673.229,874.015" style="stroke:rgb(103,198,105);stroke-width:0.000000;fill:none;stroke-opacity:0.5;stroke-linecap:round;stroke-linejoin:round;;fill:none"/>
<polyline points="673.229,874.015 673.229,755.905 799.213,755.905 799.213,874.015 673.229,874.015" style="stroke:rgb(0,0,0);stroke-width:1px;fill:none;stroke-opacity:1;stroke-linecap:round;stroke-linejoin:round;;fill:none"/>
<polyline points="673.229,1992.12 673.229,1874.01 799.213,1874.01 799.213,1992.12 673.229,1992.12" style="stroke:rgb(115,81,255);stroke-width:0.000000;fill:none;stroke-opacity:0.5;stroke-linecap:round;stroke-linejoin:round;;fill:none"/>
<polyline points="673.229,1992.12 673.229,1874.01 799.213,1874.01 799.213,1992.12 673.229,1992.12" style="stroke:rgb(0,0,0);stroke-width:1px;fill:none;stroke-opacity:1;stroke-linecap:round;stroke-linejoin:round;;fill:none"/>
<polyline points="153.543,1590.55 153.543,1456.69 287.401,1456.69 287.401,1590.55 240.157,1590.55 240.157,1621.77 429.413,1811.02 799.213,1811.02 799.213,1850.39 421.261,1850.39 413.727,1848.89 407.341,1844.63 206.553,1643.84 201.165,1633.76 200.787,1590.55 153.543,1590.55" style="stroke:rgb(74,236,41);stroke-width:0.000000;fill:none;stroke-opacity:0.5;stroke-linecap:round;stroke-linejoin:round;;fill:none"/>
<polyline points="153.543,1590.55 153.543,1456.69 287.401,1456.69 287.401,1590.55 240.157,1590.55 240.157,1621.77 429.413,1811.02 799.213,1811.02 799.213,1850.39 421.261,1850.39 413.727,1848.89 407.341,1844.63 206.553,1643.84 201.165,1633.76 200.787,1590.55 153.543,1590.55" style="stroke:rgb(0,0,0);stroke-width:1px;fill:none;stroke-opacity:1;stroke-linecap:round;stroke-linejoin:round;;fill:none"/>
<polyline points="-0.00137008,1700.78 -0.00137008,1124.41 3.31663,1113.47 161.555,954.699 155.007,937.537 153.543,923.621 155.007,909.705 159.329,896.399 166.325,884.281 175.689,873.883 187.009,865.659 199.791,859.967 213.477,857.059 227.469,857.059 241.155,859.967 251.625,864.629 546.545,570.245 557.481,566.929 799.213,566.929 799.213,606.299 565.635,606.299 279.389,892.543 285.939,909.705 287.401,923.621 285.939,937.537 281.615,950.843 274.619,962.961 265.257,973.359 253.937,981.583 241.155,987.275 227.469,990.183 213.477,990.183 199.791,987.275 189.319,982.613 39.3686,1132.56 39.3686,1692.63 464.847,2118.11 905.233,2118.11 940.945,2082.4 940.945,1814.4 850.955,1724.41 673.229,1724.41 673.229,1685.04 859.109,1685.04 866.641,1686.54 873.027,1690.8 974.549,1792.32 979.937,1802.4 980.315,2090.55 976.997,2101.49 927.305,2151.71 917.227,2157.1 456.693,2157.48 449.159,2155.98 442.773,2151.71 5.76463,1714.7 1.49663,1708.32 -0.00137008,1700.78" style="stroke:rgb(205,186,171);stroke-width:0.000000;fill:none;stroke-opacity:0.5;stroke-linecap:round;stroke-linejoin:round;;fill:none"/>
<polyline points="-0.00137008,1700.78 -0.00137008,1124.41 3.31663,1113.47 161.555,954.699 155.007,937.537 153.543,923.621 155.007,909.705 159.329,896.399 166.325,884.281 175.689,873.883 187.009,865.659 199.791,859.967 213.477,857.059 227.469,857.059 241.155,859.967 251.625,864.629 546.545,570.245 557.481,566.929 799.213,566.929 799.213,606.299 565.635,606.299 279.389,892.543 285.939,909.705 287.401,923.621 285.939,937.537 281.615,950.843 274.619,962.961 265.257,973.359 253.937,981.583 241.155,987.275 227.469,990.183 213.477,990.183 199.791,987.275 189.319,982.613 39.3686,1132.56 39.3686,1692.63 464.847,2118.11 905.233,2118.11 940.945,2082.4 940.945,1814.4 850.955,1724.41 673.229,1724.41 673.229,1685.04 859.109,1685.04 866.641,1686.54 873.027,1690.8 974.549,1792.32 979.937,1802.4 980.315,2090.55 976.997,2101.49 927.305,2151.71 917.227,2157.1 456.693,2157.48 449.159,2155.98 442.773,2151.71 5.76463,1714.7 1.49663,1708.32 -0.00137008,1700.78" style="stroke:rgb(0,0,0);stroke-width:1px;fill:none;stroke-opacity:1;stroke-linecap:round;stroke-linejoin:round;;fill:none"/>
<polyline points="59.0546,1610.23 59.4326,1261.51 64.8206,1251.43 161.555,1154.7 155.007,1137.54 153.543,1123.62 155.007,1109.7 159.329,1096.4 166.325,1084.28 175.689,1073.88 187.009,1065.66 199.791,1059.97 213.477,1057.06 227.469,1057.06 241.155,1059.97 251.625,1064.63 460.631,855.625 460.631,751.967 462.129,744.435 466.395,738.049 571.741,633.239 582.677,629.921 799.213,629.921 799.213,669.291 590.831,669.291 500.001,760.121 500.001,863.779 496.683,874.715 279.389,1092.54 285.939,1109.7 287.401,1123.62 285.939,1137.54 281.615,1150.84 274.619,1162.96 265.257,1173.36 253.937,1181.58 241.155,1187.27 227.469,1190.18 213.477,1190.18 199.791,1187.27 189.319,1182.61 98.4246,1273.51 98.4246,1602.08 551.461,2055.12 826.493,2055.12 862.205,2019.4 862.205,1819.18 830.429,1787.4 673.229,1787.4 673.229,1748.03 838.583,1748.03 849.519,1751.35 895.809,1797.1 901.197,1807.18 901.575,2027.56 898.257,2038.49 848.565,2088.72 838.487,2094.11 543.307,2094.49 535.775,2092.99 529.387,2088.72 64.8206,1624.15 60.5526,1617.77 59.0546,1610.23" style="stroke:rgb(242,251,227);stroke-width:0.000000;fill:none;stroke-opacity:0.5;stroke-linecap:round;stroke-linejoin:round;;fill:none"/>
<polyline points="59.0546,1610.23 59.4326,1261.51 64.8206,1251.43 161.555,1154.7 155.007,1137.54 153.543,1123.62 155.007,1109.7 159.329,1096.4 166.325,1084.28 175.689,1073.88 187.009,1065.66 199.791,1059.97 213.477,1057.06 227.469,1057.06 241.155,1059.97 251.625,1064.63 460.631,855.625 460.631,751.967 462.129,744.435 466.395,738.049 571.741,633.239 582.677,629.921 799.213,629.921 799.213,669.291 590.831,669.291 500.001,760.121 500.001,863.779 496.683,874.715 279.389,1092.54 285.939,1109.7 287.401,1123.62 285.939,1137.54 281.615,1150.84 274.619,1162.96 265.257,1173.36 253.937,1181.58 241.155,1187.27 227.469,1190.18 213.477,1190.18 199.791,1187.27 189.319,1182.61 98.4246,1273.51 98.4246,1602.08 551.461,2055.12 826.493,2055.12 862.205,2019.4 862.205,1819.18 830.429,1787.4 673.229,1787.4 673.229,1748.03 838.583,1748.03 849.519,1751.35 895.809,1797.1 901.197,1807.18 901.575,2027.56 898.257,2038.49 848.565,2088.72 838.487,2094.11 543.307,2094.49 535.775,2092.99 529.387,2088.72 64.8206,1624.15 60.5526,1617.77 59.0546,1610.23" style="stroke:rgb(0,0,0);stroke-width:1px;fill:none;stroke-opacity:1;stroke-linecap:round;stroke-linejoin:round;;fill:none"/>
<polyline points="153.543,1323.62 155.007,1337.54 159.329,1350.84 166.325,1362.96 175.689,1373.36 187.009,1381.58 199.791,1387.27 213.477,1390.18 227.469,1390.18 241.155,1387.27 253.937,1381.58 265.257,1373.36 274.619,1362.96 281.615,1350.84 285.939,1337.54 287.401,1323.62 285.939,1309.7 279.389,1292.54 567.549,1003.85 570.867,992.913 570.867,803.429 642.013,732.283 799.213,732.283 799.213,692.913 633.859,692.913 626.325,694.411 619.939,698.679 537.261,781.355 532.995,787.741 531.497,795.275 531.497,984.759 251.625,1264.63 241.155,1259.97 227.469,1257.06 213.477,1257.06 199.791,1259.97 187.009,1265.66 175.689,1273.88 166.325,1284.28 159.329,1296.4 155.007,1309.7 153.543,1323.62" style="stroke:rgb(70,124,194);stroke-width:0.000000;fill:none;stroke-opacity:0.5;stroke-linecap:round;stroke-linejoin:round;;fill:none"/>
<polyline points="153.543,1323.62 155.007,1337.54 159.329,1350.84 166.325,1362.96 175.689,1373.36 187.009,1381.58 199.791,1387.27 213.477,1390.18 227.469,1390.18 241.155,1387.27 253.937,1381.58 265.257,1373.36 274.619,1362.96 281.615,1350.84 285.939,1337.54 287.401,1323.62 285.939,1309.7 279.389,1292.54 567.549,1003.85 570.867,992.913 570.867,803.429 642.013,732.283 799.213,732.283 799.213,692.913 633.859,692.913 626.325,694.411 619.939,698.679 537.261,781.355 532.995,787.741 531.497,795.275 531.497,984.759 251.625,1264.63 241.155,1259.97 227.469,1257.06 213.477,1257.06 199.791,1259.97 187.009,1265.66 175.689,1273.88 166.325,1284.28 159.329,1296.4 155.007,1309.7 153.543,1323.62" style="stroke:rgb(0,0,0);stroke-width:1px;fill:none;stroke-opacity:1;stroke-linecap:round;stroke-linejoin:round;;fill:none"/>
<polyline points="1045.67,1690.94 1045.67,1501.97 1165.81,1501.97 1254.95,1412.82 1266.88,1403.03 1280.5,1395.76 1295.27,1391.28 1310.63,1389.76 1653.54,1389.76 1669.91,1391.48 1685.57,1396.57 1694.24,1401.57 1720.47,1401.57 1720.47,1427.4 1728.43,1444.17 1731.85,1460.27 1731.85,1476.73 1728.43,1492.83 1720.47,1509.61 1720.47,1535.43 1694.24,1535.43 1685.57,1540.43 1669.91,1545.52 1653.54,1547.24 1343.24,1547.24 1319.68,1570.8 1319.68,1690.94 1045.67,1690.94" style="stroke:rgb(84,248,27);stroke-width:0.000000;fill:none;stroke-opacity:0.5;stroke-linecap:round;stroke-linejoin:round;;fill:none"/>
<polyline points="1045.67,1690.94 1045.67,1501.97 1165.81,1501.97 1254.95,1412.82 1266.88,1403.03 1280.5,1395.76 1295.27,1391.28 1310.63,1389.76 1653.54,1389.76 1669.91,1391.48 1685.57,1396.57 1694.24,1401.57 1720.47,1401.57 1720.47,1427.4 1728.43,1444.17 1731.85,1460.27 1731.85,1476.73 1728.43,1492.83 1720.47,1509.61 1720.47,1535.43 1694.24,1535.43 1685.57,1540.43 1669.91,1545.52 1653.54,1547.24 1343.24,1547.24 1319.68,1570.8 1319.68,1690.94 1045.67,1690.94" style="stroke:rgb(0,0,0);stroke-width:1px;fill:none;stroke-opacity:1;stroke-linecap:round;stroke-linejoin:round;;fill:none"/>
<polyline points="1045.67,1970.47 1045.67,1781.49 1319.68,1781.49 1319.68,1797.24 1486.22,1797.24 1501.58,1798.76 1516.35,1803.24 1529.97,1810.51 1541.9,1820.3 1690.09,1968.5 1712.6,1968.5 1712.6,1994.3 1719.18,2007.21 1723.44,2023.11 1724.3,2039.55 1721.73,2055.81 1715.83,2071.18 1712.6,2076.15 1712.6,2102.36 1686.39,2102.36 1681.42,2105.59 1666.05,2111.49 1649.79,2114.06 1633.35,2113.2 1617.45,2108.94 1604.53,2102.36 1578.74,2102.36 1578.74,2079.86 1453.6,1954.72 1319.68,1954.72 1319.68,1970.47 1045.67,1970.47" style="stroke:rgb(232,231,141);stroke-width:0.000000;fill:none;stroke-opacity:0.5;stroke-linecap:round;stroke-linejoin:round;;fill:none"/>
<polyline points="1045.67,1970.47 1045.67,1781.49 1319.68,1781.49 1319.68,1797.24 1486.22,1797.24 1501.58,1798.76 1516.35,1803.24 1529.97,1810.51 1541.9,1820.3 1690.09,1968.5 1712.6,1968.5 1712.6,1994.3 1719.18,2007.21 1723.44,2023.11 1724.3,2039.55 1721.73,2055.81 1715.83,2071.18 1712.6,2076.15 1712.6,2102.36 1686.39,2102.36 1681.42,2105.59 1666.05,2111.49 1649.79,2114.06 1633.35,2113.2 1617.45,2108.94 1604.53,2102.36 1578.74,2102.36 1578.74,2079.86 1453.6,1954.72 1319.68,1954.72 1319.68,1970.47 1045.67,1970.47" style="stroke:rgb(0,0,0);stroke-width:1px;fill:none;stroke-opacity:1;stroke-linecap:round;stroke-linejoin:round;;fill:none"/>
<polyline points="1045.67,852.361 1045.67,663.385 1319.68,663.385 1319.68,759.841 1653.54,759.841 1669.91,761.563 1685.57,766.649 1694.24,771.653 1720.47,771.653 1720.47,797.475 1728.43,814.249 1731.85,830.351 1731.85,846.813 1728.43,862.913 1720.47,879.689 1720.47,905.511 1694.24,905.511 1685.57,910.515 1669.91,915.601 1653.54,917.323 1263.38,917.323 1248.02,915.809 1233.25,911.329 1219.64,904.053 1207.71,894.259 1165.81,852.361 1045.67,852.361" style="stroke:rgb(118,90,46);stroke-width:0.000000;fill:none;stroke-opacity:0.5;stroke-linecap:round;stroke-linejoin:round;;fill:none"/>
<polyline points="1045.67,852.361 1045.67,663.385 1319.68,663.385 1319.68,759.841 1653.54,759.841 1669.91,761.563 1685.57,766.649 1694.24,771.653 1720.47,771.653 1720.47,797.475 1728.43,814.249 1731.85,830.351 1731.85,846.813 1728.43,862.913 1720.47,879.689 1720.47,905.511 1694.24,905.511 1685.57,910.515 1669.91,915.601 1653.54,917.323 1263.38,917.323 1248.02,915.809 1233.25,911.329 1219.64,904.053 1207.71,894.259 1165.81,852.361 1045.67,852.361" style="stroke:rgb(0,0,0);stroke-width:1px;fill:none;stroke-opacity:1;stroke-linecap:round;stroke-linejoin:round;;fill:none"/>
<polyline points="1045.67,572.833 1045.67,383.857 1319.68,383.857 1319.68,399.605 1477.23,399.605 1586.61,290.219 1586.61,267.715 1612.41,267.715 1625.32,261.135 1641.22,256.875 1657.66,256.013 1673.92,258.587 1689.29,264.487 1694.26,267.715 1720.47,267.715 1720.47,293.925 1723.7,298.897 1729.6,314.265 1732.17,330.525 1731.31,346.963 1727.05,362.863 1720.47,375.779 1720.47,401.575 1697.97,401.575 1565.52,534.023 1553.59,543.815 1539.97,551.093 1525.2,555.573 1509.84,557.085 1319.68,557.087 1319.68,572.833 1045.67,572.833" style="stroke:rgb(99,51,159);stroke-width:0.000000;fill:none;stroke-opacity:0.5;stroke-linecap:round;stroke-linejoin:round;;fill:none"/>
<polyline points="1045.67,572.833 1045.67,383.857 1319.68,383.857 1319.68,399.605 1477.23,399.605 1586.61,290.219 1586.61,267.715 1612.41,267.715 1625.32,261.135 1641.22,256.875 1657.66,256.013 1673.92,258.587 1689.29,264.487 1694.26,267.715 1720.47,267.715 1720.47,293.925 1723.7,298.897 1729.6,314.265 1732.17,330.525 1731.31,346.963 1727.05,362.863 1720.47,375.779 1720.47,401.575 1697.97,401.575 1565.52,534.023 1553.59,543.815 1539.97,551.093 1525.2,555.573 1509.84,557.085 1319.68,557.087 1319.68,572.833 1045.67,572.833" style="stroke:rgb(0,0,0);stroke-width:1px;fill:none;stroke-opacity:1;stroke-linecap:round;stroke-linejoin:round;;fill:none"/>
<polyline points="130.551,359.169 131.313,241.573 289.511,82.2988 294.631,79.5608 680.981,79.5528 687.257,83.6168 689.071,88.9888 683.551,106.487 685.513,147.661 696.097,173.209 705.209,175.955 731.189,149.975 725.787,135.143 724.409,122.047 725.787,108.949 729.855,96.4248 736.441,85.0208 745.251,75.2348 755.905,67.4928 767.937,62.1368 780.817,59.3988 793.987,59.3988 806.867,62.1368 818.897,67.4928 829.551,75.2348 838.363,85.0208 844.947,96.4248 849.017,108.949 850.393,122.047 849.017,135.143 843.615,149.975 869.593,175.955 878.425,173.295 891.253,137.605 889.289,96.4328 887.187,89.3688 890.117,82.2988 897.187,79.3688 964.619,80.1308 1044.96,159.397 1047.79,164.661 1047.79,168.563 1045.06,173.683 931.153,287.589 925.473,291.615 912.281,311.357 907.649,334.645 908.819,341.509 908.819,463.657 925.815,481.189 929.133,492.125 929.133,1080.91 1010.88,1162.22 1013.05,1165.46 1013.62,1171.24 1010.88,1176.36 904.665,1282.58 901.209,1284.83 897.137,1285.5 893.143,1284.46 889.907,1281.9 887.979,1278.26 887.689,1274.14 891.253,1263.59 889.289,1222.42 878.707,1196.87 869.593,1194.12 843.615,1220.1 849.017,1234.93 850.393,1248.03 849.017,1261.13 843.615,1275.96 869.593,1301.94 874.983,1301.19 878.859,1302.5 881.887,1305.25 883.559,1308.98 880.091,1330.71 881.261,1337.57 880.499,1514.33 853.039,1541.79 847.261,1542.36 841.933,1539.37 834.763,1539.18 829.641,1536.44 826.905,1531.32 827.475,1525.54 839.213,1512.73 839.213,1472.36 833.123,1457.66 821.871,1446.4 807.087,1440.31 806.709,1492.03 803.769,1499.12 799.213,1504.22 799.213,1598.42 673.229,1598.42 673.229,1559.37 639.871,1559.37 633.229,1566.01 633.229,1606.38 634.405,1611.21 632.249,1623.03 632.249,1660.43 634.599,1673.23 632.249,1686.02 632.249,1723.42 634.599,1736.22 632.249,1749.01 632.057,1762.97 629.321,1768.09 626.075,1770.26 446.297,1770.26 311.733,1636.77 309.565,1633.53 308.997,1627.75 310.489,1624.15 316.241,1619.39 325.081,1606.16 328.381,1589.56 328.381,1457.68 325.081,1441.08 316.239,1427.85 303.009,1419.01 296.267,1415.95 293.529,1410.83 293.529,1406.93 321.197,1365.34 329.497,1323.62 326.263,1306.38 327.949,1300.82 588.531,1039.97 594.211,1035.94 607.403,1016.2 612.035,992.913 610.867,986.049 610.867,824.139 611.627,820.313 615.177,815.685 618.423,813.517 624.199,812.949 627.805,814.441 631.487,818.929 632.249,873.031 635.549,889.623 644.389,902.853 657.621,911.695 674.213,914.995 798.227,914.995 814.821,911.695 828.051,902.853 836.893,889.623 840.193,873.031 840.193,756.889 837.843,744.093 840.193,731.297 840.193,693.897 837.843,681.101 840.193,668.305 840.193,630.905 837.843,618.109 840.193,605.313 840.193,567.913 837.843,555.117 840.193,542.321 840.193,504.921 838.037,493.099 839.213,488.271 839.213,449.727 830.743,441.259 799.213,441.259 799.213,480.315 673.229,480.315 673.229,461.417 629.801,461.417 623.229,463.937 451.745,463.937 444.883,462.767 421.595,467.399 401.851,480.591 397.825,486.271 333.625,550.471 330.381,552.639 324.603,553.207 320.999,551.715 316.241,545.963 303.009,537.123 293.277,534.445 290.543,531.777 288.767,526.377 291.373,519.347 312.033,496.677 322.939,470.347 318.393,461.731 283.963,461.731 281.615,468.955 274.619,481.071 265.257,491.469 253.937,499.693 241.155,505.385 227.469,508.295 213.477,508.295 199.791,505.385 187.009,499.693 175.689,491.469 166.325,481.071 159.329,468.955 155.007,455.647 153.543,441.731 155.007,427.817 159.329,414.509 166.325,402.391 175.689,391.993 187.009,383.769 200.473,377.933 200.473,343.775 192.123,339.393 157.125,355.829 147.243,366.601 143.641,368.679 140.491,369.169 134.625,367.225 132.461,365.047 130.551,359.169" style="stroke:rgb(201,154,102);stroke-width:0.000000;fill:none;stroke-opacity:0.5;stroke-linecap:round;stroke-linejoin:round;;fill:none"/>
<polyline points="130.551,359.169 131.313,241.573 289.511,82.2988 294.631,79.5608 680.981,79.5528 687.257,83.6168 689.071,88.9888 683.551,106.487 685.513,147.661 696.097,173.209 705.209,175.955 731.189,149.975 725.787,135.143 724.409,122.047 725.787,108.949 729.855,96.4248 736.441,85.0208 745.251,75.2348 755.905,67.4928 767.937,62.1368 780.817,59.3988 793.987,59.3988 806.867,62.1368 818.897,67.4928 829.551,75.2348 838.363,85.0208 844.947,96.4248 849.017,108.949 850.393,122.047 849.017,135.143 843.615,149.975 869.593,175.955 878.425,173.295 891.253,137.605 889.289,96.4328 887.187,89.3688 890.117,82.2988 897.187,79.3688 964.619,80.1308 1044.96,159.397 1047.79,164.661 1047.79,168.563 1045.06,173.683 931.153,287.589 925.473,291.615 912.281,311.357 907.649,334.645 908.819,341.509 908.819,463.657 925.815,481.189 929.133,492.125 929.133,1080.91 1010.88,1162.22 1013.05,1165.46 1013.62,1171.24 1010.88,1176.36 904.665,1282.58 901.209,1284.83 897.137,1285.5 893.143,1284.46 889.907,1281.9 887.979,1278.26 887.689,1274.14 891.253,1263.59 889.289,1222.42 878.707,1196.87 869.593,1194.12 843.615,1220.1 849.017,1234.93 850.393,1248.03 849.017,1261.13 843.615,1275.96 869.593,1301.94 874.983,1301.19 878.859,1302.5 881.887,1305.25 883.559,1308.98 880.091,1330.71 881.261,1337.57 880.499,1514.33 853.039,1541.79 847.261,1542.36 841.933,1539.37 834.763,1539.18 829.641,1536.44 826.905,1531.32 827.475,1525.54 839.213,1512.73 839.213,1472.36 833.123,1457.66 821.871,1446.4 807.087,1440.31 806.709,1492.03 803.769,1499.12 799.213,1504.22 799.213,1598.42 673.229,1598.42 673.229,1559.37 639.871,1559.37 633.229,1566.01 633.229,1606.38 634.405,1611.21 632.249,1623.03 632.249,1660.43 634.599,1673.23 632.249,1686.02 632.249,1723.42 634.599,1736.22 632.249,1749.01 632.057,1762.97 629.321,1768.09 626.075,1770.26 446.297,1770.26 311.733,1636.77 309.565,1633.53 308.997,1627.75 310.489,1624.15 316.241,1619.39 325.081,1606.16 328.381,1589.56 328.381,1457.68 325.081,1441.08 316.239,1427.85 303.009,1419.01 296.267,1415.95 293.529,1410.83 293.529,1406.93 321.197,1365.34 329.497,1323.62 326.263,1306.38 327.949,1300.82 588.531,1039.97 594.211,1035.94 607.403,1016.2 612.035,992.913 610.867,986.049 610.867,824.139 611.627,820.313 615.177,815.685 618.423,813.517 624.199,812.949 627.805,814.441 631.487,818.929 632.249,873.031 635.549,889.623 644.389,902.853 657.621,911.695 674.213,914.995 798.227,914.995 814.821,911.695 828.051,902.853 836.893,889.623 840.193,873.031 840.193,756.889 837.843,744.093 840.193,731.297 840.193,693.897 837.843,681.101 840.193,668.305 840.193,630.905 837.843,618.109 840.193,605.313 840.193,567.913 837.843,555.117 840.193,542.321 840.193,504.921 838.037,493.099 839.213,488.271 839.213,449.727 830.743,441.259 799.213,441.259 799.213,480.315 673.229,480.315 673.229,461.417 629.801,461.417 623.229,463.937 451.745,463.937 444.883,462.767 421.595,467.399 401.851,480.591 397.825,486.271 333.625,550.471 330.381,552.639 324.603,553.207 320.999,551.715 316.241,545.963 303.009,537.123 293.277,534.445 290.543,531.777 288.767,526.377 291.373,519.347 312.033,496.677 322.939,470.347 318.393,461.731 283.963,461.731 281.615,468.955 274.619,481.071 265.257,491.469 253.937,499.693 241.155,505.385 227.469,508.295 213.477,508.295 199.791,505.385 187.009,499.693 175.689,491.469 166.325,481.071 159.329,468.955 155.007,455.647 153.543,441.731 155.007,427.817 159.329,414.509 166.325,402.391 175.689,391.993 187.009,383.769 200.473,377.933 200.473,343.775 192.123,339.393 157.125,355.829 147.243,366.601 143.641,368.679 140.491,369.169 134.625,367.225 132.461,365.047 130.551,359.169" style="stroke:rgb(0,0,0);stroke-width:1px;fill:none;stroke-opacity:1;stroke-linecap:round;stroke-linejoin:round;;fill:none"/>
<polyline points="633.229,1512.73 633.229,1472.36 639.319,1457.66 650.571,1446.4 665.271,1440.31 709.579,1440.31 716.221,1446.96 716.221,1480.31 673.229,1480.31 673.229,1519.37 639.871,1519.37 633.229,1512.73" style="stroke:rgb(201,154,102);stroke-width:0.000000;fill:none;stroke-opacity:0.5;stroke-linecap:round;stroke-linejoin:round;;fill:none"/>
<polyline points="633.229,1512.73 633.229,1472.36 639.319,1457.66 650.571,1446.4 665.271,1440.31 709.579,1440.31 716.221,1446.96 716.221,1480.31 673.229,1480.31 673.229,1519.37 639.871,1519.37 633.229,1512.73" style="stroke:rgb(0,0,0);stroke-width:1px;fill:none;stroke-opacity:1;stroke-linecap:round;stroke-linejoin:round;;fill:none"/>
<polyline points="756.221,1480.31 756.221,1446.96 762.863,1440.31 767.717,1440.31 767.717,1480.03 756.221,1480.31" style="stroke:rgb(201,154,102);stroke-width:0.000000;fill:none;stroke-opacity:0.5;stroke-linecap:round;stroke-linejoin:round;;fill:none"/>
<polyline points="756.221,1480.31 756.221,1446.96 762.863,1440.31 767.717,1440.31 767.717,1480.03 756.221,1480.31" style="stroke:rgb(0,0,0);stroke-width:1px;fill:none;stroke-opacity:1;stroke-linecap:round;stroke-linejoin:round;;fill:none"/>
<polyline points="240.473,377.933 240.473,343.775 248.821,339.393 283.819,355.829 312.033,386.787 322.939,413.117 318.393,421.731 283.963,421.731 281.615,414.509 274.619,402.391 265.257,391.993 253.937,383.769 240.473,377.933" style="stroke:rgb(201,154,102);stroke-width:0.000000;fill:none;stroke-opacity:0.5;stroke-linecap:round;stroke-linejoin:round;;fill:none"/>
<polyline points="240.473,377.933 240.473,343.775 248.821,339.393 283.819,355.829 312.033,386.787 322.939,413.117 318.393,421.731 283.963,421.731 281.615,414.509 274.619,402.391 265.257,391.993 253.937,383.769 240.473,377.933" style="stroke:rgb(0,0,0);stroke-width:1px;fill:none;stroke-opacity:1;stroke-linecap:round;stroke-linejoin:round;;fill:none"/>
<polyline points="633.229,394.617 633.229,354.247 639.319,339.545 650.571,328.293 665.273,322.203 709.579,322.203 716.221,328.847 716.221,362.203 673.229,362.205 673.229,401.259 639.871,401.259 633.229,394.617" style="stroke:rgb(201,154,102);stroke-width:0.000000;fill:none;stroke-opacity:0.5;stroke-linecap:round;stroke-linejoin:round;;fill:none"/>
<polyline points="633.229,394.617 633.229,354.247 639.319,339.545 650.571,328.293 665.273,322.203 709.579,322.203 716.221,328.847 716.221,362.203 673.229,362.205 673.229,401.259 639.871,401.259 633.229,394.617" style="stroke:rgb(0,0,0);stroke-width:1px;fill:none;stroke-opacity:1;stroke-linecap:round;stroke-linejoin:round;;fill:none"/>
<polyline points="756.221,362.203 756.221,328.847 762.863,322.203 807.169,322.203 821.871,328.293 833.123,339.545 839.213,354.247 839.213,394.617 832.571,401.259 799.213,401.259 799.213,362.205 756.221,362.203" style="stroke:rgb(201,154,102);stroke-width:0.000000;fill:none;stroke-opacity:0.5;stroke-linecap:round;stroke-linejoin:round;;fill:none"/>
<polyline points="756.221,362.203 756.221,328.847 762.863,322.203 807.169,322.203 821.871,328.293 833.123,339.545 839.213,354.247 839.213,394.617 832.571,401.259 799.213,401.259 799.213,362.205 756.221,362.203" style="stroke:rgb(0,0,0);stroke-width:1px;fill:none;stroke-opacity:1;stroke-linecap:round;stroke-linejoin:round;;fill:none"/>
<polyline points="755.905,220.169 755.905,181.827 759.523,178.209 767.937,181.955 780.817,184.693 793.987,184.693 806.867,181.955 815.281,178.209 841.309,204.239 838.565,213.351 813.015,223.935 771.843,225.897 755.905,220.169" style="stroke:rgb(201,154,102);stroke-width:0.000000;fill:none;stroke-opacity:0.5;stroke-linecap:round;stroke-linejoin:round;;fill:none"/>
<polyline points="755.905,220.169 755.905,181.827 759.523,178.209 767.937,181.955 780.817,184.693 793.987,184.693 806.867,181.955 815.281,178.209 841.309,204.239 838.565,213.351 813.015,223.935 771.843,225.897 755.905,220.169" style="stroke:rgb(0,0,0);stroke-width:1px;fill:none;stroke-opacity:1;stroke-linecap:round;stroke-linejoin:round;;fill:none"/>
<polyline points="807.087,1350.2 807.087,1307.84 815.281,1304.19 841.309,1330.22 838.565,1339.33 813.015,1349.92 807.087,1350.2" style="stroke:rgb(201,154,102);stroke-width:0.000000;fill:none;stroke-opacity:0.5;stroke-linecap:round;stroke-linejoin:round;;fill:none"/>
<polyline points="807.087,1350.2 807.087,1307.84 815.281,1304.19 841.309,1330.22 838.565,1339.33 813.015,1349.92 807.087,1350.2" style="stroke:rgb(0,0,0);stroke-width:1px;fill:none;stroke-opacity:1;stroke-linecap:round;stroke-linejoin:round;;fill:none"/>
<polyline points="683.551,1232.47 685.513,1273.64 696.097,1299.19 705.209,1301.94 731.189,1275.96 725.787,1261.13 724.409,1248.03 725.787,1234.93 731.189,1220.1 705.209,1194.12 696.379,1196.78 683.551,1232.47" style="stroke:rgb(201,154,102);stroke-width:0.000000;fill:none;stroke-opacity:0.5;stroke-linecap:round;stroke-linejoin:round;;fill:none"/>
<polyline points="683.551,1232.47 685.513,1273.64 696.097,1299.19 705.209,1301.94 731.189,1275.96 725.787,1261.13 724.409,1248.03 725.787,1234.93 731.189,1220.1 705.209,1194.12 696.379,1196.78 683.551,1232.47" style="stroke:rgb(0,0,0);stroke-width:1px;fill:none;stroke-opacity:1;stroke-linecap:round;stroke-linejoin:round;;fill:none"/>
<polyline points="733.493,1330.22 736.153,1339.05 767.717,1350.4 767.717,1307.84 759.523,1304.19 733.493,1330.22" style="stroke:rgb(201,154,102);stroke-width:0.000000;fill:none;stroke-opacity:0.5;stroke-linecap:round;stroke-linejoin:round;;fill:none"/>
<polyline points="733.493,1330.22 736.153,1339.05 767.717,1350.4 767.717,1307.84 759.523,1304.19 733.493,1330.22" style="stroke:rgb(0,0,0);stroke-width:1px;fill:none;stroke-opacity:1;stroke-linecap:round;stroke-linejoin:round;;fill:none"/>
<polyline points="733.493,1165.84 736.239,1156.72 761.787,1146.14 802.961,1144.18 838.649,1157.01 841.309,1165.84 815.281,1191.87 806.867,1188.12 793.987,1185.38 780.817,1185.38 767.937,1188.12 759.523,1191.87 733.493,1165.84" style="stroke:rgb(201,154,102);stroke-width:0.000000;fill:none;stroke-opacity:0.5;stroke-linecap:round;stroke-linejoin:round;;fill:none"/>
<polyline points="733.493,1165.84 736.239,1156.72 761.787,1146.14 802.961,1144.18 838.649,1157.01 841.309,1165.84 815.281,1191.87 806.867,1188.12 793.987,1185.38 780.817,1185.38 767.937,1188.12 759.523,1191.87 733.493,1165.84" style="stroke:rgb(0,0,0);stroke-width:1px;fill:none;stroke-opacity:1;stroke-linecap:round;stroke-linejoin:round;;fill:none"/>
<polyline points="51.1806,598.425 51.1806,216.535 52.6786,209.001 56.9466,202.615 253.797,5.7648 260.183,1.4968 267.717,-0.00119685 989.655,-0.00119685 997.189,1.4968 1003.57,5.7648 1100.17,102.361 1121.63,102.361 1123.56,96.4248 1130.14,85.0208 1138.95,75.2348 1149.61,67.4928 1161.64,62.1368 1174.52,59.3988 1187.69,59.3988 1200.57,62.1368 1212.6,67.4928 1223.25,75.2348 1232.06,85.0208 1238.65,96.4248 1242.72,108.949 1244.09,122.047 1242.72,135.143 1238.65,147.667 1232.06,159.073 1223.25,168.859 1212.6,176.599 1200.57,181.955 1187.69,184.693 1174.52,184.693 1161.64,181.955 1152.91,178.073 988.189,342.799 988.189,1027.28 1152.91,1192 1161.64,1188.12 1174.52,1185.38 1187.69,1185.38 1200.57,1188.12 1212.6,1193.48 1223.25,1201.22 1232.06,1211 1238.65,1222.41 1242.72,1234.93 1244.09,1248.03 1242.72,1261.13 1238.65,1273.65 1232.06,1285.06 1223.25,1294.84 1212.6,1302.58 1200.57,1307.94 1187.69,1310.68 1174.52,1310.68 1161.64,1307.94 1149.61,1302.58 1138.95,1294.84 1130.14,1285.06 1123.56,1273.65 1119.49,1261.13 1118.11,1248.03 1119.49,1234.93 1125.05,1219.82 1102.36,1197.13 960.631,1338.86 960.631,1539.37 959.131,1546.9 954.865,1553.29 852.503,1655.65 846.115,1659.92 838.583,1661.42 673.229,1661.42 673.229,1622.05 830.429,1622.05 921.261,1531.21 921.261,1330.71 922.759,1323.17 927.025,1316.79 1074.52,1169.29 954.585,1049.35 949.197,1039.27 948.819,334.645 950.317,327.111 954.585,320.725 1125.05,150.259 1121.63,141.731 1092.02,141.731 1081.08,138.415 981.503,39.3688 275.871,39.3688 90.5506,224.689 90.5506,590.271 122.327,622.047 153.543,622.047 153.543,574.803 287.401,574.803 287.401,622.047 318.619,622.047 430.963,509.701 441.041,504.315 799.213,503.937 799.213,543.307 453.035,543.307 337.709,658.099 326.771,661.417 287.401,661.417 287.401,708.661 153.543,708.661 153.543,661.417 114.173,661.417 103.237,658.099 56.9466,612.343 52.6786,605.957 51.1806,598.425" style="stroke:rgb(50,13,183);stroke-width:0.000000;fill:none;stroke-opacity:0.5;stroke-linecap:round;stroke-linejoin:round;;fill:none"/>
<polyline points="51.1806,598.425 51.1806,216.535 52.6786,209.001 56.9466,202.615 253.797,5.7648 260.183,1.4968 267.717,-0.00119685 989.655,-0.00119685 997.189,1.4968 1003.57,5.7648 1100.17,102.361 1121.63,102.361 1123.56,96.4248 1130.14,85.0208 1138.95,75.2348 1149.61,67.4928 1161.64,62.1368 1174.52,59.3988 1187.69,59.3988 1200.57,62.1368 1212.6,67.4928 1223.25,75.2348 1232.06,85.0208 1238.65,96.4248 1242.72,108.949 1244.09,122.047 1242.72,135.143 1238.65,147.667 1232.06,159.073 1223.25,168.859 1212.6,176.599 1200.57,181.955 1187.69,184.693 1174.52,184.693 1161.64,181.955 1152.91,178.073 988.189,342.799 988.189,1027.28 1152.91,1192 1161.64,1188.12 1174.52,1185.38 1187.69,1185.38 1200.57,1188.12 1212.6,1193.48 1223.25,1201.22 1232.06,1211 1238.65,1222.41 1242.72,1234.93 1244.09,1248.03 1242.72,1261.13 1238.65,1273.65 1232.06,1285.06 1223.25,1294.84 1212.6,1302.58 1200.57,1307.94 1187.69,1310.68 1174.52,1310.68 1161.64,1307.94 1149.61,1302.58 1138.95,1294.84 1130.14,1285.06 1123.56,1273.65 1119.49,1261.13 1118.11,1248.03 1119.49,1234.93 1125.05,1219.82 1102.36,1197.13 960.631,1338.86 960.631,1539.37 959.131,1546.9 954.865,1553.29 852.503,1655.65 846.115,1659.92 838.583,1661.42 673.229,1661.42 673.229,1622.05 830.429,1622.05 921.261,1531.21 921.261,1330.71 922.759,1323.17 927.025,1316.79 1074.52,1169.29 954.585,1049.35 949.197,1039.27 948.819,334.645 950.317,327.111 954.585,320.725 1125.05,150.259 1121.63,141.731 1092.02,141.731 1081.08,138.415 981.503,39.3688 275.871,39.3688 90.5506,224.689 90.5506,590.271 122.327,622.047 153.543,622.047 153.543,574.803 287.401,574.803 287.401,622.047 318.619,622.047 430.963,509.701 441.041,504.315 799.213,503.937 799.213,543.307 453.035,543.307 337.709,658.099 326.771,661.417 287.401,661.417 287.401,708.661 153.543,708.661 153.543,661.417 114.173,661.417 103.237,658.099 56.9466,612.343 52.6786,605.957 51.1806,598.425" style="stroke:rgb(0,0,0);stroke-width:1px;fill:none;stroke-opacity:1;stroke-linecap:round;stroke-linejoin:round;;fill:none"/>
</svg>
