M48
;DRILL file {KiCad 5.0.2-bee76a0~70~ubuntu18.04.1} date Thu 28 Nov 2019 05:43:44 PM CET
;FORMAT={-:-/ absolute / inch / decimal}
FMAT,2
INCH,TZ
T1C0.0315
T2C0.0394
T3C0.0866
%
G90
G05
T1
X1.1614Y-0.2953
X0.9547Y-0.6791
X0.9646Y-0.0984
X0.9646Y-0.2953
X1.1614Y-0.6791
X1.1614Y-0.876
X1.1614Y-0.0984
X0.9547Y-0.876
T2
X0.748Y-0.7677
X1.3386Y-0.1461
X1.3386Y-0.2461
X0.748Y-0.2756
X0.748Y-0.9291
X0.0827Y-0.6929
X0.0827Y-0.7929
X1.3386Y-0.7268
X1.3386Y-0.8268
X0.748Y-0.4331
T3
X0.1181Y-0.1181
X1.3976Y-0.4232
X0.1083Y-1.063
X1.3937Y-1.0079
T0
M30
