G04 #@! TF.GenerationSoftware,KiCad,Pcbnew,5.0.2-bee76a0~70~ubuntu18.04.1*
G04 #@! TF.CreationDate,2019-11-28T17:43:41+01:00*
G04 #@! TF.ProjectId,current_sense,63757272-656e-4745-9f73-656e73652e6b,rev?*
G04 #@! TF.SameCoordinates,Original*
G04 #@! TF.FileFunction,Copper,L1,Top*
G04 #@! TF.FilePolarity,Positive*
%FSLAX46Y46*%
G04 Gerber Fmt 4.6, Leading zero omitted, Abs format (unit mm)*
G04 Created by KiCad (PCBNEW 5.0.2-bee76a0~70~ubuntu18.04.1) date Thu 28 Nov 2019 05:43:41 PM CET*
%MOMM*%
%LPD*%
G01*
G04 APERTURE LIST*
G04 #@! TA.AperFunction,SMDPad,CuDef*
%ADD10R,1.800000X3.200000*%
G04 #@! TD*
G04 #@! TA.AperFunction,SMDPad,CuDef*
%ADD11R,1.550000X1.000000*%
G04 #@! TD*
G04 #@! TA.AperFunction,SMDPad,CuDef*
%ADD12R,1.550000X0.600000*%
G04 #@! TD*
G04 #@! TA.AperFunction,ComponentPad*
%ADD13C,3.000000*%
G04 #@! TD*
G04 #@! TA.AperFunction,ComponentPad*
%ADD14C,2.500000*%
G04 #@! TD*
G04 #@! TA.AperFunction,ComponentPad*
%ADD15R,3.000000X3.000000*%
G04 #@! TD*
G04 #@! TA.AperFunction,ComponentPad*
%ADD16R,3.000000X2.000000*%
G04 #@! TD*
G04 #@! TA.AperFunction,ComponentPad*
%ADD17O,3.000000X2.000000*%
G04 #@! TD*
G04 #@! TA.AperFunction,ComponentPad*
%ADD18C,2.200000*%
G04 #@! TD*
G04 #@! TA.AperFunction,Conductor*
%ADD19C,0.750000*%
G04 #@! TD*
G04 #@! TA.AperFunction,Conductor*
%ADD20C,2.000000*%
G04 #@! TD*
G04 #@! TA.AperFunction,Conductor*
%ADD21C,0.254000*%
G04 #@! TD*
G04 APERTURE END LIST*
D10*
G04 #@! TO.P,R1,2*
G04 #@! TO.N,PHASE1_IN*
X9200000Y-10250000D03*
G04 #@! TO.P,R1,1*
G04 #@! TO.N,PHASE1_OUT*
X14800000Y-10250000D03*
G04 #@! TD*
G04 #@! TO.P,R3,1*
G04 #@! TO.N,PHASE0_OUT*
X15050000Y-23000000D03*
G04 #@! TO.P,R3,2*
G04 #@! TO.N,PHASE0_IN*
X9450000Y-23000000D03*
G04 #@! TD*
D11*
G04 #@! TO.P,U1,8*
G04 #@! TO.N,PHASE1_OUT*
X14700000Y-3095000D03*
D12*
G04 #@! TO.P,U1,7*
G04 #@! TO.N,+3V3*
X14700000Y-4365000D03*
G04 #@! TO.P,U1,6*
X14700000Y-5635000D03*
D11*
G04 #@! TO.P,U1,5*
G04 #@! TO.N,CURRENT_1*
X14700000Y-6905000D03*
D12*
G04 #@! TO.P,U1,4*
G04 #@! TO.N,GND*
X9300000Y-6905000D03*
G04 #@! TO.P,U1,3*
X9300000Y-5635000D03*
G04 #@! TO.P,U1,2*
X9300000Y-4365000D03*
D11*
G04 #@! TO.P,U1,1*
G04 #@! TO.N,PHASE1_IN*
X9300000Y-3095000D03*
G04 #@! TD*
G04 #@! TO.P,U3,1*
G04 #@! TO.N,PHASE0_IN*
X9100000Y-15495000D03*
D12*
G04 #@! TO.P,U3,2*
G04 #@! TO.N,GND*
X9100000Y-16765000D03*
G04 #@! TO.P,U3,3*
X9100000Y-18035000D03*
G04 #@! TO.P,U3,4*
X9100000Y-19305000D03*
D11*
G04 #@! TO.P,U3,5*
G04 #@! TO.N,CURRENT_0*
X14500000Y-19305000D03*
D12*
G04 #@! TO.P,U3,6*
G04 #@! TO.N,+3V3*
X14500000Y-18035000D03*
G04 #@! TO.P,U3,7*
X14500000Y-16765000D03*
D11*
G04 #@! TO.P,U3,8*
G04 #@! TO.N,PHASE0_OUT*
X14500000Y-15495000D03*
G04 #@! TD*
D13*
G04 #@! TO.P,C1,1*
G04 #@! TO.N,GND*
X29500000Y-7500000D03*
D14*
G04 #@! TO.P,C1,2*
G04 #@! TO.N,+3V3*
X29500000Y-2500000D03*
G04 #@! TD*
D13*
G04 #@! TO.P,C3,1*
G04 #@! TO.N,GND*
X29500000Y-22250000D03*
G04 #@! TO.P,C3,2*
G04 #@! TO.N,+3V3*
X29500000Y-17250000D03*
G04 #@! TD*
D14*
G04 #@! TO.P,C4,2*
G04 #@! TO.N,+3V3*
X24500000Y-2500000D03*
D13*
G04 #@! TO.P,C4,1*
G04 #@! TO.N,GND*
X24500000Y-7500000D03*
G04 #@! TD*
G04 #@! TO.P,C6,2*
G04 #@! TO.N,+3V3*
X24250000Y-17250000D03*
G04 #@! TO.P,C6,1*
G04 #@! TO.N,GND*
X24250000Y-22250000D03*
G04 #@! TD*
D15*
G04 #@! TO.P,J2,1*
G04 #@! TO.N,CURRENT_2*
X19000000Y-7000000D03*
G04 #@! TD*
G04 #@! TO.P,J3,1*
G04 #@! TO.N,CURRENT_1*
X19000000Y-19500000D03*
G04 #@! TD*
D16*
G04 #@! TO.P,J5,1*
G04 #@! TO.N,GND*
X34000000Y-6250000D03*
D17*
G04 #@! TO.P,J5,2*
G04 #@! TO.N,+3V3*
X34000000Y-3710000D03*
G04 #@! TD*
G04 #@! TO.P,J7,2*
G04 #@! TO.N,+3V3*
X34000000Y-18460000D03*
D16*
G04 #@! TO.P,J7,1*
G04 #@! TO.N,GND*
X34000000Y-21000000D03*
G04 #@! TD*
D18*
G04 #@! TO.P,H1,1*
G04 #@! TO.N,GND*
X3000000Y-3000000D03*
G04 #@! TD*
G04 #@! TO.P,H2,1*
G04 #@! TO.N,GND*
X35500000Y-10750000D03*
G04 #@! TD*
G04 #@! TO.P,H3,1*
G04 #@! TO.N,GND*
X2750000Y-27000000D03*
G04 #@! TD*
G04 #@! TO.P,H4,1*
G04 #@! TO.N,GND*
X35400000Y-25600000D03*
G04 #@! TD*
D17*
G04 #@! TO.P,J1,2*
G04 #@! TO.N,PHASE0_IN*
X2100000Y-20140000D03*
D16*
G04 #@! TO.P,J1,1*
G04 #@! TO.N,PHASE1_IN*
X2100000Y-17600000D03*
G04 #@! TD*
D15*
G04 #@! TO.P,J6,1*
G04 #@! TO.N,PHASE1_OUT*
X19000000Y-11000000D03*
G04 #@! TD*
G04 #@! TO.P,J4,1*
G04 #@! TO.N,PHASE0_OUT*
X19000000Y-23600000D03*
G04 #@! TD*
D19*
G04 #@! TO.N,GND*
X24500000Y-7500000D02*
X29500000Y-7500000D01*
X24250000Y-22250000D02*
X29500000Y-22250000D01*
X32750000Y-22250000D02*
X34000000Y-21000000D01*
X29500000Y-22250000D02*
X32750000Y-22250000D01*
X32750000Y-7500000D02*
X34000000Y-6250000D01*
X29500000Y-7500000D02*
X32750000Y-7500000D01*
X9300000Y-19405000D02*
X9300000Y-16865000D01*
X9300000Y-4365000D02*
X9300000Y-6905000D01*
X7000000Y-3810000D02*
X8825000Y-5635000D01*
X7000000Y-2250000D02*
X7000000Y-3810000D01*
X8599990Y-650010D02*
X7000000Y-2250000D01*
X8825000Y-5635000D02*
X9300000Y-5635000D01*
X35650010Y-650010D02*
X8599990Y-650010D01*
X34000000Y-6250000D02*
X35600000Y-6250000D01*
X35600000Y-6250000D02*
X37000000Y-4850000D01*
X37000000Y-4850000D02*
X37000000Y-1750000D01*
X36000000Y-1000000D02*
X35650010Y-650010D01*
X37000000Y-1750000D02*
X36250000Y-1000000D01*
X36250000Y-1000000D02*
X36000000Y-1000000D01*
X36250000Y-21000000D02*
X36800000Y-20450000D01*
X36800000Y-16000000D02*
X34200000Y-13400000D01*
X36800000Y-20450000D02*
X36800000Y-16000000D01*
X34000000Y-21000000D02*
X36250000Y-21000000D01*
X7035000Y-18035000D02*
X9100000Y-18035000D01*
X24500000Y-13300000D02*
X24400000Y-13400000D01*
X24500000Y-7500000D02*
X24500000Y-13300000D01*
X34200000Y-13400000D02*
X24400000Y-13400000D01*
X6100000Y-17100000D02*
X6100000Y-15300000D01*
X6100000Y-17100000D02*
X7035000Y-18035000D01*
X8000000Y-13400000D02*
X8500000Y-13400000D01*
X6100000Y-15300000D02*
X8000000Y-13400000D01*
X24400000Y-13400000D02*
X8500000Y-13400000D01*
G04 #@! TO.N,+3V3*
X14700000Y-5635000D02*
X14700000Y-4365000D01*
X22635000Y-4365000D02*
X24500000Y-2500000D01*
X14700000Y-4365000D02*
X22635000Y-4365000D01*
X24500000Y-2500000D02*
X29500000Y-2500000D01*
X14700000Y-18135000D02*
X14700000Y-16865000D01*
X14700000Y-16865000D02*
X24865000Y-16865000D01*
X24250000Y-17250000D02*
X29500000Y-17250000D01*
X32790000Y-17250000D02*
X34000000Y-18460000D01*
X29500000Y-17250000D02*
X32790000Y-17250000D01*
X32790000Y-2500000D02*
X34000000Y-3710000D01*
X29500000Y-2500000D02*
X32790000Y-2500000D01*
G04 #@! TO.N,PHASE1_IN*
X10850000Y-10400000D02*
X11500000Y-9750000D01*
X9200000Y-10400000D02*
X10850000Y-10400000D01*
X11500000Y-9750000D02*
X11500000Y-3500000D01*
X11095000Y-3095000D02*
X9300000Y-3095000D01*
X11500000Y-3500000D02*
X11095000Y-3095000D01*
D20*
X2100000Y-16000000D02*
X2100000Y-17600000D01*
D19*
X2100000Y-15850000D02*
X2100000Y-16000000D01*
D20*
X7550000Y-10400000D02*
X2100000Y-15850000D01*
X9200000Y-10400000D02*
X7550000Y-10400000D01*
D19*
G04 #@! TO.N,PHASE0_IN*
X11500000Y-22350000D02*
X10850000Y-23000000D01*
X11500000Y-16190000D02*
X11500000Y-22350000D01*
X10905000Y-15595000D02*
X11500000Y-16190000D01*
X10850000Y-23000000D02*
X9200000Y-23000000D01*
X9300000Y-15595000D02*
X10905000Y-15595000D01*
G04 #@! TO.N,CURRENT_1*
X18655000Y-19405000D02*
X18750000Y-19500000D01*
X14700000Y-19405000D02*
X18655000Y-19405000D01*
G04 #@! TO.N,CURRENT_2*
X18905000Y-6905000D02*
X19000000Y-7000000D01*
X14700000Y-6905000D02*
X18905000Y-6905000D01*
D20*
G04 #@! TO.N,PHASE0_IN*
X2100000Y-21890000D02*
X2100000Y-20140000D01*
X3210000Y-23000000D02*
X2100000Y-21890000D01*
X9450000Y-23000000D02*
X3210000Y-23000000D01*
D19*
G04 #@! TO.N,PHASE0_OUT*
X13150000Y-23000000D02*
X14800000Y-23000000D01*
X12500000Y-22350000D02*
X13150000Y-23000000D01*
X13175000Y-15595000D02*
X12500000Y-16270000D01*
X12500000Y-16270000D02*
X12500000Y-22350000D01*
X14700000Y-15595000D02*
X13175000Y-15595000D01*
G04 #@! TO.N,PHASE1_OUT*
X13175000Y-3095000D02*
X12500000Y-3770000D01*
X14700000Y-3095000D02*
X13175000Y-3095000D01*
X12500000Y-3770000D02*
X12500000Y-10000000D01*
X12900000Y-10400000D02*
X14800000Y-10400000D01*
X12500000Y-10000000D02*
X12900000Y-10400000D01*
X18250000Y-10250000D02*
X19000000Y-11000000D01*
D20*
X14800000Y-10250000D02*
X18250000Y-10250000D01*
D19*
G04 #@! TO.N,PHASE0_OUT*
X18200000Y-23000000D02*
X18800000Y-23600000D01*
D20*
X15050000Y-23000000D02*
X18200000Y-23000000D01*
G04 #@! TD*
D21*
G04 #@! TO.N,GND*
G36*
X8067191Y-4052809D02*
X8277235Y-4193157D01*
X8525000Y-4242440D01*
X10073000Y-4242440D01*
X10073000Y-7273000D01*
X7127000Y-7273000D01*
X7127000Y-3927000D01*
X7983127Y-3927000D01*
X8067191Y-4052809D01*
X8067191Y-4052809D01*
G37*
X8067191Y-4052809D02*
X8277235Y-4193157D01*
X8525000Y-4242440D01*
X10073000Y-4242440D01*
X10073000Y-7273000D01*
X7127000Y-7273000D01*
X7127000Y-3927000D01*
X7983127Y-3927000D01*
X8067191Y-4052809D01*
G36*
X7867191Y-16452809D02*
X8077235Y-16593157D01*
X8325000Y-16642440D01*
X9873000Y-16642440D01*
X9873000Y-19673000D01*
X6927000Y-19673000D01*
X6927000Y-16327000D01*
X7783127Y-16327000D01*
X7867191Y-16452809D01*
X7867191Y-16452809D01*
G37*
X7867191Y-16452809D02*
X8077235Y-16593157D01*
X8325000Y-16642440D01*
X9873000Y-16642440D01*
X9873000Y-19673000D01*
X6927000Y-19673000D01*
X6927000Y-16327000D01*
X7783127Y-16327000D01*
X7867191Y-16452809D01*
G04 #@! TO.N,+3V3*
G36*
X15273000Y-18157560D02*
X13727000Y-18157560D01*
X13727000Y-16642440D01*
X15273000Y-16642440D01*
X15273000Y-18157560D01*
X15273000Y-18157560D01*
G37*
X15273000Y-18157560D02*
X13727000Y-18157560D01*
X13727000Y-16642440D01*
X15273000Y-16642440D01*
X15273000Y-18157560D01*
G04 #@! TO.N,GND*
G36*
X37588808Y-29090000D02*
X710000Y-29090000D01*
X710000Y-22752639D01*
X921231Y-23068769D01*
X1057750Y-23159988D01*
X1940013Y-24042252D01*
X2031231Y-24178769D01*
X2572055Y-24540136D01*
X3048969Y-24635000D01*
X3209999Y-24667031D01*
X3371029Y-24635000D01*
X7909522Y-24635000D01*
X7951843Y-24847765D01*
X8092191Y-25057809D01*
X8302235Y-25198157D01*
X8550000Y-25247440D01*
X10350000Y-25247440D01*
X10597765Y-25198157D01*
X10807809Y-25057809D01*
X10948157Y-24847765D01*
X10997440Y-24600000D01*
X10997440Y-24000459D01*
X11244082Y-23951399D01*
X11578169Y-23728169D01*
X11634518Y-23643837D01*
X12000000Y-23278356D01*
X12365484Y-23643840D01*
X12421831Y-23728169D01*
X12506160Y-23784516D01*
X12506162Y-23784518D01*
X12681105Y-23901411D01*
X12755918Y-23951399D01*
X13050524Y-24010000D01*
X13050529Y-24010000D01*
X13150000Y-24029786D01*
X13249471Y-24010000D01*
X13502560Y-24010000D01*
X13502560Y-24600000D01*
X13551843Y-24847765D01*
X13692191Y-25057809D01*
X13902235Y-25198157D01*
X14150000Y-25247440D01*
X15950000Y-25247440D01*
X16197765Y-25198157D01*
X16407809Y-25057809D01*
X16548157Y-24847765D01*
X16590478Y-24635000D01*
X16852560Y-24635000D01*
X16852560Y-25100000D01*
X16901843Y-25347765D01*
X17042191Y-25557809D01*
X17252235Y-25698157D01*
X17500000Y-25747440D01*
X20500000Y-25747440D01*
X20747765Y-25698157D01*
X20957809Y-25557809D01*
X21098157Y-25347765D01*
X21147440Y-25100000D01*
X21147440Y-22100000D01*
X21098157Y-21852235D01*
X20957809Y-21642191D01*
X20819836Y-21550000D01*
X20957809Y-21457809D01*
X21098157Y-21247765D01*
X21147440Y-21000000D01*
X21147440Y-18000000D01*
X21122576Y-17875000D01*
X22197976Y-17875000D01*
X22440034Y-18459380D01*
X23040620Y-19059966D01*
X23825322Y-19385000D01*
X24674678Y-19385000D01*
X25459380Y-19059966D01*
X26059966Y-18459380D01*
X26142552Y-18260000D01*
X27607448Y-18260000D01*
X27690034Y-18459380D01*
X28290620Y-19059966D01*
X29075322Y-19385000D01*
X29924678Y-19385000D01*
X30709380Y-19059966D01*
X31309966Y-18459380D01*
X31392552Y-18260000D01*
X31872751Y-18260000D01*
X31832969Y-18460000D01*
X31959864Y-19097945D01*
X32321231Y-19638769D01*
X32862055Y-20000136D01*
X33338969Y-20095000D01*
X34661031Y-20095000D01*
X35137945Y-20000136D01*
X35678769Y-19638769D01*
X36040136Y-19097945D01*
X36167031Y-18460000D01*
X36040136Y-17822055D01*
X35678769Y-17281231D01*
X35137945Y-16919864D01*
X34661031Y-16825000D01*
X33793355Y-16825000D01*
X33574518Y-16606163D01*
X33518169Y-16521831D01*
X33433116Y-16465000D01*
X33326979Y-16394082D01*
X33184082Y-16298601D01*
X32889476Y-16240000D01*
X32889471Y-16240000D01*
X32790000Y-16220214D01*
X32690529Y-16240000D01*
X31392552Y-16240000D01*
X31309966Y-16040620D01*
X30709380Y-15440034D01*
X29924678Y-15115000D01*
X29075322Y-15115000D01*
X28290620Y-15440034D01*
X27690034Y-16040620D01*
X27607448Y-16240000D01*
X26142552Y-16240000D01*
X26059966Y-16040620D01*
X25459380Y-15440034D01*
X24674678Y-15115000D01*
X23825322Y-15115000D01*
X23040620Y-15440034D01*
X22625654Y-15855000D01*
X15922440Y-15855000D01*
X15922440Y-14995000D01*
X15873157Y-14747235D01*
X15732809Y-14537191D01*
X15522765Y-14396843D01*
X15275000Y-14347560D01*
X13725000Y-14347560D01*
X13477235Y-14396843D01*
X13267191Y-14537191D01*
X13239847Y-14578113D01*
X13174999Y-14565214D01*
X13075528Y-14585000D01*
X13075524Y-14585000D01*
X12780918Y-14643601D01*
X12446831Y-14866831D01*
X12390482Y-14951163D01*
X12040000Y-15301645D01*
X11689518Y-14951163D01*
X11633169Y-14866831D01*
X11299082Y-14643601D01*
X11004476Y-14585000D01*
X11004471Y-14585000D01*
X10905000Y-14565214D01*
X10805529Y-14585000D01*
X10364754Y-14585000D01*
X10332809Y-14537191D01*
X10122765Y-14396843D01*
X9875000Y-14347560D01*
X8325000Y-14347560D01*
X8077235Y-14396843D01*
X7867191Y-14537191D01*
X7726843Y-14747235D01*
X7677560Y-14995000D01*
X7677560Y-15995000D01*
X7726843Y-16242765D01*
X7867191Y-16452809D01*
X8077235Y-16593157D01*
X8325000Y-16642440D01*
X9875000Y-16642440D01*
X10063226Y-16605000D01*
X10486645Y-16605000D01*
X10490000Y-16608355D01*
X10490001Y-20780408D01*
X10350000Y-20752560D01*
X8550000Y-20752560D01*
X8302235Y-20801843D01*
X8092191Y-20942191D01*
X7951843Y-21152235D01*
X7909522Y-21365000D01*
X3887239Y-21365000D01*
X3803698Y-21281460D01*
X4140136Y-20777945D01*
X4267031Y-20140000D01*
X4140136Y-19502055D01*
X3909511Y-19156900D01*
X4057809Y-19057809D01*
X4198157Y-18847765D01*
X4247440Y-18600000D01*
X4247440Y-16600000D01*
X4198157Y-16352235D01*
X4082738Y-16179500D01*
X7909473Y-12352766D01*
X8052235Y-12448157D01*
X8300000Y-12497440D01*
X10100000Y-12497440D01*
X10347765Y-12448157D01*
X10557809Y-12307809D01*
X10698157Y-12097765D01*
X10747440Y-11850000D01*
X10747440Y-11410000D01*
X10750529Y-11410000D01*
X10850000Y-11429786D01*
X10949471Y-11410000D01*
X10949476Y-11410000D01*
X11244082Y-11351399D01*
X11578169Y-11128169D01*
X11634517Y-11043838D01*
X11875000Y-10803355D01*
X12115481Y-11043835D01*
X12171831Y-11128169D01*
X12505918Y-11351399D01*
X12800524Y-11410000D01*
X12800528Y-11410000D01*
X12899999Y-11429786D01*
X12999470Y-11410000D01*
X13252560Y-11410000D01*
X13252560Y-11850000D01*
X13301843Y-12097765D01*
X13442191Y-12307809D01*
X13652235Y-12448157D01*
X13900000Y-12497440D01*
X15700000Y-12497440D01*
X15947765Y-12448157D01*
X16157809Y-12307809D01*
X16298157Y-12097765D01*
X16340478Y-11885000D01*
X16852560Y-11885000D01*
X16852560Y-12500000D01*
X16901843Y-12747765D01*
X17042191Y-12957809D01*
X17252235Y-13098157D01*
X17500000Y-13147440D01*
X20500000Y-13147440D01*
X20747765Y-13098157D01*
X20957809Y-12957809D01*
X21098157Y-12747765D01*
X21147440Y-12500000D01*
X21147440Y-9500000D01*
X21098157Y-9252235D01*
X20957809Y-9042191D01*
X20894666Y-9000000D01*
X20957809Y-8957809D01*
X21098157Y-8747765D01*
X21147440Y-8500000D01*
X21147440Y-5500000D01*
X21122576Y-5375000D01*
X22535529Y-5375000D01*
X22635000Y-5394786D01*
X22734471Y-5375000D01*
X22734476Y-5375000D01*
X23029082Y-5316399D01*
X23363169Y-5093169D01*
X23419518Y-5008837D01*
X24067283Y-4361072D01*
X24125050Y-4385000D01*
X24874950Y-4385000D01*
X25567767Y-4098026D01*
X26098026Y-3567767D01*
X26121954Y-3510000D01*
X27878046Y-3510000D01*
X27901974Y-3567767D01*
X28432233Y-4098026D01*
X29125050Y-4385000D01*
X29874950Y-4385000D01*
X30567767Y-4098026D01*
X31098026Y-3567767D01*
X31121954Y-3510000D01*
X31872751Y-3510000D01*
X31832969Y-3710000D01*
X31959864Y-4347945D01*
X32321231Y-4888769D01*
X32862055Y-5250136D01*
X33338969Y-5345000D01*
X34661031Y-5345000D01*
X35137945Y-5250136D01*
X35678769Y-4888769D01*
X36040136Y-4347945D01*
X36167031Y-3710000D01*
X36040136Y-3072055D01*
X35678769Y-2531231D01*
X35137945Y-2169864D01*
X34661031Y-2075000D01*
X33793355Y-2075000D01*
X33574518Y-1856163D01*
X33518169Y-1771831D01*
X33184082Y-1548601D01*
X32889476Y-1490000D01*
X32889471Y-1490000D01*
X32790000Y-1470214D01*
X32690529Y-1490000D01*
X31121954Y-1490000D01*
X31098026Y-1432233D01*
X30567767Y-901974D01*
X30104300Y-710000D01*
X37541191Y-710000D01*
X37588808Y-29090000D01*
X37588808Y-29090000D01*
G37*
X37588808Y-29090000D02*
X710000Y-29090000D01*
X710000Y-22752639D01*
X921231Y-23068769D01*
X1057750Y-23159988D01*
X1940013Y-24042252D01*
X2031231Y-24178769D01*
X2572055Y-24540136D01*
X3048969Y-24635000D01*
X3209999Y-24667031D01*
X3371029Y-24635000D01*
X7909522Y-24635000D01*
X7951843Y-24847765D01*
X8092191Y-25057809D01*
X8302235Y-25198157D01*
X8550000Y-25247440D01*
X10350000Y-25247440D01*
X10597765Y-25198157D01*
X10807809Y-25057809D01*
X10948157Y-24847765D01*
X10997440Y-24600000D01*
X10997440Y-24000459D01*
X11244082Y-23951399D01*
X11578169Y-23728169D01*
X11634518Y-23643837D01*
X12000000Y-23278356D01*
X12365484Y-23643840D01*
X12421831Y-23728169D01*
X12506160Y-23784516D01*
X12506162Y-23784518D01*
X12681105Y-23901411D01*
X12755918Y-23951399D01*
X13050524Y-24010000D01*
X13050529Y-24010000D01*
X13150000Y-24029786D01*
X13249471Y-24010000D01*
X13502560Y-24010000D01*
X13502560Y-24600000D01*
X13551843Y-24847765D01*
X13692191Y-25057809D01*
X13902235Y-25198157D01*
X14150000Y-25247440D01*
X15950000Y-25247440D01*
X16197765Y-25198157D01*
X16407809Y-25057809D01*
X16548157Y-24847765D01*
X16590478Y-24635000D01*
X16852560Y-24635000D01*
X16852560Y-25100000D01*
X16901843Y-25347765D01*
X17042191Y-25557809D01*
X17252235Y-25698157D01*
X17500000Y-25747440D01*
X20500000Y-25747440D01*
X20747765Y-25698157D01*
X20957809Y-25557809D01*
X21098157Y-25347765D01*
X21147440Y-25100000D01*
X21147440Y-22100000D01*
X21098157Y-21852235D01*
X20957809Y-21642191D01*
X20819836Y-21550000D01*
X20957809Y-21457809D01*
X21098157Y-21247765D01*
X21147440Y-21000000D01*
X21147440Y-18000000D01*
X21122576Y-17875000D01*
X22197976Y-17875000D01*
X22440034Y-18459380D01*
X23040620Y-19059966D01*
X23825322Y-19385000D01*
X24674678Y-19385000D01*
X25459380Y-19059966D01*
X26059966Y-18459380D01*
X26142552Y-18260000D01*
X27607448Y-18260000D01*
X27690034Y-18459380D01*
X28290620Y-19059966D01*
X29075322Y-19385000D01*
X29924678Y-19385000D01*
X30709380Y-19059966D01*
X31309966Y-18459380D01*
X31392552Y-18260000D01*
X31872751Y-18260000D01*
X31832969Y-18460000D01*
X31959864Y-19097945D01*
X32321231Y-19638769D01*
X32862055Y-20000136D01*
X33338969Y-20095000D01*
X34661031Y-20095000D01*
X35137945Y-20000136D01*
X35678769Y-19638769D01*
X36040136Y-19097945D01*
X36167031Y-18460000D01*
X36040136Y-17822055D01*
X35678769Y-17281231D01*
X35137945Y-16919864D01*
X34661031Y-16825000D01*
X33793355Y-16825000D01*
X33574518Y-16606163D01*
X33518169Y-16521831D01*
X33433116Y-16465000D01*
X33326979Y-16394082D01*
X33184082Y-16298601D01*
X32889476Y-16240000D01*
X32889471Y-16240000D01*
X32790000Y-16220214D01*
X32690529Y-16240000D01*
X31392552Y-16240000D01*
X31309966Y-16040620D01*
X30709380Y-15440034D01*
X29924678Y-15115000D01*
X29075322Y-15115000D01*
X28290620Y-15440034D01*
X27690034Y-16040620D01*
X27607448Y-16240000D01*
X26142552Y-16240000D01*
X26059966Y-16040620D01*
X25459380Y-15440034D01*
X24674678Y-15115000D01*
X23825322Y-15115000D01*
X23040620Y-15440034D01*
X22625654Y-15855000D01*
X15922440Y-15855000D01*
X15922440Y-14995000D01*
X15873157Y-14747235D01*
X15732809Y-14537191D01*
X15522765Y-14396843D01*
X15275000Y-14347560D01*
X13725000Y-14347560D01*
X13477235Y-14396843D01*
X13267191Y-14537191D01*
X13239847Y-14578113D01*
X13174999Y-14565214D01*
X13075528Y-14585000D01*
X13075524Y-14585000D01*
X12780918Y-14643601D01*
X12446831Y-14866831D01*
X12390482Y-14951163D01*
X12040000Y-15301645D01*
X11689518Y-14951163D01*
X11633169Y-14866831D01*
X11299082Y-14643601D01*
X11004476Y-14585000D01*
X11004471Y-14585000D01*
X10905000Y-14565214D01*
X10805529Y-14585000D01*
X10364754Y-14585000D01*
X10332809Y-14537191D01*
X10122765Y-14396843D01*
X9875000Y-14347560D01*
X8325000Y-14347560D01*
X8077235Y-14396843D01*
X7867191Y-14537191D01*
X7726843Y-14747235D01*
X7677560Y-14995000D01*
X7677560Y-15995000D01*
X7726843Y-16242765D01*
X7867191Y-16452809D01*
X8077235Y-16593157D01*
X8325000Y-16642440D01*
X9875000Y-16642440D01*
X10063226Y-16605000D01*
X10486645Y-16605000D01*
X10490000Y-16608355D01*
X10490001Y-20780408D01*
X10350000Y-20752560D01*
X8550000Y-20752560D01*
X8302235Y-20801843D01*
X8092191Y-20942191D01*
X7951843Y-21152235D01*
X7909522Y-21365000D01*
X3887239Y-21365000D01*
X3803698Y-21281460D01*
X4140136Y-20777945D01*
X4267031Y-20140000D01*
X4140136Y-19502055D01*
X3909511Y-19156900D01*
X4057809Y-19057809D01*
X4198157Y-18847765D01*
X4247440Y-18600000D01*
X4247440Y-16600000D01*
X4198157Y-16352235D01*
X4082738Y-16179500D01*
X7909473Y-12352766D01*
X8052235Y-12448157D01*
X8300000Y-12497440D01*
X10100000Y-12497440D01*
X10347765Y-12448157D01*
X10557809Y-12307809D01*
X10698157Y-12097765D01*
X10747440Y-11850000D01*
X10747440Y-11410000D01*
X10750529Y-11410000D01*
X10850000Y-11429786D01*
X10949471Y-11410000D01*
X10949476Y-11410000D01*
X11244082Y-11351399D01*
X11578169Y-11128169D01*
X11634517Y-11043838D01*
X11875000Y-10803355D01*
X12115481Y-11043835D01*
X12171831Y-11128169D01*
X12505918Y-11351399D01*
X12800524Y-11410000D01*
X12800528Y-11410000D01*
X12899999Y-11429786D01*
X12999470Y-11410000D01*
X13252560Y-11410000D01*
X13252560Y-11850000D01*
X13301843Y-12097765D01*
X13442191Y-12307809D01*
X13652235Y-12448157D01*
X13900000Y-12497440D01*
X15700000Y-12497440D01*
X15947765Y-12448157D01*
X16157809Y-12307809D01*
X16298157Y-12097765D01*
X16340478Y-11885000D01*
X16852560Y-11885000D01*
X16852560Y-12500000D01*
X16901843Y-12747765D01*
X17042191Y-12957809D01*
X17252235Y-13098157D01*
X17500000Y-13147440D01*
X20500000Y-13147440D01*
X20747765Y-13098157D01*
X20957809Y-12957809D01*
X21098157Y-12747765D01*
X21147440Y-12500000D01*
X21147440Y-9500000D01*
X21098157Y-9252235D01*
X20957809Y-9042191D01*
X20894666Y-9000000D01*
X20957809Y-8957809D01*
X21098157Y-8747765D01*
X21147440Y-8500000D01*
X21147440Y-5500000D01*
X21122576Y-5375000D01*
X22535529Y-5375000D01*
X22635000Y-5394786D01*
X22734471Y-5375000D01*
X22734476Y-5375000D01*
X23029082Y-5316399D01*
X23363169Y-5093169D01*
X23419518Y-5008837D01*
X24067283Y-4361072D01*
X24125050Y-4385000D01*
X24874950Y-4385000D01*
X25567767Y-4098026D01*
X26098026Y-3567767D01*
X26121954Y-3510000D01*
X27878046Y-3510000D01*
X27901974Y-3567767D01*
X28432233Y-4098026D01*
X29125050Y-4385000D01*
X29874950Y-4385000D01*
X30567767Y-4098026D01*
X31098026Y-3567767D01*
X31121954Y-3510000D01*
X31872751Y-3510000D01*
X31832969Y-3710000D01*
X31959864Y-4347945D01*
X32321231Y-4888769D01*
X32862055Y-5250136D01*
X33338969Y-5345000D01*
X34661031Y-5345000D01*
X35137945Y-5250136D01*
X35678769Y-4888769D01*
X36040136Y-4347945D01*
X36167031Y-3710000D01*
X36040136Y-3072055D01*
X35678769Y-2531231D01*
X35137945Y-2169864D01*
X34661031Y-2075000D01*
X33793355Y-2075000D01*
X33574518Y-1856163D01*
X33518169Y-1771831D01*
X33184082Y-1548601D01*
X32889476Y-1490000D01*
X32889471Y-1490000D01*
X32790000Y-1470214D01*
X32690529Y-1490000D01*
X31121954Y-1490000D01*
X31098026Y-1432233D01*
X30567767Y-901974D01*
X30104300Y-710000D01*
X37541191Y-710000D01*
X37588808Y-29090000D01*
G36*
X23432233Y-901974D02*
X22901974Y-1432233D01*
X22615000Y-2125050D01*
X22615000Y-2874950D01*
X22638928Y-2932717D01*
X22216645Y-3355000D01*
X16122440Y-3355000D01*
X16122440Y-2595000D01*
X16073157Y-2347235D01*
X15932809Y-2137191D01*
X15722765Y-1996843D01*
X15475000Y-1947560D01*
X13925000Y-1947560D01*
X13677235Y-1996843D01*
X13545300Y-2085000D01*
X13274470Y-2085000D01*
X13174999Y-2065214D01*
X13075528Y-2085000D01*
X13075524Y-2085000D01*
X12780918Y-2143601D01*
X12446831Y-2366831D01*
X12390482Y-2451163D01*
X12135000Y-2706645D01*
X11879518Y-2451163D01*
X11823169Y-2366831D01*
X11489082Y-2143601D01*
X11194476Y-2085000D01*
X11194471Y-2085000D01*
X11095000Y-2065214D01*
X10995529Y-2085000D01*
X10454700Y-2085000D01*
X10322765Y-1996843D01*
X10075000Y-1947560D01*
X8525000Y-1947560D01*
X8277235Y-1996843D01*
X8067191Y-2137191D01*
X7926843Y-2347235D01*
X7877560Y-2595000D01*
X7877560Y-3595000D01*
X7926843Y-3842765D01*
X8067191Y-4052809D01*
X8277235Y-4193157D01*
X8525000Y-4242440D01*
X10075000Y-4242440D01*
X10322765Y-4193157D01*
X10454700Y-4105000D01*
X10490001Y-4105000D01*
X10490000Y-8146882D01*
X10347765Y-8051843D01*
X10100000Y-8002560D01*
X8300000Y-8002560D01*
X8052235Y-8051843D01*
X7842191Y-8192191D01*
X7701843Y-8402235D01*
X7652560Y-8650000D01*
X7652560Y-8753370D01*
X7550000Y-8732969D01*
X7388970Y-8765000D01*
X7388969Y-8765000D01*
X6912055Y-8859864D01*
X6371231Y-9221231D01*
X6280014Y-9357747D01*
X830015Y-14807747D01*
X710000Y-14987362D01*
X710000Y-710000D01*
X23895700Y-710000D01*
X23432233Y-901974D01*
X23432233Y-901974D01*
G37*
X23432233Y-901974D02*
X22901974Y-1432233D01*
X22615000Y-2125050D01*
X22615000Y-2874950D01*
X22638928Y-2932717D01*
X22216645Y-3355000D01*
X16122440Y-3355000D01*
X16122440Y-2595000D01*
X16073157Y-2347235D01*
X15932809Y-2137191D01*
X15722765Y-1996843D01*
X15475000Y-1947560D01*
X13925000Y-1947560D01*
X13677235Y-1996843D01*
X13545300Y-2085000D01*
X13274470Y-2085000D01*
X13174999Y-2065214D01*
X13075528Y-2085000D01*
X13075524Y-2085000D01*
X12780918Y-2143601D01*
X12446831Y-2366831D01*
X12390482Y-2451163D01*
X12135000Y-2706645D01*
X11879518Y-2451163D01*
X11823169Y-2366831D01*
X11489082Y-2143601D01*
X11194476Y-2085000D01*
X11194471Y-2085000D01*
X11095000Y-2065214D01*
X10995529Y-2085000D01*
X10454700Y-2085000D01*
X10322765Y-1996843D01*
X10075000Y-1947560D01*
X8525000Y-1947560D01*
X8277235Y-1996843D01*
X8067191Y-2137191D01*
X7926843Y-2347235D01*
X7877560Y-2595000D01*
X7877560Y-3595000D01*
X7926843Y-3842765D01*
X8067191Y-4052809D01*
X8277235Y-4193157D01*
X8525000Y-4242440D01*
X10075000Y-4242440D01*
X10322765Y-4193157D01*
X10454700Y-4105000D01*
X10490001Y-4105000D01*
X10490000Y-8146882D01*
X10347765Y-8051843D01*
X10100000Y-8002560D01*
X8300000Y-8002560D01*
X8052235Y-8051843D01*
X7842191Y-8192191D01*
X7701843Y-8402235D01*
X7652560Y-8650000D01*
X7652560Y-8753370D01*
X7550000Y-8732969D01*
X7388970Y-8765000D01*
X7388969Y-8765000D01*
X6912055Y-8859864D01*
X6371231Y-9221231D01*
X6280014Y-9357747D01*
X830015Y-14807747D01*
X710000Y-14987362D01*
X710000Y-710000D01*
X23895700Y-710000D01*
X23432233Y-901974D01*
G04 #@! TD*
M02*
