<?xml version="1.0" standalone="no"?>
<!DOCTYPE svg PUBLIC "-//W3C//DTD SVG 1.1//EN"
"http://www.w3.org/Graphics/SVG/1.1/DTD/svg11.dtd">
<svg width="151.37" height="119.244" viewBox="0 0 3153.54 2484.25" version="1.1"
xmlns="http://www.w3.org/2000/svg"
xmlns:xlink="http://www.w3.org/1999/xlink">
<g fill-rule="evenodd"><path d="M 1271.65,1367.32 L 1877.26,1367.32 L 1882.79,1357.74 L 1899.32,1339.39 L 1919.29,1324.88 L 1941.85,1314.84 L 1966,1309.7 L 1990.69,1309.7 L 2014.84,1314.84 L 2037.4,1324.88 L 2057.38,1339.39 L 2073.9,1357.74 L 2086.25,1379.13 L 2092.26,1397.64 L 2277.82,1397.64 L 2283.83,1379.13 L 2296.18,1357.74 L 2312.7,1339.39 L 2332.68,1324.88 L 2355.23,1314.84 L 2379.39,1309.7 L 2404.08,1309.7 L 2428.23,1314.84 L 2450.79,1324.88 L 2470.76,1339.39 L 2487.29,1357.74 L 2499.63,1379.13 L 2505.65,1397.64 L 2650.79,1397.64 L 2656.55,1398.21 L 2662.09,1399.89 L 2667.19,1402.61 L 2671.67,1406.29 L 2709.08,1443.7 L 2785.43,1443.7 L 2801.8,1445.42 L 2817.46,1450.51 L 2831.72,1458.74 L 2843.95,1469.75 L 2853.62,1483.07 L 2860.32,1498.11 L 2863.74,1514.21 L 2863.74,1530.67 L 2860.32,1546.77 L 2853.62,1561.81 L 2843.95,1575.13 L 2831.72,1586.14 L 2817.46,1594.37 L 2801.8,1599.46 L 2785.43,1601.18 L 2706.69,1601.18 L 2690.32,1599.46 L 2674.67,1594.37 L 2660.41,1586.14 L 2648.18,1575.13 L 2638.5,1561.81 L 2631.81,1546.77 L 2628.38,1530.67 L 2628.38,1514.21 L 2631.81,1498.11 L 2638.5,1483.07 L 2648.18,1469.75 L 2649.99,1468.12 L 2638.56,1456.69 L 2505.65,1456.69 L 2499.63,1475.21 L 2487.29,1496.59 L 2470.76,1514.94 L 2450.79,1529.45 L 2428.23,1539.49 L 2404.08,1544.63 L 2379.39,1544.63 L 2355.23,1539.49 L 2332.68,1529.45 L 2312.7,1514.94 L 2296.18,1496.59 L 2283.83,1475.21 L 2277.82,1456.69 L 2092.26,1456.69 L 2086.25,1475.21 L 2073.9,1496.59 L 2057.38,1514.94 L 2037.4,1529.45 L 2014.84,1539.49 L 1990.69,1544.63 L 1966,1544.63 L 1941.85,1539.49 L 1919.29,1529.45 L 1899.32,1514.94 L 1882.79,1496.59 L 1870.45,1475.21 L 1862.82,1451.72 L 1860.32,1426.38 L 1281.5,1426.38 L 1281.3,1500.58 L 1280.73,1502.45 L 1278.57,1505.7 L 1275.32,1507.87 L 1271.65,1508.61 L 1271.65,1512.6 L 1251.19,1512.6 L 1250.27,1514.21 L 1246.14,1518.79 L 1241.14,1522.42 L 1235.5,1524.93 L 1229.46,1526.22 L 1223.29,1526.22 L 1217.25,1524.93 L 1211.61,1522.42 L 1206.62,1518.79 L 1202.49,1514.21 L 1201.56,1512.6 L 1149.61,1512.6 L 1149.61,1508.61 L 1147.68,1508.41 L 1145.7,1507.76 L 1143.89,1506.72 L 1142.33,1505.32 L 1140.63,1502.69 L 1139.98,1500.71 L 1139.76,1498.63 L 1139.76,1379.33 L 1140.52,1375.5 L 1142.69,1372.25 L 1145.94,1370.09 L 1149.61,1369.34 L 1149.61,1365.35 L 1271.65,1365.35 L 1271.65,1367.32 z " style="fill-opacity:1.000000;fill:rgb(103,198,105);stroke:rgb(0,0,0);stroke-width:2"/></g>
<g fill-rule="evenodd"><path d="M 883.858,1846.56 L 885.565,1850.39 L 910.998,1850.39 L 944.882,1816.51 L 944.882,1355.93 L 915.328,1326.38 L 846.457,1326.38 L 846.457,1328.35 L 724.409,1328.35 L 724.409,1249.61 L 846.457,1249.61 L 846.457,1267.32 L 927.559,1267.32 L 933.32,1267.89 L 938.859,1269.57 L 943.964,1272.3 L 948.438,1275.97 L 995.289,1322.82 L 998.961,1327.3 L 1001.69,1332.4 L 1003.37,1337.94 L 1003.94,1343.7 L 1003.94,1828.74 L 1003.37,1834.5 L 1001.69,1840.04 L 998.961,1845.14 L 995.289,1849.62 L 944.107,1900.8 L 939.633,1904.47 L 934.528,1907.2 L 928.989,1908.88 L 923.228,1909.45 L 885.565,1909.45 L 883.858,1913.28 L 883.858,2005.91 L 742.126,2005.91 L 742.126,1958.66 L 321.654,1958.66 L 306.292,1957.15 L 291.521,1952.67 L 277.908,1945.39 L 265.976,1935.6 L 178.574,1848.2 L 168.782,1836.27 L 161.506,1822.65 L 157.025,1807.88 L 155.512,1792.52 L 155.512,1722.42 L 148.6,1718.43 L 136.367,1707.41 L 126.691,1694.09 L 119.996,1679.06 L 116.573,1662.95 L 116.573,1646.49 L 119.996,1630.39 L 126.691,1615.35 L 136.367,1602.04 L 148.6,1591.02 L 162.855,1582.79 L 178.511,1577.7 L 194.882,1575.98 L 273.622,1575.98 L 289.993,1577.7 L 305.649,1582.79 L 319.904,1591.02 L 332.137,1602.04 L 341.813,1615.35 L 348.508,1630.39 L 351.931,1646.49 L 351.931,1662.95 L 348.508,1679.06 L 341.813,1694.09 L 332.137,1707.41 L 319.904,1718.43 L 312.992,1722.42 L 312.992,1759.9 L 354.269,1801.18 L 742.126,1801.18 L 742.126,1753.94 L 883.858,1753.94 L 883.858,1846.56 z " style="fill-opacity:1.000000;fill:rgb(115,81,255);stroke:rgb(0,0,0);stroke-width:2"/></g>
<g fill-rule="evenodd"><path d="M 846.456,1369.13 L 861.278,1366.38 L 894.618,1366.38 L 898.445,1367.14 L 901.689,1369.31 L 903.197,1371.09 L 904.69,1374.69 L 904.882,1705.15 L 904.121,1708.98 L 903.197,1710.71 L 900.438,1713.46 L 896.833,1714.96 L 894.882,1715.15 L 882.873,1712.96 L 743.111,1712.96 L 726.519,1716.26 L 713.288,1725.1 L 704.447,1738.33 L 701.503,1753.13 L 700.009,1756.74 L 697.25,1759.5 L 695.521,1760.42 L 691.695,1761.18 L 374.979,1761.18 L 373.029,1760.99 L 369.424,1759.5 L 360.087,1750.16 L 358.594,1746.55 L 358.401,1744.6 L 359.163,1740.78 L 385.473,1701.05 L 394.688,1654.72 L 385.473,1608.39 L 368.418,1582.87 L 367.494,1581.14 L 366.733,1577.31 L 367.494,1573.49 L 369.662,1570.24 L 381.201,1562.3 L 390.041,1549.07 L 393.342,1532.48 L 393.342,1376.97 L 390.041,1360.38 L 381.134,1346.7 L 380.373,1342.87 L 381.134,1339.05 L 383.302,1335.8 L 686.135,1033.24 L 689.74,1031.75 L 693.642,1031.75 L 697.247,1033.24 L 706.834,1039.65 L 723.425,1042.95 L 863.189,1042.95 L 879.781,1039.65 L 893.012,1030.81 L 901.852,1017.58 L 905.153,1000.98 L 905.345,965.372 L 905.914,963.496 L 908.082,960.252 L 911.326,958.084 L 913.202,957.515 L 917.347,957.515 L 923.228,958.685 L 950.356,953.289 L 973.355,937.922 L 977.93,931.42 L 996.866,912.484 L 1000.11,910.317 L 1003.94,909.556 L 1007.76,910.317 L 1011.01,912.484 L 1029.94,931.42 L 1034.52,937.922 L 1057.52,953.289 L 1084.65,958.685 L 1092.48,957.323 L 1112.41,957.323 L 1116.23,958.084 L 1119.48,960.252 L 1121.65,963.496 L 1122.21,965.372 L 1122.41,1000.98 L 1125.71,1017.58 L 1134.55,1030.81 L 1147.78,1039.65 L 1164.37,1042.95 L 1304.13,1042.95 L 1320.73,1039.65 L 1333.96,1030.81 L 1342.8,1017.58 L 1346.31,1000.9 L 1348.48,997.653 L 1351.72,995.486 L 1355.55,994.724 L 1395.87,994.724 L 1399.7,995.486 L 1401.43,996.41 L 1404.19,999.169 L 1405.68,1002.77 L 1405.87,1052.16 L 1409.17,1068.76 L 1418.01,1081.99 L 1431.24,1090.83 L 1447.84,1094.13 L 1682.09,1094.13 L 1698.68,1090.83 L 1711.91,1081.99 L 1720.75,1068.76 L 1724.05,1052.16 L 1724.05,817.914 L 1720.75,801.322 L 1711.91,788.091 L 1708.59,785.874 L 1705.83,783.115 L 1704.91,781.386 L 1704.15,777.559 L 1704.34,775.608 L 1705.83,772.003 L 1708.59,769.244 L 1711.91,767.027 L 1720.75,753.796 L 1724.05,737.204 L 1724.05,502.954 L 1722.09,492.126 L 1722.85,488.299 L 1723.78,486.57 L 1726.54,483.811 L 1728.27,482.887 L 1732.09,482.126 L 1843.35,482.126 L 1851.18,483.488 L 1878.31,478.092 L 1901.31,462.725 L 1905.88,456.223 L 1958.4,403.974 L 1960.13,403.05 L 1963.96,402.289 L 1965.91,402.481 L 1970.5,404.173 L 2025.57,404.173 L 2076.44,383.099 L 2115.38,344.16 L 2117.43,339.72 L 2118.67,338.205 L 2121.92,336.037 L 2125.74,335.276 L 2265.97,335.468 L 2269.58,336.961 L 2271.09,338.205 L 2272.33,339.72 L 2274.38,344.16 L 2313.32,383.099 L 2364.2,404.173 L 2419.27,404.173 L 2470.14,383.099 L 2509.08,344.16 L 2511.13,339.72 L 2513.89,336.961 L 2515.62,336.037 L 2519.45,335.276 L 2580.51,335.468 L 2584.12,336.961 L 2585.63,338.205 L 2586.88,339.72 L 2588.37,343.325 L 2588.37,347.226 L 2585.63,361.024 L 2594.84,407.354 L 2621.09,446.631 L 2660.36,472.874 L 2695,479.764 L 2797.13,479.764 L 2831.76,472.874 L 2871.04,446.63 L 2897.28,407.354 L 2906.5,361.024 L 2897.28,314.693 L 2871.04,275.417 L 2831.76,249.173 L 2797.13,242.284 L 2727.84,242.091 L 2724.24,240.598 L 2722.72,239.355 L 2705.49,222.123 L 2700.91,215.621 L 2677.92,200.255 L 2650.79,194.858 L 2642.96,196.22 L 2517.49,196.028 L 2513.89,194.535 L 2512.37,193.292 L 2511.13,191.776 L 2509.08,187.337 L 2471.35,149.607 L 1918.41,149.607 L 1880.68,187.336 L 1859.61,238.214 L 1859.61,293.283 L 1861.3,297.869 L 1861.3,301.771 L 1860.73,303.647 L 1858.56,306.891 L 1825.31,340.142 L 1822.07,342.31 L 1818.24,343.071 L 1336.43,342.879 L 1334.55,342.31 L 1331.31,340.142 L 1329.14,336.898 L 1328.57,335.022 L 1328.38,274.213 L 1325.08,257.621 L 1316.24,244.39 L 1303.01,235.549 L 1286.42,232.249 L 1166.34,232.249 L 1149.75,235.549 L 1141.01,241.386 L 1137.41,242.879 L 1114.13,243.071 L 1106.3,241.709 L 1079.17,247.105 L 1056.17,262.472 L 1051.6,268.974 L 1031.48,289.09 L 1028.24,291.258 L 1024.41,292.019 L 1020.58,291.258 L 1017.34,289.09 L 997.222,268.974 L 992.646,262.472 L 969.648,247.105 L 942.52,241.709 L 934.687,243.071 L 890.151,242.879 L 886.547,241.386 L 877.812,235.549 L 861.221,232.249 L 741.141,232.249 L 724.55,235.549 L 711.319,244.39 L 702.478,257.621 L 699.178,274.213 L 699.178,350.983 L 702.478,367.576 L 711.319,380.807 L 724.55,389.648 L 740.157,392.752 L 740.157,388.976 L 783.734,388.976 L 786.417,387.027 L 792.057,384.516 L 798.095,383.233 L 804.268,383.233 L 810.306,384.516 L 815.945,387.027 L 818.628,388.976 L 862.205,388.976 L 862.205,392.752 L 877.812,389.648 L 886.547,383.811 L 890.151,382.318 L 894.882,382.126 L 898.709,382.887 L 901.953,385.055 L 904.121,388.299 L 904.882,392.126 L 904.882,710.384 L 904.69,712.335 L 903.197,715.94 L 901.953,717.455 L 898.709,719.623 L 896.833,720.192 L 892.931,720.192 L 889.326,718.699 L 879.781,712.321 L 863.188,709.02 L 723.426,709.02 L 706.834,712.321 L 693.603,721.162 L 684.762,734.393 L 681.461,750.985 L 681.269,760.09 L 680.7,761.966 L 678.532,765.21 L 677.017,766.454 L 673.412,767.947 L 669.51,767.947 L 663.386,766.729 L 617.056,775.945 L 577.779,802.189 L 570.458,812.799 L 142.021,1241.24 L 131.781,1256.17 L 130.139,1257.46 L 128.264,1258.39 L 126.238,1258.9 L 124.149,1258.98 L 122.089,1258.63 L 120.147,1257.85 L 118.409,1256.69 L 116.95,1255.2 L 115.834,1253.43 L 115.111,1251.47 L 114.803,1249 L 114.803,124.803 L 115.564,120.976 L 117.732,117.732 L 119.247,116.488 L 120.976,115.564 L 124.803,114.803 L 709.58,114.803 L 725.183,99.2004 L 729.658,95.5283 L 734.762,92.7996 L 740.302,91.1193 L 746.062,90.552 L 2875.99,90.552 L 2881.75,91.1193 L 2887.28,92.7996 L 2892.39,95.5283 L 2896.86,99.2004 L 2912.47,114.803 L 3024.9,114.803 L 3026.85,114.995 L 3030.45,116.485 L 3033.21,119.239 L 3034.13,120.965 L 3034.9,124.786 L 3038.65,2359.43 L 3037.89,2363.26 L 3036.97,2365 L 3034.21,2367.76 L 3032.48,2368.69 L 3028.65,2369.45 L 124.803,2369.45 L 121.713,2368.96 L 118.925,2367.54 L 117.372,2366.14 L 115.668,2363.52 L 115.022,2361.53 L 114.803,2359.45 L 114.803,1860.44 L 114.995,1858.49 L 116.488,1854.89 L 119.247,1852.13 L 122.852,1850.64 L 124.803,1850.44 L 128.63,1851.21 L 131.874,1853.37 L 148.645,1878.13 L 159.256,1885.45 L 228.726,1954.92 L 236.047,1965.53 L 275.323,1991.77 L 321.653,2000.99 L 334.333,1998.66 L 691.695,1998.66 L 695.521,1999.42 L 697.25,2000.35 L 700.009,2003.11 L 701.503,2006.71 L 704.447,2021.51 L 713.288,2034.74 L 726.519,2043.58 L 743.111,2046.89 L 882.873,2046.89 L 899.466,2043.58 L 912.697,2034.74 L 921.537,2021.51 L 924.838,2004.92 L 924.838,1958.7 L 925.599,1954.87 L 927.767,1951.63 L 929.282,1950.38 L 932.887,1948.89 L 950.357,1945.41 L 973.355,1930.05 L 977.93,1923.55 L 1006.71,1894.77 L 1009.95,1892.6 L 1013.78,1891.84 L 1017.61,1892.6 L 1020.85,1894.77 L 1049.63,1923.55 L 1054.2,1930.05 L 1077.2,1945.41 L 1104.33,1950.81 L 1112.16,1949.45 L 1132.09,1949.45 L 1135.92,1950.21 L 1139.16,1952.38 L 1141.33,1955.62 L 1142.09,1959.45 L 1142.09,2004.92 L 1145.39,2021.51 L 1154.23,2034.74 L 1167.46,2043.58 L 1184.06,2046.89 L 1323.82,2046.89 L 1340.41,2043.58 L 1353.64,2034.74 L 1362.48,2021.51 L 1366,2004.83 L 1366.92,2003.11 L 1369.68,2000.35 L 1371.41,1999.42 L 1375.23,1998.66 L 1395.87,1998.66 L 1399.7,1999.42 L 1401.43,2000.35 L 1404.19,2003.11 L 1405.68,2006.71 L 1405.87,2044.29 L 1409.17,2060.88 L 1418.01,2074.11 L 1431.24,2082.95 L 1447.83,2086.26 L 1682.09,2086.26 L 1698.68,2082.95 L 1711.91,2074.11 L 1720.75,2060.88 L 1724.05,2044.29 L 1724.05,1810.04 L 1720.75,1793.45 L 1711.91,1780.22 L 1702.7,1774.06 L 1699.94,1771.3 L 1699.02,1769.57 L 1698.25,1765.75 L 1698.45,1763.8 L 1699.94,1760.19 L 1702.7,1757.43 L 1711.91,1751.28 L 1720.75,1738.05 L 1724.05,1721.46 L 1724.05,1487.21 L 1722.09,1476.38 L 1722.28,1474.43 L 1723.78,1470.82 L 1725.02,1469.31 L 1728.27,1467.14 L 1732.09,1466.38 L 1816.77,1466.38 L 1820.6,1467.14 L 1822.33,1468.06 L 1823.84,1469.31 L 1826.01,1472.55 L 1844.31,1516.73 L 1888.78,1561.2 L 1946.9,1585.28 L 2009.8,1585.28 L 2067.91,1561.2 L 2112.39,1516.73 L 2118.13,1502.87 L 2120.3,1499.62 L 2123.54,1497.45 L 2127.37,1496.69 L 2244.66,1496.89 L 2248.27,1498.38 L 2251.03,1501.14 L 2257.69,1516.73 L 2302.17,1561.2 L 2360.28,1585.28 L 2423.18,1585.28 L 2481.29,1561.2 L 2525.77,1516.73 L 2531.51,1502.87 L 2532.44,1501.14 L 2535.2,1498.38 L 2536.93,1497.45 L 2540.75,1496.69 L 2580.51,1496.89 L 2582.39,1497.45 L 2585.63,1499.62 L 2586.88,1501.14 L 2588.37,1504.74 L 2588.37,1508.64 L 2585.63,1522.44 L 2594.84,1568.77 L 2621.09,1608.05 L 2660.36,1634.29 L 2695,1641.18 L 2797.13,1641.18 L 2831.76,1634.29 L 2871.04,1608.05 L 2897.28,1568.77 L 2906.5,1522.44 L 2897.28,1476.11 L 2871.04,1436.83 L 2831.76,1410.59 L 2797.13,1403.7 L 2727.84,1403.51 L 2725.96,1402.94 L 2722.72,1400.77 L 2705.49,1383.54 L 2700.91,1377.04 L 2677.92,1361.67 L 2650.79,1356.28 L 2642.96,1357.64 L 2540.75,1357.64 L 2536.93,1356.88 L 2535.2,1355.95 L 2532.44,1353.19 L 2525.77,1337.6 L 2481.29,1293.13 L 2423.18,1269.06 L 2360.28,1269.06 L 2302.17,1293.13 L 2257.69,1337.6 L 2251.03,1353.19 L 2248.27,1355.95 L 2244.66,1357.45 L 2127.37,1357.64 L 2123.54,1356.88 L 2120.3,1354.71 L 2118.13,1351.46 L 2112.39,1337.6 L 2067.91,1293.13 L 2009.8,1269.06 L 1946.9,1269.06 L 1888.78,1293.13 L 1857.52,1324.39 L 1854.27,1326.56 L 1850.45,1327.32 L 1322.63,1327.32 L 1318.81,1326.56 L 1317.08,1325.64 L 1314.32,1322.88 L 1312.83,1319.27 L 1312.63,1250.59 L 1309.33,1234 L 1300.49,1220.77 L 1287.26,1211.93 L 1270.67,1208.63 L 1150.59,1208.63 L 1134,1211.93 L 1120.77,1220.77 L 1118.48,1223.85 L 1115.23,1226.02 L 1111.41,1226.78 L 1106.3,1225.96 L 1079.17,1231.36 L 1056.17,1246.72 L 1051.6,1253.23 L 1024,1280.82 L 1020.76,1282.99 L 1016.93,1283.75 L 1013.1,1282.99 L 1009.86,1280.82 L 982.261,1253.23 L 977.686,1246.72 L 954.687,1231.36 L 927.559,1225.96 L 919.727,1227.32 L 883.069,1227.13 L 879.464,1225.64 L 877.949,1224.39 L 875.295,1220.77 L 862.063,1211.93 L 845.473,1208.63 L 725.393,1208.63 L 708.803,1211.93 L 695.572,1220.77 L 686.73,1234 L 683.43,1250.59 L 683.43,1327.36 L 686.73,1343.95 L 695.571,1357.19 L 708.802,1366.03 L 724.409,1369.13 L 724.409,1365.35 L 846.457,1365.35 L 846.456,1369.13 z " style="fill-opacity:1.000000;fill:rgb(74,236,41);stroke:rgb(0,0,0);stroke-width:2"/></g>
<g fill-rule="evenodd"><path d="M 1183.07,1913.28 L 1181.36,1909.45 L 1104.33,1909.45 L 1098.57,1908.88 L 1093.03,1907.2 L 1087.93,1904.47 L 1083.45,1900.8 L 1032.27,1849.62 L 1028.6,1845.14 L 1025.87,1840.04 L 1024.19,1834.5 L 1023.62,1828.74 L 1023.62,1350 L 1024.19,1344.24 L 1025.87,1338.7 L 1028.6,1333.6 L 1032.27,1329.12 L 1085.42,1275.97 L 1089.89,1272.3 L 1095,1269.57 L 1100.54,1267.89 L 1106.3,1267.32 L 1149.61,1267.32 L 1149.61,1249.61 L 1271.65,1249.61 L 1271.65,1328.35 L 1149.61,1328.35 L 1149.61,1326.38 L 1118.53,1326.38 L 1082.68,1362.23 L 1082.68,1816.51 L 1116.56,1850.39 L 1181.36,1850.39 L 1183.07,1846.56 L 1183.07,1753.94 L 1324.8,1753.94 L 1324.8,1801.18 L 1501.97,1801.18 L 1518.34,1802.9 L 1534,1807.99 L 1535.84,1809.06 L 1683.07,1809.06 L 1683.07,2045.28 L 1446.85,2045.28 L 1446.85,1958.66 L 1324.8,1958.66 L 1324.8,2005.91 L 1183.07,2005.91 L 1183.07,1913.28 z " style="fill-opacity:1.000000;fill:rgb(205,186,171);stroke:rgb(0,0,0);stroke-width:2"/></g>
<g fill-rule="evenodd"><path d="M 1271.65,1626.38 L 1271.65,1628.35 L 1149.61,1628.35 L 1149.61,1549.61 L 1271.65,1549.61 L 1271.65,1567.32 L 1446.85,1567.32 L 1446.85,1486.22 L 1683.07,1486.22 L 1683.07,1722.44 L 1446.85,1722.44 L 1446.85,1626.38 L 1271.65,1626.38 z " style="fill-opacity:1.000000;fill:rgb(242,251,227);stroke:rgb(0,0,0);stroke-width:2"/></g>
<g fill-rule="evenodd"><path d="M 864.173,854.434 L 865.88,858.268 L 910.998,858.268 L 944.882,824.384 L 944.882,356.719 L 930.289,342.126 L 862.205,342.126 L 862.205,351.969 L 740.157,351.969 L 740.157,273.228 L 862.205,273.228 L 862.205,283.071 L 942.52,283.071 L 948.28,283.638 L 953.819,285.319 L 958.924,288.047 L 963.399,291.719 L 995.289,323.609 L 998.961,328.084 L 1001.69,333.188 L 1003.37,338.728 L 1003.94,344.488 L 1003.94,836.614 L 1003.37,842.375 L 1001.69,847.914 L 998.961,853.019 L 995.289,857.493 L 944.107,908.674 L 939.633,912.347 L 934.528,915.075 L 928.989,916.755 L 923.228,917.323 L 865.88,917.323 L 864.173,921.157 L 864.173,1001.97 L 722.441,1001.97 L 722.441,966.535 L 696.001,966.535 L 312.992,1349.54 L 312.992,1375.98 L 352.362,1375.98 L 352.362,1533.46 L 116.142,1533.46 L 116.142,1375.98 L 155.512,1375.98 L 155.512,1328.74 L 156.041,1323.71 L 155.62,1321.05 L 156.481,1304.61 L 160.742,1288.71 L 168.215,1274.04 L 178.574,1261.25 L 607.708,832.118 L 619.64,822.325 L 633.253,815.049 L 648.024,810.568 L 663.386,809.055 L 722.441,809.055 L 722.441,750 L 864.173,750 L 864.173,854.434 z " style="fill-opacity:1.000000;fill:rgb(70,124,194);stroke:rgb(0,0,0);stroke-width:2"/></g>
<g fill-rule="evenodd"><path d="M 1163.39,917.323 L 1084.65,917.323 L 1078.89,916.755 L 1073.35,915.075 L 1068.24,912.347 L 1063.77,908.674 L 1032.27,877.178 L 1028.6,872.704 L 1025.87,867.599 L 1024.19,862.06 L 1023.62,856.299 L 1023.62,365.748 L 1024.19,359.987 L 1025.87,354.448 L 1028.6,349.343 L 1032.27,344.869 L 1085.42,291.719 L 1089.89,288.047 L 1095,285.319 L 1100.54,283.638 L 1106.3,283.071 L 1165.35,283.071 L 1165.35,273.228 L 1287.4,273.228 L 1287.4,351.969 L 1165.35,351.969 L 1165.35,342.126 L 1118.53,342.126 L 1082.68,377.979 L 1082.68,844.068 L 1096.88,858.268 L 1157.96,858.268 L 1159.37,851.652 L 1163.39,842.623 L 1163.39,750 L 1305.12,750 L 1305.12,797.244 L 1505.91,797.244 L 1522.28,798.965 L 1537.93,804.052 L 1552.19,812.282 L 1557.35,816.929 L 1683.07,816.929 L 1683.07,1053.15 L 1446.85,1053.15 L 1446.85,954.725 L 1305.12,954.724 L 1305.12,1001.97 L 1163.39,1001.97 L 1163.39,917.323 z " style="fill-opacity:1.000000;fill:rgb(84,248,27);stroke:rgb(0,0,0);stroke-width:2"/></g>
<g fill-rule="evenodd"><path d="M 1208.84,388.976 L 1209.97,388.047 L 1215.08,385.319 L 1220.62,383.638 L 1226.38,383.071 L 1838.95,383.071 L 1911.09,310.932 L 1908.12,305.781 L 1901.76,286.212 L 1899.61,265.748 L 1901.76,245.284 L 1908.12,225.715 L 1918.4,207.895 L 1932.17,192.604 L 1948.82,180.509 L 1967.62,172.14 L 1987.74,167.862 L 2008.32,167.862 L 2028.45,172.14 L 2047.24,180.509 L 2063.89,192.604 L 2077.66,207.895 L 2087.95,225.715 L 2091.36,236.22 L 2298.4,236.22 L 2301.82,225.715 L 2312.1,207.895 L 2325.87,192.604 L 2342.52,180.509 L 2361.32,172.14 L 2381.44,167.862 L 2402.02,167.862 L 2422.15,172.14 L 2440.94,180.509 L 2457.59,192.604 L 2471.36,207.895 L 2481.65,225.715 L 2485.06,236.22 L 2650.79,236.22 L 2656.55,236.788 L 2662.09,238.468 L 2667.19,241.197 L 2671.67,244.869 L 2709.08,282.283 L 2785.43,282.283 L 2801.8,284.004 L 2817.46,289.091 L 2831.72,297.321 L 2843.95,308.336 L 2853.62,321.654 L 2860.32,336.692 L 2863.74,352.793 L 2863.74,369.254 L 2860.32,385.356 L 2853.62,400.394 L 2843.95,413.711 L 2831.72,424.726 L 2817.46,432.956 L 2801.8,438.043 L 2785.43,439.764 L 2706.69,439.764 L 2690.32,438.043 L 2674.67,432.956 L 2660.41,424.726 L 2648.18,413.711 L 2638.5,400.394 L 2631.81,385.356 L 2628.38,369.254 L 2628.38,352.793 L 2631.81,336.692 L 2638.5,321.654 L 2648.18,308.336 L 2649.99,306.707 L 2638.56,295.276 L 2485.06,295.276 L 2481.65,305.781 L 2471.36,323.601 L 2457.59,338.892 L 2440.94,350.987 L 2422.15,359.356 L 2402.02,363.634 L 2381.44,363.634 L 2361.32,359.356 L 2342.52,350.987 L 2325.87,338.892 L 2312.1,323.601 L 2301.82,305.781 L 2298.4,295.276 L 2091.36,295.276 L 2087.95,305.781 L 2077.66,323.601 L 2063.89,338.892 L 2047.24,350.987 L 2028.45,359.356 L 2008.32,363.634 L 1987.74,363.634 L 1967.62,359.356 L 1952.79,352.753 L 1872.06,433.478 L 1867.59,437.15 L 1862.48,439.878 L 1856.94,441.559 L 1851.18,442.126 L 1255.91,442.126 L 1255.91,488.976 L 1287.4,488.976 L 1287.4,536.22 L 1243.83,536.22 L 1241.14,538.17 L 1235.5,540.681 L 1229.46,541.964 L 1223.29,541.964 L 1217.25,540.681 L 1211.61,538.17 L 1208.93,536.22 L 1165.35,536.22 L 1165.35,488.976 L 1196.85,488.976 L 1196.85,436.22 L 1165.35,436.22 L 1165.35,388.976 L 1208.84,388.976 z " style="fill-opacity:1.000000;fill:rgb(232,231,141);stroke:rgb(0,0,0);stroke-width:2"/></g>
<g fill-rule="evenodd"><path d="M 1287.4,642.126 L 1287.4,651.969 L 1165.35,651.969 L 1165.35,573.228 L 1287.4,573.228 L 1287.4,583.071 L 1446.85,583.071 L 1446.85,501.969 L 1683.07,501.969 L 1683.07,738.189 L 1446.85,738.189 L 1446.85,642.126 L 1287.4,642.126 z " style="fill-opacity:1.000000;fill:rgb(118,90,46);stroke:rgb(0,0,0);stroke-width:2"/></g>
</svg>
