<?xml version="1.0" standalone="no"?>
<!DOCTYPE svg PUBLIC "-//W3C//DTD SVG 1.1//EN"
"http://www.w3.org/Graphics/SVG/1.1/DTD/svg11.dtd">
<svg width="151.37" height="119.244" viewBox="0 0 3153.54 2484.25" version="1.1"
xmlns="http://www.w3.org/2000/svg"
xmlns:xlink="http://www.w3.org/1999/xlink">
<g fill-rule="evenodd"><path d="M -2.13163e-13,2484.25 L -2.13163e-13,-2.13163e-13 L 3153.54,-2.13163e-13 L 3153.54,2484.25 L -2.13163e-13,2484.25 z " style="fill-opacity:0.200000;fill:rgb(103,198,105);"/></g>
<polyline points="37.4016,2415.35 37.4016,68.8976 38.0076,62.7536 39.7996,56.8456 42.7096,51.3996 46.6276,46.6276 51.3996,42.7096 56.8456,39.7996 62.7536,38.0076 68.8976,37.4016 3080.71,37.4016 3086.85,38.0076 3092.76,39.7996 3098.21,42.7096 3102.98,46.6276 3106.9,51.3996 3109.81,56.8456 3111.6,62.7536 3112.2,68.8976 3112.2,2415.35 3111.6,2421.5 3109.81,2427.41 3106.9,2432.85 3102.98,2437.62 3098.21,2441.54 3092.76,2444.45 3086.85,2446.24 3080.71,2446.85 68.8976,2446.85 62.7536,2446.24 56.8456,2444.45 51.3996,2441.54 46.6276,2437.62 42.7096,2432.85 39.7996,2427.41 38.0076,2421.5 37.4016,2415.35" style="stroke:rgb(103,198,105);stroke-width:62.992126;fill:none;stroke-opacity:0.5;stroke-linecap:round;stroke-linejoin:round;;fill:none"/>
<polyline points="37.4016,2415.35 37.4016,68.8976 38.0076,62.7536 39.7996,56.8456 42.7096,51.3996 46.6276,46.6276 51.3996,42.7096 56.8456,39.7996 62.7536,38.0076 68.8976,37.4016 3080.71,37.4016 3086.85,38.0076 3092.76,39.7996 3098.21,42.7096 3102.98,46.6276 3106.9,51.3996 3109.81,56.8456 3111.6,62.7536 3112.2,68.8976 3112.2,2415.35 3111.6,2421.5 3109.81,2427.41 3106.9,2432.85 3102.98,2437.62 3098.21,2441.54 3092.76,2444.45 3086.85,2446.24 3080.71,2446.85 68.8976,2446.85 62.7536,2446.24 56.8456,2444.45 51.3996,2441.54 46.6276,2437.62 42.7096,2432.85 39.7996,2427.41 38.0076,2421.5 37.4016,2415.35" style="stroke:rgb(0,0,0);stroke-width:1px;fill:none;stroke-opacity:1;stroke-linecap:round;stroke-linejoin:round;;fill:none"/>
<g fill-rule="evenodd"><path d="M 68.8976,2415.35 L 68.8976,68.8976 L 3080.71,68.8976 L 3080.71,2415.35 L 68.8976,2415.35 z " style="fill-opacity:1.000000;fill:rgb(103,198,105);stroke:rgb(0,0,0);stroke-width:2"/></g>
</svg>
