G04 #@! TF.GenerationSoftware,KiCad,Pcbnew,5.0.2-bee76a0~70~ubuntu18.04.1*
G04 #@! TF.CreationDate,2019-12-02T23:30:02+01:00*
G04 #@! TF.ProjectId,current_sense_tli4970,63757272-656e-4745-9f73-656e73655f74,rev?*
G04 #@! TF.SameCoordinates,Original*
G04 #@! TF.FileFunction,Copper,L1,Top*
G04 #@! TF.FilePolarity,Positive*
%FSLAX46Y46*%
G04 Gerber Fmt 4.6, Leading zero omitted, Abs format (unit mm)*
G04 Created by KiCad (PCBNEW 5.0.2-bee76a0~70~ubuntu18.04.1) date Mo 02 Dez 2019 23:30:02 CET*
%MOMM*%
%LPD*%
G01*
G04 APERTURE LIST*
G04 #@! TA.AperFunction,SMDPad,CuDef*
%ADD10R,1.600000X1.500000*%
G04 #@! TD*
G04 #@! TA.AperFunction,SMDPad,CuDef*
%ADD11R,1.600000X0.500000*%
G04 #@! TD*
G04 #@! TA.AperFunction,SMDPad,CuDef*
%ADD12R,3.480000X2.400000*%
G04 #@! TD*
G04 #@! TA.AperFunction,Conductor*
%ADD13C,0.100000*%
G04 #@! TD*
G04 #@! TA.AperFunction,SMDPad,CuDef*
%ADD14C,0.590000*%
G04 #@! TD*
G04 #@! TA.AperFunction,ComponentPad*
%ADD15C,1.800000*%
G04 #@! TD*
G04 #@! TA.AperFunction,ComponentPad*
%ADD16R,1.800000X1.800000*%
G04 #@! TD*
G04 #@! TA.AperFunction,SMDPad,CuDef*
%ADD17R,3.500000X2.000000*%
G04 #@! TD*
G04 #@! TA.AperFunction,SMDPad,CuDef*
%ADD18R,6.000000X2.000000*%
G04 #@! TD*
G04 #@! TA.AperFunction,Conductor*
%ADD19C,0.250000*%
G04 #@! TD*
G04 #@! TA.AperFunction,Conductor*
%ADD20C,0.254000*%
G04 #@! TD*
G04 APERTURE END LIST*
D10*
G04 #@! TO.P,U1,1*
G04 #@! TO.N,GND*
X167850000Y-82500000D03*
D11*
G04 #@! TO.P,U1,2*
G04 #@! TO.N,+3V3*
X167850000Y-81200000D03*
G04 #@! TO.P,U1,3*
G04 #@! TO.N,Net-(J1-Pad4)*
X167850000Y-80400000D03*
G04 #@! TO.P,U1,4*
G04 #@! TO.N,Net-(J1-Pad3)*
X167850000Y-79600000D03*
G04 #@! TO.P,U1,5*
G04 #@! TO.N,Net-(J1-Pad2)*
X167850000Y-78800000D03*
D10*
G04 #@! TO.P,U1,6*
G04 #@! TO.N,Net-(J1-Pad1)*
X167850000Y-77500000D03*
D12*
G04 #@! TO.P,U1,8*
G04 #@! TO.N,IP-*
X162180000Y-81775000D03*
G04 #@! TO.P,U1,7*
G04 #@! TO.N,IP+*
X162180000Y-78225000D03*
G04 #@! TD*
D13*
G04 #@! TO.N,+3V3*
G04 #@! TO.C,C1*
G36*
X167176958Y-84180710D02*
X167191276Y-84182834D01*
X167205317Y-84186351D01*
X167218946Y-84191228D01*
X167232031Y-84197417D01*
X167244447Y-84204858D01*
X167256073Y-84213481D01*
X167266798Y-84223202D01*
X167276519Y-84233927D01*
X167285142Y-84245553D01*
X167292583Y-84257969D01*
X167298772Y-84271054D01*
X167303649Y-84284683D01*
X167307166Y-84298724D01*
X167309290Y-84313042D01*
X167310000Y-84327500D01*
X167310000Y-84672500D01*
X167309290Y-84686958D01*
X167307166Y-84701276D01*
X167303649Y-84715317D01*
X167298772Y-84728946D01*
X167292583Y-84742031D01*
X167285142Y-84754447D01*
X167276519Y-84766073D01*
X167266798Y-84776798D01*
X167256073Y-84786519D01*
X167244447Y-84795142D01*
X167232031Y-84802583D01*
X167218946Y-84808772D01*
X167205317Y-84813649D01*
X167191276Y-84817166D01*
X167176958Y-84819290D01*
X167162500Y-84820000D01*
X166867500Y-84820000D01*
X166853042Y-84819290D01*
X166838724Y-84817166D01*
X166824683Y-84813649D01*
X166811054Y-84808772D01*
X166797969Y-84802583D01*
X166785553Y-84795142D01*
X166773927Y-84786519D01*
X166763202Y-84776798D01*
X166753481Y-84766073D01*
X166744858Y-84754447D01*
X166737417Y-84742031D01*
X166731228Y-84728946D01*
X166726351Y-84715317D01*
X166722834Y-84701276D01*
X166720710Y-84686958D01*
X166720000Y-84672500D01*
X166720000Y-84327500D01*
X166720710Y-84313042D01*
X166722834Y-84298724D01*
X166726351Y-84284683D01*
X166731228Y-84271054D01*
X166737417Y-84257969D01*
X166744858Y-84245553D01*
X166753481Y-84233927D01*
X166763202Y-84223202D01*
X166773927Y-84213481D01*
X166785553Y-84204858D01*
X166797969Y-84197417D01*
X166811054Y-84191228D01*
X166824683Y-84186351D01*
X166838724Y-84182834D01*
X166853042Y-84180710D01*
X166867500Y-84180000D01*
X167162500Y-84180000D01*
X167176958Y-84180710D01*
X167176958Y-84180710D01*
G37*
D14*
G04 #@! TD*
G04 #@! TO.P,C1,1*
G04 #@! TO.N,+3V3*
X167015000Y-84500000D03*
D13*
G04 #@! TO.N,GND*
G04 #@! TO.C,C1*
G36*
X168146958Y-84180710D02*
X168161276Y-84182834D01*
X168175317Y-84186351D01*
X168188946Y-84191228D01*
X168202031Y-84197417D01*
X168214447Y-84204858D01*
X168226073Y-84213481D01*
X168236798Y-84223202D01*
X168246519Y-84233927D01*
X168255142Y-84245553D01*
X168262583Y-84257969D01*
X168268772Y-84271054D01*
X168273649Y-84284683D01*
X168277166Y-84298724D01*
X168279290Y-84313042D01*
X168280000Y-84327500D01*
X168280000Y-84672500D01*
X168279290Y-84686958D01*
X168277166Y-84701276D01*
X168273649Y-84715317D01*
X168268772Y-84728946D01*
X168262583Y-84742031D01*
X168255142Y-84754447D01*
X168246519Y-84766073D01*
X168236798Y-84776798D01*
X168226073Y-84786519D01*
X168214447Y-84795142D01*
X168202031Y-84802583D01*
X168188946Y-84808772D01*
X168175317Y-84813649D01*
X168161276Y-84817166D01*
X168146958Y-84819290D01*
X168132500Y-84820000D01*
X167837500Y-84820000D01*
X167823042Y-84819290D01*
X167808724Y-84817166D01*
X167794683Y-84813649D01*
X167781054Y-84808772D01*
X167767969Y-84802583D01*
X167755553Y-84795142D01*
X167743927Y-84786519D01*
X167733202Y-84776798D01*
X167723481Y-84766073D01*
X167714858Y-84754447D01*
X167707417Y-84742031D01*
X167701228Y-84728946D01*
X167696351Y-84715317D01*
X167692834Y-84701276D01*
X167690710Y-84686958D01*
X167690000Y-84672500D01*
X167690000Y-84327500D01*
X167690710Y-84313042D01*
X167692834Y-84298724D01*
X167696351Y-84284683D01*
X167701228Y-84271054D01*
X167707417Y-84257969D01*
X167714858Y-84245553D01*
X167723481Y-84233927D01*
X167733202Y-84223202D01*
X167743927Y-84213481D01*
X167755553Y-84204858D01*
X167767969Y-84197417D01*
X167781054Y-84191228D01*
X167794683Y-84186351D01*
X167808724Y-84182834D01*
X167823042Y-84180710D01*
X167837500Y-84180000D01*
X168132500Y-84180000D01*
X168146958Y-84180710D01*
X168146958Y-84180710D01*
G37*
D14*
G04 #@! TD*
G04 #@! TO.P,C1,2*
G04 #@! TO.N,GND*
X167985000Y-84500000D03*
D15*
G04 #@! TO.P,J1,6*
G04 #@! TO.N,GND*
X173540000Y-83350000D03*
G04 #@! TO.P,J1,5*
G04 #@! TO.N,+3V3*
X171000000Y-82080000D03*
D16*
G04 #@! TO.P,J1,1*
G04 #@! TO.N,Net-(J1-Pad1)*
X171000000Y-77000000D03*
D15*
G04 #@! TO.P,J1,2*
G04 #@! TO.N,Net-(J1-Pad2)*
X173540000Y-78270000D03*
G04 #@! TO.P,J1,3*
G04 #@! TO.N,Net-(J1-Pad3)*
X171000000Y-79540000D03*
G04 #@! TO.P,J1,4*
G04 #@! TO.N,Net-(J1-Pad4)*
X173540000Y-80810000D03*
G04 #@! TD*
D17*
G04 #@! TO.P,J2,2*
G04 #@! TO.N,IP+*
X157250000Y-78000000D03*
D18*
X148000000Y-78000000D03*
G04 #@! TO.P,J2,1*
G04 #@! TO.N,IP-*
X148000000Y-82000000D03*
D17*
X157250000Y-82000000D03*
G04 #@! TD*
D19*
G04 #@! TO.N,+3V3*
X166674999Y-81325001D02*
X166674999Y-84159999D01*
X166680832Y-84165832D02*
X167015000Y-84500000D01*
X166674999Y-84159999D02*
X166680832Y-84165832D01*
X166800000Y-81200000D02*
X166674999Y-81325001D01*
X167850000Y-81200000D02*
X166800000Y-81200000D01*
X167869999Y-81180001D02*
X167850000Y-81200000D01*
X170100001Y-81180001D02*
X167869999Y-81180001D01*
X171000000Y-82080000D02*
X170100001Y-81180001D01*
G04 #@! TO.N,GND*
X167850000Y-84365000D02*
X167985000Y-84500000D01*
X167850000Y-82500000D02*
X167850000Y-84365000D01*
X168380000Y-84500000D02*
X167985000Y-84500000D01*
X171117208Y-84500000D02*
X168380000Y-84500000D01*
X172267208Y-83350000D02*
X171117208Y-84500000D01*
X173540000Y-83350000D02*
X172267208Y-83350000D01*
G04 #@! TO.N,Net-(J1-Pad1)*
X170500000Y-77500000D02*
X171000000Y-77000000D01*
X167850000Y-77500000D02*
X170500000Y-77500000D01*
G04 #@! TO.N,Net-(J1-Pad2)*
X168650049Y-74474949D02*
X166500000Y-76624998D01*
X173340025Y-74474949D02*
X168650049Y-74474949D01*
X173925051Y-75059975D02*
X173340025Y-74474949D01*
X173540000Y-78270000D02*
X173540000Y-76525076D01*
X173925051Y-76140025D02*
X173925051Y-75059975D01*
X173540000Y-76525076D02*
X173925051Y-76140025D01*
X166800000Y-78800000D02*
X167850000Y-78800000D01*
X166500000Y-78500000D02*
X166800000Y-78800000D01*
X166500000Y-76624998D02*
X166500000Y-78500000D01*
G04 #@! TO.N,Net-(J1-Pad3)*
X167910000Y-79540000D02*
X167850000Y-79600000D01*
X171000000Y-79540000D02*
X167910000Y-79540000D01*
G04 #@! TO.N,Net-(J1-Pad4)*
X174439999Y-81709999D02*
X173540000Y-80810000D01*
X174815001Y-82085001D02*
X174439999Y-81709999D01*
X174815001Y-83962001D02*
X174815001Y-82085001D01*
X173581992Y-85195010D02*
X174815001Y-83962001D01*
X166651068Y-85195010D02*
X173581992Y-85195010D01*
X166174989Y-84718931D02*
X166651068Y-85195010D01*
X166174989Y-81025011D02*
X166174989Y-84718931D01*
X166800000Y-80400000D02*
X166174989Y-81025011D01*
X167850000Y-80400000D02*
X166800000Y-80400000D01*
G04 #@! TD*
D20*
G04 #@! TO.N,IP+*
G36*
X163873000Y-79373000D02*
X144710000Y-79373000D01*
X144710000Y-76127000D01*
X163873000Y-76127000D01*
X163873000Y-79373000D01*
X163873000Y-79373000D01*
G37*
X163873000Y-79373000D02*
X144710000Y-79373000D01*
X144710000Y-76127000D01*
X163873000Y-76127000D01*
X163873000Y-79373000D01*
G04 #@! TO.N,IP-*
G36*
X163873000Y-83873000D02*
X144710000Y-83873000D01*
X144710000Y-80627000D01*
X163873000Y-80627000D01*
X163873000Y-83873000D01*
X163873000Y-83873000D01*
G37*
X163873000Y-83873000D02*
X144710000Y-83873000D01*
X144710000Y-80627000D01*
X163873000Y-80627000D01*
X163873000Y-83873000D01*
G04 #@! TD*
M02*
