G04 #@! TF.GenerationSoftware,KiCad,Pcbnew,5.0.2-bee76a0~70~ubuntu18.04.1*
G04 #@! TF.CreationDate,2019-12-02T23:30:02+01:00*
G04 #@! TF.ProjectId,current_sense_tli4970,63757272-656e-4745-9f73-656e73655f74,rev?*
G04 #@! TF.SameCoordinates,Original*
G04 #@! TF.FileFunction,Paste,Top*
G04 #@! TF.FilePolarity,Positive*
%FSLAX46Y46*%
G04 Gerber Fmt 4.6, Leading zero omitted, Abs format (unit mm)*
G04 Created by KiCad (PCBNEW 5.0.2-bee76a0~70~ubuntu18.04.1) date Mo 02 Dez 2019 23:30:02 CET*
%MOMM*%
%LPD*%
G01*
G04 APERTURE LIST*
%ADD10R,1.600000X1.500000*%
%ADD11R,1.600000X0.500000*%
%ADD12R,3.480000X2.400000*%
%ADD13C,0.100000*%
%ADD14C,0.590000*%
%ADD15R,3.500000X2.000000*%
%ADD16R,6.000000X2.000000*%
G04 APERTURE END LIST*
D10*
G04 #@! TO.C,U1*
X167850000Y-82500000D03*
D11*
X167850000Y-81200000D03*
X167850000Y-80400000D03*
X167850000Y-79600000D03*
X167850000Y-78800000D03*
D10*
X167850000Y-77500000D03*
D12*
X162180000Y-81775000D03*
X162180000Y-78225000D03*
G04 #@! TD*
D13*
G04 #@! TO.C,C1*
G36*
X167176958Y-84180710D02*
X167191276Y-84182834D01*
X167205317Y-84186351D01*
X167218946Y-84191228D01*
X167232031Y-84197417D01*
X167244447Y-84204858D01*
X167256073Y-84213481D01*
X167266798Y-84223202D01*
X167276519Y-84233927D01*
X167285142Y-84245553D01*
X167292583Y-84257969D01*
X167298772Y-84271054D01*
X167303649Y-84284683D01*
X167307166Y-84298724D01*
X167309290Y-84313042D01*
X167310000Y-84327500D01*
X167310000Y-84672500D01*
X167309290Y-84686958D01*
X167307166Y-84701276D01*
X167303649Y-84715317D01*
X167298772Y-84728946D01*
X167292583Y-84742031D01*
X167285142Y-84754447D01*
X167276519Y-84766073D01*
X167266798Y-84776798D01*
X167256073Y-84786519D01*
X167244447Y-84795142D01*
X167232031Y-84802583D01*
X167218946Y-84808772D01*
X167205317Y-84813649D01*
X167191276Y-84817166D01*
X167176958Y-84819290D01*
X167162500Y-84820000D01*
X166867500Y-84820000D01*
X166853042Y-84819290D01*
X166838724Y-84817166D01*
X166824683Y-84813649D01*
X166811054Y-84808772D01*
X166797969Y-84802583D01*
X166785553Y-84795142D01*
X166773927Y-84786519D01*
X166763202Y-84776798D01*
X166753481Y-84766073D01*
X166744858Y-84754447D01*
X166737417Y-84742031D01*
X166731228Y-84728946D01*
X166726351Y-84715317D01*
X166722834Y-84701276D01*
X166720710Y-84686958D01*
X166720000Y-84672500D01*
X166720000Y-84327500D01*
X166720710Y-84313042D01*
X166722834Y-84298724D01*
X166726351Y-84284683D01*
X166731228Y-84271054D01*
X166737417Y-84257969D01*
X166744858Y-84245553D01*
X166753481Y-84233927D01*
X166763202Y-84223202D01*
X166773927Y-84213481D01*
X166785553Y-84204858D01*
X166797969Y-84197417D01*
X166811054Y-84191228D01*
X166824683Y-84186351D01*
X166838724Y-84182834D01*
X166853042Y-84180710D01*
X166867500Y-84180000D01*
X167162500Y-84180000D01*
X167176958Y-84180710D01*
X167176958Y-84180710D01*
G37*
D14*
X167015000Y-84500000D03*
D13*
G36*
X168146958Y-84180710D02*
X168161276Y-84182834D01*
X168175317Y-84186351D01*
X168188946Y-84191228D01*
X168202031Y-84197417D01*
X168214447Y-84204858D01*
X168226073Y-84213481D01*
X168236798Y-84223202D01*
X168246519Y-84233927D01*
X168255142Y-84245553D01*
X168262583Y-84257969D01*
X168268772Y-84271054D01*
X168273649Y-84284683D01*
X168277166Y-84298724D01*
X168279290Y-84313042D01*
X168280000Y-84327500D01*
X168280000Y-84672500D01*
X168279290Y-84686958D01*
X168277166Y-84701276D01*
X168273649Y-84715317D01*
X168268772Y-84728946D01*
X168262583Y-84742031D01*
X168255142Y-84754447D01*
X168246519Y-84766073D01*
X168236798Y-84776798D01*
X168226073Y-84786519D01*
X168214447Y-84795142D01*
X168202031Y-84802583D01*
X168188946Y-84808772D01*
X168175317Y-84813649D01*
X168161276Y-84817166D01*
X168146958Y-84819290D01*
X168132500Y-84820000D01*
X167837500Y-84820000D01*
X167823042Y-84819290D01*
X167808724Y-84817166D01*
X167794683Y-84813649D01*
X167781054Y-84808772D01*
X167767969Y-84802583D01*
X167755553Y-84795142D01*
X167743927Y-84786519D01*
X167733202Y-84776798D01*
X167723481Y-84766073D01*
X167714858Y-84754447D01*
X167707417Y-84742031D01*
X167701228Y-84728946D01*
X167696351Y-84715317D01*
X167692834Y-84701276D01*
X167690710Y-84686958D01*
X167690000Y-84672500D01*
X167690000Y-84327500D01*
X167690710Y-84313042D01*
X167692834Y-84298724D01*
X167696351Y-84284683D01*
X167701228Y-84271054D01*
X167707417Y-84257969D01*
X167714858Y-84245553D01*
X167723481Y-84233927D01*
X167733202Y-84223202D01*
X167743927Y-84213481D01*
X167755553Y-84204858D01*
X167767969Y-84197417D01*
X167781054Y-84191228D01*
X167794683Y-84186351D01*
X167808724Y-84182834D01*
X167823042Y-84180710D01*
X167837500Y-84180000D01*
X168132500Y-84180000D01*
X168146958Y-84180710D01*
X168146958Y-84180710D01*
G37*
D14*
X167985000Y-84500000D03*
G04 #@! TD*
D15*
G04 #@! TO.C,J2*
X157250000Y-78000000D03*
D16*
X148000000Y-78000000D03*
X148000000Y-82000000D03*
D15*
X157250000Y-82000000D03*
G04 #@! TD*
M02*
