G04 #@! TF.GenerationSoftware,KiCad,Pcbnew,5.0.2-bee76a0~70~ubuntu18.04.1*
G04 #@! TF.CreationDate,2019-12-02T23:30:02+01:00*
G04 #@! TF.ProjectId,current_sense_tli4970,63757272-656e-4745-9f73-656e73655f74,rev?*
G04 #@! TF.SameCoordinates,Original*
G04 #@! TF.FileFunction,Legend,Bot*
G04 #@! TF.FilePolarity,Positive*
%FSLAX46Y46*%
G04 Gerber Fmt 4.6, Leading zero omitted, Abs format (unit mm)*
G04 Created by KiCad (PCBNEW 5.0.2-bee76a0~70~ubuntu18.04.1) date Mo 02 Dez 2019 23:30:02 CET*
%MOMM*%
%LPD*%
G01*
G04 APERTURE LIST*
%ADD10C,0.250000*%
%ADD11C,0.200000*%
%ADD12C,0.150000*%
%ADD13C,0.010000*%
%ADD14C,0.060000*%
G04 APERTURE END LIST*
D10*
X154555714Y-84052380D02*
X153984285Y-84052380D01*
X154270000Y-85052380D02*
X154270000Y-84052380D01*
X153174761Y-85052380D02*
X153650952Y-85052380D01*
X153650952Y-84052380D01*
X152841428Y-85052380D02*
X152841428Y-84052380D01*
X151936666Y-84385714D02*
X151936666Y-85052380D01*
X152174761Y-84004761D02*
X152412857Y-84719047D01*
X151793809Y-84719047D01*
X151365238Y-85052380D02*
X151174761Y-85052380D01*
X151079523Y-85004761D01*
X151031904Y-84957142D01*
X150936666Y-84814285D01*
X150889047Y-84623809D01*
X150889047Y-84242857D01*
X150936666Y-84147619D01*
X150984285Y-84100000D01*
X151079523Y-84052380D01*
X151270000Y-84052380D01*
X151365238Y-84100000D01*
X151412857Y-84147619D01*
X151460476Y-84242857D01*
X151460476Y-84480952D01*
X151412857Y-84576190D01*
X151365238Y-84623809D01*
X151270000Y-84671428D01*
X151079523Y-84671428D01*
X150984285Y-84623809D01*
X150936666Y-84576190D01*
X150889047Y-84480952D01*
X150555714Y-84052380D02*
X149889047Y-84052380D01*
X150317619Y-85052380D01*
X149317619Y-84052380D02*
X149222380Y-84052380D01*
X149127142Y-84100000D01*
X149079523Y-84147619D01*
X149031904Y-84242857D01*
X148984285Y-84433333D01*
X148984285Y-84671428D01*
X149031904Y-84861904D01*
X149079523Y-84957142D01*
X149127142Y-85004761D01*
X149222380Y-85052380D01*
X149317619Y-85052380D01*
X149412857Y-85004761D01*
X149460476Y-84957142D01*
X149508095Y-84861904D01*
X149555714Y-84671428D01*
X149555714Y-84433333D01*
X149508095Y-84242857D01*
X149460476Y-84147619D01*
X149412857Y-84100000D01*
X149317619Y-84052380D01*
X148793809Y-85147619D02*
X148031904Y-85147619D01*
X147889047Y-84385714D02*
X147650952Y-85052380D01*
X147412857Y-84385714D01*
X146841428Y-84052380D02*
X146746190Y-84052380D01*
X146650952Y-84100000D01*
X146603333Y-84147619D01*
X146555714Y-84242857D01*
X146508095Y-84433333D01*
X146508095Y-84671428D01*
X146555714Y-84861904D01*
X146603333Y-84957142D01*
X146650952Y-85004761D01*
X146746190Y-85052380D01*
X146841428Y-85052380D01*
X146936666Y-85004761D01*
X146984285Y-84957142D01*
X147031904Y-84861904D01*
X147079523Y-84671428D01*
X147079523Y-84433333D01*
X147031904Y-84242857D01*
X146984285Y-84147619D01*
X146936666Y-84100000D01*
X146841428Y-84052380D01*
X146079523Y-84957142D02*
X146031904Y-85004761D01*
X146079523Y-85052380D01*
X146127142Y-85004761D01*
X146079523Y-84957142D01*
X146079523Y-85052380D01*
X145079523Y-85052380D02*
X145650952Y-85052380D01*
X145365238Y-85052380D02*
X145365238Y-84052380D01*
X145460476Y-84195238D01*
X145555714Y-84290476D01*
X145650952Y-84338095D01*
D11*
X169420000Y-83400000D02*
X172240000Y-83390000D01*
X169450000Y-80810000D02*
X172270000Y-80800000D01*
X169480000Y-78280000D02*
X172300000Y-78270000D01*
X165720000Y-79450000D02*
X169530000Y-79450000D01*
X165720000Y-76980000D02*
X169530000Y-76980000D01*
D12*
X165830000Y-82150000D02*
X169630000Y-82150000D01*
D10*
X165035238Y-76432380D02*
X164844761Y-76432380D01*
X164749523Y-76480000D01*
X164654285Y-76575238D01*
X164606666Y-76765714D01*
X164606666Y-77099047D01*
X164654285Y-77289523D01*
X164749523Y-77384761D01*
X164844761Y-77432380D01*
X165035238Y-77432380D01*
X165130476Y-77384761D01*
X165225714Y-77289523D01*
X165273333Y-77099047D01*
X165273333Y-76765714D01*
X165225714Y-76575238D01*
X165130476Y-76480000D01*
X165035238Y-76432380D01*
X163606666Y-77337142D02*
X163654285Y-77384761D01*
X163797142Y-77432380D01*
X163892380Y-77432380D01*
X164035238Y-77384761D01*
X164130476Y-77289523D01*
X164178095Y-77194285D01*
X164225714Y-77003809D01*
X164225714Y-76860952D01*
X164178095Y-76670476D01*
X164130476Y-76575238D01*
X164035238Y-76480000D01*
X163892380Y-76432380D01*
X163797142Y-76432380D01*
X163654285Y-76480000D01*
X163606666Y-76527619D01*
X163178095Y-77432380D02*
X163178095Y-76432380D01*
X162940000Y-76432380D01*
X162797142Y-76480000D01*
X162701904Y-76575238D01*
X162654285Y-76670476D01*
X162606666Y-76860952D01*
X162606666Y-77003809D01*
X162654285Y-77194285D01*
X162701904Y-77289523D01*
X162797142Y-77384761D01*
X162940000Y-77432380D01*
X163178095Y-77432380D01*
X168336666Y-78697142D02*
X168384285Y-78744761D01*
X168527142Y-78792380D01*
X168622380Y-78792380D01*
X168765238Y-78744761D01*
X168860476Y-78649523D01*
X168908095Y-78554285D01*
X168955714Y-78363809D01*
X168955714Y-78220952D01*
X168908095Y-78030476D01*
X168860476Y-77935238D01*
X168765238Y-77840000D01*
X168622380Y-77792380D01*
X168527142Y-77792380D01*
X168384285Y-77840000D01*
X168336666Y-77887619D01*
X167955714Y-78744761D02*
X167812857Y-78792380D01*
X167574761Y-78792380D01*
X167479523Y-78744761D01*
X167431904Y-78697142D01*
X167384285Y-78601904D01*
X167384285Y-78506666D01*
X167431904Y-78411428D01*
X167479523Y-78363809D01*
X167574761Y-78316190D01*
X167765238Y-78268571D01*
X167860476Y-78220952D01*
X167908095Y-78173333D01*
X167955714Y-78078095D01*
X167955714Y-77982857D01*
X167908095Y-77887619D01*
X167860476Y-77840000D01*
X167765238Y-77792380D01*
X167527142Y-77792380D01*
X167384285Y-77840000D01*
X164665238Y-79887142D02*
X164712857Y-79934761D01*
X164855714Y-79982380D01*
X164950952Y-79982380D01*
X165093809Y-79934761D01*
X165189047Y-79839523D01*
X165236666Y-79744285D01*
X165284285Y-79553809D01*
X165284285Y-79410952D01*
X165236666Y-79220476D01*
X165189047Y-79125238D01*
X165093809Y-79030000D01*
X164950952Y-78982380D01*
X164855714Y-78982380D01*
X164712857Y-79030000D01*
X164665238Y-79077619D01*
X163760476Y-79982380D02*
X164236666Y-79982380D01*
X164236666Y-78982380D01*
X163427142Y-79982380D02*
X163427142Y-78982380D01*
X162855714Y-79982380D02*
X163284285Y-79410952D01*
X162855714Y-78982380D02*
X163427142Y-79553809D01*
X168881428Y-81432380D02*
X168881428Y-80432380D01*
X168548095Y-81146666D01*
X168214761Y-80432380D01*
X168214761Y-81432380D01*
X167738571Y-81432380D02*
X167738571Y-80432380D01*
X167310000Y-81384761D02*
X167167142Y-81432380D01*
X166929047Y-81432380D01*
X166833809Y-81384761D01*
X166786190Y-81337142D01*
X166738571Y-81241904D01*
X166738571Y-81146666D01*
X166786190Y-81051428D01*
X166833809Y-81003809D01*
X166929047Y-80956190D01*
X167119523Y-80908571D01*
X167214761Y-80860952D01*
X167262380Y-80813333D01*
X167310000Y-80718095D01*
X167310000Y-80622857D01*
X167262380Y-80527619D01*
X167214761Y-80480000D01*
X167119523Y-80432380D01*
X166881428Y-80432380D01*
X166738571Y-80480000D01*
X166119523Y-80432380D02*
X165929047Y-80432380D01*
X165833809Y-80480000D01*
X165738571Y-80575238D01*
X165690952Y-80765714D01*
X165690952Y-81099047D01*
X165738571Y-81289523D01*
X165833809Y-81384761D01*
X165929047Y-81432380D01*
X166119523Y-81432380D01*
X166214761Y-81384761D01*
X166310000Y-81289523D01*
X166357619Y-81099047D01*
X166357619Y-80765714D01*
X166310000Y-80575238D01*
X166214761Y-80480000D01*
X166119523Y-80432380D01*
X165336190Y-81452380D02*
X164717142Y-81452380D01*
X165050476Y-81833333D01*
X164907619Y-81833333D01*
X164812380Y-81880952D01*
X164764761Y-81928571D01*
X164717142Y-82023809D01*
X164717142Y-82261904D01*
X164764761Y-82357142D01*
X164812380Y-82404761D01*
X164907619Y-82452380D01*
X165193333Y-82452380D01*
X165288571Y-82404761D01*
X165336190Y-82357142D01*
X164288571Y-82357142D02*
X164240952Y-82404761D01*
X164288571Y-82452380D01*
X164336190Y-82404761D01*
X164288571Y-82357142D01*
X164288571Y-82452380D01*
X163907619Y-81452380D02*
X163288571Y-81452380D01*
X163621904Y-81833333D01*
X163479047Y-81833333D01*
X163383809Y-81880952D01*
X163336190Y-81928571D01*
X163288571Y-82023809D01*
X163288571Y-82261904D01*
X163336190Y-82357142D01*
X163383809Y-82404761D01*
X163479047Y-82452380D01*
X163764761Y-82452380D01*
X163860000Y-82404761D01*
X163907619Y-82357142D01*
X163002857Y-81452380D02*
X162669523Y-82452380D01*
X162336190Y-81452380D01*
X168351904Y-83000000D02*
X168447142Y-82952380D01*
X168590000Y-82952380D01*
X168732857Y-83000000D01*
X168828095Y-83095238D01*
X168875714Y-83190476D01*
X168923333Y-83380952D01*
X168923333Y-83523809D01*
X168875714Y-83714285D01*
X168828095Y-83809523D01*
X168732857Y-83904761D01*
X168590000Y-83952380D01*
X168494761Y-83952380D01*
X168351904Y-83904761D01*
X168304285Y-83857142D01*
X168304285Y-83523809D01*
X168494761Y-83523809D01*
X167875714Y-83952380D02*
X167875714Y-82952380D01*
X167304285Y-83952380D01*
X167304285Y-82952380D01*
X166828095Y-83952380D02*
X166828095Y-82952380D01*
X166590000Y-82952380D01*
X166447142Y-83000000D01*
X166351904Y-83095238D01*
X166304285Y-83190476D01*
X166256666Y-83380952D01*
X166256666Y-83523809D01*
X166304285Y-83714285D01*
X166351904Y-83809523D01*
X166447142Y-83904761D01*
X166590000Y-83952380D01*
X166828095Y-83952380D01*
D13*
G04 #@! TO.C,H1*
G36*
X146057672Y-77129990D02*
X146037525Y-77132217D01*
X146020010Y-77135816D01*
X146004685Y-77141560D01*
X145991107Y-77150223D01*
X145978834Y-77162576D01*
X145967423Y-77179392D01*
X145956433Y-77201445D01*
X145945420Y-77229507D01*
X145933942Y-77264351D01*
X145921557Y-77306750D01*
X145907823Y-77357477D01*
X145892296Y-77417304D01*
X145891574Y-77420119D01*
X145874367Y-77492726D01*
X145860333Y-77564528D01*
X145849184Y-77637695D01*
X145840635Y-77714402D01*
X145834399Y-77796821D01*
X145830264Y-77885012D01*
X145829156Y-77918657D01*
X145828651Y-77944777D01*
X145828940Y-77966001D01*
X145830215Y-77984955D01*
X145832665Y-78004266D01*
X145836482Y-78026561D01*
X145841857Y-78054469D01*
X145843001Y-78060272D01*
X145859482Y-78138963D01*
X145877008Y-78213658D01*
X145895327Y-78283591D01*
X145914186Y-78347993D01*
X145933332Y-78406097D01*
X145952514Y-78457134D01*
X145971479Y-78500337D01*
X145989973Y-78534938D01*
X146007216Y-78559545D01*
X146017920Y-78573001D01*
X146032196Y-78591969D01*
X146047898Y-78613563D01*
X146058386Y-78628404D01*
X146083887Y-78662527D01*
X146107651Y-78689453D01*
X146128951Y-78708436D01*
X146146050Y-78718358D01*
X146158025Y-78720950D01*
X146175724Y-78722610D01*
X146190234Y-78722964D01*
X146206824Y-78722118D01*
X146222104Y-78719276D01*
X146239127Y-78713555D01*
X146260944Y-78704070D01*
X146269913Y-78699870D01*
X146292681Y-78688146D01*
X146314167Y-78675433D01*
X146331221Y-78663670D01*
X146337674Y-78658207D01*
X146360575Y-78629962D01*
X146380645Y-78592135D01*
X146397901Y-78544672D01*
X146412366Y-78487521D01*
X146420914Y-78441272D01*
X146423431Y-78424016D01*
X146425451Y-78405839D01*
X146427025Y-78385426D01*
X146428201Y-78361460D01*
X146429030Y-78332627D01*
X146429561Y-78297611D01*
X146429844Y-78255096D01*
X146429928Y-78203768D01*
X146429928Y-78202512D01*
X146429805Y-78146030D01*
X146429359Y-78097683D01*
X146428470Y-78055444D01*
X146427016Y-78017289D01*
X146424876Y-77981194D01*
X146421931Y-77945134D01*
X146418059Y-77907085D01*
X146413139Y-77865021D01*
X146407050Y-77816919D01*
X146406805Y-77815030D01*
X146397747Y-77758006D01*
X146384897Y-77695551D01*
X146368842Y-77629553D01*
X146350167Y-77561900D01*
X146329460Y-77494479D01*
X146307308Y-77429179D01*
X146284296Y-77367887D01*
X146261011Y-77312491D01*
X146238041Y-77264878D01*
X146232843Y-77255189D01*
X146204976Y-77211087D01*
X146173890Y-77173769D01*
X146173285Y-77173148D01*
X146150493Y-77151871D01*
X146129805Y-77138154D01*
X146108110Y-77130835D01*
X146082298Y-77128754D01*
X146057672Y-77129990D01*
X146057672Y-77129990D01*
G37*
X146057672Y-77129990D02*
X146037525Y-77132217D01*
X146020010Y-77135816D01*
X146004685Y-77141560D01*
X145991107Y-77150223D01*
X145978834Y-77162576D01*
X145967423Y-77179392D01*
X145956433Y-77201445D01*
X145945420Y-77229507D01*
X145933942Y-77264351D01*
X145921557Y-77306750D01*
X145907823Y-77357477D01*
X145892296Y-77417304D01*
X145891574Y-77420119D01*
X145874367Y-77492726D01*
X145860333Y-77564528D01*
X145849184Y-77637695D01*
X145840635Y-77714402D01*
X145834399Y-77796821D01*
X145830264Y-77885012D01*
X145829156Y-77918657D01*
X145828651Y-77944777D01*
X145828940Y-77966001D01*
X145830215Y-77984955D01*
X145832665Y-78004266D01*
X145836482Y-78026561D01*
X145841857Y-78054469D01*
X145843001Y-78060272D01*
X145859482Y-78138963D01*
X145877008Y-78213658D01*
X145895327Y-78283591D01*
X145914186Y-78347993D01*
X145933332Y-78406097D01*
X145952514Y-78457134D01*
X145971479Y-78500337D01*
X145989973Y-78534938D01*
X146007216Y-78559545D01*
X146017920Y-78573001D01*
X146032196Y-78591969D01*
X146047898Y-78613563D01*
X146058386Y-78628404D01*
X146083887Y-78662527D01*
X146107651Y-78689453D01*
X146128951Y-78708436D01*
X146146050Y-78718358D01*
X146158025Y-78720950D01*
X146175724Y-78722610D01*
X146190234Y-78722964D01*
X146206824Y-78722118D01*
X146222104Y-78719276D01*
X146239127Y-78713555D01*
X146260944Y-78704070D01*
X146269913Y-78699870D01*
X146292681Y-78688146D01*
X146314167Y-78675433D01*
X146331221Y-78663670D01*
X146337674Y-78658207D01*
X146360575Y-78629962D01*
X146380645Y-78592135D01*
X146397901Y-78544672D01*
X146412366Y-78487521D01*
X146420914Y-78441272D01*
X146423431Y-78424016D01*
X146425451Y-78405839D01*
X146427025Y-78385426D01*
X146428201Y-78361460D01*
X146429030Y-78332627D01*
X146429561Y-78297611D01*
X146429844Y-78255096D01*
X146429928Y-78203768D01*
X146429928Y-78202512D01*
X146429805Y-78146030D01*
X146429359Y-78097683D01*
X146428470Y-78055444D01*
X146427016Y-78017289D01*
X146424876Y-77981194D01*
X146421931Y-77945134D01*
X146418059Y-77907085D01*
X146413139Y-77865021D01*
X146407050Y-77816919D01*
X146406805Y-77815030D01*
X146397747Y-77758006D01*
X146384897Y-77695551D01*
X146368842Y-77629553D01*
X146350167Y-77561900D01*
X146329460Y-77494479D01*
X146307308Y-77429179D01*
X146284296Y-77367887D01*
X146261011Y-77312491D01*
X146238041Y-77264878D01*
X146232843Y-77255189D01*
X146204976Y-77211087D01*
X146173890Y-77173769D01*
X146173285Y-77173148D01*
X146150493Y-77151871D01*
X146129805Y-77138154D01*
X146108110Y-77130835D01*
X146082298Y-77128754D01*
X146057672Y-77129990D01*
G04 #@! TO.C,H2*
G36*
X147327450Y-78252029D02*
X147289610Y-78255318D01*
X147269114Y-78259149D01*
X147217483Y-78276126D01*
X147172813Y-78299906D01*
X147135227Y-78329779D01*
X147104849Y-78365033D01*
X147081802Y-78404955D01*
X147066212Y-78448835D01*
X147058201Y-78495960D01*
X147057893Y-78545618D01*
X147065412Y-78597098D01*
X147080883Y-78649688D01*
X147104428Y-78702676D01*
X147136172Y-78755351D01*
X147174204Y-78804650D01*
X147223849Y-78855758D01*
X147278839Y-78900507D01*
X147338010Y-78938394D01*
X147400195Y-78968918D01*
X147464228Y-78991577D01*
X147528944Y-79005869D01*
X147593178Y-79011293D01*
X147647655Y-79008421D01*
X147702480Y-78997359D01*
X147751576Y-78978288D01*
X147794502Y-78951400D01*
X147812986Y-78935585D01*
X147844733Y-78901688D01*
X147867873Y-78867214D01*
X147883755Y-78829572D01*
X147893732Y-78786168D01*
X147894887Y-78778397D01*
X147897447Y-78724007D01*
X147890587Y-78668943D01*
X147874939Y-78614004D01*
X147861598Y-78583727D01*
X147496709Y-78583727D01*
X147494328Y-78605364D01*
X147481367Y-78649556D01*
X147460184Y-78688909D01*
X147431675Y-78722374D01*
X147396736Y-78748905D01*
X147356263Y-78767456D01*
X147355420Y-78767733D01*
X147335462Y-78771712D01*
X147308412Y-78773404D01*
X147290189Y-78773228D01*
X147265935Y-78771823D01*
X147247549Y-78768886D01*
X147230751Y-78763428D01*
X147213183Y-78755407D01*
X147176194Y-78732040D01*
X147145591Y-78702200D01*
X147122119Y-78667300D01*
X147106524Y-78628756D01*
X147099551Y-78587980D01*
X147101948Y-78546386D01*
X147102203Y-78544974D01*
X147114907Y-78503076D01*
X147136229Y-78464690D01*
X147164888Y-78431467D01*
X147199603Y-78405058D01*
X147218428Y-78395110D01*
X147248355Y-78385602D01*
X147283477Y-78381038D01*
X147320083Y-78381477D01*
X147354460Y-78386976D01*
X147372342Y-78392678D01*
X147407490Y-78411738D01*
X147438182Y-78438196D01*
X147463433Y-78470339D01*
X147482260Y-78506451D01*
X147493680Y-78544819D01*
X147496709Y-78583727D01*
X147861598Y-78583727D01*
X147851137Y-78559988D01*
X147819812Y-78507693D01*
X147781599Y-78457918D01*
X147737128Y-78411459D01*
X147687033Y-78369116D01*
X147631947Y-78331686D01*
X147572503Y-78299968D01*
X147509332Y-78274759D01*
X147490987Y-78268953D01*
X147454610Y-78260490D01*
X147413116Y-78254755D01*
X147369674Y-78251888D01*
X147327450Y-78252029D01*
X147327450Y-78252029D01*
G37*
X147327450Y-78252029D02*
X147289610Y-78255318D01*
X147269114Y-78259149D01*
X147217483Y-78276126D01*
X147172813Y-78299906D01*
X147135227Y-78329779D01*
X147104849Y-78365033D01*
X147081802Y-78404955D01*
X147066212Y-78448835D01*
X147058201Y-78495960D01*
X147057893Y-78545618D01*
X147065412Y-78597098D01*
X147080883Y-78649688D01*
X147104428Y-78702676D01*
X147136172Y-78755351D01*
X147174204Y-78804650D01*
X147223849Y-78855758D01*
X147278839Y-78900507D01*
X147338010Y-78938394D01*
X147400195Y-78968918D01*
X147464228Y-78991577D01*
X147528944Y-79005869D01*
X147593178Y-79011293D01*
X147647655Y-79008421D01*
X147702480Y-78997359D01*
X147751576Y-78978288D01*
X147794502Y-78951400D01*
X147812986Y-78935585D01*
X147844733Y-78901688D01*
X147867873Y-78867214D01*
X147883755Y-78829572D01*
X147893732Y-78786168D01*
X147894887Y-78778397D01*
X147897447Y-78724007D01*
X147890587Y-78668943D01*
X147874939Y-78614004D01*
X147861598Y-78583727D01*
X147496709Y-78583727D01*
X147494328Y-78605364D01*
X147481367Y-78649556D01*
X147460184Y-78688909D01*
X147431675Y-78722374D01*
X147396736Y-78748905D01*
X147356263Y-78767456D01*
X147355420Y-78767733D01*
X147335462Y-78771712D01*
X147308412Y-78773404D01*
X147290189Y-78773228D01*
X147265935Y-78771823D01*
X147247549Y-78768886D01*
X147230751Y-78763428D01*
X147213183Y-78755407D01*
X147176194Y-78732040D01*
X147145591Y-78702200D01*
X147122119Y-78667300D01*
X147106524Y-78628756D01*
X147099551Y-78587980D01*
X147101948Y-78546386D01*
X147102203Y-78544974D01*
X147114907Y-78503076D01*
X147136229Y-78464690D01*
X147164888Y-78431467D01*
X147199603Y-78405058D01*
X147218428Y-78395110D01*
X147248355Y-78385602D01*
X147283477Y-78381038D01*
X147320083Y-78381477D01*
X147354460Y-78386976D01*
X147372342Y-78392678D01*
X147407490Y-78411738D01*
X147438182Y-78438196D01*
X147463433Y-78470339D01*
X147482260Y-78506451D01*
X147493680Y-78544819D01*
X147496709Y-78583727D01*
X147861598Y-78583727D01*
X147851137Y-78559988D01*
X147819812Y-78507693D01*
X147781599Y-78457918D01*
X147737128Y-78411459D01*
X147687033Y-78369116D01*
X147631947Y-78331686D01*
X147572503Y-78299968D01*
X147509332Y-78274759D01*
X147490987Y-78268953D01*
X147454610Y-78260490D01*
X147413116Y-78254755D01*
X147369674Y-78251888D01*
X147327450Y-78252029D01*
G36*
X148952208Y-78442652D02*
X148934674Y-78445067D01*
X148917994Y-78450328D01*
X148899195Y-78458656D01*
X148849329Y-78487062D01*
X148799845Y-78524278D01*
X148751687Y-78568965D01*
X148705796Y-78619788D01*
X148663116Y-78675410D01*
X148624588Y-78734496D01*
X148591156Y-78795708D01*
X148563761Y-78857711D01*
X148543347Y-78919169D01*
X148530855Y-78978744D01*
X148530492Y-78981381D01*
X148527724Y-79024448D01*
X148531417Y-79062509D01*
X148541280Y-79094679D01*
X148557020Y-79120074D01*
X148578348Y-79137808D01*
X148582686Y-79140084D01*
X148610654Y-79148570D01*
X148642464Y-79149833D01*
X148674684Y-79143740D01*
X148675133Y-79143598D01*
X148718670Y-79125309D01*
X148763603Y-79098094D01*
X148808992Y-79062917D01*
X148853897Y-79020739D01*
X148897378Y-78972524D01*
X148938495Y-78919234D01*
X148976308Y-78861831D01*
X149009877Y-78801278D01*
X149010333Y-78800371D01*
X149035692Y-78746097D01*
X149044162Y-78723826D01*
X148890589Y-78723826D01*
X148890330Y-78751567D01*
X148887752Y-78779563D01*
X148883306Y-78802954D01*
X148873466Y-78833117D01*
X148858874Y-78867408D01*
X148841338Y-78902196D01*
X148822665Y-78933848D01*
X148807491Y-78955274D01*
X148775978Y-78991058D01*
X148744721Y-79019147D01*
X148714367Y-79039252D01*
X148685564Y-79051086D01*
X148658960Y-79054361D01*
X148635203Y-79048790D01*
X148619740Y-79038718D01*
X148605106Y-79022251D01*
X148595854Y-79002255D01*
X148591267Y-78976565D01*
X148590471Y-78950568D01*
X148594289Y-78911337D01*
X148604286Y-78871019D01*
X148619608Y-78830703D01*
X148639407Y-78791480D01*
X148662831Y-78754440D01*
X148689029Y-78720673D01*
X148717150Y-78691270D01*
X148746344Y-78667321D01*
X148775760Y-78649916D01*
X148804547Y-78640146D01*
X148831854Y-78639101D01*
X148833352Y-78639327D01*
X148855647Y-78647862D01*
X148874003Y-78664681D01*
X148884068Y-78681938D01*
X148888508Y-78699547D01*
X148890589Y-78723826D01*
X149044162Y-78723826D01*
X149054368Y-78696994D01*
X149066917Y-78651102D01*
X149073893Y-78606461D01*
X149075849Y-78569072D01*
X149075726Y-78543986D01*
X149074517Y-78526032D01*
X149071765Y-78512202D01*
X149067012Y-78499487D01*
X149064430Y-78494003D01*
X149053661Y-78476673D01*
X149040202Y-78460985D01*
X149034402Y-78455903D01*
X149024099Y-78448860D01*
X149014000Y-78444704D01*
X149000934Y-78442695D01*
X148981728Y-78442090D01*
X148975232Y-78442072D01*
X148952208Y-78442652D01*
X148952208Y-78442652D01*
G37*
X148952208Y-78442652D02*
X148934674Y-78445067D01*
X148917994Y-78450328D01*
X148899195Y-78458656D01*
X148849329Y-78487062D01*
X148799845Y-78524278D01*
X148751687Y-78568965D01*
X148705796Y-78619788D01*
X148663116Y-78675410D01*
X148624588Y-78734496D01*
X148591156Y-78795708D01*
X148563761Y-78857711D01*
X148543347Y-78919169D01*
X148530855Y-78978744D01*
X148530492Y-78981381D01*
X148527724Y-79024448D01*
X148531417Y-79062509D01*
X148541280Y-79094679D01*
X148557020Y-79120074D01*
X148578348Y-79137808D01*
X148582686Y-79140084D01*
X148610654Y-79148570D01*
X148642464Y-79149833D01*
X148674684Y-79143740D01*
X148675133Y-79143598D01*
X148718670Y-79125309D01*
X148763603Y-79098094D01*
X148808992Y-79062917D01*
X148853897Y-79020739D01*
X148897378Y-78972524D01*
X148938495Y-78919234D01*
X148976308Y-78861831D01*
X149009877Y-78801278D01*
X149010333Y-78800371D01*
X149035692Y-78746097D01*
X149044162Y-78723826D01*
X148890589Y-78723826D01*
X148890330Y-78751567D01*
X148887752Y-78779563D01*
X148883306Y-78802954D01*
X148873466Y-78833117D01*
X148858874Y-78867408D01*
X148841338Y-78902196D01*
X148822665Y-78933848D01*
X148807491Y-78955274D01*
X148775978Y-78991058D01*
X148744721Y-79019147D01*
X148714367Y-79039252D01*
X148685564Y-79051086D01*
X148658960Y-79054361D01*
X148635203Y-79048790D01*
X148619740Y-79038718D01*
X148605106Y-79022251D01*
X148595854Y-79002255D01*
X148591267Y-78976565D01*
X148590471Y-78950568D01*
X148594289Y-78911337D01*
X148604286Y-78871019D01*
X148619608Y-78830703D01*
X148639407Y-78791480D01*
X148662831Y-78754440D01*
X148689029Y-78720673D01*
X148717150Y-78691270D01*
X148746344Y-78667321D01*
X148775760Y-78649916D01*
X148804547Y-78640146D01*
X148831854Y-78639101D01*
X148833352Y-78639327D01*
X148855647Y-78647862D01*
X148874003Y-78664681D01*
X148884068Y-78681938D01*
X148888508Y-78699547D01*
X148890589Y-78723826D01*
X149044162Y-78723826D01*
X149054368Y-78696994D01*
X149066917Y-78651102D01*
X149073893Y-78606461D01*
X149075849Y-78569072D01*
X149075726Y-78543986D01*
X149074517Y-78526032D01*
X149071765Y-78512202D01*
X149067012Y-78499487D01*
X149064430Y-78494003D01*
X149053661Y-78476673D01*
X149040202Y-78460985D01*
X149034402Y-78455903D01*
X149024099Y-78448860D01*
X149014000Y-78444704D01*
X149000934Y-78442695D01*
X148981728Y-78442090D01*
X148975232Y-78442072D01*
X148952208Y-78442652D01*
D14*
G36*
X147621181Y-79882082D02*
X147616989Y-79887490D01*
X147616031Y-79895686D01*
X147620449Y-79901106D01*
X147632498Y-79908962D01*
X147650218Y-79918345D01*
X147671648Y-79928342D01*
X147694827Y-79938043D01*
X147717795Y-79946536D01*
X147738591Y-79952911D01*
X147739956Y-79953265D01*
X147783017Y-79960738D01*
X147831512Y-79963112D01*
X147882088Y-79960390D01*
X147928373Y-79953217D01*
X147955673Y-79947438D01*
X147974564Y-79943225D01*
X147986587Y-79940092D01*
X147993285Y-79937554D01*
X147996200Y-79935128D01*
X147996874Y-79932328D01*
X147996876Y-79931685D01*
X147995847Y-79923979D01*
X147991975Y-79919336D01*
X147983733Y-79917621D01*
X147969597Y-79918701D01*
X147948041Y-79922442D01*
X147930913Y-79925909D01*
X147871951Y-79935361D01*
X147818485Y-79937693D01*
X147768561Y-79932694D01*
X147720227Y-79920153D01*
X147671531Y-79899861D01*
X147666652Y-79897440D01*
X147644666Y-79887010D01*
X147629958Y-79881906D01*
X147621181Y-79882082D01*
X147621181Y-79882082D01*
G37*
X147621181Y-79882082D02*
X147616989Y-79887490D01*
X147616031Y-79895686D01*
X147620449Y-79901106D01*
X147632498Y-79908962D01*
X147650218Y-79918345D01*
X147671648Y-79928342D01*
X147694827Y-79938043D01*
X147717795Y-79946536D01*
X147738591Y-79952911D01*
X147739956Y-79953265D01*
X147783017Y-79960738D01*
X147831512Y-79963112D01*
X147882088Y-79960390D01*
X147928373Y-79953217D01*
X147955673Y-79947438D01*
X147974564Y-79943225D01*
X147986587Y-79940092D01*
X147993285Y-79937554D01*
X147996200Y-79935128D01*
X147996874Y-79932328D01*
X147996876Y-79931685D01*
X147995847Y-79923979D01*
X147991975Y-79919336D01*
X147983733Y-79917621D01*
X147969597Y-79918701D01*
X147948041Y-79922442D01*
X147930913Y-79925909D01*
X147871951Y-79935361D01*
X147818485Y-79937693D01*
X147768561Y-79932694D01*
X147720227Y-79920153D01*
X147671531Y-79899861D01*
X147666652Y-79897440D01*
X147644666Y-79887010D01*
X147629958Y-79881906D01*
X147621181Y-79882082D01*
G04 #@! TD*
M02*
