G04 #@! TF.GenerationSoftware,KiCad,Pcbnew,5.0.2-bee76a0~70~ubuntu18.04.1*
G04 #@! TF.CreationDate,2019-12-02T23:30:02+01:00*
G04 #@! TF.ProjectId,current_sense_tli4970,63757272-656e-4745-9f73-656e73655f74,rev?*
G04 #@! TF.SameCoordinates,Original*
G04 #@! TF.FileFunction,Copper,L2,Bot*
G04 #@! TF.FilePolarity,Positive*
%FSLAX46Y46*%
G04 Gerber Fmt 4.6, Leading zero omitted, Abs format (unit mm)*
G04 Created by KiCad (PCBNEW 5.0.2-bee76a0~70~ubuntu18.04.1) date Mo 02 Dez 2019 23:30:02 CET*
%MOMM*%
%LPD*%
G01*
G04 APERTURE LIST*
G04 #@! TA.AperFunction,ComponentPad*
%ADD10C,1.800000*%
G04 #@! TD*
G04 #@! TA.AperFunction,ComponentPad*
%ADD11R,1.800000X1.800000*%
G04 #@! TD*
G04 #@! TA.AperFunction,Conductor*
%ADD12C,0.254000*%
G04 #@! TD*
G04 APERTURE END LIST*
D10*
G04 #@! TO.P,J1,6*
G04 #@! TO.N,GND*
X173540000Y-83350000D03*
G04 #@! TO.P,J1,5*
G04 #@! TO.N,+3V3*
X171000000Y-82080000D03*
D11*
G04 #@! TO.P,J1,1*
G04 #@! TO.N,Net-(J1-Pad1)*
X171000000Y-77000000D03*
D10*
G04 #@! TO.P,J1,2*
G04 #@! TO.N,Net-(J1-Pad2)*
X173540000Y-78270000D03*
G04 #@! TO.P,J1,3*
G04 #@! TO.N,Net-(J1-Pad3)*
X171000000Y-79540000D03*
G04 #@! TO.P,J1,4*
G04 #@! TO.N,Net-(J1-Pad4)*
X173540000Y-80810000D03*
G04 #@! TD*
D12*
G04 #@! TO.N,GND*
G36*
X171625811Y-74815432D02*
X171414950Y-75324496D01*
X171414950Y-75452560D01*
X170100000Y-75452560D01*
X169852235Y-75501843D01*
X169642191Y-75642191D01*
X169501843Y-75852235D01*
X169452560Y-76100000D01*
X169452560Y-77900000D01*
X169501843Y-78147765D01*
X169642191Y-78357809D01*
X169852235Y-78498157D01*
X169867908Y-78501275D01*
X169698690Y-78670493D01*
X169465000Y-79234670D01*
X169465000Y-79845330D01*
X169698690Y-80409507D01*
X170099183Y-80810000D01*
X169698690Y-81210493D01*
X169465000Y-81774670D01*
X169465000Y-82385330D01*
X169698690Y-82949507D01*
X170130493Y-83381310D01*
X170694670Y-83615000D01*
X171305330Y-83615000D01*
X171869507Y-83381310D01*
X172301310Y-82949507D01*
X172535000Y-82385330D01*
X172535000Y-81975817D01*
X172670493Y-82111310D01*
X173234670Y-82345000D01*
X173845330Y-82345000D01*
X174409507Y-82111310D01*
X174790001Y-81730816D01*
X174790001Y-85290000D01*
X144710000Y-85290000D01*
X144710000Y-74710000D01*
X171731243Y-74710000D01*
X171625811Y-74815432D01*
X171625811Y-74815432D01*
G37*
X171625811Y-74815432D02*
X171414950Y-75324496D01*
X171414950Y-75452560D01*
X170100000Y-75452560D01*
X169852235Y-75501843D01*
X169642191Y-75642191D01*
X169501843Y-75852235D01*
X169452560Y-76100000D01*
X169452560Y-77900000D01*
X169501843Y-78147765D01*
X169642191Y-78357809D01*
X169852235Y-78498157D01*
X169867908Y-78501275D01*
X169698690Y-78670493D01*
X169465000Y-79234670D01*
X169465000Y-79845330D01*
X169698690Y-80409507D01*
X170099183Y-80810000D01*
X169698690Y-81210493D01*
X169465000Y-81774670D01*
X169465000Y-82385330D01*
X169698690Y-82949507D01*
X170130493Y-83381310D01*
X170694670Y-83615000D01*
X171305330Y-83615000D01*
X171869507Y-83381310D01*
X172301310Y-82949507D01*
X172535000Y-82385330D01*
X172535000Y-81975817D01*
X172670493Y-82111310D01*
X173234670Y-82345000D01*
X173845330Y-82345000D01*
X174409507Y-82111310D01*
X174790001Y-81730816D01*
X174790001Y-85290000D01*
X144710000Y-85290000D01*
X144710000Y-74710000D01*
X171731243Y-74710000D01*
X171625811Y-74815432D01*
G04 #@! TD*
M02*
