G04 #@! TF.GenerationSoftware,KiCad,Pcbnew,5.0.2-bee76a0~70~ubuntu18.04.1*
G04 #@! TF.CreationDate,2019-12-02T23:30:02+01:00*
G04 #@! TF.ProjectId,current_sense_tli4970,63757272-656e-4745-9f73-656e73655f74,rev?*
G04 #@! TF.SameCoordinates,Original*
G04 #@! TF.FileFunction,Soldermask,Bot*
G04 #@! TF.FilePolarity,Negative*
%FSLAX46Y46*%
G04 Gerber Fmt 4.6, Leading zero omitted, Abs format (unit mm)*
G04 Created by KiCad (PCBNEW 5.0.2-bee76a0~70~ubuntu18.04.1) date Mo 02 Dez 2019 23:30:02 CET*
%MOMM*%
%LPD*%
G01*
G04 APERTURE LIST*
%ADD10C,0.010000*%
%ADD11C,0.100000*%
G04 APERTURE END LIST*
D10*
G04 #@! TO.C,H3*
G36*
X147269363Y-78549293D02*
X147256286Y-78552684D01*
X147244982Y-78559813D01*
X147242638Y-78561736D01*
X147223338Y-78583573D01*
X147213411Y-78608050D01*
X147213104Y-78633959D01*
X147222589Y-78659956D01*
X147237018Y-78679050D01*
X147255493Y-78690516D01*
X147280006Y-78695401D01*
X147290802Y-78695751D01*
X147308201Y-78695138D01*
X147319875Y-78692125D01*
X147330236Y-78684949D01*
X147339127Y-78676450D01*
X147355752Y-78653560D01*
X147363094Y-78628625D01*
X147361198Y-78603397D01*
X147350111Y-78579627D01*
X147336171Y-78564142D01*
X147324317Y-78554945D01*
X147313000Y-78550224D01*
X147297900Y-78548560D01*
X147288363Y-78548431D01*
X147269363Y-78549293D01*
X147269363Y-78549293D01*
G37*
X147269363Y-78549293D02*
X147256286Y-78552684D01*
X147244982Y-78559813D01*
X147242638Y-78561736D01*
X147223338Y-78583573D01*
X147213411Y-78608050D01*
X147213104Y-78633959D01*
X147222589Y-78659956D01*
X147237018Y-78679050D01*
X147255493Y-78690516D01*
X147280006Y-78695401D01*
X147290802Y-78695751D01*
X147308201Y-78695138D01*
X147319875Y-78692125D01*
X147330236Y-78684949D01*
X147339127Y-78676450D01*
X147355752Y-78653560D01*
X147363094Y-78628625D01*
X147361198Y-78603397D01*
X147350111Y-78579627D01*
X147336171Y-78564142D01*
X147324317Y-78554945D01*
X147313000Y-78550224D01*
X147297900Y-78548560D01*
X147288363Y-78548431D01*
X147269363Y-78549293D01*
G36*
X148708564Y-78828117D02*
X148693476Y-78839524D01*
X148691241Y-78841801D01*
X148675033Y-78862267D01*
X148661727Y-78885379D01*
X148651635Y-78909539D01*
X148645069Y-78933151D01*
X148642339Y-78954617D01*
X148643756Y-78972341D01*
X148649633Y-78984726D01*
X148660280Y-78990174D01*
X148662290Y-78990294D01*
X148669711Y-78987881D01*
X148681212Y-78981893D01*
X148682933Y-78980862D01*
X148699931Y-78966099D01*
X148715663Y-78944592D01*
X148729113Y-78918874D01*
X148739266Y-78891480D01*
X148745109Y-78864945D01*
X148745625Y-78841804D01*
X148743027Y-78830786D01*
X148735608Y-78823265D01*
X148723364Y-78822536D01*
X148708564Y-78828117D01*
X148708564Y-78828117D01*
G37*
X148708564Y-78828117D02*
X148693476Y-78839524D01*
X148691241Y-78841801D01*
X148675033Y-78862267D01*
X148661727Y-78885379D01*
X148651635Y-78909539D01*
X148645069Y-78933151D01*
X148642339Y-78954617D01*
X148643756Y-78972341D01*
X148649633Y-78984726D01*
X148660280Y-78990174D01*
X148662290Y-78990294D01*
X148669711Y-78987881D01*
X148681212Y-78981893D01*
X148682933Y-78980862D01*
X148699931Y-78966099D01*
X148715663Y-78944592D01*
X148729113Y-78918874D01*
X148739266Y-78891480D01*
X148745109Y-78864945D01*
X148745625Y-78841804D01*
X148743027Y-78830786D01*
X148735608Y-78823265D01*
X148723364Y-78822536D01*
X148708564Y-78828117D01*
G36*
X148121619Y-75145849D02*
X148072727Y-75147225D01*
X148031239Y-75149418D01*
X148028782Y-75149595D01*
X147862300Y-75166808D01*
X147698174Y-75193810D01*
X147536767Y-75230427D01*
X147378441Y-75276488D01*
X147223560Y-75331819D01*
X147072485Y-75396247D01*
X146925579Y-75469601D01*
X146783206Y-75551706D01*
X146645726Y-75642390D01*
X146513504Y-75741481D01*
X146386902Y-75848805D01*
X146266282Y-75964190D01*
X146221542Y-76010697D01*
X146110642Y-76135993D01*
X146008178Y-76266871D01*
X145914264Y-76403085D01*
X145829016Y-76544388D01*
X145752545Y-76690535D01*
X145684966Y-76841282D01*
X145626393Y-76996381D01*
X145576940Y-77155587D01*
X145536720Y-77318656D01*
X145505846Y-77485340D01*
X145492003Y-77585771D01*
X145489342Y-77613805D01*
X145486974Y-77650349D01*
X145484923Y-77693756D01*
X145483212Y-77742379D01*
X145481862Y-77794570D01*
X145480899Y-77848684D01*
X145480343Y-77903072D01*
X145480220Y-77956089D01*
X145480551Y-78006088D01*
X145481359Y-78051420D01*
X145482668Y-78090441D01*
X145484501Y-78121502D01*
X145484509Y-78121600D01*
X145502605Y-78285929D01*
X145530507Y-78448138D01*
X145568006Y-78607827D01*
X145614893Y-78764596D01*
X145670962Y-78918044D01*
X145736004Y-79067771D01*
X145809810Y-79213377D01*
X145892172Y-79354462D01*
X145982883Y-79490624D01*
X146081735Y-79621464D01*
X146188518Y-79746582D01*
X146303025Y-79865576D01*
X146425048Y-79978047D01*
X146469203Y-80015556D01*
X146600691Y-80118355D01*
X146737474Y-80212561D01*
X146879210Y-80298035D01*
X147025555Y-80374635D01*
X147176167Y-80442221D01*
X147330702Y-80500653D01*
X147488817Y-80549790D01*
X147650169Y-80589491D01*
X147814415Y-80619616D01*
X147981212Y-80640025D01*
X147996810Y-80641421D01*
X148028425Y-80643612D01*
X148067757Y-80645474D01*
X148112693Y-80646982D01*
X148161121Y-80648107D01*
X148210928Y-80648825D01*
X148260001Y-80649108D01*
X148306228Y-80648931D01*
X148347496Y-80648267D01*
X148381692Y-80647090D01*
X148394336Y-80646378D01*
X148563968Y-80630233D01*
X148730652Y-80604499D01*
X148894122Y-80569290D01*
X149054114Y-80524720D01*
X149210363Y-80470903D01*
X149362603Y-80407954D01*
X149510569Y-80335987D01*
X149653997Y-80255116D01*
X149792622Y-80165456D01*
X149926178Y-80067120D01*
X150054400Y-79960222D01*
X150115761Y-79904227D01*
X150234151Y-79786058D01*
X150344551Y-79661762D01*
X150446789Y-79531701D01*
X150540692Y-79396239D01*
X150626087Y-79255737D01*
X150702801Y-79110560D01*
X150770660Y-78961071D01*
X150829493Y-78807632D01*
X150879126Y-78650607D01*
X150919386Y-78490359D01*
X150950100Y-78327251D01*
X150971095Y-78161645D01*
X150976546Y-78097359D01*
X150978795Y-78056434D01*
X150980224Y-78007975D01*
X150980872Y-77953932D01*
X150980776Y-77896256D01*
X150980185Y-77852471D01*
X149297164Y-77852471D01*
X149296943Y-77913058D01*
X149296230Y-77965446D01*
X149294876Y-78011589D01*
X149292734Y-78053440D01*
X149289654Y-78092954D01*
X149285489Y-78132086D01*
X149280091Y-78172789D01*
X149273311Y-78217018D01*
X149266347Y-78258871D01*
X149241709Y-78383958D01*
X149209858Y-78513975D01*
X149171386Y-78647346D01*
X149126884Y-78782497D01*
X149076945Y-78917851D01*
X149022161Y-79051835D01*
X148963123Y-79182874D01*
X148900425Y-79309392D01*
X148834657Y-79429814D01*
X148810892Y-79470451D01*
X148785180Y-79512341D01*
X148760638Y-79549261D01*
X148735572Y-79583354D01*
X148708291Y-79616768D01*
X148677103Y-79651646D01*
X148640316Y-79690135D01*
X148626793Y-79703859D01*
X148558491Y-79770254D01*
X148492998Y-79828530D01*
X148428850Y-79879785D01*
X148364585Y-79925118D01*
X148298738Y-79965627D01*
X148229847Y-80002411D01*
X148227405Y-80003623D01*
X148160165Y-80034822D01*
X148092507Y-80061782D01*
X148023212Y-80084765D01*
X147951058Y-80104032D01*
X147874822Y-80119844D01*
X147793284Y-80132462D01*
X147705223Y-80142146D01*
X147609416Y-80149159D01*
X147528729Y-80152934D01*
X147514562Y-80152256D01*
X147493856Y-80149796D01*
X147469988Y-80145996D01*
X147456684Y-80143486D01*
X147350904Y-80117160D01*
X147246803Y-80080915D01*
X147144290Y-80034711D01*
X147043271Y-79978507D01*
X146964315Y-79926906D01*
X146928082Y-79900634D01*
X146887174Y-79869239D01*
X146843025Y-79833955D01*
X146797066Y-79796017D01*
X146750731Y-79756658D01*
X146705453Y-79717112D01*
X146662665Y-79678614D01*
X146623800Y-79642398D01*
X146590290Y-79609697D01*
X146563673Y-79581860D01*
X146513952Y-79524762D01*
X146465004Y-79464024D01*
X146417688Y-79400963D01*
X146372862Y-79336893D01*
X146331384Y-79273130D01*
X146294114Y-79210991D01*
X146261910Y-79151791D01*
X146235631Y-79096845D01*
X146217483Y-79051351D01*
X146205864Y-79014874D01*
X146199361Y-78985111D01*
X146197739Y-78960137D01*
X146200764Y-78938029D01*
X146202801Y-78930846D01*
X146211131Y-78897374D01*
X146217856Y-78854041D01*
X146222985Y-78800773D01*
X146224473Y-78778671D01*
X146226116Y-78755476D01*
X146227939Y-78736018D01*
X146229703Y-78722545D01*
X146230982Y-78717470D01*
X146237045Y-78713282D01*
X146249569Y-78707007D01*
X146261817Y-78701685D01*
X146297839Y-78683996D01*
X146327980Y-78662302D01*
X146352975Y-78635524D01*
X146373558Y-78602587D01*
X146390463Y-78562412D01*
X146404424Y-78513924D01*
X146411299Y-78482391D01*
X146419921Y-78428175D01*
X146426158Y-78365490D01*
X146430027Y-78295738D01*
X146431542Y-78220322D01*
X146430720Y-78140644D01*
X146427576Y-78058108D01*
X146422126Y-77974115D01*
X146414386Y-77890069D01*
X146404372Y-77807372D01*
X146403639Y-77802048D01*
X146395347Y-77750812D01*
X146384179Y-77696714D01*
X146369731Y-77638072D01*
X146351594Y-77573203D01*
X146335523Y-77520085D01*
X146325029Y-77484787D01*
X146318281Y-77458414D01*
X146315174Y-77440489D01*
X146315400Y-77431185D01*
X146316038Y-77424008D01*
X146316757Y-77407530D01*
X146317540Y-77382613D01*
X146318368Y-77350117D01*
X146319223Y-77310899D01*
X146320087Y-77265822D01*
X146320943Y-77215744D01*
X146321772Y-77161526D01*
X146322556Y-77104027D01*
X146323006Y-77067611D01*
X146323931Y-76993057D01*
X146324852Y-76927627D01*
X146325821Y-76870285D01*
X146326887Y-76819993D01*
X146328102Y-76775716D01*
X146329516Y-76736419D01*
X146331179Y-76701063D01*
X146333144Y-76668613D01*
X146335460Y-76638034D01*
X146338177Y-76608288D01*
X146341348Y-76578339D01*
X146345021Y-76547152D01*
X146349249Y-76513689D01*
X146350615Y-76503186D01*
X146359580Y-76440724D01*
X146370393Y-76375373D01*
X146382367Y-76310963D01*
X146394814Y-76251322D01*
X146399829Y-76229411D01*
X146405836Y-76203931D01*
X146411171Y-76181269D01*
X146415311Y-76163656D01*
X146417730Y-76153326D01*
X146417931Y-76152464D01*
X146423516Y-76142787D01*
X146436260Y-76128331D01*
X146454971Y-76110103D01*
X146478457Y-76089111D01*
X146505525Y-76066361D01*
X146534983Y-76042862D01*
X146565639Y-76019621D01*
X146596301Y-75997645D01*
X146620130Y-75981589D01*
X146713367Y-75926752D01*
X146812664Y-75879856D01*
X146918145Y-75840856D01*
X147029931Y-75809706D01*
X147148145Y-75786364D01*
X147158610Y-75784720D01*
X147203233Y-75779185D01*
X147255484Y-75774924D01*
X147312907Y-75771980D01*
X147373046Y-75770399D01*
X147433443Y-75770227D01*
X147491641Y-75771507D01*
X147545184Y-75774285D01*
X147577710Y-75777055D01*
X147714725Y-75795067D01*
X147846141Y-75820439D01*
X147971656Y-75853054D01*
X148090965Y-75892798D01*
X148203768Y-75939553D01*
X148309760Y-75993205D01*
X148408639Y-76053638D01*
X148500102Y-76120735D01*
X148520723Y-76137656D01*
X148553912Y-76166675D01*
X148586304Y-76197619D01*
X148619395Y-76232061D01*
X148654681Y-76271569D01*
X148693658Y-76317715D01*
X148702513Y-76328471D01*
X148806124Y-76460923D01*
X148899651Y-76593378D01*
X148983172Y-76725988D01*
X149056762Y-76858907D01*
X149120497Y-76992289D01*
X149174453Y-77126289D01*
X149218706Y-77261058D01*
X149253333Y-77396752D01*
X149268691Y-77474011D01*
X149276168Y-77517155D01*
X149282243Y-77555752D01*
X149287055Y-77591643D01*
X149290743Y-77626668D01*
X149293445Y-77662668D01*
X149295300Y-77701482D01*
X149296445Y-77744953D01*
X149297021Y-77794920D01*
X149297164Y-77852471D01*
X150980185Y-77852471D01*
X150979974Y-77836895D01*
X150978504Y-77777802D01*
X150976406Y-77720926D01*
X150973716Y-77668218D01*
X150970474Y-77621628D01*
X150966716Y-77583106D01*
X150966448Y-77580871D01*
X150940974Y-77411339D01*
X150906302Y-77246117D01*
X150862401Y-77085129D01*
X150809238Y-76928303D01*
X150746781Y-76775565D01*
X150675000Y-76626841D01*
X150593861Y-76482057D01*
X150503333Y-76341139D01*
X150403384Y-76204013D01*
X150335873Y-76119909D01*
X150310776Y-76090925D01*
X150279570Y-76056755D01*
X150243776Y-76018919D01*
X150204914Y-75978938D01*
X150164507Y-75938334D01*
X150124075Y-75898629D01*
X150085140Y-75861342D01*
X150049222Y-75827996D01*
X150017844Y-75800111D01*
X150006232Y-75790268D01*
X149889904Y-75697954D01*
X149772895Y-75614266D01*
X149653044Y-75537777D01*
X149528194Y-75467061D01*
X149475090Y-75439421D01*
X149329829Y-75370708D01*
X149182577Y-75311267D01*
X149032485Y-75260841D01*
X148878706Y-75219175D01*
X148720390Y-75186014D01*
X148556688Y-75161102D01*
X148545270Y-75159693D01*
X148507356Y-75155902D01*
X148461243Y-75152624D01*
X148408882Y-75149896D01*
X148352224Y-75147757D01*
X148293218Y-75146245D01*
X148233815Y-75145397D01*
X148175965Y-75145253D01*
X148121619Y-75145849D01*
X148121619Y-75145849D01*
G37*
X148121619Y-75145849D02*
X148072727Y-75147225D01*
X148031239Y-75149418D01*
X148028782Y-75149595D01*
X147862300Y-75166808D01*
X147698174Y-75193810D01*
X147536767Y-75230427D01*
X147378441Y-75276488D01*
X147223560Y-75331819D01*
X147072485Y-75396247D01*
X146925579Y-75469601D01*
X146783206Y-75551706D01*
X146645726Y-75642390D01*
X146513504Y-75741481D01*
X146386902Y-75848805D01*
X146266282Y-75964190D01*
X146221542Y-76010697D01*
X146110642Y-76135993D01*
X146008178Y-76266871D01*
X145914264Y-76403085D01*
X145829016Y-76544388D01*
X145752545Y-76690535D01*
X145684966Y-76841282D01*
X145626393Y-76996381D01*
X145576940Y-77155587D01*
X145536720Y-77318656D01*
X145505846Y-77485340D01*
X145492003Y-77585771D01*
X145489342Y-77613805D01*
X145486974Y-77650349D01*
X145484923Y-77693756D01*
X145483212Y-77742379D01*
X145481862Y-77794570D01*
X145480899Y-77848684D01*
X145480343Y-77903072D01*
X145480220Y-77956089D01*
X145480551Y-78006088D01*
X145481359Y-78051420D01*
X145482668Y-78090441D01*
X145484501Y-78121502D01*
X145484509Y-78121600D01*
X145502605Y-78285929D01*
X145530507Y-78448138D01*
X145568006Y-78607827D01*
X145614893Y-78764596D01*
X145670962Y-78918044D01*
X145736004Y-79067771D01*
X145809810Y-79213377D01*
X145892172Y-79354462D01*
X145982883Y-79490624D01*
X146081735Y-79621464D01*
X146188518Y-79746582D01*
X146303025Y-79865576D01*
X146425048Y-79978047D01*
X146469203Y-80015556D01*
X146600691Y-80118355D01*
X146737474Y-80212561D01*
X146879210Y-80298035D01*
X147025555Y-80374635D01*
X147176167Y-80442221D01*
X147330702Y-80500653D01*
X147488817Y-80549790D01*
X147650169Y-80589491D01*
X147814415Y-80619616D01*
X147981212Y-80640025D01*
X147996810Y-80641421D01*
X148028425Y-80643612D01*
X148067757Y-80645474D01*
X148112693Y-80646982D01*
X148161121Y-80648107D01*
X148210928Y-80648825D01*
X148260001Y-80649108D01*
X148306228Y-80648931D01*
X148347496Y-80648267D01*
X148381692Y-80647090D01*
X148394336Y-80646378D01*
X148563968Y-80630233D01*
X148730652Y-80604499D01*
X148894122Y-80569290D01*
X149054114Y-80524720D01*
X149210363Y-80470903D01*
X149362603Y-80407954D01*
X149510569Y-80335987D01*
X149653997Y-80255116D01*
X149792622Y-80165456D01*
X149926178Y-80067120D01*
X150054400Y-79960222D01*
X150115761Y-79904227D01*
X150234151Y-79786058D01*
X150344551Y-79661762D01*
X150446789Y-79531701D01*
X150540692Y-79396239D01*
X150626087Y-79255737D01*
X150702801Y-79110560D01*
X150770660Y-78961071D01*
X150829493Y-78807632D01*
X150879126Y-78650607D01*
X150919386Y-78490359D01*
X150950100Y-78327251D01*
X150971095Y-78161645D01*
X150976546Y-78097359D01*
X150978795Y-78056434D01*
X150980224Y-78007975D01*
X150980872Y-77953932D01*
X150980776Y-77896256D01*
X150980185Y-77852471D01*
X149297164Y-77852471D01*
X149296943Y-77913058D01*
X149296230Y-77965446D01*
X149294876Y-78011589D01*
X149292734Y-78053440D01*
X149289654Y-78092954D01*
X149285489Y-78132086D01*
X149280091Y-78172789D01*
X149273311Y-78217018D01*
X149266347Y-78258871D01*
X149241709Y-78383958D01*
X149209858Y-78513975D01*
X149171386Y-78647346D01*
X149126884Y-78782497D01*
X149076945Y-78917851D01*
X149022161Y-79051835D01*
X148963123Y-79182874D01*
X148900425Y-79309392D01*
X148834657Y-79429814D01*
X148810892Y-79470451D01*
X148785180Y-79512341D01*
X148760638Y-79549261D01*
X148735572Y-79583354D01*
X148708291Y-79616768D01*
X148677103Y-79651646D01*
X148640316Y-79690135D01*
X148626793Y-79703859D01*
X148558491Y-79770254D01*
X148492998Y-79828530D01*
X148428850Y-79879785D01*
X148364585Y-79925118D01*
X148298738Y-79965627D01*
X148229847Y-80002411D01*
X148227405Y-80003623D01*
X148160165Y-80034822D01*
X148092507Y-80061782D01*
X148023212Y-80084765D01*
X147951058Y-80104032D01*
X147874822Y-80119844D01*
X147793284Y-80132462D01*
X147705223Y-80142146D01*
X147609416Y-80149159D01*
X147528729Y-80152934D01*
X147514562Y-80152256D01*
X147493856Y-80149796D01*
X147469988Y-80145996D01*
X147456684Y-80143486D01*
X147350904Y-80117160D01*
X147246803Y-80080915D01*
X147144290Y-80034711D01*
X147043271Y-79978507D01*
X146964315Y-79926906D01*
X146928082Y-79900634D01*
X146887174Y-79869239D01*
X146843025Y-79833955D01*
X146797066Y-79796017D01*
X146750731Y-79756658D01*
X146705453Y-79717112D01*
X146662665Y-79678614D01*
X146623800Y-79642398D01*
X146590290Y-79609697D01*
X146563673Y-79581860D01*
X146513952Y-79524762D01*
X146465004Y-79464024D01*
X146417688Y-79400963D01*
X146372862Y-79336893D01*
X146331384Y-79273130D01*
X146294114Y-79210991D01*
X146261910Y-79151791D01*
X146235631Y-79096845D01*
X146217483Y-79051351D01*
X146205864Y-79014874D01*
X146199361Y-78985111D01*
X146197739Y-78960137D01*
X146200764Y-78938029D01*
X146202801Y-78930846D01*
X146211131Y-78897374D01*
X146217856Y-78854041D01*
X146222985Y-78800773D01*
X146224473Y-78778671D01*
X146226116Y-78755476D01*
X146227939Y-78736018D01*
X146229703Y-78722545D01*
X146230982Y-78717470D01*
X146237045Y-78713282D01*
X146249569Y-78707007D01*
X146261817Y-78701685D01*
X146297839Y-78683996D01*
X146327980Y-78662302D01*
X146352975Y-78635524D01*
X146373558Y-78602587D01*
X146390463Y-78562412D01*
X146404424Y-78513924D01*
X146411299Y-78482391D01*
X146419921Y-78428175D01*
X146426158Y-78365490D01*
X146430027Y-78295738D01*
X146431542Y-78220322D01*
X146430720Y-78140644D01*
X146427576Y-78058108D01*
X146422126Y-77974115D01*
X146414386Y-77890069D01*
X146404372Y-77807372D01*
X146403639Y-77802048D01*
X146395347Y-77750812D01*
X146384179Y-77696714D01*
X146369731Y-77638072D01*
X146351594Y-77573203D01*
X146335523Y-77520085D01*
X146325029Y-77484787D01*
X146318281Y-77458414D01*
X146315174Y-77440489D01*
X146315400Y-77431185D01*
X146316038Y-77424008D01*
X146316757Y-77407530D01*
X146317540Y-77382613D01*
X146318368Y-77350117D01*
X146319223Y-77310899D01*
X146320087Y-77265822D01*
X146320943Y-77215744D01*
X146321772Y-77161526D01*
X146322556Y-77104027D01*
X146323006Y-77067611D01*
X146323931Y-76993057D01*
X146324852Y-76927627D01*
X146325821Y-76870285D01*
X146326887Y-76819993D01*
X146328102Y-76775716D01*
X146329516Y-76736419D01*
X146331179Y-76701063D01*
X146333144Y-76668613D01*
X146335460Y-76638034D01*
X146338177Y-76608288D01*
X146341348Y-76578339D01*
X146345021Y-76547152D01*
X146349249Y-76513689D01*
X146350615Y-76503186D01*
X146359580Y-76440724D01*
X146370393Y-76375373D01*
X146382367Y-76310963D01*
X146394814Y-76251322D01*
X146399829Y-76229411D01*
X146405836Y-76203931D01*
X146411171Y-76181269D01*
X146415311Y-76163656D01*
X146417730Y-76153326D01*
X146417931Y-76152464D01*
X146423516Y-76142787D01*
X146436260Y-76128331D01*
X146454971Y-76110103D01*
X146478457Y-76089111D01*
X146505525Y-76066361D01*
X146534983Y-76042862D01*
X146565639Y-76019621D01*
X146596301Y-75997645D01*
X146620130Y-75981589D01*
X146713367Y-75926752D01*
X146812664Y-75879856D01*
X146918145Y-75840856D01*
X147029931Y-75809706D01*
X147148145Y-75786364D01*
X147158610Y-75784720D01*
X147203233Y-75779185D01*
X147255484Y-75774924D01*
X147312907Y-75771980D01*
X147373046Y-75770399D01*
X147433443Y-75770227D01*
X147491641Y-75771507D01*
X147545184Y-75774285D01*
X147577710Y-75777055D01*
X147714725Y-75795067D01*
X147846141Y-75820439D01*
X147971656Y-75853054D01*
X148090965Y-75892798D01*
X148203768Y-75939553D01*
X148309760Y-75993205D01*
X148408639Y-76053638D01*
X148500102Y-76120735D01*
X148520723Y-76137656D01*
X148553912Y-76166675D01*
X148586304Y-76197619D01*
X148619395Y-76232061D01*
X148654681Y-76271569D01*
X148693658Y-76317715D01*
X148702513Y-76328471D01*
X148806124Y-76460923D01*
X148899651Y-76593378D01*
X148983172Y-76725988D01*
X149056762Y-76858907D01*
X149120497Y-76992289D01*
X149174453Y-77126289D01*
X149218706Y-77261058D01*
X149253333Y-77396752D01*
X149268691Y-77474011D01*
X149276168Y-77517155D01*
X149282243Y-77555752D01*
X149287055Y-77591643D01*
X149290743Y-77626668D01*
X149293445Y-77662668D01*
X149295300Y-77701482D01*
X149296445Y-77744953D01*
X149297021Y-77794920D01*
X149297164Y-77852471D01*
X150980185Y-77852471D01*
X150979974Y-77836895D01*
X150978504Y-77777802D01*
X150976406Y-77720926D01*
X150973716Y-77668218D01*
X150970474Y-77621628D01*
X150966716Y-77583106D01*
X150966448Y-77580871D01*
X150940974Y-77411339D01*
X150906302Y-77246117D01*
X150862401Y-77085129D01*
X150809238Y-76928303D01*
X150746781Y-76775565D01*
X150675000Y-76626841D01*
X150593861Y-76482057D01*
X150503333Y-76341139D01*
X150403384Y-76204013D01*
X150335873Y-76119909D01*
X150310776Y-76090925D01*
X150279570Y-76056755D01*
X150243776Y-76018919D01*
X150204914Y-75978938D01*
X150164507Y-75938334D01*
X150124075Y-75898629D01*
X150085140Y-75861342D01*
X150049222Y-75827996D01*
X150017844Y-75800111D01*
X150006232Y-75790268D01*
X149889904Y-75697954D01*
X149772895Y-75614266D01*
X149653044Y-75537777D01*
X149528194Y-75467061D01*
X149475090Y-75439421D01*
X149329829Y-75370708D01*
X149182577Y-75311267D01*
X149032485Y-75260841D01*
X148878706Y-75219175D01*
X148720390Y-75186014D01*
X148556688Y-75161102D01*
X148545270Y-75159693D01*
X148507356Y-75155902D01*
X148461243Y-75152624D01*
X148408882Y-75149896D01*
X148352224Y-75147757D01*
X148293218Y-75146245D01*
X148233815Y-75145397D01*
X148175965Y-75145253D01*
X148121619Y-75145849D01*
D11*
G36*
X173817396Y-82435546D02*
X173990466Y-82507234D01*
X174146230Y-82611312D01*
X174278688Y-82743770D01*
X174382766Y-82899534D01*
X174454454Y-83072604D01*
X174491000Y-83256333D01*
X174491000Y-83443667D01*
X174454454Y-83627396D01*
X174382766Y-83800466D01*
X174278688Y-83956230D01*
X174146230Y-84088688D01*
X173990466Y-84192766D01*
X173817396Y-84264454D01*
X173633667Y-84301000D01*
X173446333Y-84301000D01*
X173262604Y-84264454D01*
X173089534Y-84192766D01*
X172933770Y-84088688D01*
X172801312Y-83956230D01*
X172697234Y-83800466D01*
X172625546Y-83627396D01*
X172589000Y-83443667D01*
X172589000Y-83256333D01*
X172625546Y-83072604D01*
X172697234Y-82899534D01*
X172801312Y-82743770D01*
X172933770Y-82611312D01*
X173089534Y-82507234D01*
X173262604Y-82435546D01*
X173446333Y-82399000D01*
X173633667Y-82399000D01*
X173817396Y-82435546D01*
X173817396Y-82435546D01*
G37*
G36*
X171277396Y-81165546D02*
X171450466Y-81237234D01*
X171606230Y-81341312D01*
X171738688Y-81473770D01*
X171842766Y-81629534D01*
X171914454Y-81802604D01*
X171951000Y-81986333D01*
X171951000Y-82173667D01*
X171914454Y-82357396D01*
X171842766Y-82530466D01*
X171738688Y-82686230D01*
X171606230Y-82818688D01*
X171450466Y-82922766D01*
X171277396Y-82994454D01*
X171093667Y-83031000D01*
X170906333Y-83031000D01*
X170722604Y-82994454D01*
X170549534Y-82922766D01*
X170393770Y-82818688D01*
X170261312Y-82686230D01*
X170157234Y-82530466D01*
X170085546Y-82357396D01*
X170049000Y-82173667D01*
X170049000Y-81986333D01*
X170085546Y-81802604D01*
X170157234Y-81629534D01*
X170261312Y-81473770D01*
X170393770Y-81341312D01*
X170549534Y-81237234D01*
X170722604Y-81165546D01*
X170906333Y-81129000D01*
X171093667Y-81129000D01*
X171277396Y-81165546D01*
X171277396Y-81165546D01*
G37*
G36*
X173817396Y-79895546D02*
X173990466Y-79967234D01*
X174146230Y-80071312D01*
X174278688Y-80203770D01*
X174382766Y-80359534D01*
X174454454Y-80532604D01*
X174491000Y-80716333D01*
X174491000Y-80903667D01*
X174454454Y-81087396D01*
X174382766Y-81260466D01*
X174278688Y-81416230D01*
X174146230Y-81548688D01*
X173990466Y-81652766D01*
X173817396Y-81724454D01*
X173633667Y-81761000D01*
X173446333Y-81761000D01*
X173262604Y-81724454D01*
X173089534Y-81652766D01*
X172933770Y-81548688D01*
X172801312Y-81416230D01*
X172697234Y-81260466D01*
X172625546Y-81087396D01*
X172589000Y-80903667D01*
X172589000Y-80716333D01*
X172625546Y-80532604D01*
X172697234Y-80359534D01*
X172801312Y-80203770D01*
X172933770Y-80071312D01*
X173089534Y-79967234D01*
X173262604Y-79895546D01*
X173446333Y-79859000D01*
X173633667Y-79859000D01*
X173817396Y-79895546D01*
X173817396Y-79895546D01*
G37*
G36*
X171277396Y-78625546D02*
X171450466Y-78697234D01*
X171606230Y-78801312D01*
X171738688Y-78933770D01*
X171842766Y-79089534D01*
X171914454Y-79262604D01*
X171951000Y-79446333D01*
X171951000Y-79633667D01*
X171914454Y-79817396D01*
X171842766Y-79990466D01*
X171738688Y-80146230D01*
X171606230Y-80278688D01*
X171450466Y-80382766D01*
X171277396Y-80454454D01*
X171093667Y-80491000D01*
X170906333Y-80491000D01*
X170722604Y-80454454D01*
X170549534Y-80382766D01*
X170393770Y-80278688D01*
X170261312Y-80146230D01*
X170157234Y-79990466D01*
X170085546Y-79817396D01*
X170049000Y-79633667D01*
X170049000Y-79446333D01*
X170085546Y-79262604D01*
X170157234Y-79089534D01*
X170261312Y-78933770D01*
X170393770Y-78801312D01*
X170549534Y-78697234D01*
X170722604Y-78625546D01*
X170906333Y-78589000D01*
X171093667Y-78589000D01*
X171277396Y-78625546D01*
X171277396Y-78625546D01*
G37*
G36*
X173817396Y-77355546D02*
X173990466Y-77427234D01*
X174146230Y-77531312D01*
X174278688Y-77663770D01*
X174382766Y-77819534D01*
X174454454Y-77992604D01*
X174491000Y-78176333D01*
X174491000Y-78363667D01*
X174454454Y-78547396D01*
X174382766Y-78720466D01*
X174278688Y-78876230D01*
X174146230Y-79008688D01*
X173990466Y-79112766D01*
X173817396Y-79184454D01*
X173633667Y-79221000D01*
X173446333Y-79221000D01*
X173262604Y-79184454D01*
X173089534Y-79112766D01*
X172933770Y-79008688D01*
X172801312Y-78876230D01*
X172697234Y-78720466D01*
X172625546Y-78547396D01*
X172589000Y-78363667D01*
X172589000Y-78176333D01*
X172625546Y-77992604D01*
X172697234Y-77819534D01*
X172801312Y-77663770D01*
X172933770Y-77531312D01*
X173089534Y-77427234D01*
X173262604Y-77355546D01*
X173446333Y-77319000D01*
X173633667Y-77319000D01*
X173817396Y-77355546D01*
X173817396Y-77355546D01*
G37*
G36*
X173033655Y-74829733D02*
X173033657Y-74829734D01*
X173033658Y-74829734D01*
X173087509Y-74852040D01*
X173179440Y-74890119D01*
X173310643Y-74977786D01*
X173422214Y-75089357D01*
X173509881Y-75220560D01*
X173570267Y-75366345D01*
X173601050Y-75521102D01*
X173601050Y-75678898D01*
X173570267Y-75833655D01*
X173509881Y-75979440D01*
X173422214Y-76110643D01*
X173310643Y-76222214D01*
X173179440Y-76309881D01*
X173087509Y-76347960D01*
X173033658Y-76370266D01*
X173033657Y-76370266D01*
X173033655Y-76370267D01*
X172878898Y-76401050D01*
X172721102Y-76401050D01*
X172566345Y-76370267D01*
X172566343Y-76370266D01*
X172566342Y-76370266D01*
X172512491Y-76347960D01*
X172420560Y-76309881D01*
X172289357Y-76222214D01*
X172175050Y-76107907D01*
X172164388Y-76094915D01*
X172145446Y-76079370D01*
X172123835Y-76067819D01*
X172100386Y-76060706D01*
X172075999Y-76058304D01*
X172051613Y-76060706D01*
X172028164Y-76067819D01*
X172006553Y-76079371D01*
X171987611Y-76094916D01*
X171972066Y-76113858D01*
X171960515Y-76135469D01*
X171953402Y-76158918D01*
X171951000Y-76183304D01*
X171951000Y-77951000D01*
X170049000Y-77951000D01*
X170049000Y-76049000D01*
X171931855Y-76049000D01*
X171956241Y-76046598D01*
X171979690Y-76039485D01*
X172001301Y-76027934D01*
X172020243Y-76012388D01*
X172035789Y-75993446D01*
X172047340Y-75971835D01*
X172054453Y-75948386D01*
X172056855Y-75924000D01*
X172054453Y-75899614D01*
X172047340Y-75876165D01*
X172029733Y-75833658D01*
X171998950Y-75678898D01*
X171998950Y-75521102D01*
X172029733Y-75366345D01*
X172090119Y-75220560D01*
X172177786Y-75089357D01*
X172289357Y-74977786D01*
X172420560Y-74890119D01*
X172512491Y-74852040D01*
X172566342Y-74829734D01*
X172566343Y-74829734D01*
X172566345Y-74829733D01*
X172721102Y-74798950D01*
X172878898Y-74798950D01*
X173033655Y-74829733D01*
X173033655Y-74829733D01*
G37*
M02*
