<?xml version="1.0" standalone="no"?>
<!DOCTYPE svg PUBLIC "-//W3C//DTD SVG 1.1//EN"
"http://www.w3.org/Graphics/SVG/1.1/DTD/svg11.dtd">
<svg width="151.37" height="119.244" viewBox="0 0 3153.54 2484.25" version="1.1"
xmlns="http://www.w3.org/2000/svg"
xmlns:xlink="http://www.w3.org/1999/xlink">
<circle cx="1978.3" cy="1427.1" r="31.5" style=""/>
<circle cx="1978.3" cy="1820.9" r="31.5" style=""/>
<circle cx="2391.7" cy="1820.9" r="31.5" style=""/>
<circle cx="2391.7" cy="1427.1" r="31.5" style=""/>
<circle cx="2391.7" cy="659.498" r="31.5" style=""/>
<circle cx="1998.1" cy="659.498" r="31.5" style=""/>
<circle cx="1998.1" cy="265.698" r="31.5" style=""/>
<circle cx="2391.7" cy="265.698" r="31.5" style=""/>
<circle cx="234.298" cy="1454.7" r="39.4" style=""/>
<circle cx="234.298" cy="1654.7" r="39.4" style=""/>
<circle cx="1564.9" cy="1927.1" r="39.4" style=""/>
<circle cx="1564.9" cy="1604.3" r="39.4" style=""/>
<circle cx="1564.9" cy="935.098" r="39.4" style=""/>
<circle cx="1564.9" cy="620.098" r="39.4" style=""/>
<circle cx="2746.1" cy="361.098" r="39.4" style=""/>
<circle cx="2746.1" cy="561.098" r="39.4" style=""/>
<circle cx="2746.1" cy="1522.5" r="39.4" style=""/>
<circle cx="2746.1" cy="1722.5" r="39.4" style=""/>
<circle cx="305.098" cy="305.098" r="86.6" style=""/>
<circle cx="285.498" cy="2194.9" r="86.6" style=""/>
<circle cx="2856.3" cy="2084.7" r="86.6" style=""/>
<circle cx="2864.1" cy="915.298" r="86.6" style=""/>
</svg>
