<?xml version="1.0" standalone="no"?>
<!DOCTYPE svg PUBLIC "-//W3C//DTD SVG 1.1//EN"
"http://www.w3.org/Graphics/SVG/1.1/DTD/svg11.dtd">
<svg width="138.357" height="140.606" viewBox="0 0 2882.45 2929.29" version="1.1"
xmlns="http://www.w3.org/2000/svg"
xmlns:xlink="http://www.w3.org/1999/xlink">
<g fill-rule="evenodd"><path d="M 219.828,2731.83 L 236.322,2738.66 L 251.166,2748.58 L 263.789,2761.2 L 273.708,2776.05 L 280.54,2792.54 L 284.022,2810.05 L 284.022,2827.9 L 280.54,2845.41 L 273.708,2861.91 L 263.789,2876.75 L 251.166,2889.37 L 236.322,2899.29 L 219.828,2906.12 L 202.319,2909.61 L 184.466,2909.61 L 166.957,2906.12 L 150.463,2899.29 L 135.619,2889.37 L 122.996,2876.75 L 113.077,2861.91 L 106.245,2845.41 L 102.763,2827.9 L 102.763,2810.05 L 106.245,2792.54 L 113.077,2776.05 L 122.996,2761.2 L 135.619,2748.58 L 150.463,2738.66 L 166.957,2731.83 L 184.466,2728.35 L 202.319,2728.35 L 219.828,2731.83 z " style="fill-opacity:1.000000;fill:rgb(103,198,105);stroke:rgb(0,0,0);stroke-width:2"/></g>
<g fill-rule="evenodd"><path d="M 1218.98,2852.44 L 1065.44,2852.44 L 1065.44,2588.66 L 1218.98,2588.66 L 1218.98,2852.44 z " style="fill-opacity:1.000000;fill:rgb(115,81,255);stroke:rgb(0,0,0);stroke-width:2"/></g>
<g fill-rule="evenodd"><path d="M 778.038,2852.44 L 624.495,2852.44 L 624.495,2588.66 L 778.038,2588.66 L 778.038,2852.44 z " style="fill-opacity:1.000000;fill:rgb(74,236,41);stroke:rgb(0,0,0);stroke-width:2"/></g>
<g fill-rule="evenodd"><path d="M 2327.45,2562.18 L 2335.31,2563.75 L 2357.54,2572.95 L 2377.54,2586.32 L 2394.55,2603.33 L 2407.92,2623.33 L 2417.12,2645.56 L 2421.82,2669.15 L 2421.82,2693.21 L 2417.12,2716.8 L 2407.92,2739.03 L 2394.55,2759.03 L 2377.54,2776.04 L 2357.54,2789.41 L 2335.31,2798.61 L 2311.72,2803.31 L 2287.66,2803.31 L 2264.07,2798.61 L 2241.84,2789.41 L 2221.84,2776.04 L 2204.83,2759.03 L 2191.47,2739.03 L 2182.26,2716.8 L 2177.57,2693.21 L 2177.57,2669.15 L 2182.26,2645.56 L 2191.47,2623.33 L 2204.83,2603.33 L 2221.84,2586.32 L 2241.84,2572.95 L 2264.07,2563.75 L 2287.66,2559.06 L 2311.72,2559.06 L 2327.45,2562.18 z " style="fill-opacity:1.000000;fill:rgb(205,186,171);stroke:rgb(0,0,0);stroke-width:2"/></g>
<g fill-rule="evenodd"><path d="M 1914.06,2562.18 L 1921.93,2563.75 L 1944.15,2572.95 L 1964.16,2586.32 L 1981.17,2603.33 L 1994.53,2623.33 L 2003.74,2645.56 L 2008.43,2669.15 L 2008.43,2693.21 L 2003.74,2716.8 L 1994.53,2739.03 L 1981.17,2759.03 L 1964.16,2776.04 L 1944.15,2789.41 L 1921.93,2798.61 L 1898.33,2803.31 L 1874.28,2803.31 L 1850.68,2798.61 L 1828.46,2789.41 L 1808.46,2776.04 L 1791.44,2759.03 L 1778.08,2739.03 L 1768.87,2716.8 L 1764.18,2693.21 L 1764.18,2669.15 L 1768.87,2645.56 L 1778.08,2623.33 L 1791.44,2603.33 L 1808.46,2586.32 L 1828.46,2572.95 L 1850.68,2563.75 L 1874.28,2559.06 L 1898.33,2559.06 L 1914.06,2562.18 z " style="fill-opacity:1.000000;fill:rgb(242,251,227);stroke:rgb(0,0,0);stroke-width:2"/></g>
<g fill-rule="evenodd"><path d="M 2776.15,2665.51 L 2531.9,2665.51 L 2531.9,2500 L 2776.15,2500 L 2776.15,2665.51 z " style="fill-opacity:1.000000;fill:rgb(70,124,194);stroke:rgb(0,0,0);stroke-width:2"/></g>
<g fill-rule="evenodd"><path d="M 1575.36,2547.4 L 1331.11,2547.4 L 1331.11,2303.15 L 1575.36,2303.15 L 1575.36,2547.4 z " style="fill-opacity:1.000000;fill:rgb(84,248,27);stroke:rgb(0,0,0);stroke-width:2"/></g>
<g fill-rule="evenodd"><path d="M 2699.89,2300.24 L 2709.62,2301.2 L 2725.22,2305.93 L 2739.59,2313.61 L 2752.19,2323.96 L 2762.53,2336.56 L 2770.22,2350.93 L 2774.95,2366.53 L 2776.55,2382.76 L 2774.95,2398.98 L 2770.22,2414.58 L 2762.53,2428.96 L 2752.19,2441.56 L 2739.59,2451.9 L 2725.22,2459.58 L 2709.62,2464.31 L 2697.46,2465.51 L 2610.59,2465.51 L 2598.43,2464.31 L 2582.83,2459.58 L 2568.45,2451.9 L 2555.85,2441.56 L 2545.51,2428.96 L 2537.83,2414.58 L 2533.09,2398.98 L 2531.5,2382.76 L 2533.09,2366.53 L 2537.83,2350.93 L 2545.51,2336.56 L 2555.85,2323.96 L 2568.45,2313.61 L 2582.83,2305.93 L 2598.43,2301.2 L 2610.59,2300 L 2697.46,2300 L 2699.89,2300.24 z " style="fill-opacity:1.000000;fill:rgb(232,231,141);stroke:rgb(0,0,0);stroke-width:2"/></g>
<g fill-rule="evenodd"><path d="M 774.18,2465.12 L 644.101,2465.12 L 644.101,2409.84 L 774.18,2409.84 L 774.18,2465.12 z " style="fill-opacity:1.000000;fill:rgb(118,90,46);stroke:rgb(0,0,0);stroke-width:2"/></g>
<g fill-rule="evenodd"><path d="M 1199.38,2465.12 L 1069.3,2465.12 L 1069.3,2409.84 L 1199.38,2409.84 L 1199.38,2465.12 z " style="fill-opacity:1.000000;fill:rgb(99,51,159);stroke:rgb(0,0,0);stroke-width:2"/></g>
<g fill-rule="evenodd"><path d="M 1914.06,2168.48 L 1921.93,2170.05 L 1944.15,2179.25 L 1964.16,2192.62 L 1981.17,2209.63 L 1994.53,2229.63 L 2003.74,2251.86 L 2008.43,2275.45 L 2008.43,2299.51 L 2003.74,2323.1 L 1994.53,2345.33 L 1981.17,2365.33 L 1964.16,2382.34 L 1944.15,2395.71 L 1921.93,2404.91 L 1898.33,2409.61 L 1874.28,2409.61 L 1850.68,2404.91 L 1828.46,2395.71 L 1808.46,2382.34 L 1791.44,2365.33 L 1778.08,2345.33 L 1768.87,2323.1 L 1764.18,2299.51 L 1764.18,2275.45 L 1768.87,2251.86 L 1778.08,2229.63 L 1791.44,2209.63 L 1808.46,2192.62 L 1828.46,2179.25 L 1850.68,2170.05 L 1874.28,2165.35 L 1898.33,2165.35 L 1914.06,2168.48 z " style="fill-opacity:1.000000;fill:rgb(201,154,102);stroke:rgb(0,0,0);stroke-width:2"/></g>
<g fill-rule="evenodd"><path d="M 2327.45,2168.48 L 2335.31,2170.05 L 2357.54,2179.25 L 2377.54,2192.62 L 2394.55,2209.63 L 2407.92,2229.63 L 2417.12,2251.86 L 2421.82,2275.45 L 2421.82,2299.51 L 2417.12,2323.1 L 2407.92,2345.33 L 2394.55,2365.33 L 2377.54,2382.34 L 2357.54,2395.71 L 2335.31,2404.91 L 2311.72,2409.61 L 2287.66,2409.61 L 2264.07,2404.91 L 2241.84,2395.71 L 2221.84,2382.34 L 2204.83,2365.33 L 2191.47,2345.33 L 2182.26,2323.1 L 2177.57,2299.51 L 2177.57,2275.45 L 2182.26,2251.86 L 2191.47,2229.63 L 2204.83,2209.63 L 2221.84,2192.62 L 2241.84,2179.25 L 2264.07,2170.05 L 2287.66,2165.35 L 2311.72,2165.35 L 2327.45,2168.48 z " style="fill-opacity:1.000000;fill:rgb(50,13,183);stroke:rgb(0,0,0);stroke-width:2"/></g>
<g fill-rule="evenodd"><path d="M 774.18,2365.12 L 644.101,2365.12 L 644.101,2309.84 L 774.18,2309.84 L 774.18,2365.12 z " style="fill-opacity:1.000000;fill:rgb(49,88,163);stroke:rgb(0,0,0);stroke-width:2"/></g>
<g fill-rule="evenodd"><path d="M 1199.38,2365.12 L 1069.3,2365.12 L 1069.3,2309.84 L 1199.38,2309.84 L 1199.38,2365.12 z " style="fill-opacity:1.000000;fill:rgb(90,37,93);stroke:rgb(0,0,0);stroke-width:2"/></g>
<g fill-rule="evenodd"><path d="M 774.18,2265.12 L 644.101,2265.12 L 644.101,2209.84 L 774.18,2209.84 L 774.18,2265.12 z " style="fill-opacity:1.000000;fill:rgb(5,23,88);stroke:rgb(0,0,0);stroke-width:2"/></g>
<g fill-rule="evenodd"><path d="M 1199.38,2265.12 L 1069.3,2265.12 L 1069.3,2209.84 L 1199.38,2209.84 L 1199.38,2265.12 z " style="fill-opacity:1.000000;fill:rgb(233,94,212);stroke:rgb(0,0,0);stroke-width:2"/></g>
<g fill-rule="evenodd"><path d="M 774.18,2165.12 L 644.101,2165.12 L 644.101,2109.84 L 774.18,2109.84 L 774.18,2165.12 z " style="fill-opacity:1.000000;fill:rgb(171,178,205);stroke:rgb(0,0,0);stroke-width:2"/></g>
<g fill-rule="evenodd"><path d="M 1199.38,2165.12 L 1069.3,2165.12 L 1069.3,2109.84 L 1199.38,2109.84 L 1199.38,2165.12 z " style="fill-opacity:1.000000;fill:rgb(198,155,180);stroke:rgb(0,0,0);stroke-width:2"/></g>
<g fill-rule="evenodd"><path d="M 2798.57,1885.37 L 2815.06,1892.2 L 2829.91,1902.12 L 2842.53,1914.75 L 2852.45,1929.59 L 2859.28,1946.08 L 2862.76,1963.59 L 2862.76,1981.45 L 2859.28,1998.96 L 2852.45,2015.45 L 2842.53,2030.29 L 2829.91,2042.92 L 2815.06,2052.83 L 2798.57,2059.67 L 2781.06,2063.15 L 2763.21,2063.15 L 2745.7,2059.67 L 2729.2,2052.83 L 2714.36,2042.92 L 2701.74,2030.29 L 2691.82,2015.45 L 2684.99,1998.96 L 2681.5,1981.45 L 2681.5,1963.59 L 2684.99,1946.08 L 2691.82,1929.59 L 2701.74,1914.75 L 2714.36,1902.12 L 2729.2,1892.2 L 2745.7,1885.37 L 2763.21,1881.89 L 2781.06,1881.89 L 2798.57,1885.37 z " style="fill-opacity:1.000000;fill:rgb(84,17,14);stroke:rgb(0,0,0);stroke-width:2"/></g>
<g fill-rule="evenodd"><path d="M 1218.98,1868.19 L 1065.44,1868.19 L 1065.44,1604.41 L 1218.98,1604.41 L 1218.98,1868.19 z " style="fill-opacity:1.000000;fill:rgb(130,116,65);stroke:rgb(0,0,0);stroke-width:2"/></g>
<g fill-rule="evenodd"><path d="M 778.038,1868.19 L 624.495,1868.19 L 624.495,1604.41 L 778.038,1604.41 L 778.038,1868.19 z " style="fill-opacity:1.000000;fill:rgb(33,61,220);stroke:rgb(0,0,0);stroke-width:2"/></g>
<g fill-rule="evenodd"><path d="M 2327.45,1558.25 L 2335.31,1559.81 L 2357.54,1569.02 L 2377.54,1582.38 L 2394.55,1599.39 L 2407.92,1619.4 L 2417.12,1641.62 L 2421.82,1665.22 L 2421.82,1689.27 L 2417.12,1712.87 L 2407.92,1735.09 L 2394.55,1755.09 L 2377.54,1772.11 L 2357.54,1785.47 L 2335.31,1794.68 L 2311.72,1799.37 L 2287.66,1799.37 L 2264.07,1794.68 L 2241.84,1785.47 L 2221.84,1772.11 L 2204.83,1755.09 L 2191.47,1735.09 L 2182.26,1712.87 L 2177.57,1689.27 L 2177.57,1665.22 L 2182.26,1641.62 L 2191.47,1619.4 L 2204.83,1599.39 L 2221.84,1582.38 L 2241.84,1569.02 L 2264.07,1559.81 L 2287.66,1555.12 L 2311.72,1555.12 L 2327.45,1558.25 z " style="fill-opacity:1.000000;fill:rgb(135,112,233);stroke:rgb(0,0,0);stroke-width:2"/></g>
<g fill-rule="evenodd"><path d="M 1914.06,1558.25 L 1921.93,1559.81 L 1944.15,1569.02 L 1964.16,1582.38 L 1981.17,1599.39 L 1994.53,1619.4 L 2003.74,1641.62 L 2008.43,1665.22 L 2008.43,1689.27 L 2003.74,1712.87 L 1994.53,1735.09 L 1981.17,1755.09 L 1964.16,1772.11 L 1944.15,1785.47 L 1921.93,1794.68 L 1898.33,1799.37 L 1874.28,1799.37 L 1850.68,1794.68 L 1828.46,1785.47 L 1808.46,1772.11 L 1791.44,1755.09 L 1778.08,1735.09 L 1768.87,1712.87 L 1764.18,1689.27 L 1764.18,1665.22 L 1768.87,1641.62 L 1778.08,1619.4 L 1791.44,1599.39 L 1808.46,1582.38 L 1828.46,1569.02 L 1850.68,1559.81 L 1874.28,1555.12 L 1898.33,1555.12 L 1914.06,1558.25 z " style="fill-opacity:1.000000;fill:rgb(62,161,65);stroke:rgb(0,0,0);stroke-width:2"/></g>
<g fill-rule="evenodd"><path d="M 188.078,1628.59 L 197.804,1629.54 L 213.404,1634.28 L 227.781,1641.96 L 240.382,1652.3 L 250.723,1664.9 L 258.408,1679.28 L 263.14,1694.88 L 264.738,1711.1 L 263.14,1727.33 L 258.408,1742.92 L 250.723,1757.3 L 240.382,1769.9 L 227.781,1780.24 L 213.404,1787.93 L 197.804,1792.66 L 185.647,1793.86 L 98.7759,1793.86 L 86.6183,1792.66 L 71.0188,1787.93 L 56.6422,1780.24 L 44.0409,1769.9 L 33.6994,1757.3 L 26.015,1742.92 L 21.2828,1727.33 L 19.685,1711.1 L 21.2828,1694.88 L 26.015,1679.28 L 33.6994,1664.9 L 44.0409,1652.3 L 56.6422,1641.96 L 71.0188,1634.28 L 86.6183,1629.54 L 98.7759,1628.35 L 185.647,1628.35 L 188.078,1628.59 z " style="fill-opacity:1.000000;fill:rgb(225,252,103);stroke:rgb(0,0,0);stroke-width:2"/></g>
<g fill-rule="evenodd"><path d="M 2776.15,1661.57 L 2531.9,1661.57 L 2531.9,1496.06 L 2776.15,1496.06 L 2776.15,1661.57 z " style="fill-opacity:1.000000;fill:rgb(62,1,126);stroke:rgb(0,0,0);stroke-width:2"/></g>
<g fill-rule="evenodd"><path d="M 188.078,1428.59 L 197.804,1429.54 L 213.404,1434.28 L 227.781,1441.96 L 240.382,1452.3 L 250.723,1464.9 L 258.408,1479.28 L 263.14,1494.88 L 264.738,1511.1 L 263.14,1527.33 L 258.408,1542.92 L 250.723,1557.3 L 240.382,1569.9 L 227.781,1580.24 L 213.404,1587.93 L 197.804,1592.66 L 185.647,1593.86 L 98.7759,1593.86 L 86.6183,1592.66 L 71.0188,1587.93 L 56.6422,1580.24 L 44.0409,1569.9 L 33.6994,1557.3 L 26.015,1542.92 L 21.2828,1527.33 L 19.685,1511.1 L 21.2828,1494.88 L 26.015,1479.28 L 33.6994,1464.9 L 44.0409,1452.3 L 56.6422,1441.96 L 71.0188,1434.28 L 86.6183,1429.54 L 98.7759,1428.35 L 185.647,1428.35 L 188.078,1428.59 z " style="fill-opacity:1.000000;fill:rgb(151,234,220);stroke:rgb(0,0,0);stroke-width:2"/></g>
<g fill-rule="evenodd"><path d="M 1575.36,1582.83 L 1331.11,1582.83 L 1331.11,1338.58 L 1575.36,1338.58 L 1575.36,1582.83 z " style="fill-opacity:1.000000;fill:rgb(107,150,143);stroke:rgb(0,0,0);stroke-width:2"/></g>
<g fill-rule="evenodd"><path d="M 1199.38,1480.87 L 1069.3,1480.87 L 1069.3,1425.59 L 1199.38,1425.59 L 1199.38,1480.87 z " style="fill-opacity:1.000000;fill:rgb(56,92,42);stroke:rgb(0,0,0);stroke-width:2"/></g>
<g fill-rule="evenodd"><path d="M 774.18,1480.87 L 644.101,1480.87 L 644.101,1425.59 L 774.18,1425.59 L 774.18,1480.87 z " style="fill-opacity:1.000000;fill:rgb(236,176,59);stroke:rgb(0,0,0);stroke-width:2"/></g>
<g fill-rule="evenodd"><path d="M 2699.89,1296.3 L 2709.62,1297.26 L 2725.22,1301.99 L 2739.59,1309.68 L 2752.19,1320.02 L 2762.53,1332.62 L 2770.22,1347 L 2774.95,1362.6 L 2776.55,1378.82 L 2774.95,1395.04 L 2770.22,1410.64 L 2762.53,1425.02 L 2752.19,1437.62 L 2739.59,1447.96 L 2725.22,1455.65 L 2709.62,1460.38 L 2697.46,1461.57 L 2610.59,1461.57 L 2598.43,1460.38 L 2582.83,1455.65 L 2568.45,1447.96 L 2555.85,1437.62 L 2545.51,1425.02 L 2537.83,1410.64 L 2533.09,1395.04 L 2531.5,1378.82 L 2533.09,1362.6 L 2537.83,1347 L 2545.51,1332.62 L 2555.85,1320.02 L 2568.45,1309.68 L 2582.83,1301.99 L 2598.43,1297.26 L 2610.59,1296.06 L 2697.46,1296.06 L 2699.89,1296.3 z " style="fill-opacity:1.000000;fill:rgb(251,50,175);stroke:rgb(0,0,0);stroke-width:2"/></g>
<g fill-rule="evenodd"><path d="M 1914.06,1164.55 L 1921.93,1166.11 L 1944.15,1175.32 L 1964.16,1188.68 L 1981.17,1205.69 L 1994.53,1225.69 L 2003.74,1247.92 L 2008.43,1271.51 L 2008.43,1295.57 L 2003.74,1319.17 L 1994.53,1341.39 L 1981.17,1361.39 L 1964.16,1378.4 L 1944.15,1391.77 L 1921.93,1400.98 L 1898.33,1405.67 L 1874.28,1405.67 L 1850.68,1400.98 L 1828.46,1391.77 L 1808.46,1378.4 L 1791.44,1361.39 L 1778.08,1341.39 L 1768.87,1319.17 L 1764.18,1295.57 L 1764.18,1271.51 L 1768.87,1247.92 L 1778.08,1225.69 L 1791.44,1205.69 L 1808.46,1188.68 L 1828.46,1175.32 L 1850.68,1166.11 L 1874.28,1161.42 L 1898.33,1161.42 L 1914.06,1164.55 z " style="fill-opacity:1.000000;fill:rgb(60,84,236);stroke:rgb(0,0,0);stroke-width:2"/></g>
<g fill-rule="evenodd"><path d="M 2327.45,1164.55 L 2335.31,1166.11 L 2357.54,1175.32 L 2377.54,1188.68 L 2394.55,1205.69 L 2407.92,1225.69 L 2417.12,1247.92 L 2421.82,1271.51 L 2421.82,1295.57 L 2417.12,1319.17 L 2407.92,1341.39 L 2394.55,1361.39 L 2377.54,1378.4 L 2357.54,1391.77 L 2335.31,1400.98 L 2311.72,1405.67 L 2287.66,1405.67 L 2264.07,1400.98 L 2241.84,1391.77 L 2221.84,1378.4 L 2204.83,1361.39 L 2191.47,1341.39 L 2182.26,1319.17 L 2177.57,1295.57 L 2177.57,1271.51 L 2182.26,1247.92 L 2191.47,1225.69 L 2204.83,1205.69 L 2221.84,1188.68 L 2241.84,1175.32 L 2264.07,1166.11 L 2287.66,1161.42 L 2311.72,1161.42 L 2327.45,1164.55 z " style="fill-opacity:1.000000;fill:rgb(24,219,92);stroke:rgb(0,0,0);stroke-width:2"/></g>
<g fill-rule="evenodd"><path d="M 264.337,1393.86 L 20.0854,1393.86 L 20.0854,1228.35 L 264.337,1228.35 L 264.337,1393.86 z " style="fill-opacity:1.000000;fill:rgb(2,26,254);stroke:rgb(0,0,0);stroke-width:2"/></g>
<g fill-rule="evenodd"><path d="M 1199.38,1380.87 L 1069.3,1380.87 L 1069.3,1325.59 L 1199.38,1325.59 L 1199.38,1380.87 z " style="fill-opacity:1.000000;fill:rgb(67,251,250);stroke:rgb(0,0,0);stroke-width:2"/></g>
<g fill-rule="evenodd"><path d="M 774.18,1380.87 L 644.101,1380.87 L 644.101,1325.59 L 774.18,1325.59 L 774.18,1380.87 z " style="fill-opacity:1.000000;fill:rgb(170,58,251);stroke:rgb(0,0,0);stroke-width:2"/></g>
<g fill-rule="evenodd"><path d="M 774.18,1280.87 L 644.101,1280.87 L 644.101,1225.59 L 774.18,1225.59 L 774.18,1280.87 z " style="fill-opacity:1.000000;fill:rgb(41,209,230);stroke:rgb(0,0,0);stroke-width:2"/></g>
<g fill-rule="evenodd"><path d="M 1199.38,1280.87 L 1069.3,1280.87 L 1069.3,1225.59 L 1199.38,1225.59 L 1199.38,1280.87 z " style="fill-opacity:1.000000;fill:rgb(5,60,124);stroke:rgb(0,0,0);stroke-width:2"/></g>
<g fill-rule="evenodd"><path d="M 774.18,1180.87 L 644.101,1180.87 L 644.101,1125.59 L 774.18,1125.59 L 774.18,1180.87 z " style="fill-opacity:1.000000;fill:rgb(148,117,216);stroke:rgb(0,0,0);stroke-width:2"/></g>
<g fill-rule="evenodd"><path d="M 1199.38,1180.87 L 1069.3,1180.87 L 1069.3,1125.59 L 1199.38,1125.59 L 1199.38,1180.87 z " style="fill-opacity:1.000000;fill:rgb(190,97,137);stroke:rgb(0,0,0);stroke-width:2"/></g>
<g fill-rule="evenodd"><path d="M 1218.98,876.063 L 1065.44,876.063 L 1065.44,612.283 L 1218.98,612.283 L 1218.98,876.063 z " style="fill-opacity:1.000000;fill:rgb(249,92,187);stroke:rgb(0,0,0);stroke-width:2"/></g>
<g fill-rule="evenodd"><path d="M 778.038,876.063 L 624.495,876.063 L 624.495,612.283 L 778.038,612.283 L 778.038,876.063 z " style="fill-opacity:1.000000;fill:rgb(168,153,15);stroke:rgb(0,0,0);stroke-width:2"/></g>
<g fill-rule="evenodd"><path d="M 2798.57,684.585 L 2815.06,691.417 L 2829.91,701.336 L 2842.53,713.959 L 2852.45,728.803 L 2859.28,745.297 L 2862.76,762.806 L 2862.76,780.659 L 2859.28,798.168 L 2852.45,814.662 L 2842.53,829.506 L 2829.91,842.129 L 2815.06,852.048 L 2798.57,858.879 L 2781.06,862.362 L 2763.21,862.362 L 2745.7,858.879 L 2729.2,852.048 L 2714.36,842.129 L 2701.74,829.506 L 2691.82,814.662 L 2684.99,798.168 L 2681.5,780.659 L 2681.5,762.806 L 2684.99,745.297 L 2691.82,728.803 L 2701.74,713.959 L 2714.36,701.336 L 2729.2,691.417 L 2745.7,684.585 L 2763.21,681.102 L 2781.06,681.102 L 2798.57,684.585 z " style="fill-opacity:1.000000;fill:rgb(149,177,235);stroke:rgb(0,0,0);stroke-width:2"/></g>
<g fill-rule="evenodd"><path d="M 2326.37,396.614 L 2335.31,398.394 L 2357.54,407.6 L 2377.54,420.965 L 2394.55,437.976 L 2407.92,457.978 L 2417.12,480.204 L 2421.82,503.798 L 2421.82,527.855 L 2417.12,551.45 L 2407.92,573.675 L 2394.55,593.678 L 2377.54,610.688 L 2357.54,624.053 L 2335.31,633.26 L 2311.72,637.953 L 2287.66,637.953 L 2264.07,633.26 L 2241.84,624.053 L 2221.84,610.688 L 2204.83,593.678 L 2191.47,573.675 L 2182.26,551.45 L 2177.57,527.855 L 2177.57,503.798 L 2182.26,480.204 L 2191.47,457.978 L 2204.83,437.976 L 2221.84,420.965 L 2241.84,407.6 L 2264.07,398.394 L 2287.66,393.701 L 2311.72,393.701 L 2326.37,396.614 z " style="fill-opacity:1.000000;fill:rgb(241,179,5);stroke:rgb(0,0,0);stroke-width:2"/></g>
<g fill-rule="evenodd"><path d="M 1932.67,396.614 L 1941.61,398.394 L 1963.84,407.6 L 1983.84,420.965 L 2000.85,437.976 L 2014.22,457.978 L 2023.42,480.204 L 2028.12,503.798 L 2028.12,527.855 L 2023.42,551.45 L 2014.22,573.675 L 2000.85,593.678 L 1983.84,610.688 L 1963.84,624.053 L 1941.61,633.26 L 1918.02,637.953 L 1893.96,637.953 L 1870.37,633.26 L 1848.14,624.053 L 1828.14,610.688 L 1811.13,593.678 L 1797.76,573.675 L 1788.56,551.45 L 1783.86,527.855 L 1783.86,503.798 L 1788.56,480.204 L 1797.76,457.978 L 1811.13,437.976 L 1828.14,420.965 L 1848.14,407.6 L 1870.37,398.394 L 1893.96,393.701 L 1918.02,393.701 L 1932.67,396.614 z " style="fill-opacity:1.000000;fill:rgb(239,247,0);stroke:rgb(0,0,0);stroke-width:2"/></g>
<g fill-rule="evenodd"><path d="M 1595.05,598.583 L 1350.79,598.583 L 1350.79,354.331 L 1595.05,354.331 L 1595.05,598.583 z " style="fill-opacity:1.000000;fill:rgb(233,161,58);stroke:rgb(0,0,0);stroke-width:2"/></g>
<g fill-rule="evenodd"><path d="M 2776.15,500.157 L 2531.9,500.157 L 2531.9,334.646 L 2776.15,334.646 L 2776.15,500.157 z " style="fill-opacity:1.000000;fill:rgb(229,202,11);stroke:rgb(0,0,0);stroke-width:2"/></g>
<g fill-rule="evenodd"><path d="M 1199.38,496.614 L 1069.3,496.614 L 1069.3,441.339 L 1199.38,441.339 L 1199.38,496.614 z " style="fill-opacity:1.000000;fill:rgb(203,208,72);stroke:rgb(0,0,0);stroke-width:2"/></g>
<g fill-rule="evenodd"><path d="M 774.18,496.614 L 644.101,496.614 L 644.101,441.339 L 774.18,441.339 L 774.18,496.614 z " style="fill-opacity:1.000000;fill:rgb(71,100,189);stroke:rgb(0,0,0);stroke-width:2"/></g>
<g fill-rule="evenodd"><path d="M 1199.38,396.614 L 1069.3,396.614 L 1069.3,341.339 L 1199.38,341.339 L 1199.38,396.614 z " style="fill-opacity:1.000000;fill:rgb(31,35,30);stroke:rgb(0,0,0);stroke-width:2"/></g>
<g fill-rule="evenodd"><path d="M 774.18,396.614 L 644.101,396.614 L 644.101,341.339 L 774.18,341.339 L 774.18,396.614 z " style="fill-opacity:1.000000;fill:rgb(168,28,123);stroke:rgb(0,0,0);stroke-width:2"/></g>
<g fill-rule="evenodd"><path d="M 2699.89,134.885 L 2709.62,135.843 L 2725.22,140.575 L 2739.59,148.26 L 2752.19,158.601 L 2762.53,171.202 L 2770.22,185.579 L 2774.95,201.179 L 2776.55,217.402 L 2774.95,233.625 L 2770.22,249.224 L 2762.53,263.601 L 2752.19,276.202 L 2739.59,286.544 L 2725.22,294.228 L 2709.62,298.96 L 2697.46,300.157 L 2610.59,300.157 L 2598.43,298.96 L 2582.83,294.228 L 2568.45,286.544 L 2555.85,276.202 L 2545.51,263.601 L 2537.83,249.224 L 2533.09,233.625 L 2531.5,217.402 L 2533.09,201.179 L 2537.83,185.579 L 2545.51,171.202 L 2555.85,158.601 L 2568.45,148.26 L 2582.83,140.575 L 2598.43,135.843 L 2610.59,134.646 L 2697.46,134.646 L 2699.89,134.885 z " style="fill-opacity:1.000000;fill:rgb(100,197,20);stroke:rgb(0,0,0);stroke-width:2"/></g>
<g fill-rule="evenodd"><path d="M 1199.38,296.614 L 1069.3,296.614 L 1069.3,241.339 L 1199.38,241.339 L 1199.38,296.614 z " style="fill-opacity:1.000000;fill:rgb(115,90,197);stroke:rgb(0,0,0);stroke-width:2"/></g>
<g fill-rule="evenodd"><path d="M 774.18,296.614 L 644.101,296.614 L 644.101,241.339 L 774.18,241.339 L 774.18,296.614 z " style="fill-opacity:1.000000;fill:rgb(94,75,121);stroke:rgb(0,0,0);stroke-width:2"/></g>
<g fill-rule="evenodd"><path d="M 239.513,74.349 L 256.007,81.1808 L 270.851,91.0994 L 283.474,103.723 L 293.393,118.567 L 300.225,135.06 L 303.707,152.57 L 303.707,170.422 L 300.225,187.932 L 293.393,204.425 L 283.474,219.27 L 270.851,231.893 L 256.007,241.811 L 239.513,248.643 L 222.004,252.126 L 204.151,252.126 L 186.642,248.643 L 170.148,241.811 L 155.304,231.893 L 142.681,219.27 L 132.762,204.425 L 125.93,187.932 L 122.448,170.422 L 122.448,152.57 L 125.93,135.06 L 132.762,118.567 L 142.681,103.723 L 155.304,91.0994 L 170.148,81.1808 L 186.642,74.349 L 204.151,70.8661 L 222.004,70.8661 L 239.513,74.349 z " style="fill-opacity:1.000000;fill:rgb(99,59,112);stroke:rgb(0,0,0);stroke-width:2"/></g>
<g fill-rule="evenodd"><path d="M 1935.87,23.6217 L 1954.51,31.344 L 1971.29,42.555 L 1985.56,56.8235 L 1996.77,73.602 L 2004.5,92.2453 L 2008.43,112.036 L 2008.43,132.216 L 2004.5,152.007 L 1996.77,170.65 L 1985.56,187.429 L 1971.29,201.697 L 1954.51,212.908 L 1935.87,220.63 L 1916.08,224.567 L 1895.9,224.567 L 1876.11,220.63 L 1857.47,212.908 L 1840.69,201.697 L 1826.42,187.429 L 1815.21,170.65 L 1807.49,152.007 L 1803.55,132.216 L 1803.55,112.036 L 1807.49,92.2453 L 1815.21,73.602 L 1826.42,56.8235 L 1840.69,42.555 L 1857.47,31.344 L 1876.11,23.6217 L 1895.9,19.685 L 1916.08,19.685 L 1935.87,23.6217 z " style="fill-opacity:1.000000;fill:rgb(100,36,17);stroke:rgb(0,0,0);stroke-width:2"/></g>
<g fill-rule="evenodd"><path d="M 2329.57,23.6217 L 2348.22,31.344 L 2364.99,42.555 L 2379.26,56.8235 L 2390.47,73.602 L 2398.2,92.2453 L 2402.13,112.036 L 2402.13,132.216 L 2398.2,152.007 L 2390.47,170.65 L 2379.26,187.429 L 2364.99,201.697 L 2348.22,212.908 L 2329.57,220.63 L 2309.78,224.567 L 2289.6,224.567 L 2269.81,220.63 L 2251.17,212.908 L 2234.39,201.697 L 2220.12,187.429 L 2208.91,170.65 L 2201.19,152.007 L 2197.25,132.216 L 2197.25,112.036 L 2201.19,92.2453 L 2208.91,73.602 L 2220.12,56.8235 L 2234.39,42.555 L 2251.17,31.344 L 2269.81,23.6217 L 2289.6,19.685 L 2309.78,19.685 L 2329.57,23.6217 z " style="fill-opacity:1.000000;fill:rgb(158,9,220);stroke:rgb(0,0,0);stroke-width:2"/></g>
<g fill-rule="evenodd"><path d="M 774.18,196.614 L 644.101,196.614 L 644.101,141.339 L 774.18,141.339 L 774.18,196.614 z " style="fill-opacity:1.000000;fill:rgb(170,212,172);stroke:rgb(0,0,0);stroke-width:2"/></g>
<g fill-rule="evenodd"><path d="M 1199.38,196.614 L 1069.3,196.614 L 1069.3,141.339 L 1199.38,141.339 L 1199.38,196.614 z " style="fill-opacity:1.000000;fill:rgb(242,27,16);stroke:rgb(0,0,0);stroke-width:2"/></g>
</svg>
