<?xml version="1.0" standalone="no"?>
<!DOCTYPE svg PUBLIC "-//W3C//DTD SVG 1.1//EN"
"http://www.w3.org/Graphics/SVG/1.1/DTD/svg11.dtd">
<svg width="151.37" height="119.244" viewBox="0 0 3153.54 2484.25" version="1.1"
xmlns="http://www.w3.org/2000/svg"
xmlns:xlink="http://www.w3.org/1999/xlink">
<polyline points="1131.89,1498.63 1132.04,1377.79 1133.25,1372.49 1136.15,1367.88 1142.05,1363.28 1144.04,1359.79 1148.07,1357.63 1271.65,1357.48 1276.81,1359.45 1872.72,1359.45 1876.94,1352.47 1893.46,1334.12 1916.09,1317.68 1938.65,1307.64 1964.36,1302 1990.69,1301.83 2018.05,1307.64 2040.6,1317.68 2062.01,1333.02 2080.72,1353.8 2093.06,1375.19 2097.98,1389.76 2272.1,1389.76 2277.01,1375.19 2289.81,1353.11 2306.85,1334.12 2328.05,1318.51 2353.6,1307.13 2378.56,1301.87 2404.08,1301.83 2431.43,1307.64 2453.99,1317.68 2475.39,1333.02 2494.1,1353.8 2506.45,1375.19 2511.37,1389.76 2657.32,1390.37 2665.8,1392.94 2676.66,1400.2 2712.34,1435.83 2786.26,1435.87 2803.44,1437.72 2821.4,1443.69 2836.34,1452.37 2849.22,1463.9 2860.44,1479.13 2868.02,1496.47 2871.44,1512.57 2871.62,1530.67 2867.81,1549.21 2859.99,1566.44 2849.22,1580.98 2836.98,1591.99 2821.4,1601.19 2803.44,1607.16 2786.26,1609.01 2706.69,1609.05 2687.89,1606.95 2671.46,1601.57 2656.47,1592.96 2642.33,1580.4 2631.31,1565.01 2624.1,1548.41 2620.68,1532.31 2620.51,1514.21 2624.61,1494.91 2631.68,1479.13 2639.3,1468.57 2635.29,1464.57 2511.37,1464.57 2506.45,1479.14 2494.1,1500.53 2475.39,1521.31 2455.41,1535.82 2431.43,1546.69 2404.08,1552.5 2377.75,1552.33 2353.6,1547.2 2328.05,1535.82 2306.85,1520.21 2289.81,1501.22 2277.01,1479.14 2272.1,1464.57 2097.98,1464.57 2093.06,1479.14 2080.27,1501.22 2062.01,1521.31 2041.34,1536.27 2018.05,1546.69 1991.51,1552.46 1965.18,1552.46 1940.21,1547.2 1914.66,1535.82 1894.69,1521.31 1876.94,1501.86 1862.96,1477.64 1855.11,1453.33 1853.18,1434.25 1289.35,1434.25 1289.09,1501.74 1285.11,1510.07 1274.67,1519.87 1255.22,1520.47 1245.77,1528.79 1238.7,1532.13 1230.29,1534.05 1222.47,1534.05 1208.41,1529.61 1197.54,1520.47 1146.59,1519.87 1135.73,1509.61 1133.14,1505.13 1131.89,1498.63" style="stroke:rgb(103,198,105);stroke-width:15.748031;fill:none;stroke-opacity:0.5;stroke-linecap:round;stroke-linejoin:round;;fill:none"/>
<polyline points="1131.89,1498.63 1132.04,1377.79 1133.25,1372.49 1136.15,1367.88 1142.05,1363.28 1144.04,1359.79 1148.07,1357.63 1271.65,1357.48 1276.81,1359.45 1872.72,1359.45 1876.94,1352.47 1893.46,1334.12 1916.09,1317.68 1938.65,1307.64 1964.36,1302 1990.69,1301.83 2018.05,1307.64 2040.6,1317.68 2062.01,1333.02 2080.72,1353.8 2093.06,1375.19 2097.98,1389.76 2272.1,1389.76 2277.01,1375.19 2289.81,1353.11 2306.85,1334.12 2328.05,1318.51 2353.6,1307.13 2378.56,1301.87 2404.08,1301.83 2431.43,1307.64 2453.99,1317.68 2475.39,1333.02 2494.1,1353.8 2506.45,1375.19 2511.37,1389.76 2657.32,1390.37 2665.8,1392.94 2676.66,1400.2 2712.34,1435.83 2786.26,1435.87 2803.44,1437.72 2821.4,1443.69 2836.34,1452.37 2849.22,1463.9 2860.44,1479.13 2868.02,1496.47 2871.44,1512.57 2871.62,1530.67 2867.81,1549.21 2859.99,1566.44 2849.22,1580.98 2836.98,1591.99 2821.4,1601.19 2803.44,1607.16 2786.26,1609.01 2706.69,1609.05 2687.89,1606.95 2671.46,1601.57 2656.47,1592.96 2642.33,1580.4 2631.31,1565.01 2624.1,1548.41 2620.68,1532.31 2620.51,1514.21 2624.61,1494.91 2631.68,1479.13 2639.3,1468.57 2635.29,1464.57 2511.37,1464.57 2506.45,1479.14 2494.1,1500.53 2475.39,1521.31 2455.41,1535.82 2431.43,1546.69 2404.08,1552.5 2377.75,1552.33 2353.6,1547.2 2328.05,1535.82 2306.85,1520.21 2289.81,1501.22 2277.01,1479.14 2272.1,1464.57 2097.98,1464.57 2093.06,1479.14 2080.27,1501.22 2062.01,1521.31 2041.34,1536.27 2018.05,1546.69 1991.51,1552.46 1965.18,1552.46 1940.21,1547.2 1914.66,1535.82 1894.69,1521.31 1876.94,1501.86 1862.96,1477.64 1855.11,1453.33 1853.18,1434.25 1289.35,1434.25 1289.09,1501.74 1285.11,1510.07 1274.67,1519.87 1255.22,1520.47 1245.77,1528.79 1238.7,1532.13 1230.29,1534.05 1222.47,1534.05 1208.41,1529.61 1197.54,1520.47 1146.59,1519.87 1135.73,1509.61 1133.14,1505.13 1131.89,1498.63" style="stroke:rgb(0,0,0);stroke-width:1px;fill:none;stroke-opacity:1;stroke-linecap:round;stroke-linejoin:round;;fill:none"/>
<polyline points="108.698,1662.95 108.87,1644.86 112.292,1628.75 120.32,1610.73 131.098,1596.18 143.33,1585.17 159.652,1575.6 176.874,1570 194.882,1568.11 273.622,1568.11 291.63,1570 309.584,1575.97 323.84,1584.2 337.406,1596.18 348.182,1610.73 355.996,1627.96 359.804,1646.49 359.762,1663.78 355.996,1681.49 349.006,1697.3 338.506,1712.04 320.866,1726.96 320.866,1756.64 357.53,1793.31 734.252,1793.31 734.402,1752.4 736.558,1748.37 739.112,1746.66 883.858,1746.06 889.426,1748.37 891.732,1753.94 891.732,1842.52 907.736,1842.52 937.008,1813.25 937.008,1359.19 912.066,1334.25 851.612,1334.25 846.456,1336.22 721.396,1335.62 717.862,1332.72 716.534,1328.35 716.686,1248.07 720.034,1243.06 724.408,1241.73 846.456,1241.73 850.83,1243.06 853.73,1246.59 854.33,1259.45 927.558,1259.45 935.604,1260.35 947.674,1265.35 954.006,1270.4 1000.86,1317.25 1009.22,1330.11 1011.81,1343.7 1011.21,1835.27 1008.63,1843.75 1001.37,1854.61 944.628,1910.56 936.814,1914.74 929.76,1916.72 891.732,1917.32 891.732,2005.9 890.404,2010.28 886.87,2013.18 739.112,2013.18 735.578,2010.28 734.402,2007.44 734.252,1966.53 321.652,1966.53 304.006,1964.68 287.808,1959.61 272.912,1951.48 260.408,1941.17 173.006,1853.76 161.838,1839.98 153.97,1824.94 149.188,1808.65 147.638,1792.52 147.638,1726.96 130.514,1712.68 120.32,1698.72 112.506,1681.49 108.698,1662.95" style="stroke:rgb(115,81,255);stroke-width:15.748031;fill:none;stroke-opacity:0.5;stroke-linecap:round;stroke-linejoin:round;;fill:none"/>
<polyline points="108.698,1662.95 108.87,1644.86 112.292,1628.75 120.32,1610.73 131.098,1596.18 143.33,1585.17 159.652,1575.6 176.874,1570 194.882,1568.11 273.622,1568.11 291.63,1570 309.584,1575.97 323.84,1584.2 337.406,1596.18 348.182,1610.73 355.996,1627.96 359.804,1646.49 359.762,1663.78 355.996,1681.49 349.006,1697.3 338.506,1712.04 320.866,1726.96 320.866,1756.64 357.53,1793.31 734.252,1793.31 734.402,1752.4 736.558,1748.37 739.112,1746.66 883.858,1746.06 889.426,1748.37 891.732,1753.94 891.732,1842.52 907.736,1842.52 937.008,1813.25 937.008,1359.19 912.066,1334.25 851.612,1334.25 846.456,1336.22 721.396,1335.62 717.862,1332.72 716.534,1328.35 716.686,1248.07 720.034,1243.06 724.408,1241.73 846.456,1241.73 850.83,1243.06 853.73,1246.59 854.33,1259.45 927.558,1259.45 935.604,1260.35 947.674,1265.35 954.006,1270.4 1000.86,1317.25 1009.22,1330.11 1011.81,1343.7 1011.21,1835.27 1008.63,1843.75 1001.37,1854.61 944.628,1910.56 936.814,1914.74 929.76,1916.72 891.732,1917.32 891.732,2005.9 890.404,2010.28 886.87,2013.18 739.112,2013.18 735.578,2010.28 734.402,2007.44 734.252,1966.53 321.652,1966.53 304.006,1964.68 287.808,1959.61 272.912,1951.48 260.408,1941.17 173.006,1853.76 161.838,1839.98 153.97,1824.94 149.188,1808.65 147.638,1792.52 147.638,1726.96 130.514,1712.68 120.32,1698.72 112.506,1681.49 108.698,1662.95" style="stroke:rgb(0,0,0);stroke-width:1px;fill:none;stroke-opacity:1;stroke-linecap:round;stroke-linejoin:round;;fill:none"/>
<polyline points="106.928,2359.45 106.928,1860.44 109.94,1850.51 114.872,1845.58 120.938,1843 130.166,1843.48 137.424,1847.79 154.334,1872.48 164.824,1879.88 234.292,1949.35 241.672,1959.82 278.396,1984.35 321.712,1992.97 334.332,1990.79 691.694,1990.79 699.232,1992.48 705.576,1997.54 709.224,2005.17 711.864,2018.44 718.964,2029.07 729.59,2036.17 743.886,2039.01 882.096,2039.01 896.392,2036.17 907.02,2029.07 914.12,2018.44 916.964,2004.14 917.114,1957.16 918.324,1951.86 921.932,1946.34 929.874,1941.61 947.284,1938 967.76,1924.31 972.362,1917.98 1001.14,1889.2 1006.94,1885.32 1013.78,1883.96 1020.62,1885.32 1025.22,1888.22 1055.2,1917.98 1059.8,1924.32 1080.27,1938 1104.43,1942.8 1112.16,1941.57 1133.63,1941.73 1138.93,1942.93 1144.73,1946.81 1148.6,1952.61 1149.81,1957.91 1149.96,2004.14 1152.81,2018.44 1159.91,2029.07 1170.54,2036.17 1184.83,2039.01 1323.04,2039.01 1337.34,2036.17 1347.96,2029.07 1355.09,2018.4 1358.6,2002.14 1364.99,1994.02 1373.7,1990.94 1395.87,1990.79 1405.14,1993.4 1411.46,2000.09 1413.55,2006.67 1413.74,2043.49 1416.59,2057.81 1423.69,2068.44 1434.31,2075.54 1448.61,2078.38 1681.31,2078.38 1695.61,2075.54 1706.23,2068.44 1713.33,2057.81 1716.18,2043.51 1716.18,1810.81 1713.33,1796.52 1706.23,1785.89 1693.61,1775.99 1690.39,1766.13 1693.39,1755.82 1706.23,1745.6 1713.33,1734.97 1716.18,1720.68 1716.18,1487.91 1714.26,1475.61 1717.02,1466.77 1725.25,1459.86 1732.09,1458.5 1816.77,1458.5 1824.31,1460.19 1829.67,1464.02 1833.28,1469.54 1850.98,1512.27 1893.24,1554.53 1948.46,1577.4 2008.23,1577.4 2063.45,1554.53 2105.71,1512.27 2110.85,1499.85 2114.73,1494.05 2120.53,1490.18 2127.38,1488.82 2246.21,1489.16 2252.64,1491.83 2256.59,1495.57 2264.33,1512.23 2306.63,1554.53 2361.85,1577.4 2421.62,1577.4 2476.83,1554.53 2519.1,1512.27 2525.49,1497.42 2531.48,1491.43 2540.79,1488.82 2581.69,1489.1 2590.92,1493.79 2596.09,1503.21 2596.09,1510.18 2593.65,1522.44 2602.26,1565.7 2626.76,1602.37 2663.43,1626.87 2695.77,1633.31 2796.35,1633.31 2828.69,1626.87 2865.36,1602.37 2889.87,1565.7 2898.47,1522.44 2889.87,1479.18 2865.36,1442.51 2828.69,1418.01 2796.34,1411.57 2725.55,1411.04 2717.15,1406.34 2699.92,1389.11 2695.32,1382.77 2674.84,1369.09 2650.69,1364.28 2642.95,1365.51 2540.75,1365.51 2534.27,1364.29 2525.91,1357.6 2519.13,1342.09 2476.83,1299.8 2421.62,1276.93 2361.85,1276.93 2306.63,1299.8 2264.33,1342.09 2256.59,1358.76 2252.64,1362.5 2246.21,1365.17 2127.38,1365.51 2120.53,1364.15 2114.73,1360.28 2110.85,1354.48 2105.71,1342.06 2063.45,1299.8 2008.23,1276.93 1948.46,1276.93 1893.24,1299.8 1863.08,1329.96 1857.28,1333.84 1850.44,1335.2 1322.63,1335.2 1312.39,1331.96 1307.77,1327.25 1305.55,1322.29 1304.76,1251.38 1301.91,1237.07 1294.81,1226.44 1284.19,1219.34 1269.89,1216.5 1151.36,1216.5 1137.07,1219.34 1118.24,1233.29 1111.55,1234.65 1106.45,1233.96 1082.24,1238.77 1061.77,1252.45 1057.16,1258.79 1028.37,1287.37 1023.77,1290.26 1016.93,1291.62 1010.09,1290.26 1005.48,1287.37 976.692,1258.79 972.09,1252.45 951.614,1238.77 927.462,1233.97 919.684,1235.2 881.512,1234.85 875.416,1232.39 869.762,1226.54 858.99,1219.34 844.698,1216.5 726.168,1216.5 711.874,1219.34 701.248,1226.44 694.146,1237.07 691.304,1251.37 691.304,1326.59 694.146,1340.88 701.248,1351.51 711.874,1358.61 718.694,1359.96 724.408,1357.48 846.456,1357.48 852.238,1360.05 861.278,1358.5 894.618,1358.5 901.458,1359.86 906.062,1362.76 909.918,1366.98 911.964,1371.68 912.756,1705.15 909.52,1715.4 904.812,1720.01 895.654,1722.99 882.16,1720.83 743.886,1720.83 729.59,1723.67 718.964,1730.77 711.864,1741.4 709.224,1754.67 705.576,1762.3 699.232,1767.36 691.694,1769.05 374.978,1769.05 366.41,1766.77 353.54,1754.53 350.954,1748.47 350.678,1743.07 352.598,1736.43 378.052,1698 386.66,1654.72 378.054,1611.47 361.474,1586.58 358.858,1577.31 360.22,1570.47 363.114,1565.87 375.492,1556.67 382.624,1546 385.468,1531.71 385.468,1377.74 382.614,1363.4 373.41,1348.24 372.498,1342.87 373.858,1336.03 377.736,1330.23 681.762,1026.69 688.204,1024.03 695.178,1024.03 701.62,1026.69 709.906,1032.23 724.2,1035.07 862.414,1035.07 876.708,1032.23 887.334,1025.13 894.434,1014.5 897.282,1000.19 897.558,964.194 902.514,954.684 912.046,949.726 923.228,950.656 947.284,945.872 967.76,932.19 972.362,925.852 992.49,905.936 997.096,903.042 1003.94,901.68 1010.78,903.042 1015.38,905.936 1035.51,925.852 1040.11,932.19 1060.59,945.872 1084.74,950.676 1092.48,949.448 1113.94,949.6 1119.25,950.808 1125.04,954.684 1130,964.194 1130.28,1000.19 1133.12,1014.5 1140.22,1025.13 1150.85,1032.23 1165.14,1035.07 1303.36,1035.07 1317.65,1032.23 1328.28,1025.13 1335.41,1014.46 1339.76,996.522 1342.91,992.084 1348.71,988.21 1355.55,986.85 1395.87,986.85 1406.12,990.084 1410.73,994.794 1412.95,999.76 1413.74,1051.37 1416.59,1065.68 1423.69,1076.31 1434.31,1083.41 1448.61,1086.25 1681.31,1086.25 1695.61,1083.41 1706.23,1076.31 1713.33,1065.68 1716.18,1051.39 1716.18,818.688 1713.33,804.394 1706.23,793.766 1699.51,787.804 1696.28,777.944 1699.28,767.628 1706.23,761.35 1713.33,750.722 1716.18,736.428 1716.18,503.658 1714.22,492.056 1716.83,482.858 1722.82,476.866 1732.09,474.252 1843.35,474.252 1851.08,475.478 1875.24,470.674 1895.71,456.992 1900.33,450.64 1954.69,397.03 1963.57,394.424 1971.9,396.298 2024,396.298 2071.98,376.424 2108.82,339.584 2113.38,332.37 2118.9,328.762 2124.21,327.552 2267.51,327.746 2276.09,332.118 2280.94,339.586 2317.78,376.424 2365.76,396.298 2417.7,396.298 2465.68,376.424 2502.52,339.586 2505.56,334.152 2512.97,328.622 2519.47,327.4 2582.06,327.746 2588.17,330.206 2591.72,333.208 2596.09,341.788 2596.09,348.762 2593.65,361.022 2602.26,404.28 2626.76,440.952 2663.43,465.456 2695.77,471.89 2796.35,471.89 2828.69,465.456 2865.36,440.954 2889.87,404.28 2898.47,361.024 2889.87,317.766 2865.36,281.092 2828.69,256.59 2796.34,250.154 2726.29,249.812 2717.15,244.922 2699.92,227.69 2695.32,221.352 2674.84,207.672 2650.69,202.866 2642.94,204.094 2515.95,203.75 2507.38,199.378 2502.52,191.91 2468.09,157.48 1921.67,157.48 1887.35,191.796 1867.48,239.78 1867.48,291.876 1869.17,297.868 1867.85,307.012 1864.13,312.458 1830.88,345.71 1825.08,349.584 1818.24,350.944 1335.27,350.666 1325.74,345.71 1320.79,336.188 1320.51,275 1317.66,260.692 1310.56,250.066 1299.94,242.966 1285.64,240.122 1167.11,240.122 1152.82,242.966 1138.97,250.594 1114.2,250.944 1106.39,249.718 1082.24,254.522 1061.77,268.202 1057.16,274.54 1035.85,295.636 1031.25,298.532 1024.41,299.892 1017.57,298.532 1012.96,295.636 991.654,274.54 987.05,268.202 966.576,254.522 942.422,249.718 934.652,250.944 888.598,250.598 874.74,242.966 860.444,240.122 741.918,240.122 727.622,242.966 716.996,250.066 709.896,260.692 707.052,274.988 707.052,350.208 709.896,364.504 716.996,375.13 727.622,382.23 734.442,383.586 740.156,381.102 781.176,381.102 788.854,377.322 798.094,375.358 811.942,376.814 821.186,381.102 862.204,381.102 867.918,383.586 874.738,382.23 887.138,375.042 895.494,374.276 901.722,375.612 906.326,378.508 911.394,385.286 912.756,392.126 912.756,710.384 909.95,719.988 902.074,726.74 892.93,728.066 886.312,725.974 876.708,719.738 862.41,716.894 724.202,716.894 709.906,719.738 699.278,726.838 692.178,737.464 689.318,751.844 688.804,762.376 683.528,771.296 674.948,775.67 663.386,774.756 620.128,783.362 583.404,807.898 576.026,818.366 148.102,1246.29 137.53,1261.55 130.99,1265.77 122.816,1266.74 115.772,1264.4 111.31,1260.69 108.446,1256.15 106.928,1249 106.928,124.802 108.29,117.962 114.252,110.402 118.324,108.15 124.802,106.928 706.318,106.928 725.946,88.5836 738.016,83.5836 746.062,82.6776 2875.98,82.6776 2884.03,83.5836 2896.1,88.5836 2915.73,106.928 3025.67,106.966 3034.82,109.934 3039.52,114.542 3042.77,124.772 3046.52,2359.42 3044.84,2366.97 3038.9,2374.08 3028.65,2377.32 124.802,2377.32 118.138,2375.97 112.102,2371.99 108.56,2366.91 106.928,2359.45" style="stroke:rgb(74,236,41);stroke-width:15.748031;fill:none;stroke-opacity:0.5;stroke-linecap:round;stroke-linejoin:round;;fill:none"/>
<polyline points="106.928,2359.45 106.928,1860.44 109.94,1850.51 114.872,1845.58 120.938,1843 130.166,1843.48 137.424,1847.79 154.334,1872.48 164.824,1879.88 234.292,1949.35 241.672,1959.82 278.396,1984.35 321.712,1992.97 334.332,1990.79 691.694,1990.79 699.232,1992.48 705.576,1997.54 709.224,2005.17 711.864,2018.44 718.964,2029.07 729.59,2036.17 743.886,2039.01 882.096,2039.01 896.392,2036.17 907.02,2029.07 914.12,2018.44 916.964,2004.14 917.114,1957.16 918.324,1951.86 921.932,1946.34 929.874,1941.61 947.284,1938 967.76,1924.31 972.362,1917.98 1001.14,1889.2 1006.94,1885.32 1013.78,1883.96 1020.62,1885.32 1025.22,1888.22 1055.2,1917.98 1059.8,1924.32 1080.27,1938 1104.43,1942.8 1112.16,1941.57 1133.63,1941.73 1138.93,1942.93 1144.73,1946.81 1148.6,1952.61 1149.81,1957.91 1149.96,2004.14 1152.81,2018.44 1159.91,2029.07 1170.54,2036.17 1184.83,2039.01 1323.04,2039.01 1337.34,2036.17 1347.96,2029.07 1355.09,2018.4 1358.6,2002.14 1364.99,1994.02 1373.7,1990.94 1395.87,1990.79 1405.14,1993.4 1411.46,2000.09 1413.55,2006.67 1413.74,2043.49 1416.59,2057.81 1423.69,2068.44 1434.31,2075.54 1448.61,2078.38 1681.31,2078.38 1695.61,2075.54 1706.23,2068.44 1713.33,2057.81 1716.18,2043.51 1716.18,1810.81 1713.33,1796.52 1706.23,1785.89 1693.61,1775.99 1690.39,1766.13 1693.39,1755.82 1706.23,1745.6 1713.33,1734.97 1716.18,1720.68 1716.18,1487.91 1714.26,1475.61 1717.02,1466.77 1725.25,1459.86 1732.09,1458.5 1816.77,1458.5 1824.31,1460.19 1829.67,1464.02 1833.28,1469.54 1850.98,1512.27 1893.24,1554.53 1948.46,1577.4 2008.23,1577.4 2063.45,1554.53 2105.71,1512.27 2110.85,1499.85 2114.73,1494.05 2120.53,1490.18 2127.38,1488.82 2246.21,1489.16 2252.64,1491.83 2256.59,1495.57 2264.33,1512.23 2306.63,1554.53 2361.85,1577.4 2421.62,1577.4 2476.83,1554.53 2519.1,1512.27 2525.49,1497.42 2531.48,1491.43 2540.79,1488.82 2581.69,1489.1 2590.92,1493.79 2596.09,1503.21 2596.09,1510.18 2593.65,1522.44 2602.26,1565.7 2626.76,1602.37 2663.43,1626.87 2695.77,1633.31 2796.35,1633.31 2828.69,1626.87 2865.36,1602.37 2889.87,1565.7 2898.47,1522.44 2889.87,1479.18 2865.36,1442.51 2828.69,1418.01 2796.34,1411.57 2725.55,1411.04 2717.15,1406.34 2699.92,1389.11 2695.32,1382.77 2674.84,1369.09 2650.69,1364.28 2642.95,1365.51 2540.75,1365.51 2534.27,1364.29 2525.91,1357.6 2519.13,1342.09 2476.83,1299.8 2421.62,1276.93 2361.85,1276.93 2306.63,1299.8 2264.33,1342.09 2256.59,1358.76 2252.64,1362.5 2246.21,1365.17 2127.38,1365.51 2120.53,1364.15 2114.73,1360.28 2110.85,1354.48 2105.71,1342.06 2063.45,1299.8 2008.23,1276.93 1948.46,1276.93 1893.24,1299.8 1863.08,1329.96 1857.28,1333.84 1850.44,1335.2 1322.63,1335.2 1312.39,1331.96 1307.77,1327.25 1305.55,1322.29 1304.76,1251.38 1301.91,1237.07 1294.81,1226.44 1284.19,1219.34 1269.89,1216.5 1151.36,1216.5 1137.07,1219.34 1118.24,1233.29 1111.55,1234.65 1106.45,1233.96 1082.24,1238.77 1061.77,1252.45 1057.16,1258.79 1028.37,1287.37 1023.77,1290.26 1016.93,1291.62 1010.09,1290.26 1005.48,1287.37 976.692,1258.79 972.09,1252.45 951.614,1238.77 927.462,1233.97 919.684,1235.2 881.512,1234.85 875.416,1232.39 869.762,1226.54 858.99,1219.34 844.698,1216.5 726.168,1216.5 711.874,1219.34 701.248,1226.44 694.146,1237.07 691.304,1251.37 691.304,1326.59 694.146,1340.88 701.248,1351.51 711.874,1358.61 718.694,1359.96 724.408,1357.48 846.456,1357.48 852.238,1360.05 861.278,1358.5 894.618,1358.5 901.458,1359.86 906.062,1362.76 909.918,1366.98 911.964,1371.68 912.756,1705.15 909.52,1715.4 904.812,1720.01 895.654,1722.99 882.16,1720.83 743.886,1720.83 729.59,1723.67 718.964,1730.77 711.864,1741.4 709.224,1754.67 705.576,1762.3 699.232,1767.36 691.694,1769.05 374.978,1769.05 366.41,1766.77 353.54,1754.53 350.954,1748.47 350.678,1743.07 352.598,1736.43 378.052,1698 386.66,1654.72 378.054,1611.47 361.474,1586.58 358.858,1577.31 360.22,1570.47 363.114,1565.87 375.492,1556.67 382.624,1546 385.468,1531.71 385.468,1377.74 382.614,1363.4 373.41,1348.24 372.498,1342.87 373.858,1336.03 377.736,1330.23 681.762,1026.69 688.204,1024.03 695.178,1024.03 701.62,1026.69 709.906,1032.23 724.2,1035.07 862.414,1035.07 876.708,1032.23 887.334,1025.13 894.434,1014.5 897.282,1000.19 897.558,964.194 902.514,954.684 912.046,949.726 923.228,950.656 947.284,945.872 967.76,932.19 972.362,925.852 992.49,905.936 997.096,903.042 1003.94,901.68 1010.78,903.042 1015.38,905.936 1035.51,925.852 1040.11,932.19 1060.59,945.872 1084.74,950.676 1092.48,949.448 1113.94,949.6 1119.25,950.808 1125.04,954.684 1130,964.194 1130.28,1000.19 1133.12,1014.5 1140.22,1025.13 1150.85,1032.23 1165.14,1035.07 1303.36,1035.07 1317.65,1032.23 1328.28,1025.13 1335.41,1014.46 1339.76,996.522 1342.91,992.084 1348.71,988.21 1355.55,986.85 1395.87,986.85 1406.12,990.084 1410.73,994.794 1412.95,999.76 1413.74,1051.37 1416.59,1065.68 1423.69,1076.31 1434.31,1083.41 1448.61,1086.25 1681.31,1086.25 1695.61,1083.41 1706.23,1076.31 1713.33,1065.68 1716.18,1051.39 1716.18,818.688 1713.33,804.394 1706.23,793.766 1699.51,787.804 1696.28,777.944 1699.28,767.628 1706.23,761.35 1713.33,750.722 1716.18,736.428 1716.18,503.658 1714.22,492.056 1716.83,482.858 1722.82,476.866 1732.09,474.252 1843.35,474.252 1851.08,475.478 1875.24,470.674 1895.71,456.992 1900.33,450.64 1954.69,397.03 1963.57,394.424 1971.9,396.298 2024,396.298 2071.98,376.424 2108.82,339.584 2113.38,332.37 2118.9,328.762 2124.21,327.552 2267.51,327.746 2276.09,332.118 2280.94,339.586 2317.78,376.424 2365.76,396.298 2417.7,396.298 2465.68,376.424 2502.52,339.586 2505.56,334.152 2512.97,328.622 2519.47,327.4 2582.06,327.746 2588.17,330.206 2591.72,333.208 2596.09,341.788 2596.09,348.762 2593.65,361.022 2602.26,404.28 2626.76,440.952 2663.43,465.456 2695.77,471.89 2796.35,471.89 2828.69,465.456 2865.36,440.954 2889.87,404.28 2898.47,361.024 2889.87,317.766 2865.36,281.092 2828.69,256.59 2796.34,250.154 2726.29,249.812 2717.15,244.922 2699.92,227.69 2695.32,221.352 2674.84,207.672 2650.69,202.866 2642.94,204.094 2515.95,203.75 2507.38,199.378 2502.52,191.91 2468.09,157.48 1921.67,157.48 1887.35,191.796 1867.48,239.78 1867.48,291.876 1869.17,297.868 1867.85,307.012 1864.13,312.458 1830.88,345.71 1825.08,349.584 1818.24,350.944 1335.27,350.666 1325.74,345.71 1320.79,336.188 1320.51,275 1317.66,260.692 1310.56,250.066 1299.94,242.966 1285.64,240.122 1167.11,240.122 1152.82,242.966 1138.97,250.594 1114.2,250.944 1106.39,249.718 1082.24,254.522 1061.77,268.202 1057.16,274.54 1035.85,295.636 1031.25,298.532 1024.41,299.892 1017.57,298.532 1012.96,295.636 991.654,274.54 987.05,268.202 966.576,254.522 942.422,249.718 934.652,250.944 888.598,250.598 874.74,242.966 860.444,240.122 741.918,240.122 727.622,242.966 716.996,250.066 709.896,260.692 707.052,274.988 707.052,350.208 709.896,364.504 716.996,375.13 727.622,382.23 734.442,383.586 740.156,381.102 781.176,381.102 788.854,377.322 798.094,375.358 811.942,376.814 821.186,381.102 862.204,381.102 867.918,383.586 874.738,382.23 887.138,375.042 895.494,374.276 901.722,375.612 906.326,378.508 911.394,385.286 912.756,392.126 912.756,710.384 909.95,719.988 902.074,726.74 892.93,728.066 886.312,725.974 876.708,719.738 862.41,716.894 724.202,716.894 709.906,719.738 699.278,726.838 692.178,737.464 689.318,751.844 688.804,762.376 683.528,771.296 674.948,775.67 663.386,774.756 620.128,783.362 583.404,807.898 576.026,818.366 148.102,1246.29 137.53,1261.55 130.99,1265.77 122.816,1266.74 115.772,1264.4 111.31,1260.69 108.446,1256.15 106.928,1249 106.928,124.802 108.29,117.962 114.252,110.402 118.324,108.15 124.802,106.928 706.318,106.928 725.946,88.5836 738.016,83.5836 746.062,82.6776 2875.98,82.6776 2884.03,83.5836 2896.1,88.5836 2915.73,106.928 3025.67,106.966 3034.82,109.934 3039.52,114.542 3042.77,124.772 3046.52,2359.42 3044.84,2366.97 3038.9,2374.08 3028.65,2377.32 124.802,2377.32 118.138,2375.97 112.102,2371.99 108.56,2366.91 106.928,2359.45" style="stroke:rgb(0,0,0);stroke-width:1px;fill:none;stroke-opacity:1;stroke-linecap:round;stroke-linejoin:round;;fill:none"/>
<polyline points="1015.75,1828.74 1015.75,1350 1018.92,1334.99 1026.7,1323.55 1084.9,1266.21 1092.71,1262.03 1099.77,1260.05 1141.73,1259.45 1141.88,1248.07 1144.04,1244.04 1146.59,1242.33 1274.67,1242.33 1278.2,1245.23 1279.53,1249.61 1279.53,1328.35 1278.93,1331.36 1276.03,1334.89 1271.65,1336.22 1149.61,1336.22 1144.45,1334.25 1121.79,1334.25 1090.55,1365.49 1090.55,1813.25 1119.82,1842.52 1175.2,1842.52 1175.2,1753.94 1177.5,1748.37 1183.07,1746.06 1327.82,1746.66 1330.37,1748.37 1332.53,1752.4 1332.68,1793.31 1501.97,1793.31 1520.77,1795.41 1537.95,1801.18 1686.08,1801.78 1689.62,1804.68 1690.94,1809.05 1690.34,2048.29 1687.44,2051.82 1683.07,2053.15 1443.84,2052.55 1440.3,2049.65 1438.98,2045.27 1438.98,1966.53 1332.68,1966.53 1332.53,2007.44 1330.37,2011.47 1326.34,2013.63 1180.06,2013.18 1176.52,2010.28 1175.2,2005.9 1175.2,1917.32 1103.56,1917.28 1090.74,1914.74 1084.21,1911.42 1077.88,1906.37 1026.18,1854.61 1018.33,1842.32 1015.75,1828.74" style="stroke:rgb(205,186,171);stroke-width:15.748031;fill:none;stroke-opacity:0.5;stroke-linecap:round;stroke-linejoin:round;;fill:none"/>
<polyline points="1015.75,1828.74 1015.75,1350 1018.92,1334.99 1026.7,1323.55 1084.9,1266.21 1092.71,1262.03 1099.77,1260.05 1141.73,1259.45 1141.88,1248.07 1144.04,1244.04 1146.59,1242.33 1274.67,1242.33 1278.2,1245.23 1279.53,1249.61 1279.53,1328.35 1278.93,1331.36 1276.03,1334.89 1271.65,1336.22 1149.61,1336.22 1144.45,1334.25 1121.79,1334.25 1090.55,1365.49 1090.55,1813.25 1119.82,1842.52 1175.2,1842.52 1175.2,1753.94 1177.5,1748.37 1183.07,1746.06 1327.82,1746.66 1330.37,1748.37 1332.53,1752.4 1332.68,1793.31 1501.97,1793.31 1520.77,1795.41 1537.95,1801.18 1686.08,1801.78 1689.62,1804.68 1690.94,1809.05 1690.34,2048.29 1687.44,2051.82 1683.07,2053.15 1443.84,2052.55 1440.3,2049.65 1438.98,2045.27 1438.98,1966.53 1332.68,1966.53 1332.53,2007.44 1330.37,2011.47 1326.34,2013.63 1180.06,2013.18 1176.52,2010.28 1175.2,2005.9 1175.2,1917.32 1103.56,1917.28 1090.74,1914.74 1084.21,1911.42 1077.88,1906.37 1026.18,1854.61 1018.33,1842.32 1015.75,1828.74" style="stroke:rgb(0,0,0);stroke-width:1px;fill:none;stroke-opacity:1;stroke-linecap:round;stroke-linejoin:round;;fill:none"/>
<polyline points="1141.73,1628.35 1141.73,1549.61 1143.06,1545.23 1148.07,1541.88 1273.19,1541.88 1276.03,1543.06 1278.93,1546.59 1279.53,1559.45 1438.98,1559.45 1438.98,1486.22 1441.28,1480.65 1445.31,1478.5 1683.07,1478.35 1688.64,1480.65 1690.79,1484.68 1690.94,1722.44 1689.62,1726.81 1684.61,1730.16 1443.84,1729.71 1440.3,1726.81 1438.98,1722.44 1438.98,1634.25 1276.81,1634.25 1271.65,1636.22 1149.61,1636.22 1144.04,1633.91 1141.73,1628.35" style="stroke:rgb(242,251,227);stroke-width:15.748031;fill:none;stroke-opacity:0.5;stroke-linecap:round;stroke-linejoin:round;;fill:none"/>
<polyline points="1141.73,1628.35 1141.73,1549.61 1143.06,1545.23 1148.07,1541.88 1273.19,1541.88 1276.03,1543.06 1278.93,1546.59 1279.53,1559.45 1438.98,1559.45 1438.98,1486.22 1441.28,1480.65 1445.31,1478.5 1683.07,1478.35 1688.64,1480.65 1690.79,1484.68 1690.94,1722.44 1689.62,1726.81 1684.61,1730.16 1443.84,1729.71 1440.3,1726.81 1438.98,1722.44 1438.98,1634.25 1276.81,1634.25 1271.65,1636.22 1149.61,1636.22 1144.04,1633.91 1141.73,1628.35" style="stroke:rgb(0,0,0);stroke-width:1px;fill:none;stroke-opacity:1;stroke-linecap:round;stroke-linejoin:round;;fill:none"/>
<polyline points="108.268,1533.46 108.418,1374.45 110.574,1370.42 114.604,1368.26 147.638,1368.11 148.618,1304.2 153.39,1285.89 161.61,1269.76 173.006,1255.68 602.712,826.03 615.928,815.38 629.54,808.104 645.738,803.032 663.386,801.18 714.566,801.18 714.718,748.464 716.872,744.432 722.44,742.126 864.172,742.126 868.548,743.452 871.448,746.986 872.046,750 872.046,850.392 907.736,850.392 937.008,821.122 937.008,359.98 927.028,350 870.078,350 868.752,356.342 865.218,359.242 862.204,359.842 737.144,359.242 733.61,356.342 732.282,351.968 732.282,273.228 734.59,267.66 740.156,265.354 862.204,265.354 866.578,266.68 868.752,268.854 870.078,275.196 943.29,275.234 956.104,277.782 963.918,281.96 1005.05,323.088 1009.22,330.902 1011.77,343.716 1011.81,836.614 1009.22,850.198 1005.05,858.014 949.674,914.242 938.24,922.018 923.228,925.196 872.046,925.196 872.046,1001.97 870.72,1006.34 867.186,1009.24 720.904,1009.69 716.872,1007.54 714.718,1003.5 714.566,974.408 699.262,974.408 320.866,1352.81 320.866,1368.11 353.898,1368.26 357.93,1370.42 360.084,1374.45 360.236,1533.46 359.636,1536.48 356.736,1540.01 352.362,1541.34 116.142,1541.34 110.574,1539.03 108.268,1533.46" style="stroke:rgb(70,124,194);stroke-width:15.748031;fill:none;stroke-opacity:0.5;stroke-linecap:round;stroke-linejoin:round;;fill:none"/>
<polyline points="108.268,1533.46 108.418,1374.45 110.574,1370.42 114.604,1368.26 147.638,1368.11 148.618,1304.2 153.39,1285.89 161.61,1269.76 173.006,1255.68 602.712,826.03 615.928,815.38 629.54,808.104 645.738,803.032 663.386,801.18 714.566,801.18 714.718,748.464 716.872,744.432 722.44,742.126 864.172,742.126 868.548,743.452 871.448,746.986 872.046,750 872.046,850.392 907.736,850.392 937.008,821.122 937.008,359.98 927.028,350 870.078,350 868.752,356.342 865.218,359.242 862.204,359.842 737.144,359.242 733.61,356.342 732.282,351.968 732.282,273.228 734.59,267.66 740.156,265.354 862.204,265.354 866.578,266.68 868.752,268.854 870.078,275.196 943.29,275.234 956.104,277.782 963.918,281.96 1005.05,323.088 1009.22,330.902 1011.77,343.716 1011.81,836.614 1009.22,850.198 1005.05,858.014 949.674,914.242 938.24,922.018 923.228,925.196 872.046,925.196 872.046,1001.97 870.72,1006.34 867.186,1009.24 720.904,1009.69 716.872,1007.54 714.718,1003.5 714.566,974.408 699.262,974.408 320.866,1352.81 320.866,1368.11 353.898,1368.26 357.93,1370.42 360.084,1374.45 360.236,1533.46 359.636,1536.48 356.736,1540.01 352.362,1541.34 116.142,1541.34 110.574,1539.03 108.268,1533.46" style="stroke:rgb(0,0,0);stroke-width:1px;fill:none;stroke-opacity:1;stroke-linecap:round;stroke-linejoin:round;;fill:none"/>
<polyline points="1015.75,856.298 1015.75,365.748 1018.92,350.736 1026.7,339.3 1079.85,286.15 1092.71,277.782 1106.3,275.196 1157.48,275.196 1158.81,268.854 1160.98,266.68 1165.35,265.354 1288.94,265.504 1293.95,268.854 1295.27,273.228 1295.27,351.968 1294.68,354.982 1291.78,358.514 1287.4,359.842 1165.35,359.842 1162.34,359.242 1158.81,356.342 1157.48,350 1121.79,350 1090.55,381.24 1090.55,840.806 1100.14,850.392 1151.58,850.394 1155.51,840.948 1155.66,748.464 1159.01,743.452 1163.39,742.126 1308.13,742.724 1310.69,744.432 1312.84,748.464 1312.99,789.37 1506.73,789.412 1524.71,791.476 1540.36,796.562 1560.37,809.054 1686.08,809.654 1689.62,812.554 1690.94,816.928 1690.79,1054.69 1687.44,1059.7 1683.07,1061.02 1443.84,1060.42 1440.3,1057.52 1438.98,1053.15 1438.98,962.598 1312.99,962.598 1312.84,1003.5 1310.69,1007.54 1306.65,1009.69 1161.85,1009.69 1157.82,1007.54 1155.51,1001.97 1155.51,925.196 1084.65,925.196 1069.63,922.018 1058.2,914.242 1022.51,877.698 1018.33,869.884 1015.75,856.298" style="stroke:rgb(84,248,27);stroke-width:15.748031;fill:none;stroke-opacity:0.5;stroke-linecap:round;stroke-linejoin:round;;fill:none"/>
<polyline points="1015.75,856.298 1015.75,365.748 1018.92,350.736 1026.7,339.3 1079.85,286.15 1092.71,277.782 1106.3,275.196 1157.48,275.196 1158.81,268.854 1160.98,266.68 1165.35,265.354 1288.94,265.504 1293.95,268.854 1295.27,273.228 1295.27,351.968 1294.68,354.982 1291.78,358.514 1287.4,359.842 1165.35,359.842 1162.34,359.242 1158.81,356.342 1157.48,350 1121.79,350 1090.55,381.24 1090.55,840.806 1100.14,850.392 1151.58,850.394 1155.51,840.948 1155.66,748.464 1159.01,743.452 1163.39,742.126 1308.13,742.724 1310.69,744.432 1312.84,748.464 1312.99,789.37 1506.73,789.412 1524.71,791.476 1540.36,796.562 1560.37,809.054 1686.08,809.654 1689.62,812.554 1690.94,816.928 1690.79,1054.69 1687.44,1059.7 1683.07,1061.02 1443.84,1060.42 1440.3,1057.52 1438.98,1053.15 1438.98,962.598 1312.99,962.598 1312.84,1003.5 1310.69,1007.54 1306.65,1009.69 1161.85,1009.69 1157.82,1007.54 1155.51,1001.97 1155.51,925.196 1084.65,925.196 1069.63,922.018 1058.2,914.242 1022.51,877.698 1018.33,869.884 1015.75,856.298" style="stroke:rgb(0,0,0);stroke-width:1px;fill:none;stroke-opacity:1;stroke-linecap:round;stroke-linejoin:round;;fill:none"/>
<polyline points="1157.48,536.22 1157.48,488.976 1158.81,484.602 1163.82,481.254 1188.98,481.102 1188.98,444.094 1163.82,443.942 1159.79,441.788 1157.63,437.756 1157.48,388.976 1158.81,384.602 1162.34,381.702 1206.26,381.102 1218.33,376.102 1226.38,375.196 1835.69,375.196 1901.25,309.632 1894.05,287.848 1891.77,264.924 1894.27,242.85 1900.63,223.282 1911.58,203.958 1926.32,187.334 1944.19,174.138 1965.18,164.65 1986.92,160.03 2009.14,160.03 2030.08,164.438 2051.87,174.138 2069.16,186.752 2083.51,202.626 2094.77,221.778 2097.08,228.346 2292.68,228.346 2295,221.778 2306.25,202.626 2321.24,186.234 2339.32,173.316 2359.68,164.438 2380.62,160.03 2402.02,159.988 2423.78,164.438 2445.57,174.138 2463.44,187.334 2477.73,203.266 2488.47,221.778 2490.78,228.346 2657.32,228.952 2665.8,231.524 2676.66,238.782 2712.34,274.408 2786.26,274.452 2803.44,276.302 2820.66,281.896 2836.98,291.47 2849.22,302.484 2859.99,317.024 2867.51,333.488 2871.57,351.97 2871.44,370.89 2867.51,388.558 2860.44,404.33 2849.22,419.562 2836.34,431.096 2821.4,439.774 2803.44,445.744 2786.26,447.594 2705.87,447.594 2687.89,445.532 2671.46,440.148 2656.47,431.544 2642.33,418.98 2631.31,403.596 2624.1,386.992 2620.55,370.076 2620.51,352.792 2624.61,333.488 2631.68,317.716 2639.3,307.156 2635.29,303.148 2490.78,303.148 2488.47,309.718 2477.73,328.228 2462.22,345.262 2444.15,358.18 2425.35,366.548 2402.02,371.508 2379.81,371.336 2359.68,367.058 2337.89,357.356 2320.02,344.16 2306.25,328.87 2295,309.718 2292.68,303.148 2097.08,303.148 2094.77,309.718 2084.03,328.228 2069.74,344.16 2051.87,357.356 2031.65,366.548 2009.14,371.464 1986.92,371.464 1965.18,366.844 1954.53,362.146 1877.63,439.044 1871.3,444.094 1859.23,449.092 1851.18,450 1263.78,450 1263.78,481.102 1288.94,481.254 1292.97,483.408 1295.12,487.44 1295.27,536.22 1294.68,539.234 1291.78,542.766 1287.4,544.094 1246.38,544.094 1237.14,548.382 1223.29,549.838 1214.05,547.874 1206.37,544.094 1163.82,543.942 1159.79,541.788 1157.48,536.22" style="stroke:rgb(232,231,141);stroke-width:15.748031;fill:none;stroke-opacity:0.5;stroke-linecap:round;stroke-linejoin:round;;fill:none"/>
<polyline points="1157.48,536.22 1157.48,488.976 1158.81,484.602 1163.82,481.254 1188.98,481.102 1188.98,444.094 1163.82,443.942 1159.79,441.788 1157.63,437.756 1157.48,388.976 1158.81,384.602 1162.34,381.702 1206.26,381.102 1218.33,376.102 1226.38,375.196 1835.69,375.196 1901.25,309.632 1894.05,287.848 1891.77,264.924 1894.27,242.85 1900.63,223.282 1911.58,203.958 1926.32,187.334 1944.19,174.138 1965.18,164.65 1986.92,160.03 2009.14,160.03 2030.08,164.438 2051.87,174.138 2069.16,186.752 2083.51,202.626 2094.77,221.778 2097.08,228.346 2292.68,228.346 2295,221.778 2306.25,202.626 2321.24,186.234 2339.32,173.316 2359.68,164.438 2380.62,160.03 2402.02,159.988 2423.78,164.438 2445.57,174.138 2463.44,187.334 2477.73,203.266 2488.47,221.778 2490.78,228.346 2657.32,228.952 2665.8,231.524 2676.66,238.782 2712.34,274.408 2786.26,274.452 2803.44,276.302 2820.66,281.896 2836.98,291.47 2849.22,302.484 2859.99,317.024 2867.51,333.488 2871.57,351.97 2871.44,370.89 2867.51,388.558 2860.44,404.33 2849.22,419.562 2836.34,431.096 2821.4,439.774 2803.44,445.744 2786.26,447.594 2705.87,447.594 2687.89,445.532 2671.46,440.148 2656.47,431.544 2642.33,418.98 2631.31,403.596 2624.1,386.992 2620.55,370.076 2620.51,352.792 2624.61,333.488 2631.68,317.716 2639.3,307.156 2635.29,303.148 2490.78,303.148 2488.47,309.718 2477.73,328.228 2462.22,345.262 2444.15,358.18 2425.35,366.548 2402.02,371.508 2379.81,371.336 2359.68,367.058 2337.89,357.356 2320.02,344.16 2306.25,328.87 2295,309.718 2292.68,303.148 2097.08,303.148 2094.77,309.718 2084.03,328.228 2069.74,344.16 2051.87,357.356 2031.65,366.548 2009.14,371.464 1986.92,371.464 1965.18,366.844 1954.53,362.146 1877.63,439.044 1871.3,444.094 1859.23,449.092 1851.18,450 1263.78,450 1263.78,481.102 1288.94,481.254 1292.97,483.408 1295.12,487.44 1295.27,536.22 1294.68,539.234 1291.78,542.766 1287.4,544.094 1246.38,544.094 1237.14,548.382 1223.29,549.838 1214.05,547.874 1206.37,544.094 1163.82,543.942 1159.79,541.788 1157.48,536.22" style="stroke:rgb(0,0,0);stroke-width:1px;fill:none;stroke-opacity:1;stroke-linecap:round;stroke-linejoin:round;;fill:none"/>
<polyline points="1157.48,651.968 1157.48,573.228 1158.81,568.854 1163.82,565.504 1287.4,565.354 1291.78,566.68 1293.95,568.854 1295.27,575.196 1438.98,575.196 1438.98,501.968 1441.28,496.4 1445.31,494.246 1683.07,494.094 1688.64,496.4 1690.79,500.432 1690.94,738.188 1689.62,742.562 1684.61,745.912 1443.84,745.462 1440.3,742.562 1438.98,738.188 1438.98,650 1295.27,650 1293.95,656.342 1291.78,658.514 1287.4,659.842 1165.35,659.842 1159.79,657.536 1157.48,651.968" style="stroke:rgb(118,90,46);stroke-width:15.748031;fill:none;stroke-opacity:0.5;stroke-linecap:round;stroke-linejoin:round;;fill:none"/>
<polyline points="1157.48,651.968 1157.48,573.228 1158.81,568.854 1163.82,565.504 1287.4,565.354 1291.78,566.68 1293.95,568.854 1295.27,575.196 1438.98,575.196 1438.98,501.968 1441.28,496.4 1445.31,494.246 1683.07,494.094 1688.64,496.4 1690.79,500.432 1690.94,738.188 1689.62,742.562 1684.61,745.912 1443.84,745.462 1440.3,742.562 1438.98,738.188 1438.98,650 1295.27,650 1293.95,656.342 1291.78,658.514 1287.4,659.842 1165.35,659.842 1159.79,657.536 1157.48,651.968" style="stroke:rgb(0,0,0);stroke-width:1px;fill:none;stroke-opacity:1;stroke-linecap:round;stroke-linejoin:round;;fill:none"/>
</svg>
