<?xml version="1.0" standalone="no"?>
<!DOCTYPE svg PUBLIC "-//W3C//DTD SVG 1.1//EN"
"http://www.w3.org/Graphics/SVG/1.1/DTD/svg11.dtd">
<svg width="138.357" height="140.606" viewBox="0 0 2882.45 2929.29" version="1.1"
xmlns="http://www.w3.org/2000/svg"
xmlns:xlink="http://www.w3.org/1999/xlink">
<polyline points="94.8871,2827.9 95.0391,2808.51 98.9691,2789.53 106.529,2771.67 117.427,2755.63 131.243,2742.03 147.449,2731.39 165.419,2724.11 184.465,2720.47 203.853,2720.62 222.841,2724.55 240.695,2732.11 256.733,2743.01 270.335,2756.83 280.981,2773.03 288.261,2791 291.895,2810.05 291.745,2829.44 287.813,2848.42 280.253,2866.28 269.355,2882.32 255.539,2895.92 239.333,2906.57 221.363,2913.85 202.317,2917.48 182.929,2917.33 163.943,2913.4 146.087,2905.84 130.051,2894.94 116.447,2881.12 105.801,2864.92 98.5211,2846.95 94.8871,2827.9" style="stroke:rgb(103,198,105);stroke-width:15.748031;fill:none;stroke-opacity:0.5;stroke-linecap:round;stroke-linejoin:round;;fill:none"/>
<polyline points="94.8871,2827.9 95.0391,2808.51 98.9691,2789.53 106.529,2771.67 117.427,2755.63 131.243,2742.03 147.449,2731.39 165.419,2724.11 184.465,2720.47 203.853,2720.62 222.841,2724.55 240.695,2732.11 256.733,2743.01 270.335,2756.83 280.981,2773.03 288.261,2791 291.895,2810.05 291.745,2829.44 287.813,2848.42 280.253,2866.28 269.355,2882.32 255.539,2895.92 239.333,2906.57 221.363,2913.85 202.317,2917.48 182.929,2917.33 163.943,2913.4 146.087,2905.84 130.051,2894.94 116.447,2881.12 105.801,2864.92 98.5211,2846.95 94.8871,2827.9" style="stroke:rgb(0,0,0);stroke-width:1px;fill:none;stroke-opacity:1;stroke-linecap:round;stroke-linejoin:round;;fill:none"/>
<polyline points="1057.57,2852.44 1057.57,2588.66 1058.89,2584.29 1062.43,2581.39 1065.44,2580.79 1218.98,2580.79 1223.36,2582.11 1225.53,2584.29 1226.86,2588.66 1226.86,2852.44 1225.53,2856.81 1223.36,2858.99 1218.98,2860.31 1065.44,2860.31 1059.87,2858.01 1057.57,2852.44" style="stroke:rgb(115,81,255);stroke-width:15.748031;fill:none;stroke-opacity:0.5;stroke-linecap:round;stroke-linejoin:round;;fill:none"/>
<polyline points="1057.57,2852.44 1057.57,2588.66 1058.89,2584.29 1062.43,2581.39 1065.44,2580.79 1218.98,2580.79 1223.36,2582.11 1225.53,2584.29 1226.86,2588.66 1226.86,2852.44 1225.53,2856.81 1223.36,2858.99 1218.98,2860.31 1065.44,2860.31 1059.87,2858.01 1057.57,2852.44" style="stroke:rgb(0,0,0);stroke-width:1px;fill:none;stroke-opacity:1;stroke-linecap:round;stroke-linejoin:round;;fill:none"/>
<polyline points="616.619,2852.44 616.619,2588.66 617.947,2584.29 620.119,2582.11 624.493,2580.79 778.037,2580.79 782.411,2582.11 784.585,2584.29 785.911,2588.66 785.911,2852.44 784.585,2856.81 782.411,2858.99 778.037,2860.31 624.493,2860.31 618.927,2858.01 616.619,2852.44" style="stroke:rgb(74,236,41);stroke-width:15.748031;fill:none;stroke-opacity:0.5;stroke-linecap:round;stroke-linejoin:round;;fill:none"/>
<polyline points="616.619,2852.44 616.619,2588.66 617.947,2584.29 620.119,2582.11 624.493,2580.79 778.037,2580.79 782.411,2582.11 784.585,2584.29 785.911,2588.66 785.911,2852.44 784.585,2856.81 782.411,2858.99 778.037,2860.31 624.493,2860.31 618.927,2858.01 616.619,2852.44" style="stroke:rgb(0,0,0);stroke-width:1px;fill:none;stroke-opacity:1;stroke-linecap:round;stroke-linejoin:round;;fill:none"/>
<polyline points="2169.69,2693.21 2169.84,2667.62 2174.98,2642.54 2184.92,2618.96 2199.26,2597.76 2217.47,2579.77 2238.83,2565.68 2262.53,2556.03 2287.66,2551.18 2313.26,2551.33 2338.33,2556.47 2361.91,2566.41 2383.11,2580.75 2401.1,2598.96 2415.19,2620.32 2424.85,2644.02 2429.69,2669.15 2429.54,2694.75 2424.4,2719.82 2414.47,2743.4 2400.12,2764.6 2381.92,2782.59 2360.55,2796.68 2336.85,2806.34 2311.72,2811.18 2286.13,2811.03 2261.06,2805.89 2237.47,2795.95 2216.27,2781.61 2198.28,2763.41 2184.19,2742.04 2174.54,2718.34 2169.69,2693.21" style="stroke:rgb(205,186,171);stroke-width:15.748031;fill:none;stroke-opacity:0.5;stroke-linecap:round;stroke-linejoin:round;;fill:none"/>
<polyline points="2169.69,2693.21 2169.84,2667.62 2174.98,2642.54 2184.92,2618.96 2199.26,2597.76 2217.47,2579.77 2238.83,2565.68 2262.53,2556.03 2287.66,2551.18 2313.26,2551.33 2338.33,2556.47 2361.91,2566.41 2383.11,2580.75 2401.1,2598.96 2415.19,2620.32 2424.85,2644.02 2429.69,2669.15 2429.54,2694.75 2424.4,2719.82 2414.47,2743.4 2400.12,2764.6 2381.92,2782.59 2360.55,2796.68 2336.85,2806.34 2311.72,2811.18 2286.13,2811.03 2261.06,2805.89 2237.47,2795.95 2216.27,2781.61 2198.28,2763.41 2184.19,2742.04 2174.54,2718.34 2169.69,2693.21" style="stroke:rgb(0,0,0);stroke-width:1px;fill:none;stroke-opacity:1;stroke-linecap:round;stroke-linejoin:round;;fill:none"/>
<polyline points="1756.31,2693.21 1756.46,2667.62 1761.6,2642.54 1771.53,2618.96 1785.88,2597.76 1804.08,2579.77 1825.44,2565.68 1849.15,2556.03 1874.28,2551.18 1899.87,2551.33 1924.94,2556.47 1948.53,2566.41 1969.72,2580.75 1987.71,2598.96 2001.81,2620.32 2011.46,2644.02 2016.31,2669.15 2016.15,2694.75 2011.01,2719.82 2001.08,2743.4 1986.74,2764.6 1968.53,2782.59 1947.17,2796.68 1923.46,2806.34 1898.33,2811.18 1872.74,2811.03 1847.67,2805.89 1824.08,2795.95 1802.89,2781.61 1784.9,2763.41 1770.8,2742.04 1761.15,2718.34 1756.31,2693.21" style="stroke:rgb(242,251,227);stroke-width:15.748031;fill:none;stroke-opacity:0.5;stroke-linecap:round;stroke-linejoin:round;;fill:none"/>
<polyline points="1756.31,2693.21 1756.46,2667.62 1761.6,2642.54 1771.53,2618.96 1785.88,2597.76 1804.08,2579.77 1825.44,2565.68 1849.15,2556.03 1874.28,2551.18 1899.87,2551.33 1924.94,2556.47 1948.53,2566.41 1969.72,2580.75 1987.71,2598.96 2001.81,2620.32 2011.46,2644.02 2016.31,2669.15 2016.15,2694.75 2011.01,2719.82 2001.08,2743.4 1986.74,2764.6 1968.53,2782.59 1947.17,2796.68 1923.46,2806.34 1898.33,2811.18 1872.74,2811.03 1847.67,2805.89 1824.08,2795.95 1802.89,2781.61 1784.9,2763.41 1770.8,2742.04 1761.15,2718.34 1756.31,2693.21" style="stroke:rgb(0,0,0);stroke-width:1px;fill:none;stroke-opacity:1;stroke-linecap:round;stroke-linejoin:round;;fill:none"/>
<polyline points="2524.02,2665.51 2524.02,2500 2525.35,2495.62 2527.52,2493.45 2531.9,2492.13 2776.15,2492.13 2779.16,2492.72 2782.7,2495.62 2784.02,2500 2784.02,2665.51 2782.7,2669.89 2780.52,2672.06 2776.15,2673.39 2531.9,2673.39 2526.33,2671.08 2524.02,2665.51" style="stroke:rgb(70,124,194);stroke-width:15.748031;fill:none;stroke-opacity:0.5;stroke-linecap:round;stroke-linejoin:round;;fill:none"/>
<polyline points="2524.02,2665.51 2524.02,2500 2525.35,2495.62 2527.52,2493.45 2531.9,2492.13 2776.15,2492.13 2779.16,2492.72 2782.7,2495.62 2784.02,2500 2784.02,2665.51 2782.7,2669.89 2780.52,2672.06 2776.15,2673.39 2531.9,2673.39 2526.33,2671.08 2524.02,2665.51" style="stroke:rgb(0,0,0);stroke-width:1px;fill:none;stroke-opacity:1;stroke-linecap:round;stroke-linejoin:round;;fill:none"/>
<polyline points="1323.23,2547.4 1323.23,2303.15 1325.54,2297.58 1331.11,2295.28 1575.36,2295.28 1580.93,2297.58 1583.23,2303.15 1583.23,2547.4 1580.93,2552.97 1575.36,2555.28 1331.11,2555.28 1325.54,2552.97 1323.23,2547.4" style="stroke:rgb(84,248,27);stroke-width:15.748031;fill:none;stroke-opacity:0.5;stroke-linecap:round;stroke-linejoin:round;;fill:none"/>
<polyline points="1323.23,2547.4 1323.23,2303.15 1325.54,2297.58 1331.11,2295.28 1575.36,2295.28 1580.93,2297.58 1583.23,2303.15 1583.23,2547.4 1580.93,2552.97 1575.36,2555.28 1331.11,2555.28 1325.54,2552.97 1323.23,2547.4" style="stroke:rgb(0,0,0);stroke-width:1px;fill:none;stroke-opacity:1;stroke-linecap:round;stroke-linejoin:round;;fill:none"/>
<polyline points="2523.66,2383.53 2525.26,2365.76 2530.29,2348.65 2538.57,2332.84 2549.77,2318.96 2563.46,2307.53 2579.12,2298.98 2596.14,2293.66 2610.59,2292.13 2698.23,2292.16 2711.9,2293.66 2728.93,2298.98 2744.59,2307.53 2757.19,2317.87 2768.62,2331.56 2777.75,2348.65 2782.79,2365.76 2784.38,2381.98 2782.79,2399.75 2777.75,2416.86 2769.48,2432.67 2758.28,2446.55 2744.59,2457.98 2728.93,2466.53 2711.9,2471.85 2697.46,2473.39 2609.82,2473.35 2596.14,2471.85 2579.12,2466.53 2564.74,2458.84 2550.86,2447.64 2538.57,2432.67 2530.29,2416.86 2525.56,2401.26 2523.66,2383.53" style="stroke:rgb(232,231,141);stroke-width:15.748031;fill:none;stroke-opacity:0.5;stroke-linecap:round;stroke-linejoin:round;;fill:none"/>
<polyline points="2523.66,2383.53 2525.26,2365.76 2530.29,2348.65 2538.57,2332.84 2549.77,2318.96 2563.46,2307.53 2579.12,2298.98 2596.14,2293.66 2610.59,2292.13 2698.23,2292.16 2711.9,2293.66 2728.93,2298.98 2744.59,2307.53 2757.19,2317.87 2768.62,2331.56 2777.75,2348.65 2782.79,2365.76 2784.38,2381.98 2782.79,2399.75 2777.75,2416.86 2769.48,2432.67 2758.28,2446.55 2744.59,2457.98 2728.93,2466.53 2711.9,2471.85 2697.46,2473.39 2609.82,2473.35 2596.14,2471.85 2579.12,2466.53 2564.74,2458.84 2550.86,2447.64 2538.57,2432.67 2530.29,2416.86 2525.56,2401.26 2523.66,2383.53" style="stroke:rgb(0,0,0);stroke-width:1px;fill:none;stroke-opacity:1;stroke-linecap:round;stroke-linejoin:round;;fill:none"/>
<polyline points="636.227,2465.12 636.227,2409.84 637.553,2405.47 641.087,2402.57 774.179,2401.97 778.553,2403.29 781.453,2406.83 782.053,2465.12 780.725,2469.49 777.193,2472.39 644.101,2472.99 638.533,2470.69 636.227,2465.12" style="stroke:rgb(118,90,46);stroke-width:15.748031;fill:none;stroke-opacity:0.5;stroke-linecap:round;stroke-linejoin:round;;fill:none"/>
<polyline points="636.227,2465.12 636.227,2409.84 637.553,2405.47 641.087,2402.57 774.179,2401.97 778.553,2403.29 781.453,2406.83 782.053,2465.12 780.725,2469.49 777.193,2472.39 644.101,2472.99 638.533,2470.69 636.227,2465.12" style="stroke:rgb(0,0,0);stroke-width:1px;fill:none;stroke-opacity:1;stroke-linecap:round;stroke-linejoin:round;;fill:none"/>
<polyline points="1061.42,2465.12 1061.42,2409.84 1062.75,2405.47 1066.28,2402.57 1199.38,2401.97 1203.75,2403.29 1206.65,2406.83 1207.25,2465.12 1205.92,2469.49 1202.39,2472.39 1069.3,2472.99 1063.73,2470.69 1061.42,2465.12" style="stroke:rgb(99,51,159);stroke-width:15.748031;fill:none;stroke-opacity:0.5;stroke-linecap:round;stroke-linejoin:round;;fill:none"/>
<polyline points="1061.42,2465.12 1061.42,2409.84 1062.75,2405.47 1066.28,2402.57 1199.38,2401.97 1203.75,2403.29 1206.65,2406.83 1207.25,2465.12 1205.92,2469.49 1202.39,2472.39 1069.3,2472.99 1063.73,2470.69 1061.42,2465.12" style="stroke:rgb(0,0,0);stroke-width:1px;fill:none;stroke-opacity:1;stroke-linecap:round;stroke-linejoin:round;;fill:none"/>
<polyline points="1756.31,2299.51 1756.46,2273.92 1761.6,2248.84 1771.53,2225.26 1785.88,2204.06 1804.08,2186.07 1825.44,2171.98 1849.15,2162.32 1874.28,2157.48 1899.87,2157.63 1924.94,2162.77 1948.53,2172.71 1969.72,2187.05 1987.71,2205.25 2001.81,2226.62 2011.46,2250.32 2016.31,2275.45 2016.15,2301.04 2011.01,2326.12 2001.08,2349.7 1986.74,2370.9 1968.53,2388.89 1947.17,2402.98 1923.46,2412.64 1898.33,2417.48 1872.74,2417.33 1847.67,2412.19 1824.08,2402.25 1802.89,2387.91 1784.9,2369.71 1770.8,2348.34 1761.15,2324.64 1756.31,2299.51" style="stroke:rgb(201,154,102);stroke-width:15.748031;fill:none;stroke-opacity:0.5;stroke-linecap:round;stroke-linejoin:round;;fill:none"/>
<polyline points="1756.31,2299.51 1756.46,2273.92 1761.6,2248.84 1771.53,2225.26 1785.88,2204.06 1804.08,2186.07 1825.44,2171.98 1849.15,2162.32 1874.28,2157.48 1899.87,2157.63 1924.94,2162.77 1948.53,2172.71 1969.72,2187.05 1987.71,2205.25 2001.81,2226.62 2011.46,2250.32 2016.31,2275.45 2016.15,2301.04 2011.01,2326.12 2001.08,2349.7 1986.74,2370.9 1968.53,2388.89 1947.17,2402.98 1923.46,2412.64 1898.33,2417.48 1872.74,2417.33 1847.67,2412.19 1824.08,2402.25 1802.89,2387.91 1784.9,2369.71 1770.8,2348.34 1761.15,2324.64 1756.31,2299.51" style="stroke:rgb(0,0,0);stroke-width:1px;fill:none;stroke-opacity:1;stroke-linecap:round;stroke-linejoin:round;;fill:none"/>
<polyline points="2169.69,2299.51 2169.84,2273.92 2174.98,2248.84 2184.92,2225.26 2199.26,2204.06 2217.47,2186.07 2238.83,2171.98 2262.53,2162.32 2287.66,2157.48 2313.26,2157.63 2338.33,2162.77 2361.91,2172.71 2383.11,2187.05 2401.1,2205.25 2415.19,2226.62 2424.85,2250.32 2429.69,2275.45 2429.54,2301.04 2424.4,2326.12 2414.47,2349.7 2400.12,2370.9 2381.92,2388.89 2360.55,2402.98 2336.85,2412.64 2311.72,2417.48 2286.13,2417.33 2261.06,2412.19 2237.47,2402.25 2216.27,2387.91 2198.28,2369.71 2184.19,2348.34 2174.54,2324.64 2169.69,2299.51" style="stroke:rgb(50,13,183);stroke-width:15.748031;fill:none;stroke-opacity:0.5;stroke-linecap:round;stroke-linejoin:round;;fill:none"/>
<polyline points="2169.69,2299.51 2169.84,2273.92 2174.98,2248.84 2184.92,2225.26 2199.26,2204.06 2217.47,2186.07 2238.83,2171.98 2262.53,2162.32 2287.66,2157.48 2313.26,2157.63 2338.33,2162.77 2361.91,2172.71 2383.11,2187.05 2401.1,2205.25 2415.19,2226.62 2424.85,2250.32 2429.69,2275.45 2429.54,2301.04 2424.4,2326.12 2414.47,2349.7 2400.12,2370.9 2381.92,2388.89 2360.55,2402.98 2336.85,2412.64 2311.72,2417.48 2286.13,2417.33 2261.06,2412.19 2237.47,2402.25 2216.27,2387.91 2198.28,2369.71 2184.19,2348.34 2174.54,2324.64 2169.69,2299.51" style="stroke:rgb(0,0,0);stroke-width:1px;fill:none;stroke-opacity:1;stroke-linecap:round;stroke-linejoin:round;;fill:none"/>
<polyline points="636.227,2365.12 636.227,2309.84 637.553,2305.47 641.087,2302.57 774.179,2301.97 778.553,2303.29 781.453,2306.83 782.053,2365.12 780.725,2369.49 777.193,2372.39 644.101,2372.99 638.533,2370.69 636.227,2365.12" style="stroke:rgb(49,88,163);stroke-width:15.748031;fill:none;stroke-opacity:0.5;stroke-linecap:round;stroke-linejoin:round;;fill:none"/>
<polyline points="636.227,2365.12 636.227,2309.84 637.553,2305.47 641.087,2302.57 774.179,2301.97 778.553,2303.29 781.453,2306.83 782.053,2365.12 780.725,2369.49 777.193,2372.39 644.101,2372.99 638.533,2370.69 636.227,2365.12" style="stroke:rgb(0,0,0);stroke-width:1px;fill:none;stroke-opacity:1;stroke-linecap:round;stroke-linejoin:round;;fill:none"/>
<polyline points="1061.42,2365.12 1061.42,2309.84 1062.75,2305.47 1066.28,2302.57 1199.38,2301.97 1203.75,2303.29 1206.65,2306.83 1207.25,2365.12 1205.92,2369.49 1202.39,2372.39 1069.3,2372.99 1063.73,2370.69 1061.42,2365.12" style="stroke:rgb(90,37,93);stroke-width:15.748031;fill:none;stroke-opacity:0.5;stroke-linecap:round;stroke-linejoin:round;;fill:none"/>
<polyline points="1061.42,2365.12 1061.42,2309.84 1062.75,2305.47 1066.28,2302.57 1199.38,2301.97 1203.75,2303.29 1206.65,2306.83 1207.25,2365.12 1205.92,2369.49 1202.39,2372.39 1069.3,2372.99 1063.73,2370.69 1061.42,2365.12" style="stroke:rgb(0,0,0);stroke-width:1px;fill:none;stroke-opacity:1;stroke-linecap:round;stroke-linejoin:round;;fill:none"/>
<polyline points="636.227,2265.12 636.227,2209.84 637.553,2205.47 641.087,2202.57 774.179,2201.97 778.553,2203.29 781.453,2206.83 782.053,2265.12 780.725,2269.49 777.193,2272.39 644.101,2272.99 638.533,2270.69 636.227,2265.12" style="stroke:rgb(5,23,88);stroke-width:15.748031;fill:none;stroke-opacity:0.5;stroke-linecap:round;stroke-linejoin:round;;fill:none"/>
<polyline points="636.227,2265.12 636.227,2209.84 637.553,2205.47 641.087,2202.57 774.179,2201.97 778.553,2203.29 781.453,2206.83 782.053,2265.12 780.725,2269.49 777.193,2272.39 644.101,2272.99 638.533,2270.69 636.227,2265.12" style="stroke:rgb(0,0,0);stroke-width:1px;fill:none;stroke-opacity:1;stroke-linecap:round;stroke-linejoin:round;;fill:none"/>
<polyline points="1061.42,2265.12 1061.42,2209.84 1062.75,2205.47 1066.28,2202.57 1199.38,2201.97 1203.75,2203.29 1206.65,2206.83 1207.25,2265.12 1205.92,2269.49 1202.39,2272.39 1069.3,2272.99 1063.73,2270.69 1061.42,2265.12" style="stroke:rgb(233,94,212);stroke-width:15.748031;fill:none;stroke-opacity:0.5;stroke-linecap:round;stroke-linejoin:round;;fill:none"/>
<polyline points="1061.42,2265.12 1061.42,2209.84 1062.75,2205.47 1066.28,2202.57 1199.38,2201.97 1203.75,2203.29 1206.65,2206.83 1207.25,2265.12 1205.92,2269.49 1202.39,2272.39 1069.3,2272.99 1063.73,2270.69 1061.42,2265.12" style="stroke:rgb(0,0,0);stroke-width:1px;fill:none;stroke-opacity:1;stroke-linecap:round;stroke-linejoin:round;;fill:none"/>
<polyline points="636.227,2165.12 636.227,2109.84 637.553,2105.47 641.087,2102.57 774.179,2101.97 778.553,2103.29 781.453,2106.83 782.053,2165.12 780.725,2169.49 777.193,2172.39 644.101,2172.99 638.533,2170.69 636.227,2165.12" style="stroke:rgb(171,178,205);stroke-width:15.748031;fill:none;stroke-opacity:0.5;stroke-linecap:round;stroke-linejoin:round;;fill:none"/>
<polyline points="636.227,2165.12 636.227,2109.84 637.553,2105.47 641.087,2102.57 774.179,2101.97 778.553,2103.29 781.453,2106.83 782.053,2165.12 780.725,2169.49 777.193,2172.39 644.101,2172.99 638.533,2170.69 636.227,2165.12" style="stroke:rgb(0,0,0);stroke-width:1px;fill:none;stroke-opacity:1;stroke-linecap:round;stroke-linejoin:round;;fill:none"/>
<polyline points="1061.42,2165.12 1061.42,2109.84 1062.75,2105.47 1066.28,2102.57 1199.38,2101.97 1203.75,2103.29 1206.65,2106.83 1207.25,2165.12 1205.92,2169.49 1202.39,2172.39 1069.3,2172.99 1063.73,2170.69 1061.42,2165.12" style="stroke:rgb(198,155,180);stroke-width:15.748031;fill:none;stroke-opacity:0.5;stroke-linecap:round;stroke-linejoin:round;;fill:none"/>
<polyline points="1061.42,2165.12 1061.42,2109.84 1062.75,2105.47 1066.28,2102.57 1199.38,2101.97 1203.75,2103.29 1206.65,2106.83 1207.25,2165.12 1205.92,2169.49 1202.39,2172.39 1069.3,2172.99 1063.73,2170.69 1061.42,2165.12" style="stroke:rgb(0,0,0);stroke-width:1px;fill:none;stroke-opacity:1;stroke-linecap:round;stroke-linejoin:round;;fill:none"/>
<polyline points="2673.63,1981.45 2673.78,1962.06 2677.71,1943.07 2685.27,1925.22 2696.17,1909.18 2709.98,1895.58 2726.19,1884.93 2744.16,1877.65 2763.21,1874.02 2782.6,1874.17 2801.58,1878.1 2819.44,1885.66 2835.47,1896.55 2849.08,1910.37 2859.72,1926.58 2867,1944.55 2870.64,1963.59 2870.49,1982.98 2866.55,2001.97 2858.99,2019.82 2848.1,2035.86 2834.28,2049.46 2818.08,2060.11 2800.1,2067.39 2781.06,2071.02 2761.67,2070.87 2742.68,2066.94 2724.83,2059.38 2708.79,2048.48 2695.19,2034.67 2684.54,2018.46 2677.26,2000.49 2673.63,1981.45" style="stroke:rgb(84,17,14);stroke-width:15.748031;fill:none;stroke-opacity:0.5;stroke-linecap:round;stroke-linejoin:round;;fill:none"/>
<polyline points="2673.63,1981.45 2673.78,1962.06 2677.71,1943.07 2685.27,1925.22 2696.17,1909.18 2709.98,1895.58 2726.19,1884.93 2744.16,1877.65 2763.21,1874.02 2782.6,1874.17 2801.58,1878.1 2819.44,1885.66 2835.47,1896.55 2849.08,1910.37 2859.72,1926.58 2867,1944.55 2870.64,1963.59 2870.49,1982.98 2866.55,2001.97 2858.99,2019.82 2848.1,2035.86 2834.28,2049.46 2818.08,2060.11 2800.1,2067.39 2781.06,2071.02 2761.67,2070.87 2742.68,2066.94 2724.83,2059.38 2708.79,2048.48 2695.19,2034.67 2684.54,2018.46 2677.26,2000.49 2673.63,1981.45" style="stroke:rgb(0,0,0);stroke-width:1px;fill:none;stroke-opacity:1;stroke-linecap:round;stroke-linejoin:round;;fill:none"/>
<polyline points="1057.57,1868.19 1057.57,1604.41 1058.89,1600.03 1062.43,1597.13 1065.44,1596.53 1218.98,1596.53 1223.36,1597.86 1225.53,1600.03 1226.86,1604.41 1226.86,1868.19 1225.53,1872.56 1223.36,1874.74 1218.98,1876.06 1065.44,1876.06 1059.87,1873.76 1057.57,1868.19" style="stroke:rgb(130,116,65);stroke-width:15.748031;fill:none;stroke-opacity:0.5;stroke-linecap:round;stroke-linejoin:round;;fill:none"/>
<polyline points="1057.57,1868.19 1057.57,1604.41 1058.89,1600.03 1062.43,1597.13 1065.44,1596.53 1218.98,1596.53 1223.36,1597.86 1225.53,1600.03 1226.86,1604.41 1226.86,1868.19 1225.53,1872.56 1223.36,1874.74 1218.98,1876.06 1065.44,1876.06 1059.87,1873.76 1057.57,1868.19" style="stroke:rgb(0,0,0);stroke-width:1px;fill:none;stroke-opacity:1;stroke-linecap:round;stroke-linejoin:round;;fill:none"/>
<polyline points="616.619,1868.19 616.619,1604.41 617.947,1600.03 620.119,1597.86 624.493,1596.53 778.037,1596.53 782.411,1597.86 784.585,1600.03 785.911,1604.41 785.911,1868.19 784.585,1872.56 781.051,1875.46 778.037,1876.06 624.493,1876.06 618.927,1873.76 616.619,1868.19" style="stroke:rgb(33,61,220);stroke-width:15.748031;fill:none;stroke-opacity:0.5;stroke-linecap:round;stroke-linejoin:round;;fill:none"/>
<polyline points="616.619,1868.19 616.619,1604.41 617.947,1600.03 620.119,1597.86 624.493,1596.53 778.037,1596.53 782.411,1597.86 784.585,1600.03 785.911,1604.41 785.911,1868.19 784.585,1872.56 781.051,1875.46 778.037,1876.06 624.493,1876.06 618.927,1873.76 616.619,1868.19" style="stroke:rgb(0,0,0);stroke-width:1px;fill:none;stroke-opacity:1;stroke-linecap:round;stroke-linejoin:round;;fill:none"/>
<polyline points="2169.69,1689.27 2169.84,1663.68 2174.98,1638.61 2184.92,1615.02 2199.26,1593.82 2217.47,1575.84 2238.83,1561.74 2262.53,1552.09 2287.66,1547.24 2313.26,1547.39 2338.33,1552.54 2361.91,1562.47 2383.11,1576.81 2401.1,1595.02 2415.19,1616.38 2424.85,1640.08 2429.69,1665.22 2429.54,1690.81 2424.4,1715.88 2414.47,1739.47 2400.12,1760.66 2381.92,1778.65 2360.55,1792.74 2336.85,1802.4 2311.72,1807.24 2286.13,1807.09 2261.06,1801.95 2237.47,1792.02 2216.27,1777.67 2198.28,1759.47 2184.19,1738.11 2174.54,1714.4 2169.69,1689.27" style="stroke:rgb(135,112,233);stroke-width:15.748031;fill:none;stroke-opacity:0.5;stroke-linecap:round;stroke-linejoin:round;;fill:none"/>
<polyline points="2169.69,1689.27 2169.84,1663.68 2174.98,1638.61 2184.92,1615.02 2199.26,1593.82 2217.47,1575.84 2238.83,1561.74 2262.53,1552.09 2287.66,1547.24 2313.26,1547.39 2338.33,1552.54 2361.91,1562.47 2383.11,1576.81 2401.1,1595.02 2415.19,1616.38 2424.85,1640.08 2429.69,1665.22 2429.54,1690.81 2424.4,1715.88 2414.47,1739.47 2400.12,1760.66 2381.92,1778.65 2360.55,1792.74 2336.85,1802.4 2311.72,1807.24 2286.13,1807.09 2261.06,1801.95 2237.47,1792.02 2216.27,1777.67 2198.28,1759.47 2184.19,1738.11 2174.54,1714.4 2169.69,1689.27" style="stroke:rgb(0,0,0);stroke-width:1px;fill:none;stroke-opacity:1;stroke-linecap:round;stroke-linejoin:round;;fill:none"/>
<polyline points="1756.31,1689.27 1756.46,1663.68 1761.6,1638.61 1771.53,1615.02 1785.88,1593.82 1804.08,1575.84 1825.44,1561.74 1849.15,1552.09 1874.28,1547.24 1899.87,1547.39 1924.94,1552.54 1948.53,1562.47 1969.72,1576.81 1987.71,1595.02 2001.81,1616.38 2011.46,1640.08 2016.31,1665.22 2016.15,1690.81 2011.01,1715.88 2001.08,1739.47 1986.74,1760.66 1968.53,1778.65 1947.17,1792.74 1923.46,1802.4 1898.33,1807.24 1872.74,1807.09 1847.67,1801.95 1824.08,1792.02 1802.89,1777.67 1784.9,1759.47 1770.8,1738.11 1761.15,1714.4 1756.31,1689.27" style="stroke:rgb(62,161,65);stroke-width:15.748031;fill:none;stroke-opacity:0.5;stroke-linecap:round;stroke-linejoin:round;;fill:none"/>
<polyline points="1756.31,1689.27 1756.46,1663.68 1761.6,1638.61 1771.53,1615.02 1785.88,1593.82 1804.08,1575.84 1825.44,1561.74 1849.15,1552.09 1874.28,1547.24 1899.87,1547.39 1924.94,1552.54 1948.53,1562.47 1969.72,1576.81 1987.71,1595.02 2001.81,1616.38 2011.46,1640.08 2016.31,1665.22 2016.15,1690.81 2011.01,1715.88 2001.08,1739.47 1986.74,1760.66 1968.53,1778.65 1947.17,1792.74 1923.46,1802.4 1898.33,1807.24 1872.74,1807.09 1847.67,1801.95 1824.08,1792.02 1802.89,1777.67 1784.9,1759.47 1770.8,1738.11 1761.15,1714.4 1756.31,1689.27" style="stroke:rgb(0,0,0);stroke-width:1px;fill:none;stroke-opacity:1;stroke-linecap:round;stroke-linejoin:round;;fill:none"/>
<polyline points="11.8471,1711.87 13.4451,1694.11 18.4791,1676.99 26.7551,1661.19 37.9531,1647.31 51.6451,1635.87 67.3051,1627.33 84.3311,1622.01 98.7751,1620.47 186.417,1620.51 200.089,1622.01 217.115,1627.33 231.491,1635.02 245.377,1646.21 257.667,1661.19 265.941,1676.99 270.975,1694.11 272.573,1710.33 270.975,1728.1 265.941,1745.21 257.667,1761.01 246.467,1774.9 232.775,1786.33 217.115,1794.87 200.089,1800.2 185.645,1801.73 98.0031,1801.69 84.3311,1800.2 67.3051,1794.87 51.6451,1786.33 37.9531,1774.9 27.6111,1762.3 18.4791,1745.21 13.4451,1728.1 11.8471,1711.87" style="stroke:rgb(225,252,103);stroke-width:15.748031;fill:none;stroke-opacity:0.5;stroke-linecap:round;stroke-linejoin:round;;fill:none"/>
<polyline points="11.8471,1711.87 13.4451,1694.11 18.4791,1676.99 26.7551,1661.19 37.9531,1647.31 51.6451,1635.87 67.3051,1627.33 84.3311,1622.01 98.7751,1620.47 186.417,1620.51 200.089,1622.01 217.115,1627.33 231.491,1635.02 245.377,1646.21 257.667,1661.19 265.941,1676.99 270.975,1694.11 272.573,1710.33 270.975,1728.1 265.941,1745.21 257.667,1761.01 246.467,1774.9 232.775,1786.33 217.115,1794.87 200.089,1800.2 185.645,1801.73 98.0031,1801.69 84.3311,1800.2 67.3051,1794.87 51.6451,1786.33 37.9531,1774.9 27.6111,1762.3 18.4791,1745.21 13.4451,1728.1 11.8471,1711.87" style="stroke:rgb(0,0,0);stroke-width:1px;fill:none;stroke-opacity:1;stroke-linecap:round;stroke-linejoin:round;;fill:none"/>
<polyline points="2524.02,1661.57 2524.02,1496.06 2525.35,1491.69 2527.52,1489.52 2531.9,1488.19 2776.15,1488.19 2779.16,1488.79 2782.7,1491.69 2784.02,1496.06 2784.02,1661.57 2782.7,1665.95 2780.52,1668.12 2776.15,1669.45 2531.9,1669.45 2526.33,1667.14 2524.02,1661.57" style="stroke:rgb(62,1,126);stroke-width:15.748031;fill:none;stroke-opacity:0.5;stroke-linecap:round;stroke-linejoin:round;;fill:none"/>
<polyline points="2524.02,1661.57 2524.02,1496.06 2525.35,1491.69 2527.52,1489.52 2531.9,1488.19 2776.15,1488.19 2779.16,1488.79 2782.7,1491.69 2784.02,1496.06 2784.02,1661.57 2782.7,1665.95 2780.52,1668.12 2776.15,1669.45 2531.9,1669.45 2526.33,1667.14 2524.02,1661.57" style="stroke:rgb(0,0,0);stroke-width:1px;fill:none;stroke-opacity:1;stroke-linecap:round;stroke-linejoin:round;;fill:none"/>
<polyline points="11.8471,1511.87 13.4451,1494.11 18.4791,1476.99 26.7551,1461.19 37.9531,1447.31 51.6451,1435.87 67.3051,1427.33 84.3311,1422.01 98.7751,1420.47 186.417,1420.51 200.089,1422.01 217.115,1427.33 231.491,1435.02 245.377,1446.21 257.667,1461.19 265.941,1476.99 270.975,1494.11 272.573,1510.33 270.975,1528.1 265.941,1545.21 257.667,1561.01 246.467,1574.9 232.775,1586.33 217.115,1594.87 200.089,1600.2 185.645,1601.73 98.0031,1601.69 84.3311,1600.2 67.3051,1594.87 51.6451,1586.33 37.9531,1574.9 27.6111,1562.3 18.4791,1545.21 13.4451,1528.1 11.8471,1511.87" style="stroke:rgb(151,234,220);stroke-width:15.748031;fill:none;stroke-opacity:0.5;stroke-linecap:round;stroke-linejoin:round;;fill:none"/>
<polyline points="11.8471,1511.87 13.4451,1494.11 18.4791,1476.99 26.7551,1461.19 37.9531,1447.31 51.6451,1435.87 67.3051,1427.33 84.3311,1422.01 98.7751,1420.47 186.417,1420.51 200.089,1422.01 217.115,1427.33 231.491,1435.02 245.377,1446.21 257.667,1461.19 265.941,1476.99 270.975,1494.11 272.573,1510.33 270.975,1528.1 265.941,1545.21 257.667,1561.01 246.467,1574.9 232.775,1586.33 217.115,1594.87 200.089,1600.2 185.645,1601.73 98.0031,1601.69 84.3311,1600.2 67.3051,1594.87 51.6451,1586.33 37.9531,1574.9 27.6111,1562.3 18.4791,1545.21 13.4451,1528.1 11.8471,1511.87" style="stroke:rgb(0,0,0);stroke-width:1px;fill:none;stroke-opacity:1;stroke-linecap:round;stroke-linejoin:round;;fill:none"/>
<polyline points="1323.23,1582.83 1323.23,1338.58 1325.54,1333.01 1331.11,1330.71 1575.36,1330.71 1580.93,1333.01 1583.23,1338.58 1583.23,1582.83 1580.93,1588.4 1575.36,1590.71 1331.11,1590.71 1325.54,1588.4 1323.23,1582.83" style="stroke:rgb(107,150,143);stroke-width:15.748031;fill:none;stroke-opacity:0.5;stroke-linecap:round;stroke-linejoin:round;;fill:none"/>
<polyline points="1323.23,1582.83 1323.23,1338.58 1325.54,1333.01 1331.11,1330.71 1575.36,1330.71 1580.93,1333.01 1583.23,1338.58 1583.23,1582.83 1580.93,1588.4 1575.36,1590.71 1331.11,1590.71 1325.54,1588.4 1323.23,1582.83" style="stroke:rgb(0,0,0);stroke-width:1px;fill:none;stroke-opacity:1;stroke-linecap:round;stroke-linejoin:round;;fill:none"/>
<polyline points="1061.42,1480.87 1061.42,1425.59 1062.75,1421.22 1066.28,1418.32 1199.38,1417.72 1203.75,1419.04 1206.65,1422.58 1207.25,1480.87 1205.92,1485.24 1202.39,1488.14 1069.3,1488.74 1063.73,1486.43 1061.42,1480.87" style="stroke:rgb(56,92,42);stroke-width:15.748031;fill:none;stroke-opacity:0.5;stroke-linecap:round;stroke-linejoin:round;;fill:none"/>
<polyline points="1061.42,1480.87 1061.42,1425.59 1062.75,1421.22 1066.28,1418.32 1199.38,1417.72 1203.75,1419.04 1206.65,1422.58 1207.25,1480.87 1205.92,1485.24 1202.39,1488.14 1069.3,1488.74 1063.73,1486.43 1061.42,1480.87" style="stroke:rgb(0,0,0);stroke-width:1px;fill:none;stroke-opacity:1;stroke-linecap:round;stroke-linejoin:round;;fill:none"/>
<polyline points="636.227,1480.87 636.227,1425.59 637.553,1421.22 641.087,1418.32 774.179,1417.72 778.553,1419.04 781.453,1422.58 782.053,1480.87 780.725,1485.24 777.193,1488.14 644.101,1488.74 638.533,1486.43 636.227,1480.87" style="stroke:rgb(236,176,59);stroke-width:15.748031;fill:none;stroke-opacity:0.5;stroke-linecap:round;stroke-linejoin:round;;fill:none"/>
<polyline points="636.227,1480.87 636.227,1425.59 637.553,1421.22 641.087,1418.32 774.179,1417.72 778.553,1419.04 781.453,1422.58 782.053,1480.87 780.725,1485.24 777.193,1488.14 644.101,1488.74 638.533,1486.43 636.227,1480.87" style="stroke:rgb(0,0,0);stroke-width:1px;fill:none;stroke-opacity:1;stroke-linecap:round;stroke-linejoin:round;;fill:none"/>
<polyline points="2523.66,1379.59 2525.26,1361.82 2530.29,1344.71 2538.57,1328.91 2549.77,1315.02 2563.46,1303.59 2579.12,1295.05 2596.14,1289.72 2610.59,1288.19 2698.23,1288.23 2711.9,1289.72 2728.93,1295.05 2744.59,1303.59 2758.28,1315.02 2768.62,1327.62 2777.75,1344.71 2782.79,1361.82 2784.38,1378.05 2782.79,1395.81 2777.75,1412.93 2769.48,1428.73 2758.28,1442.61 2744.59,1454.05 2728.93,1462.59 2711.9,1467.91 2697.46,1469.45 2609.82,1469.41 2596.14,1467.91 2579.12,1462.59 2564.74,1454.9 2550.86,1443.71 2538.57,1428.73 2530.29,1412.93 2525.56,1397.33 2523.66,1379.59" style="stroke:rgb(251,50,175);stroke-width:15.748031;fill:none;stroke-opacity:0.5;stroke-linecap:round;stroke-linejoin:round;;fill:none"/>
<polyline points="2523.66,1379.59 2525.26,1361.82 2530.29,1344.71 2538.57,1328.91 2549.77,1315.02 2563.46,1303.59 2579.12,1295.05 2596.14,1289.72 2610.59,1288.19 2698.23,1288.23 2711.9,1289.72 2728.93,1295.05 2744.59,1303.59 2758.28,1315.02 2768.62,1327.62 2777.75,1344.71 2782.79,1361.82 2784.38,1378.05 2782.79,1395.81 2777.75,1412.93 2769.48,1428.73 2758.28,1442.61 2744.59,1454.05 2728.93,1462.59 2711.9,1467.91 2697.46,1469.45 2609.82,1469.41 2596.14,1467.91 2579.12,1462.59 2564.74,1454.9 2550.86,1443.71 2538.57,1428.73 2530.29,1412.93 2525.56,1397.33 2523.66,1379.59" style="stroke:rgb(0,0,0);stroke-width:1px;fill:none;stroke-opacity:1;stroke-linecap:round;stroke-linejoin:round;;fill:none"/>
<polyline points="1756.31,1295.57 1756.46,1269.98 1761.6,1244.91 1771.53,1221.32 1785.88,1200.12 1804.08,1182.13 1825.44,1168.04 1849.15,1158.39 1874.28,1153.54 1899.87,1153.69 1924.94,1158.84 1948.53,1168.77 1969.72,1183.11 1987.71,1201.32 2001.81,1222.68 2011.46,1246.38 2016.31,1271.51 2016.15,1297.11 2011.01,1322.18 2001.08,1345.77 1986.74,1366.96 1968.53,1384.95 1947.17,1399.04 1923.46,1408.7 1898.33,1413.54 1872.74,1413.39 1847.67,1408.25 1824.08,1398.32 1802.89,1383.97 1784.9,1365.77 1770.8,1344.4 1761.15,1320.7 1756.31,1295.57" style="stroke:rgb(60,84,236);stroke-width:15.748031;fill:none;stroke-opacity:0.5;stroke-linecap:round;stroke-linejoin:round;;fill:none"/>
<polyline points="1756.31,1295.57 1756.46,1269.98 1761.6,1244.91 1771.53,1221.32 1785.88,1200.12 1804.08,1182.13 1825.44,1168.04 1849.15,1158.39 1874.28,1153.54 1899.87,1153.69 1924.94,1158.84 1948.53,1168.77 1969.72,1183.11 1987.71,1201.32 2001.81,1222.68 2011.46,1246.38 2016.31,1271.51 2016.15,1297.11 2011.01,1322.18 2001.08,1345.77 1986.74,1366.96 1968.53,1384.95 1947.17,1399.04 1923.46,1408.7 1898.33,1413.54 1872.74,1413.39 1847.67,1408.25 1824.08,1398.32 1802.89,1383.97 1784.9,1365.77 1770.8,1344.4 1761.15,1320.7 1756.31,1295.57" style="stroke:rgb(0,0,0);stroke-width:1px;fill:none;stroke-opacity:1;stroke-linecap:round;stroke-linejoin:round;;fill:none"/>
<polyline points="2169.69,1295.57 2169.84,1269.98 2174.98,1244.91 2184.92,1221.32 2199.26,1200.12 2217.47,1182.13 2238.83,1168.04 2262.53,1158.39 2287.66,1153.54 2313.26,1153.69 2338.33,1158.84 2361.91,1168.77 2383.11,1183.11 2401.1,1201.32 2415.19,1222.68 2424.85,1246.38 2429.69,1271.51 2429.54,1297.11 2424.4,1322.18 2414.47,1345.77 2400.12,1366.96 2381.92,1384.95 2360.55,1399.04 2336.85,1408.7 2311.72,1413.54 2286.13,1413.39 2261.06,1408.25 2237.47,1398.32 2216.27,1383.97 2198.28,1365.77 2184.19,1344.4 2174.54,1320.7 2169.69,1295.57" style="stroke:rgb(24,219,92);stroke-width:15.748031;fill:none;stroke-opacity:0.5;stroke-linecap:round;stroke-linejoin:round;;fill:none"/>
<polyline points="2169.69,1295.57 2169.84,1269.98 2174.98,1244.91 2184.92,1221.32 2199.26,1200.12 2217.47,1182.13 2238.83,1168.04 2262.53,1158.39 2287.66,1153.54 2313.26,1153.69 2338.33,1158.84 2361.91,1168.77 2383.11,1183.11 2401.1,1201.32 2415.19,1222.68 2424.85,1246.38 2429.69,1271.51 2429.54,1297.11 2424.4,1322.18 2414.47,1345.77 2400.12,1366.96 2381.92,1384.95 2360.55,1399.04 2336.85,1408.7 2311.72,1413.54 2286.13,1413.39 2261.06,1408.25 2237.47,1398.32 2216.27,1383.97 2198.28,1365.77 2184.19,1344.4 2174.54,1320.7 2169.69,1295.57" style="stroke:rgb(0,0,0);stroke-width:1px;fill:none;stroke-opacity:1;stroke-linecap:round;stroke-linejoin:round;;fill:none"/>
<polyline points="12.2111,1393.86 12.2111,1228.35 12.8091,1225.33 15.7091,1221.8 20.0851,1220.47 264.337,1220.47 268.711,1221.8 270.883,1223.97 272.211,1228.35 272.211,1393.86 270.883,1398.23 268.711,1400.4 264.337,1401.73 20.0851,1401.73 14.5171,1399.43 12.2111,1393.86" style="stroke:rgb(2,26,254);stroke-width:15.748031;fill:none;stroke-opacity:0.5;stroke-linecap:round;stroke-linejoin:round;;fill:none"/>
<polyline points="12.2111,1393.86 12.2111,1228.35 12.8091,1225.33 15.7091,1221.8 20.0851,1220.47 264.337,1220.47 268.711,1221.8 270.883,1223.97 272.211,1228.35 272.211,1393.86 270.883,1398.23 268.711,1400.4 264.337,1401.73 20.0851,1401.73 14.5171,1399.43 12.2111,1393.86" style="stroke:rgb(0,0,0);stroke-width:1px;fill:none;stroke-opacity:1;stroke-linecap:round;stroke-linejoin:round;;fill:none"/>
<polyline points="1061.42,1380.87 1061.42,1325.59 1062.75,1321.22 1066.28,1318.32 1199.38,1317.72 1203.75,1319.04 1206.65,1322.58 1207.25,1380.87 1205.92,1385.24 1202.39,1388.14 1069.3,1388.74 1063.73,1386.43 1061.42,1380.87" style="stroke:rgb(67,251,250);stroke-width:15.748031;fill:none;stroke-opacity:0.5;stroke-linecap:round;stroke-linejoin:round;;fill:none"/>
<polyline points="1061.42,1380.87 1061.42,1325.59 1062.75,1321.22 1066.28,1318.32 1199.38,1317.72 1203.75,1319.04 1206.65,1322.58 1207.25,1380.87 1205.92,1385.24 1202.39,1388.14 1069.3,1388.74 1063.73,1386.43 1061.42,1380.87" style="stroke:rgb(0,0,0);stroke-width:1px;fill:none;stroke-opacity:1;stroke-linecap:round;stroke-linejoin:round;;fill:none"/>
<polyline points="636.227,1380.87 636.227,1325.59 637.553,1321.22 641.087,1318.32 774.179,1317.72 778.553,1319.04 781.453,1322.58 782.053,1380.87 780.725,1385.24 777.193,1388.14 644.101,1388.74 638.533,1386.43 636.227,1380.87" style="stroke:rgb(170,58,251);stroke-width:15.748031;fill:none;stroke-opacity:0.5;stroke-linecap:round;stroke-linejoin:round;;fill:none"/>
<polyline points="636.227,1380.87 636.227,1325.59 637.553,1321.22 641.087,1318.32 774.179,1317.72 778.553,1319.04 781.453,1322.58 782.053,1380.87 780.725,1385.24 777.193,1388.14 644.101,1388.74 638.533,1386.43 636.227,1380.87" style="stroke:rgb(0,0,0);stroke-width:1px;fill:none;stroke-opacity:1;stroke-linecap:round;stroke-linejoin:round;;fill:none"/>
<polyline points="636.227,1280.87 636.227,1225.59 637.553,1221.22 641.087,1218.32 774.179,1217.72 778.553,1219.04 781.453,1222.58 782.053,1280.87 780.725,1285.24 777.193,1288.14 644.101,1288.74 638.533,1286.43 636.227,1280.87" style="stroke:rgb(41,209,230);stroke-width:15.748031;fill:none;stroke-opacity:0.5;stroke-linecap:round;stroke-linejoin:round;;fill:none"/>
<polyline points="636.227,1280.87 636.227,1225.59 637.553,1221.22 641.087,1218.32 774.179,1217.72 778.553,1219.04 781.453,1222.58 782.053,1280.87 780.725,1285.24 777.193,1288.14 644.101,1288.74 638.533,1286.43 636.227,1280.87" style="stroke:rgb(0,0,0);stroke-width:1px;fill:none;stroke-opacity:1;stroke-linecap:round;stroke-linejoin:round;;fill:none"/>
<polyline points="1061.42,1280.87 1061.42,1225.59 1062.75,1221.22 1066.28,1218.32 1199.38,1217.72 1203.75,1219.04 1206.65,1222.58 1207.25,1280.87 1205.92,1285.24 1202.39,1288.14 1069.3,1288.74 1063.73,1286.43 1061.42,1280.87" style="stroke:rgb(5,60,124);stroke-width:15.748031;fill:none;stroke-opacity:0.5;stroke-linecap:round;stroke-linejoin:round;;fill:none"/>
<polyline points="1061.42,1280.87 1061.42,1225.59 1062.75,1221.22 1066.28,1218.32 1199.38,1217.72 1203.75,1219.04 1206.65,1222.58 1207.25,1280.87 1205.92,1285.24 1202.39,1288.14 1069.3,1288.74 1063.73,1286.43 1061.42,1280.87" style="stroke:rgb(0,0,0);stroke-width:1px;fill:none;stroke-opacity:1;stroke-linecap:round;stroke-linejoin:round;;fill:none"/>
<polyline points="636.227,1180.87 636.227,1125.59 637.553,1121.22 641.087,1118.32 774.179,1117.72 778.553,1119.04 781.453,1122.58 782.053,1180.87 780.725,1185.24 777.193,1188.14 644.101,1188.74 638.533,1186.43 636.227,1180.87" style="stroke:rgb(148,117,216);stroke-width:15.748031;fill:none;stroke-opacity:0.5;stroke-linecap:round;stroke-linejoin:round;;fill:none"/>
<polyline points="636.227,1180.87 636.227,1125.59 637.553,1121.22 641.087,1118.32 774.179,1117.72 778.553,1119.04 781.453,1122.58 782.053,1180.87 780.725,1185.24 777.193,1188.14 644.101,1188.74 638.533,1186.43 636.227,1180.87" style="stroke:rgb(0,0,0);stroke-width:1px;fill:none;stroke-opacity:1;stroke-linecap:round;stroke-linejoin:round;;fill:none"/>
<polyline points="1061.42,1180.87 1061.42,1125.59 1062.75,1121.22 1066.28,1118.32 1199.38,1117.72 1203.75,1119.04 1206.65,1122.58 1207.25,1180.87 1205.92,1185.24 1202.39,1188.14 1069.3,1188.74 1063.73,1186.43 1061.42,1180.87" style="stroke:rgb(190,97,137);stroke-width:15.748031;fill:none;stroke-opacity:0.5;stroke-linecap:round;stroke-linejoin:round;;fill:none"/>
<polyline points="1061.42,1180.87 1061.42,1125.59 1062.75,1121.22 1066.28,1118.32 1199.38,1117.72 1203.75,1119.04 1206.65,1122.58 1207.25,1180.87 1205.92,1185.24 1202.39,1188.14 1069.3,1188.74 1063.73,1186.43 1061.42,1180.87" style="stroke:rgb(0,0,0);stroke-width:1px;fill:none;stroke-opacity:1;stroke-linecap:round;stroke-linejoin:round;;fill:none"/>
<polyline points="1057.57,876.062 1057.57,612.282 1058.89,607.908 1062.43,605.008 1065.44,604.408 1218.98,604.408 1223.36,605.736 1225.53,607.908 1226.86,612.282 1226.86,876.062 1225.53,880.436 1223.36,882.61 1218.98,883.936 1065.44,883.936 1059.87,881.63 1057.57,876.062" style="stroke:rgb(249,92,187);stroke-width:15.748031;fill:none;stroke-opacity:0.5;stroke-linecap:round;stroke-linejoin:round;;fill:none"/>
<polyline points="1057.57,876.062 1057.57,612.282 1058.89,607.908 1062.43,605.008 1065.44,604.408 1218.98,604.408 1223.36,605.736 1225.53,607.908 1226.86,612.282 1226.86,876.062 1225.53,880.436 1223.36,882.61 1218.98,883.936 1065.44,883.936 1059.87,881.63 1057.57,876.062" style="stroke:rgb(0,0,0);stroke-width:1px;fill:none;stroke-opacity:1;stroke-linecap:round;stroke-linejoin:round;;fill:none"/>
<polyline points="616.619,876.062 616.619,612.282 617.947,607.908 620.119,605.736 624.493,604.408 778.037,604.408 782.411,605.736 784.585,607.908 785.911,612.282 785.911,876.062 784.585,880.436 781.051,883.338 778.037,883.936 624.493,883.936 618.927,881.63 616.619,876.062" style="stroke:rgb(168,153,15);stroke-width:15.748031;fill:none;stroke-opacity:0.5;stroke-linecap:round;stroke-linejoin:round;;fill:none"/>
<polyline points="616.619,876.062 616.619,612.282 617.947,607.908 620.119,605.736 624.493,604.408 778.037,604.408 782.411,605.736 784.585,607.908 785.911,612.282 785.911,876.062 784.585,880.436 781.051,883.338 778.037,883.936 624.493,883.936 618.927,881.63 616.619,876.062" style="stroke:rgb(0,0,0);stroke-width:1px;fill:none;stroke-opacity:1;stroke-linecap:round;stroke-linejoin:round;;fill:none"/>
<polyline points="2673.63,780.658 2673.78,761.27 2677.71,742.282 2685.27,724.428 2696.17,708.39 2709.98,694.788 2726.19,684.142 2744.16,676.862 2763.21,673.228 2782.6,673.38 2801.58,677.31 2819.44,684.87 2835.47,695.768 2849.08,709.584 2859.72,725.79 2867,743.76 2870.64,762.806 2870.49,782.194 2866.55,801.18 2858.99,819.036 2848.1,835.072 2834.28,848.676 2818.08,859.322 2800.1,866.602 2781.06,870.236 2761.67,870.084 2742.68,866.154 2724.83,858.594 2708.79,847.696 2695.19,833.88 2684.54,817.674 2677.26,799.704 2673.63,780.658" style="stroke:rgb(149,177,235);stroke-width:15.748031;fill:none;stroke-opacity:0.5;stroke-linecap:round;stroke-linejoin:round;;fill:none"/>
<polyline points="2673.63,780.658 2673.78,761.27 2677.71,742.282 2685.27,724.428 2696.17,708.39 2709.98,694.788 2726.19,684.142 2744.16,676.862 2763.21,673.228 2782.6,673.38 2801.58,677.31 2819.44,684.87 2835.47,695.768 2849.08,709.584 2859.72,725.79 2867,743.76 2870.64,762.806 2870.49,782.194 2866.55,801.18 2858.99,819.036 2848.1,835.072 2834.28,848.676 2818.08,859.322 2800.1,866.602 2781.06,870.236 2761.67,870.084 2742.68,866.154 2724.83,858.594 2708.79,847.696 2695.19,833.88 2684.54,817.674 2677.26,799.704 2673.63,780.658" style="stroke:rgb(0,0,0);stroke-width:1px;fill:none;stroke-opacity:1;stroke-linecap:round;stroke-linejoin:round;;fill:none"/>
<polyline points="2169.69,527.854 2169.84,502.262 2174.98,477.19 2184.92,453.604 2199.26,432.408 2217.47,414.418 2238.83,400.324 2262.53,390.67 2287.66,385.826 2313.26,385.978 2338.33,391.118 2361.91,401.052 2383.11,415.396 2401.1,433.6 2415.19,454.964 2424.85,478.668 2429.69,503.798 2429.54,529.39 2424.4,554.462 2414.47,578.05 2400.12,599.244 2381.92,617.234 2360.55,631.328 2336.85,640.982 2311.72,645.826 2286.13,645.674 2261.06,640.534 2237.47,630.6 2216.27,616.256 2198.28,598.052 2184.19,576.688 2174.54,552.986 2169.69,527.854" style="stroke:rgb(241,179,5);stroke-width:15.748031;fill:none;stroke-opacity:0.5;stroke-linecap:round;stroke-linejoin:round;;fill:none"/>
<polyline points="2169.69,527.854 2169.84,502.262 2174.98,477.19 2184.92,453.604 2199.26,432.408 2217.47,414.418 2238.83,400.324 2262.53,390.67 2287.66,385.826 2313.26,385.978 2338.33,391.118 2361.91,401.052 2383.11,415.396 2401.1,433.6 2415.19,454.964 2424.85,478.668 2429.69,503.798 2429.54,529.39 2424.4,554.462 2414.47,578.05 2400.12,599.244 2381.92,617.234 2360.55,631.328 2336.85,640.982 2311.72,645.826 2286.13,645.674 2261.06,640.534 2237.47,630.6 2216.27,616.256 2198.28,598.052 2184.19,576.688 2174.54,552.986 2169.69,527.854" style="stroke:rgb(0,0,0);stroke-width:1px;fill:none;stroke-opacity:1;stroke-linecap:round;stroke-linejoin:round;;fill:none"/>
<polyline points="1775.99,527.854 1776.14,502.262 1781.28,477.19 1791.22,453.604 1805.56,432.408 1823.77,414.418 1845.13,400.324 1868.83,390.67 1893.96,385.826 1919.56,385.978 1944.63,391.118 1968.21,401.052 1989.41,415.396 2007.4,433.6 2021.49,454.964 2031.15,478.668 2035.99,503.798 2035.84,529.39 2030.7,554.462 2020.76,578.05 2006.42,599.244 1988.22,617.234 1966.85,631.328 1943.15,640.982 1918.02,645.826 1892.43,645.674 1867.35,640.534 1843.77,630.6 1822.57,616.256 1804.58,598.052 1790.49,576.688 1780.84,552.986 1775.99,527.854" style="stroke:rgb(239,247,0);stroke-width:15.748031;fill:none;stroke-opacity:0.5;stroke-linecap:round;stroke-linejoin:round;;fill:none"/>
<polyline points="1775.99,527.854 1776.14,502.262 1781.28,477.19 1791.22,453.604 1805.56,432.408 1823.77,414.418 1845.13,400.324 1868.83,390.67 1893.96,385.826 1919.56,385.978 1944.63,391.118 1968.21,401.052 1989.41,415.396 2007.4,433.6 2021.49,454.964 2031.15,478.668 2035.99,503.798 2035.84,529.39 2030.7,554.462 2020.76,578.05 2006.42,599.244 1988.22,617.234 1966.85,631.328 1943.15,640.982 1918.02,645.826 1892.43,645.674 1867.35,640.534 1843.77,630.6 1822.57,616.256 1804.58,598.052 1790.49,576.688 1780.84,552.986 1775.99,527.854" style="stroke:rgb(0,0,0);stroke-width:1px;fill:none;stroke-opacity:1;stroke-linecap:round;stroke-linejoin:round;;fill:none"/>
<polyline points="1342.92,598.582 1342.92,354.33 1345.23,348.762 1350.79,346.456 1595.05,346.456 1600.61,348.762 1602.92,354.33 1602.92,598.582 1600.61,604.15 1595.05,606.456 1350.79,606.456 1345.23,604.15 1342.92,598.582" style="stroke:rgb(233,161,58);stroke-width:15.748031;fill:none;stroke-opacity:0.5;stroke-linecap:round;stroke-linejoin:round;;fill:none"/>
<polyline points="1342.92,598.582 1342.92,354.33 1345.23,348.762 1350.79,346.456 1595.05,346.456 1600.61,348.762 1602.92,354.33 1602.92,598.582 1600.61,604.15 1595.05,606.456 1350.79,606.456 1345.23,604.15 1342.92,598.582" style="stroke:rgb(0,0,0);stroke-width:1px;fill:none;stroke-opacity:1;stroke-linecap:round;stroke-linejoin:round;;fill:none"/>
<polyline points="2524.02,500.156 2524.02,334.646 2525.35,330.27 2527.52,328.098 2531.9,326.772 2776.15,326.772 2779.16,327.37 2782.7,330.27 2784.02,334.646 2784.02,500.156 2782.7,504.532 2780.52,506.704 2776.15,508.03 2531.9,508.03 2526.33,505.724 2524.02,500.156" style="stroke:rgb(229,202,11);stroke-width:15.748031;fill:none;stroke-opacity:0.5;stroke-linecap:round;stroke-linejoin:round;;fill:none"/>
<polyline points="2524.02,500.156 2524.02,334.646 2525.35,330.27 2527.52,328.098 2531.9,326.772 2776.15,326.772 2779.16,327.37 2782.7,330.27 2784.02,334.646 2784.02,500.156 2782.7,504.532 2780.52,506.704 2776.15,508.03 2531.9,508.03 2526.33,505.724 2524.02,500.156" style="stroke:rgb(0,0,0);stroke-width:1px;fill:none;stroke-opacity:1;stroke-linecap:round;stroke-linejoin:round;;fill:none"/>
<polyline points="1061.42,496.614 1061.42,441.338 1062.75,436.964 1066.28,434.064 1199.38,433.464 1203.75,434.79 1206.65,438.324 1207.25,496.614 1205.92,500.988 1202.39,503.888 1069.3,504.488 1063.73,502.182 1061.42,496.614" style="stroke:rgb(203,208,72);stroke-width:15.748031;fill:none;stroke-opacity:0.5;stroke-linecap:round;stroke-linejoin:round;;fill:none"/>
<polyline points="1061.42,496.614 1061.42,441.338 1062.75,436.964 1066.28,434.064 1199.38,433.464 1203.75,434.79 1206.65,438.324 1207.25,496.614 1205.92,500.988 1202.39,503.888 1069.3,504.488 1063.73,502.182 1061.42,496.614" style="stroke:rgb(0,0,0);stroke-width:1px;fill:none;stroke-opacity:1;stroke-linecap:round;stroke-linejoin:round;;fill:none"/>
<polyline points="636.227,496.614 636.227,441.338 637.553,436.964 641.087,434.064 774.179,433.464 778.553,434.79 781.453,438.324 782.053,496.614 780.725,500.988 777.193,503.888 644.101,504.488 638.533,502.182 636.227,496.614" style="stroke:rgb(71,100,189);stroke-width:15.748031;fill:none;stroke-opacity:0.5;stroke-linecap:round;stroke-linejoin:round;;fill:none"/>
<polyline points="636.227,496.614 636.227,441.338 637.553,436.964 641.087,434.064 774.179,433.464 778.553,434.79 781.453,438.324 782.053,496.614 780.725,500.988 777.193,503.888 644.101,504.488 638.533,502.182 636.227,496.614" style="stroke:rgb(0,0,0);stroke-width:1px;fill:none;stroke-opacity:1;stroke-linecap:round;stroke-linejoin:round;;fill:none"/>
<polyline points="1061.42,396.614 1061.42,341.338 1062.75,336.964 1066.28,334.064 1199.38,333.464 1203.75,334.79 1206.65,338.324 1207.25,396.614 1205.92,400.988 1202.39,403.888 1069.3,404.488 1063.73,402.182 1061.42,396.614" style="stroke:rgb(31,35,30);stroke-width:15.748031;fill:none;stroke-opacity:0.5;stroke-linecap:round;stroke-linejoin:round;;fill:none"/>
<polyline points="1061.42,396.614 1061.42,341.338 1062.75,336.964 1066.28,334.064 1199.38,333.464 1203.75,334.79 1206.65,338.324 1207.25,396.614 1205.92,400.988 1202.39,403.888 1069.3,404.488 1063.73,402.182 1061.42,396.614" style="stroke:rgb(0,0,0);stroke-width:1px;fill:none;stroke-opacity:1;stroke-linecap:round;stroke-linejoin:round;;fill:none"/>
<polyline points="636.227,396.614 636.227,341.338 637.553,336.964 641.087,334.064 774.179,333.464 778.553,334.79 781.453,338.324 782.053,396.614 780.725,400.988 777.193,403.888 644.101,404.488 638.533,402.182 636.227,396.614" style="stroke:rgb(168,28,123);stroke-width:15.748031;fill:none;stroke-opacity:0.5;stroke-linecap:round;stroke-linejoin:round;;fill:none"/>
<polyline points="636.227,396.614 636.227,341.338 637.553,336.964 641.087,334.064 774.179,333.464 778.553,334.79 781.453,338.324 782.053,396.614 780.725,400.988 777.193,403.888 644.101,404.488 638.533,402.182 636.227,396.614" style="stroke:rgb(0,0,0);stroke-width:1px;fill:none;stroke-opacity:1;stroke-linecap:round;stroke-linejoin:round;;fill:none"/>
<polyline points="2523.66,218.172 2525.26,200.406 2530.29,183.292 2538.57,167.49 2549.77,153.606 2563.46,142.172 2579.12,133.63 2596.14,128.308 2610.59,126.772 2698.23,126.808 2711.9,128.308 2728.93,133.63 2744.59,142.172 2757.19,152.514 2768.62,166.206 2777.75,183.292 2782.79,200.406 2784.38,216.63 2782.79,234.396 2777.75,251.51 2769.48,267.312 2758.28,281.196 2744.59,292.63 2728.93,301.172 2711.9,306.494 2697.46,308.03 2609.82,307.992 2596.14,306.494 2579.12,301.172 2564.74,293.488 2550.86,282.288 2538.57,267.312 2530.29,251.51 2525.56,235.91 2523.66,218.172" style="stroke:rgb(100,197,20);stroke-width:15.748031;fill:none;stroke-opacity:0.5;stroke-linecap:round;stroke-linejoin:round;;fill:none"/>
<polyline points="2523.66,218.172 2525.26,200.406 2530.29,183.292 2538.57,167.49 2549.77,153.606 2563.46,142.172 2579.12,133.63 2596.14,128.308 2610.59,126.772 2698.23,126.808 2711.9,128.308 2728.93,133.63 2744.59,142.172 2757.19,152.514 2768.62,166.206 2777.75,183.292 2782.79,200.406 2784.38,216.63 2782.79,234.396 2777.75,251.51 2769.48,267.312 2758.28,281.196 2744.59,292.63 2728.93,301.172 2711.9,306.494 2697.46,308.03 2609.82,307.992 2596.14,306.494 2579.12,301.172 2564.74,293.488 2550.86,282.288 2538.57,267.312 2530.29,251.51 2525.56,235.91 2523.66,218.172" style="stroke:rgb(0,0,0);stroke-width:1px;fill:none;stroke-opacity:1;stroke-linecap:round;stroke-linejoin:round;;fill:none"/>
<polyline points="1061.42,296.614 1061.42,241.338 1062.75,236.964 1066.28,234.064 1199.38,233.464 1203.75,234.79 1206.65,238.324 1207.25,296.614 1205.92,300.988 1202.39,303.888 1069.3,304.488 1063.73,302.182 1061.42,296.614" style="stroke:rgb(115,90,197);stroke-width:15.748031;fill:none;stroke-opacity:0.5;stroke-linecap:round;stroke-linejoin:round;;fill:none"/>
<polyline points="1061.42,296.614 1061.42,241.338 1062.75,236.964 1066.28,234.064 1199.38,233.464 1203.75,234.79 1206.65,238.324 1207.25,296.614 1205.92,300.988 1202.39,303.888 1069.3,304.488 1063.73,302.182 1061.42,296.614" style="stroke:rgb(0,0,0);stroke-width:1px;fill:none;stroke-opacity:1;stroke-linecap:round;stroke-linejoin:round;;fill:none"/>
<polyline points="636.227,296.614 636.227,241.338 637.553,236.964 641.087,234.064 774.179,233.464 778.553,234.79 781.453,238.324 782.053,296.614 780.725,300.988 777.193,303.888 644.101,304.488 638.533,302.182 636.227,296.614" style="stroke:rgb(94,75,121);stroke-width:15.748031;fill:none;stroke-opacity:0.5;stroke-linecap:round;stroke-linejoin:round;;fill:none"/>
<polyline points="636.227,296.614 636.227,241.338 637.553,236.964 641.087,234.064 774.179,233.464 778.553,234.79 781.453,238.324 782.053,296.614 780.725,300.988 777.193,303.888 644.101,304.488 638.533,302.182 636.227,296.614" style="stroke:rgb(0,0,0);stroke-width:1px;fill:none;stroke-opacity:1;stroke-linecap:round;stroke-linejoin:round;;fill:none"/>
<polyline points="114.573,170.422 114.723,151.032 118.655,132.046 126.215,114.192 137.113,98.1536 150.929,84.5516 167.133,73.9056 185.105,66.6256 204.151,62.9916 223.539,63.1416 242.525,67.0736 260.381,74.6336 276.417,85.5316 290.021,99.3476 300.667,115.552 307.947,133.524 311.581,152.57 311.429,171.958 307.499,190.944 299.939,208.8 289.041,224.836 275.225,238.44 259.019,249.086 241.049,256.366 222.003,260 202.613,259.848 183.627,255.918 165.773,248.358 149.735,237.46 136.133,223.644 125.487,207.438 118.207,189.468 114.573,170.422" style="stroke:rgb(99,59,112);stroke-width:15.748031;fill:none;stroke-opacity:0.5;stroke-linecap:round;stroke-linejoin:round;;fill:none"/>
<polyline points="114.573,170.422 114.723,151.032 118.655,132.046 126.215,114.192 137.113,98.1536 150.929,84.5516 167.133,73.9056 185.105,66.6256 204.151,62.9916 223.539,63.1416 242.525,67.0736 260.381,74.6336 276.417,85.5316 290.021,99.3476 300.667,115.552 307.947,133.524 311.581,152.57 311.429,171.958 307.499,190.944 299.939,208.8 289.041,224.836 275.225,238.44 259.019,249.086 241.049,256.366 222.003,260 202.613,259.848 183.627,255.918 165.773,248.358 149.735,237.46 136.133,223.644 125.487,207.438 118.207,189.468 114.573,170.422" style="stroke:rgb(0,0,0);stroke-width:1px;fill:none;stroke-opacity:1;stroke-linecap:round;stroke-linejoin:round;;fill:none"/>
<polyline points="1795.68,132.216 1795.83,110.5 1800.21,89.2316 1808.66,69.2256 1820.85,51.2556 1836.31,36.0076 1854.45,24.0676 1874.57,15.8976 1895.9,11.8096 1917.62,11.9616 1938.88,16.3456 1958.89,24.7956 1976.86,36.9856 1992.11,52.4476 2004.05,70.5876 2012.22,90.7076 2016.31,112.036 2016.15,133.752 2011.77,155.02 2003.32,175.024 1991.13,192.996 1975.67,208.244 1957.53,220.182 1937.41,228.352 1916.08,232.44 1894.37,232.29 1873.1,227.904 1853.09,219.454 1835.12,207.264 1819.87,191.802 1807.93,173.662 1799.76,153.542 1795.68,132.216" style="stroke:rgb(100,36,17);stroke-width:15.748031;fill:none;stroke-opacity:0.5;stroke-linecap:round;stroke-linejoin:round;;fill:none"/>
<polyline points="1795.68,132.216 1795.83,110.5 1800.21,89.2316 1808.66,69.2256 1820.85,51.2556 1836.31,36.0076 1854.45,24.0676 1874.57,15.8976 1895.9,11.8096 1917.62,11.9616 1938.88,16.3456 1958.89,24.7956 1976.86,36.9856 1992.11,52.4476 2004.05,70.5876 2012.22,90.7076 2016.31,112.036 2016.15,133.752 2011.77,155.02 2003.32,175.024 1991.13,192.996 1975.67,208.244 1957.53,220.182 1937.41,228.352 1916.08,232.44 1894.37,232.29 1873.1,227.904 1853.09,219.454 1835.12,207.264 1819.87,191.802 1807.93,173.662 1799.76,153.542 1795.68,132.216" style="stroke:rgb(0,0,0);stroke-width:1px;fill:none;stroke-opacity:1;stroke-linecap:round;stroke-linejoin:round;;fill:none"/>
<polyline points="2189.38,132.216 2189.53,110.5 2193.91,89.2316 2202.36,69.2256 2214.55,51.2556 2230.01,36.0076 2248.15,24.0676 2268.27,15.8976 2289.6,11.8096 2311.32,11.9616 2332.59,16.3456 2352.59,24.7956 2370.56,36.9856 2385.81,52.4476 2397.75,70.5876 2405.92,90.7076 2410.01,112.036 2409.86,133.752 2405.47,155.02 2397.02,175.024 2384.83,192.996 2369.37,208.244 2351.23,220.182 2331.11,228.352 2309.78,232.44 2288.07,232.29 2266.8,227.904 2246.79,219.454 2228.82,207.264 2213.57,191.802 2201.64,173.662 2193.46,153.542 2189.38,132.216" style="stroke:rgb(158,9,220);stroke-width:15.748031;fill:none;stroke-opacity:0.5;stroke-linecap:round;stroke-linejoin:round;;fill:none"/>
<polyline points="2189.38,132.216 2189.53,110.5 2193.91,89.2316 2202.36,69.2256 2214.55,51.2556 2230.01,36.0076 2248.15,24.0676 2268.27,15.8976 2289.6,11.8096 2311.32,11.9616 2332.59,16.3456 2352.59,24.7956 2370.56,36.9856 2385.81,52.4476 2397.75,70.5876 2405.92,90.7076 2410.01,112.036 2409.86,133.752 2405.47,155.02 2397.02,175.024 2384.83,192.996 2369.37,208.244 2351.23,220.182 2331.11,228.352 2309.78,232.44 2288.07,232.29 2266.8,227.904 2246.79,219.454 2228.82,207.264 2213.57,191.802 2201.64,173.662 2193.46,153.542 2189.38,132.216" style="stroke:rgb(0,0,0);stroke-width:1px;fill:none;stroke-opacity:1;stroke-linecap:round;stroke-linejoin:round;;fill:none"/>
<polyline points="636.227,196.614 636.227,141.338 637.553,136.964 641.087,134.064 774.179,133.464 778.553,134.79 781.453,138.324 782.053,196.614 780.725,200.988 777.193,203.888 644.101,204.488 638.533,202.182 636.227,196.614" style="stroke:rgb(170,212,172);stroke-width:15.748031;fill:none;stroke-opacity:0.5;stroke-linecap:round;stroke-linejoin:round;;fill:none"/>
<polyline points="636.227,196.614 636.227,141.338 637.553,136.964 641.087,134.064 774.179,133.464 778.553,134.79 781.453,138.324 782.053,196.614 780.725,200.988 777.193,203.888 644.101,204.488 638.533,202.182 636.227,196.614" style="stroke:rgb(0,0,0);stroke-width:1px;fill:none;stroke-opacity:1;stroke-linecap:round;stroke-linejoin:round;;fill:none"/>
<polyline points="1061.42,196.614 1061.42,141.338 1062.75,136.964 1066.28,134.064 1199.38,133.464 1203.75,134.79 1206.65,138.324 1207.25,196.614 1205.92,200.988 1202.39,203.888 1069.3,204.488 1063.73,202.182 1061.42,196.614" style="stroke:rgb(242,27,16);stroke-width:15.748031;fill:none;stroke-opacity:0.5;stroke-linecap:round;stroke-linejoin:round;;fill:none"/>
<polyline points="1061.42,196.614 1061.42,141.338 1062.75,136.964 1066.28,134.064 1199.38,133.464 1203.75,134.79 1206.65,138.324 1207.25,196.614 1205.92,200.988 1202.39,203.888 1069.3,204.488 1063.73,202.182 1061.42,196.614" style="stroke:rgb(0,0,0);stroke-width:1px;fill:none;stroke-opacity:1;stroke-linecap:round;stroke-linejoin:round;;fill:none"/>
</svg>
